<?xml version="1.0" encoding="UTF-8" standalone="no"?>
<svg
   xmlns:dc="http://purl.org/dc/elements/1.1/"
   xmlns:cc="http://creativecommons.org/ns#"
   xmlns:rdf="http://www.w3.org/1999/02/22-rdf-syntax-ns#"
   xmlns:svg="http://www.w3.org/2000/svg"
   xmlns="http://www.w3.org/2000/svg"
   xmlns:sodipodi="http://sodipodi.sourceforge.net/DTD/sodipodi-0.dtd"
   xmlns:inkscape="http://www.inkscape.org/namespaces/inkscape"
   width="48"
   height="51"
   viewBox="0 0 48 51"
   fill="none"
   version="1.1"
   id="svg4"
   sodipodi:docname="image 9 (Traced).svg"
   inkscape:version="1.0.1 (1.0.1+r73)">
  <metadata
     id="metadata10">
    <rdf:RDF>
      <cc:Work
         rdf:about="">
        <dc:format>image/svg+xml</dc:format>
        <dc:type
           rdf:resource="http://purl.org/dc/dcmitype/StillImage" />
        <dc:title></dc:title>
      </cc:Work>
    </rdf:RDF>
  </metadata>
  <defs
     id="defs8" />
  <sodipodi:namedview
     pagecolor="#ffffff"
     bordercolor="#666666"
     borderopacity="1"
     objecttolerance="10"
     gridtolerance="10"
     guidetolerance="10"
     inkscape:pageopacity="0"
     inkscape:pageshadow="2"
     inkscape:window-width="1366"
     inkscape:window-height="705"
     id="namedview6"
     showgrid="false"
     inkscape:zoom="4.9336769"
     inkscape:cx="35.289794"
     inkscape:cy="28.340815"
     inkscape:window-x="0"
     inkscape:window-y="30"
     inkscape:window-maximized="1"
     inkscape:current-layer="svg4" />
  <path
     fill-rule="evenodd"
     clip-rule="evenodd"
     d="m 19.836366,10.743181 c 0,0.02593 -0.04163,0.04715 -0.09257,0.04715 -0.05086,0 -0.0925,0.02122 -0.0925,0.04715 0,0.02593 -0.04163,0.04715 -0.09257,0.04715 -0.06166,0 -0.0925,0.03145 -0.0925,0.09429 0,0.05186 -0.02086,0.09429 -0.04625,0.09429 -0.02546,0 -0.04631,0.0619 -0.04631,0.137526 0,0.07562 -0.02595,0.149878 -0.05781,0.165012 -0.04625,0.02197 -0.04625,0.033 0,0.05497 0.03805,0.01816 0.05781,0.138847 0.05781,0.353603 0,0.185989 0.01989,0.326109 0.04631,0.326109 0.02567,0 0.04625,0.125743 0.04625,0.282881 0,0.157134 0.02051,0.282876 0.04625,0.282876 0.02643,0 0.04625,0.141441 0.04625,0.330025 0,0.188583 0.01988,0.330024 0.04625,0.330024 0.02574,0 0.04631,0.125736 0.04631,0.282875 0,0.15714 0.02051,0.282883 0.04625,0.282883 0.02643,0 0.04625,0.141434 0.04625,0.330024 0,0.188585 0.01982,0.330025 0.04625,0.330025 0.02574,0 0.04631,0.125737 0.04631,0.282875 0,0.157139 0.02051,0.282882 0.04625,0.282882 0.02643,0 0.04625,0.141435 0.04625,0.330027 0,0.188583 0.01982,0.330024 0.04625,0.330024 0.02574,0 0.04625,0.125735 0.04625,0.282876 0,0.157138 0.02058,0.282875 0.04632,0.282875 0.02636,0 0.04625,0.141441 0.04625,0.330024 0,0.188591 0.01982,0.330026 0.04625,0.330026 0.02574,0 0.04625,0.125743 0.04625,0.282882 0,0.157139 0.02058,0.282854 0.04625,0.282854 0.07206,0 0.05526,0.421943 -0.01982,0.498402 -0.04143,0.04232 -0.162073,0.06738 -0.323803,0.06738 -0.141771,0 -0.257735,0.02119 -0.257735,0.04714 0,0.02595 -0.104124,0.04714 -0.231308,0.04714 -0.127251,0 -0.231308,0.02119 -0.231308,0.04714 0,0.02594 -0.08328,0.04714 -0.18506,0.04714 -0.10179,0 -0.185059,0.02127 -0.185059,0.04714 0,0.02595 -0.08328,0.04714 -0.18506,0.04714 -0.101791,0 -0.18506,0.02127 -0.18506,0.04714 0,0.02595 -0.08328,0.04714 -0.18506,0.04714 -0.10179,0 -0.18506,0.02127 -0.18506,0.04721 0,0.02587 -0.06242,0.04714 -0.138744,0.04714 -0.07633,0 -0.138812,0.02119 -0.138812,0.04714 0,0.02588 -0.08328,0.04714 -0.18506,0.04714 -0.10179,0 -0.184992,0.02119 -0.184992,0.04714 0,0.02595 -0.06249,0.04714 -0.138811,0.04714 -0.07633,0 -0.138812,0.02119 -0.138812,0.04714 0,0.02595 -0.06242,0.04714 -0.138744,0.04714 -0.07639,0 -0.138812,0.02119 -0.138812,0.04714 0,0.02594 -0.06249,0.04714 -0.138812,0.04714 -0.07633,0 -0.138744,0.02119 -0.138744,0.04714 0,0.02595 -0.06249,0.04714 -0.138812,0.04714 -0.07633,0 -0.138812,0.02119 -0.138812,0.04714 0,0.02595 -0.04163,0.04714 -0.0925,0.04714 -0.05085,0 -0.0925,0.02127 -0.0925,0.04714 0,0.02594 -0.08328,0.04714 -0.18506,0.04714 -0.154228,0 -0.18506,-0.01569 -0.18506,-0.09429 0,-0.05183 -0.02086,-0.09429 -0.04625,-0.09429 -0.02546,0 -0.04632,-0.06366 -0.04632,-0.141427 0,-0.07777 -0.02079,-0.141428 -0.04625,-0.141428 -0.02539,0 -0.04625,-0.04246 -0.04625,-0.09429 0,-0.05189 -0.02079,-0.09429 -0.04625,-0.09429 -0.02546,0 -0.04625,-0.04246 -0.04625,-0.09436 0,-0.05183 -0.02086,-0.09429 -0.04631,-0.09429 -0.02539,0 -0.04625,-0.0424 -0.04625,-0.09429 0,-0.05182 -0.02079,-0.09429 -0.04625,-0.09429 -0.02546,0 -0.04625,-0.06366 -0.04625,-0.141428 0,-0.07777 -0.02086,-0.141427 -0.04625,-0.141427 -0.02546,0 -0.04631,-0.04246 -0.04631,-0.09429 0,-0.05189 -0.02078,-0.09429 -0.04625,-0.09429 -0.02546,0 -0.04625,-0.04246 -0.04625,-0.09435 0,-0.05183 -0.02086,-0.09429 -0.04625,-0.09429 -0.02546,0 -0.04631,-0.04241 -0.04631,-0.09427 0,-0.05186 -0.02079,-0.09429 -0.04625,-0.09429 -0.02539,0 -0.04625,-0.06364 -0.04625,-0.14144 0,-0.07779 -0.02079,-0.141435 -0.04625,-0.141435 -0.02546,0 -0.04625,-0.04244 -0.04625,-0.0943 0,-0.05186 -0.02086,-0.0943 -0.04631,-0.0943 -0.02539,0 -0.04625,-0.04243 -0.04625,-0.09429 0,-0.05186 -0.02079,-0.0943 -0.04625,-0.0943 -0.02546,0 -0.04625,-0.06364 -0.04625,-0.14144 0,-0.07779 -0.02086,-0.141435 -0.04625,-0.141435 -0.02546,0 -0.04631,-0.04244 -0.04631,-0.0943 0,-0.05186 -0.02079,-0.09429 -0.04625,-0.09429 -0.02546,0 -0.04625,-0.04243 -0.04625,-0.0943 0,-0.05186 -0.02086,-0.09429 -0.04625,-0.09429 -0.02546,0 -0.04631,-0.04243 -0.04631,-0.09429 0,-0.05187 -0.02079,-0.0943 -0.04625,-0.0943 -0.02539,0 -0.04625,-0.06365 -0.04625,-0.141441 0,-0.07779 -0.02079,-0.141442 -0.04625,-0.141442 -0.02546,0 -0.04625,-0.04243 -0.04625,-0.09429 0,-0.05186 -0.02086,-0.09429 -0.04632,-0.09429 -0.02539,0 -0.04625,-0.04243 -0.04625,-0.0943 0,-0.05186 -0.02079,-0.09429 -0.04625,-0.09429 -0.02546,0 -0.04625,-0.04244 -0.04625,-0.0943 0,-0.05186 -0.02085,-0.0943 -0.04625,-0.0943 -0.02546,0 -0.04631,-0.06364 -0.04631,-0.141434 0,-0.07779 -0.02079,-0.141441 -0.04625,-0.141441 -0.02546,0 -0.04625,-0.04243 -0.04625,-0.09429 0,-0.05187 -0.02085,-0.0943 -0.04625,-0.0943 -0.02546,0 -0.04625,-0.04244 -0.04625,-0.09429 0,-0.05187 -0.02085,-0.0943 -0.04632,-0.0943 -0.02539,0 -0.04625,-0.06364 -0.04625,-0.141435 0,-0.07779 -0.02079,-0.14144 -0.04625,-0.14144 -0.02546,0 -0.04625,-0.04243 -0.04625,-0.0943 0,-0.05186 -0.02085,-0.09429 -0.04632,-0.09429 -0.0254,0 -0.04625,-0.04244 -0.04625,-0.0943 0,-0.05187 -0.02079,-0.0943 -0.04625,-0.0943 -0.02546,0 -0.04625,-0.04244 -0.04625,-0.0943 0,-0.05186 -0.02085,-0.09429 -0.04625,-0.09429 -0.02546,0 -0.04631,-0.06364 -0.04631,-0.141436 0,-0.07779 -0.02079,-0.14144 -0.04625,-0.14144 -0.02546,0 -0.04625,-0.03253 -0.04625,-0.07228 0,-0.118813 -0.307631,-0.399191 -0.437978,-0.399191 -0.06442,0 -0.117202,-0.02121 -0.117202,-0.04714 0,-0.02594 -0.04163,-0.04715 -0.0925,-0.04715 -0.05085,0 -0.0925,0.02121 -0.0925,0.04715 0,0.02592 -0.05299,0.04714 -0.117753,0.04714 -0.129865,0 -0.344931,0.189768 -0.344931,0.304335 0,0.04007 -0.02079,0.07284 -0.04625,0.07284 -0.02539,0 -0.04625,0.106074 -0.04625,0.235733 0,0.129653 0.02086,0.235726 0.04625,0.235726 0.02546,0 0.04625,0.06365 0.04625,0.141441 0,0.07779 0.02086,0.141442 0.04632,0.141442 0.02539,0 0.04625,0.04243 0.04625,0.09429 0,0.05187 0.02079,0.0943 0.04625,0.0943 0.02546,0 0.04625,0.04244 0.04625,0.09429 0,0.05186 0.02086,0.09429 0.04632,0.09429 0.02539,0 0.04625,0.04244 0.04625,0.0943 0,0.05187 0.02079,0.0943 0.04625,0.0943 0.02546,0 0.04625,0.06364 0.04625,0.141434 0,0.07779 0.02086,0.141441 0.04625,0.141441 0.02546,0 0.04631,0.04244 0.04631,0.09429 0,0.05187 0.02079,0.0943 0.04625,0.0943 0.02546,0 0.04625,0.04244 0.04625,0.09429 0,0.05187 0.02086,0.0943 0.04625,0.0943 0.02546,0 0.04625,0.04243 0.04625,0.0943 0,0.05186 0.02085,0.09429 0.04631,0.09429 0.02539,0 0.04625,0.06364 0.04625,0.141442 0,0.07779 0.02078,0.141433 0.04625,0.141433 0.02546,0 0.04625,0.04244 0.04625,0.0943 0,0.05186 0.02085,0.0943 0.04625,0.0943 0.02546,0 0.04631,0.04243 0.04631,0.09429 0,0.05186 0.02079,0.0943 0.04625,0.0943 0.02546,0 0.04625,0.06364 0.04625,0.141441 0,0.07779 0.02085,0.141434 0.04625,0.141434 0.02546,0 0.04632,0.04244 0.04632,0.09429 0,0.05187 0.02079,0.0943 0.04625,0.0943 0.02539,0 0.04625,0.04243 0.04625,0.0943 0,0.05186 0.02079,0.09429 0.04625,0.09429 0.02546,0 0.04625,0.04243 0.04625,0.09429 0,0.05187 0.02085,0.0943 0.04631,0.0943 0.0254,0 0.04625,0.06364 0.04625,0.14144 0,0.07779 0.02079,0.141442 0.04625,0.141442 0.02546,0 0.04625,0.04243 0.04625,0.0943 0,0.05186 0.02085,0.0943 0.04625,0.0943 0.02546,0 0.04632,0.04243 0.04632,0.09429 0,0.05186 0.02079,0.09429 0.04625,0.09429 0.02546,0 0.04625,0.04244 0.04625,0.09427 0,0.05189 0.02085,0.09429 0.04625,0.09429 0.02546,0 0.04632,0.06366 0.04632,0.141497 0,0.07777 0.02079,0.141427 0.04625,0.141427 0.02539,0 0.04625,0.0424 0.04625,0.09429 0,0.05183 0.02079,0.09429 0.04625,0.09429 0.02546,0 0.04625,0.04246 0.04625,0.09429 0,0.05189 0.02085,0.09429 0.04631,0.09429 0.02539,0 0.04625,0.06366 0.04625,0.141428 0,0.07783 0.02079,0.141497 0.04625,0.141497 0.02546,0 0.04625,0.0424 0.04625,0.09429 0,0.05183 0.02085,0.09429 0.04625,0.09429 0.02546,0 0.04632,0.0424 0.04632,0.09429 0,0.05183 0.02079,0.09429 0.04625,0.09429 0.02546,0 0.04625,0.04246 0.04625,0.09429 0,0.05189 0.02085,0.09429 0.04625,0.09429 0.02546,0 0.04625,0.06366 0.04625,0.141427 0,0.07783 0.02085,0.141497 0.04631,0.141497 0.02539,0 0.04625,0.0424 0.04625,0.09429 0,0.05183 0.02079,0.09429 0.04625,0.09429 0.02546,0 0.04625,0.06366 0.04625,0.141427 0,0.109976 -0.02051,0.141427 -0.0925,0.141427 -0.05093,0 -0.09257,0.02119 -0.09257,0.04714 0,0.02595 -0.04157,0.04714 -0.0925,0.04714 -0.05086,0 -0.0925,0.02127 -0.0925,0.04714 0,0.02594 -0.04163,0.04714 -0.09257,0.04714 -0.05086,0 -0.0925,0.02127 -0.0925,0.04714 0,0.02595 -0.04163,0.04721 -0.09256,0.04721 -0.05086,0 -0.0925,0.02119 -0.0925,0.04714 0,0.02588 -0.04163,0.04714 -0.0925,0.04714 -0.05093,0 -0.09257,0.02119 -0.09257,0.04714 0,0.02588 -0.04163,0.04714 -0.0925,0.04714 -0.05093,0 -0.09257,0.02119 -0.09257,0.04715 0,0.02594 -0.03703,0.04714 -0.08231,0.04714 -0.04529,0 -0.112317,0.0424 -0.148999,0.09429 -0.03668,0.05189 -0.103715,0.09429 -0.148998,0.09429 -0.04521,0 -0.08231,0.02119 -0.08231,0.04714 0,0.02595 -0.04163,0.04714 -0.0925,0.04714 -0.05093,0 -0.09256,0.02119 -0.09256,0.04714 0,0.02594 -0.03703,0.04714 -0.08231,0.04714 -0.04528,0 -0.112316,0.04246 -0.148998,0.09429 -0.03668,0.05189 -0.0991,0.09435 -0.138744,0.09435 -0.03971,0 -0.102125,0.0424 -0.138811,0.09429 -0.03668,0.05183 -0.09917,0.09429 -0.138813,0.09429 -0.03964,0 -0.102062,0.0424 -0.138743,0.09429 -0.03668,0.05183 -0.09917,0.09429 -0.138813,0.09429 -0.03964,0 -0.102125,0.04246 -0.138811,0.09429 -0.03668,0.05189 -0.0991,0.09429 -0.138744,0.09429 -0.03964,0 -0.102125,0.04246 -0.138812,0.09429 -0.03668,0.05189 -0.09539,0.09429 -0.130485,0.09429 -0.03497,0 -0.122019,0.06366 -0.193318,0.141496 -0.0713,0.07777 -0.154022,0.141427 -0.183821,0.141427 -0.06944,0 -0.186299,-0.11851 -0.186299,-0.188915 0,-0.0298 -0.08328,-0.135784 -0.18506,-0.235437 -0.10179,-0.09965 -0.18506,-0.205705 -0.18506,-0.235712 0,-0.03 -0.08328,-0.136059 -0.18506,-0.235712 -0.101717,-0.09966 -0.184991,-0.205775 -0.184991,-0.235781 0,-0.02993 -0.08328,-0.136059 -0.1850599,-0.235712 -0.10179,-0.09965 -0.18506,-0.205706 -0.18506,-0.235713 0,-0.03001 -0.08328,-0.136059 -0.1850598,-0.235712 -0.1017901,-0.09972 -0.1850599,-0.205499 -0.1850599,-0.235161 0,-0.0296 -0.1040612,-0.157188 -0.2313082,-0.283474 -0.1271811,-0.126288 -0.2313075,-0.253882 -0.2313075,-0.283475 0,-0.02966 -0.083276,-0.13544 -0.1850599,-0.235162 -0.1017901,-0.09966 -0.18506,-0.205706 -0.18506,-0.235712 0,-0.03 -0.083276,-0.136059 -0.18506,-0.235712 -0.1017168,-0.09966 -0.1849919,-0.205775 -0.1849919,-0.235781 0,-0.02994 -0.083276,-0.13606 -0.1850599,-0.235713 -0.1017901,-0.09966 -0.18506,-0.20543 -0.18506,-0.235092 0,-0.0296 -0.1041239,-0.157188 -0.2313071,-0.283475 -0.1272502,-0.126355 -0.2313082,-0.253915 -0.2313082,-0.283522 0,-0.02966 -0.083287,-0.135453 -0.18506,-0.23512 -0.1017586,-0.09979 -0.1850316,-0.204643 -0.1850316,-0.233169 0,-0.02853 -0.1140372,-0.168123 -0.2534203,-0.310177 C 6.3781179,16.44996 6.373582,16.447744 6.0958204,16.447744 c -0.2579069,0 -0.2927925,0.01291 -0.4404624,0.163457 -0.088227,0.08986 -0.1603869,0.19594 -0.1603869,0.235726 0,0.03975 -0.020816,0.07228 -0.046259,0.07228 -0.025453,0 -0.046269,0.06365 -0.046269,0.141441 0,0.07779 0.020816,0.141441 0.046269,0.141441 0.025442,0 0.046259,0.05511 0.046259,0.122529 0,0.07534 0.053428,0.173409 0.1387845,0.254618 0.076327,0.07267 0.1387845,0.156843 0.1387845,0.186986 0,0.03022 0.1040926,0.158221 0.2313145,0.284507 0.1272229,0.126286 0.2313145,0.253881 0.2313145,0.283474 0,0.02966 0.083266,0.135441 0.1850463,0.235162 0.1017796,0.09965 0.1850537,0.205707 0.1850537,0.235712 0,0.03 0.083266,0.13606 0.1850453,0.235713 0.1017796,0.09965 0.1850537,0.205775 0.1850537,0.235712 0,0.03001 0.083266,0.13606 0.1850463,0.235781 0.1017587,0.09966 0.1850317,0.205431 0.1850317,0.235093 0,0.0296 0.104124,0.157188 0.2313082,0.283474 0.1272502,0.126355 0.2313082,0.253881 0.2313082,0.283543 0,0.0296 0.083276,0.135439 0.1850599,0.235092 0.1017901,0.09966 0.18506,0.205776 0.18506,0.235714 0,0.03 0.083276,0.136059 0.18506,0.235712 0.10179,0.09972 0.1850599,0.2055 0.1850599,0.235162 0,0.0296 0.1040612,0.157187 0.2313072,0.283473 0.1271814,0.126287 0.2313085,0.253881 0.2313085,0.283474 0,0.02966 0.083276,0.135509 0.1850599,0.235162 0.1017901,0.09965 0.18506,0.205707 0.18506,0.235712 0,0.03 0.083276,0.13606 0.1849912,0.235713 0.10179,0.09972 0.18506,0.214653 0.18506,0.255671 0,0.04088 0.02085,0.07439 0.04625,0.07439 0.145695,0 -0.04831,0.239361 -0.8789826,1.084346 -0.5088639,0.517672 -0.925231,0.964184 -0.925231,0.992262 0,0.02815 -0.1040612,0.154366 -0.2313082,0.280722 -0.1271811,0.126287 -0.2313082,0.252848 -0.2313082,0.28134 0,0.0841 -0.338125,0.405701 -0.3591288,0.34156 -0.010256,-0.03145 -0.053993,-0.0572 -0.097143,-0.0572 -0.043119,0 -0.1084422,-0.0424 -0.1451299,-0.09429 -0.036683,-0.05183 -0.095395,-0.09429 -0.130458,-0.09429 -0.035018,0 -0.1220884,-0.06366 -0.1933729,-0.141427 -0.071293,-0.07777 -0.1583576,-0.141429 -0.1933813,-0.141429 -0.03506,0 -0.093773,-0.04246 -0.1304569,-0.09429 -0.036693,-0.05189 -0.099142,-0.09435 -0.1387918,-0.09435 -0.039644,0 -0.1020936,-0.0424 -0.1387845,-0.09429 -0.036693,-0.05183 -0.099142,-0.09429 -0.1387845,-0.09429 -0.039644,0 -0.1021041,-0.0424 -0.1387918,-0.09429 -0.036683,-0.05183 -0.095396,-0.09429 -0.1304569,-0.09429 -0.035018,0 -0.1220885,-0.06366 -0.1933802,-0.141428 -0.071282,-0.07783 -0.1583514,-0.141427 -0.193374,-0.141427 -0.03506,0 -0.093773,-0.04246 -0.1304569,-0.09429 -0.036693,-0.05189 -0.099142,-0.09435 -0.1387918,-0.09435 -0.039644,0 -0.1021041,-0.0424 -0.1387845,-0.09429 -0.036693,-0.05183 -0.095396,-0.09429 -0.1304642,-0.09429 -0.035018,0 -0.1220822,-0.06366 -0.193374,-0.141427 -0.071293,-0.07777 -0.1583565,-0.141428 -0.1933802,-0.141428 -0.03506,0 -0.093773,-0.04246 -0.1304569,-0.09429 -0.036693,-0.05189 -0.099142,-0.09429 -0.1387845,-0.09429 -0.039644,0 -0.1021041,-0.04246 -0.1387918,-0.09429 -0.036683,-0.05189 -0.095396,-0.09435 -0.130458,-0.09435 -0.035019,0 -0.1220884,-0.06359 -0.1933729,-0.141428 -0.071293,-0.07777 -0.1583576,-0.141427 -0.1933802,-0.141427 -0.03506,0 -0.093773,-0.0424 -0.130458,-0.09429 -0.036693,-0.05189 -0.099142,-0.09429 -0.1387908,-0.09429 -0.039644,0 -0.1020936,-0.04246 -0.1387855,-0.09429 -0.036682,-0.05189 -0.099142,-0.09429 -0.1387845,-0.09429 -0.039644,0 -0.1021041,-0.04246 -0.1387908,-0.09435 -0.036682,-0.05183 -0.095395,-0.09429 -0.1304579,-0.09429 -0.035019,0 -0.1220885,-0.06359 -0.1933803,-0.141427 -0.071282,-0.07777 -0.1583502,-0.141428 -0.1933739,-0.141428 -0.03506,0 -0.093773,-0.04246 -0.1304569,-0.09429 -0.036693,-0.05189 -0.099142,-0.09429 -0.1387918,-0.09429 -0.039644,0 -0.1021041,-0.04246 -0.1387845,-0.09429 -0.036693,-0.05189 -0.099142,-0.09429 -0.1387919,-0.09429 -0.039644,0 -0.1020936,-0.04246 -0.1387845,-0.09435 -0.036682,-0.05183 -0.1037157,-0.09429 -0.1490106,-0.09429 -0.045243,0 -0.082303,-0.02119 -0.082303,-0.04715 0,-0.02588 -0.1151925,-0.04714 -0.25596658,-0.04714 -0.2304332,0 -0.2720221,0.01632 -0.4163619,0.16345 -0.0882159,0.08988 -0.16039104,0.195934 -0.16039104,0.235781 0,0.03971 -0.0208164,0.07227 -0.0462587,0.07227 -0.0254423,0 -0.0462587,0.08486 -0.0462587,0.18857 0,0.103715 0.0208164,0.18857 0.0462587,0.18857 0.0254423,0 0.0462587,0.03255 0.0462587,0.07227 0,0.08348 0.29510754,0.399231 0.37310584,0.399231 0.028823,0 0.1107519,0.06366 0.1820426,0.141427 0.071282,0.07777 0.15835968,0.141429 0.19337608,0.141429 0.035071,0 0.093773,0.04246 0.1304631,0.09429 0.036683,0.05189 0.099142,0.09429 0.1387856,0.09429 0.039644,0 0.1021041,0.04246 0.1387845,0.09435 0.036693,0.05183 0.095395,0.09429 0.1304642,0.09429 0.035019,0 0.1220811,0.06359 0.1933729,0.141427 0.071293,0.07777 0.1583576,0.141427 0.1933813,0.141427 0.03506,0 0.093763,0.04246 0.1304569,0.09429 0.036693,0.05189 0.099142,0.09429 0.1387845,0.09429 0.039644,0 0.1021041,0.04246 0.1387918,0.09429 0.036682,0.05189 0.095395,0.09429 0.1304569,0.09429 0.035018,0 0.1220885,0.06366 0.1933802,0.141496 0.071282,0.07777 0.1583514,0.141427 0.193374,0.141427 0.03506,0 0.093773,0.0424 0.1304569,0.09429 0.036693,0.05183 0.099142,0.09429 0.1387918,0.09429 0.039644,0 0.1021041,0.04246 0.1387845,0.09429 0.036693,0.05189 0.095395,0.09429 0.1304642,0.09429 0.035019,0 0.1220822,0.06366 0.193374,0.141427 0.071293,0.07783 0.1583576,0.141496 0.1933729,0.141496 0.035071,0 0.093773,0.0424 0.1304642,0.09429 0.036693,0.05183 0.099142,0.09429 0.1387845,0.09429 0.039644,0 0.1021041,0.0424 0.1387919,0.09429 0.036683,0.05183 0.099142,0.09429 0.1387845,0.09429 0.039644,0 0.102104,0.04246 0.1387845,0.09429 0.036693,0.05189 0.095396,0.09429 0.1304642,0.09429 0.035018,0 0.1220821,0.06366 0.1933739,0.141427 0.071293,0.07783 0.1583576,0.141496 0.1933803,0.141496 0.03506,0 0.093773,0.0424 0.1304579,0.09429 0.036682,0.05183 0.099142,0.09429 0.1387845,0.09429 0.039644,0 0.1021041,0.0424 0.1387908,0.09429 0.036683,0.05189 0.095396,0.09429 0.1304579,0.09429 0.035018,0 0.1220885,0.06366 0.1933803,0.141428 0.071282,0.07783 0.1583502,0.141428 0.1933739,0.141428 0.03506,0 0.093773,0.04246 0.1304569,0.09435 0.036693,0.05183 0.1037158,0.09429 0.1490117,0.09429 0.1175117,0 0.1100172,0.241699 -0.010257,0.329997 -0.050895,0.03737 -0.092528,0.10571 -0.092528,0.151889 0,0.04611 -0.020816,0.08382 -0.046269,0.08382 -0.025442,0 -0.046259,0.03778 -0.046259,0.08389 0,0.04617 -0.041633,0.114449 -0.092528,0.151888 -0.050884,0.03737 -0.092528,0.105641 -0.092528,0.15182 0,0.04611 -0.020816,0.08389 -0.046259,0.08389 -0.025442,0 -0.046259,0.0424 -0.046259,0.09429 0,0.05189 -0.020816,0.09429 -0.046269,0.09429 -0.025442,0 -0.046259,0.04246 -0.046259,0.09429 0,0.05189 -0.020816,0.09429 -0.046259,0.09429 -0.025442,0 -0.046259,0.04246 -0.046259,0.09429 0,0.05189 -0.020816,0.09436 -0.046259,0.09436 -0.025442,0 -0.046259,0.0424 -0.046259,0.09429 0,0.05183 -0.020816,0.09429 -0.046259,0.09429 -0.025442,0 -0.046259,0.06366 -0.046259,0.141427 0,0.07777 0.020816,0.141427 0.046259,0.141427 0.025442,0 0.046259,0.05402 0.046259,0.120024 0,0.154504 0.193284,0.35147 0.3448838,0.35147 0.064773,0 0.1177389,0.02119 0.1177389,0.04714 0,0.02594 0.06246,0.04714 0.1387845,0.04714 0.076337,0 0.1387918,-0.02119 0.1387918,-0.04714 0,-0.02595 0.053522,-0.04714 0.1189362,-0.04714 0.1289362,0 0.2511628,-0.09656 0.2511628,-0.198411 0,-0.03503 0.041633,-0.09421 0.092528,-0.131656 0.050885,-0.03737 0.092528,-0.105708 0.092528,-0.151818 0,-0.04611 0.020816,-0.08389 0.046259,-0.08389 0.025453,0 0.046269,-0.04246 0.046269,-0.09429 0,-0.05189 0.020806,-0.09429 0.046259,-0.09429 0.025442,0 0.046259,-0.04246 0.046259,-0.09429 0,-0.05189 0.020816,-0.09429 0.046259,-0.09429 0.025442,0 0.046259,-0.03778 0.046259,-0.08389 0,-0.04617 0.041612,-0.114451 0.092538,-0.151889 0.050864,-0.03737 0.092497,-0.105709 0.092497,-0.151819 0,-0.04611 0.020858,-0.08389 0.046248,-0.08389 0.025463,0 0.046311,-0.03778 0.046311,-0.08389 0,-0.04611 0.041633,-0.114449 0.092497,-0.151819 0.050926,-0.03744 0.09257,-0.101026 0.09257,-0.141427 0,-0.04047 0.041633,-0.104061 0.092497,-0.141496 0.050864,-0.03737 0.092496,-0.101027 0.092496,-0.141429 0,-0.0404 0.041633,-0.104061 0.092559,-0.141427 0.050864,-0.03737 0.092497,-0.09725 0.092497,-0.132962 0,-0.03565 0.062491,-0.124429 0.1388117,-0.197035 0.076327,-0.07267 0.1387437,-0.157118 0.1387437,-0.187675 0,-0.03049 0.083276,-0.137022 0.1850599,-0.236675 0.1017901,-0.09966 0.18506,-0.205432 0.18506,-0.235094 0,-0.0296 0.1041239,-0.157188 0.2313075,-0.283543 0.1272501,-0.126286 0.2313082,-0.252366 0.2313082,-0.280102 0,-0.06642 1.6036001,-1.700019 1.6687741,-1.700019 0.0276,0 0.13021,-0.08486 0.228005,-0.18857 0.09779,-0.103716 0.20192,-0.188569 0.231307,-0.188569 0.02945,0 0.133513,-0.08486 0.231308,-0.188639 0.09779,-0.103716 0.202334,-0.188569 0.232271,-0.188569 0.02993,0 0.112798,-0.06366 0.184096,-0.141429 0.0713,-0.07777 0.158358,-0.141427 0.193388,-0.141427 0.03503,0 0.09373,-0.04246 0.130485,-0.09429 0.03668,-0.05189 0.09539,-0.09429 0.130416,-0.09429 0.03503,0 0.122089,-0.06366 0.193387,-0.141496 0.0713,-0.07777 0.162968,-0.141427 0.203572,-0.141427 0.04074,0 0.07398,-0.02119 0.07398,-0.04714 0,-0.02595 0.03709,-0.04715 0.08231,-0.04715 0.04529,0 0.112317,-0.0424 0.148998,-0.09429 0.03668,-0.05189 0.103716,-0.09429 0.149067,-0.09429 0.04521,0 0.08224,-0.02119 0.08224,-0.04714 0,-0.02595 0.03709,-0.04714 0.08231,-0.04714 0.04528,0 0.112315,-0.04246 0.148997,-0.09429 0.03674,-0.05189 0.103778,-0.09429 0.149067,-0.09429 0.04521,0 0.08231,-0.02127 0.08231,-0.04714 0,-0.02595 0.03703,-0.04721 0.08224,-0.04721 0.04529,0 0.112385,-0.0424 0.149066,-0.09429 0.03668,-0.05183 0.103716,-0.09429 0.148998,-0.09429 0.04521,0 0.08231,-0.02119 0.08231,-0.04714 0,-0.02594 0.04163,-0.04714 0.0925,-0.04714 0.05093,0 0.0925,-0.02119 0.0925,-0.04714 0,-0.02595 0.04163,-0.04714 0.09257,-0.04714 0.05085,0 0.0925,-0.02119 0.0925,-0.04714 0,-0.02595 0.04163,-0.04714 0.09257,-0.04714 0.05085,0 0.0925,-0.02119 0.0925,-0.04714 0,-0.02594 0.04163,-0.04715 0.09257,-0.04715 0.05085,0 0.0925,-0.02119 0.0925,-0.04714 0,-0.02594 0.04163,-0.04714 0.0925,-0.04714 0.05093,0 0.09257,-0.02127 0.09257,-0.04715 0,-0.02595 0.04163,-0.04714 0.0925,-0.04714 0.05093,0 0.09257,-0.02127 0.09257,-0.04721 0,-0.02588 0.06242,-0.04715 0.138743,-0.04715 0.07639,0 0.138812,-0.02119 0.138812,-0.04714 0,-0.02588 0.04163,-0.04714 0.0925,-0.04714 0.05093,0 0.09257,-0.02119 0.09257,-0.04714 0,-0.02594 0.04163,-0.04714 0.0925,-0.04714 0.05093,0 0.09257,-0.02119 0.09257,-0.04714 0,-0.02595 0.06242,-0.04714 0.138743,-0.04714 0.07633,0 0.138812,-0.02119 0.138812,-0.04714 0,-0.02595 0.04163,-0.04714 0.0925,-0.04714 0.05093,0 0.09257,-0.02119 0.09257,-0.04715 0,-0.02594 0.06242,-0.04714 0.138744,-0.04714 0.07639,0 0.138812,-0.02119 0.138812,-0.04714 0,-0.02594 0.06249,-0.04715 0.138812,-0.04715 0.07633,0 0.138744,-0.02127 0.138744,-0.04714 0,-0.02595 0.04163,-0.04714 0.09256,-0.04714 0.05086,0 0.0925,-0.02127 0.0925,-0.04714 0,-0.02594 0.06249,-0.04714 0.138812,-0.04714 0.07633,0 0.138811,-0.02127 0.138811,-0.04721 0,-0.02588 0.0832,-0.04714 0.184992,-0.04714 0.10179,0 0.18506,-0.02119 0.18506,-0.04714 0,-0.02588 0.06249,-0.04714 0.138812,-0.04714 0.07633,0 0.138744,-0.02119 0.138744,-0.04714 0,-0.02594 0.06249,-0.04714 0.138811,-0.04714 0.07633,0 0.138813,-0.02119 0.138813,-0.04714 0,-0.02595 0.08328,-0.04715 0.18506,-0.04715 0.101717,0 0.184991,-0.02119 0.184991,-0.04714 0,-0.02594 0.08328,-0.04714 0.18506,-0.04714 0.10179,0 0.18506,-0.02119 0.18506,-0.04715 0,-0.02594 0.08328,-0.04714 0.18506,-0.04714 0.10179,0 0.18506,-0.02119 0.18506,-0.04714 0,-0.02595 0.104061,-0.04714 0.231308,-0.04714 0.127181,0 0.231307,-0.02127 0.231307,-0.04714 0,-0.02622 0.123397,-0.04714 0.277555,-0.04714 0.154228,0 0.277625,-0.02099 0.277625,-0.04714 0,-0.02622 0.123328,-0.04721 0.277555,-0.04721 0.15416,0 0.277556,-0.02092 0.277556,-0.04714 0,-0.02746 0.154229,-0.04714 0.37012,-0.04714 0.215892,0 0.370051,-0.01961 0.370051,-0.04714 0,-0.02897 0.231377,-0.04714 0.601428,-0.04714 0.370119,0 0.601428,-0.01811 0.601428,-0.04714 0,-0.03008 0.385536,-0.04714 1.064042,-0.04714 0.678508,0 1.064044,0.01707 1.064044,0.04714 0,0.02904 0.231308,0.04714 0.601359,0.04714 0.370119,0 0.601428,0.01817 0.601428,0.04714 0,0.02753 0.154227,0.04714 0.37012,0.04714 0.215891,0 0.370119,0.01969 0.370119,0.04714 0,0.02622 0.123327,0.04714 0.277556,0.04714 0.154159,0 0.277555,0.02099 0.277555,0.04721 0,0.02615 0.123396,0.04714 0.277556,0.04714 0.154227,0 0.277624,0.02092 0.277624,0.04714 0,0.02588 0.08328,0.04714 0.18506,0.04714 0.101717,0 0.184991,0.02119 0.184991,0.04714 0,0.02594 0.104124,0.04714 0.231308,0.04714 0.12725,0 0.231376,0.02119 0.231376,0.04714 0,0.02595 0.08328,0.04715 0.184991,0.04715 0.10179,0 0.18506,0.02119 0.18506,0.04714 0,0.02595 0.06249,0.04714 0.138813,0.04714 0.07633,0 0.138812,0.02119 0.138812,0.04715 0,0.02594 0.08328,0.04714 0.184991,0.04714 0.10179,0 0.18506,0.02119 0.18506,0.04714 0,0.02595 0.06249,0.04714 0.138812,0.04714 0.07633,0 0.138743,0.02127 0.138743,0.04714 0,0.02595 0.06249,0.04714 0.138813,0.04714 0.07633,0 0.138811,0.02127 0.138811,0.04714 0,0.02594 0.06242,0.04721 0.138744,0.04721 0.07639,0 0.138812,0.02119 0.138812,0.04714 0,0.02588 0.06249,0.04714 0.138813,0.04714 0.07633,0 0.138743,0.02119 0.138743,0.04714 0,0.02588 0.06249,0.04714 0.138812,0.04714 0.07633,0 0.138812,0.02119 0.138812,0.04715 0,0.02595 0.04163,0.04714 0.0925,0.04714 0.05085,0 0.0925,0.02119 0.0925,0.04714 0,0.02595 0.06249,0.04715 0.138811,0.04715 0.07633,0 0.138813,0.02119 0.138813,0.04714 0,0.02595 0.06242,0.04714 0.138743,0.04714 0.07633,0 0.138812,0.02119 0.138812,0.04714 0,0.02594 0.04163,0.04714 0.0925,0.04714 0.05093,0 0.09257,0.02119 0.09257,0.04714 0,0.02595 0.04163,0.04714 0.0925,0.04714 0.05093,0 0.09257,0.02127 0.09257,0.04714 0,0.02595 0.04163,0.04714 0.0925,0.04714 0.05093,0 0.09257,0.02127 0.09257,0.04715 0,0.02595 0.04163,0.04721 0.0925,0.04721 0.05085,0 0.0925,0.02119 0.0925,0.04714 0,0.02588 0.06249,0.04715 0.138812,0.04715 0.07633,0 0.138813,0.02119 0.138813,0.04714 0,0.02595 0.04163,0.04714 0.0925,0.04714 0.05093,0 0.0925,0.02119 0.0925,0.04715 0,0.02594 0.03709,0.04714 0.08231,0.04714 0.04528,0 0.112316,0.0424 0.149066,0.09429 0.03668,0.05189 0.103716,0.09429 0.148998,0.09429 0.04521,0 0.08231,0.02119 0.08231,0.04714 0,0.02595 0.04163,0.04714 0.0925,0.04714 0.05086,0 0.0925,0.02127 0.0925,0.04714 0,0.02595 0.04163,0.04715 0.09257,0.04715 0.05086,0 0.0925,0.02127 0.0925,0.04714 0,0.02595 0.04163,0.04714 0.09257,0.04714 0.05086,0 0.0925,0.02127 0.0925,0.04721 0,0.02588 0.03709,0.04714 0.08231,0.04714 0.04528,0 0.112317,0.0424 0.148998,0.09429 0.03668,0.05183 0.09917,0.09429 0.138812,0.09429 0.03964,0 0.102062,0.0424 0.138743,0.09429 0.03675,0.05183 0.103779,0.09429 0.149067,0.09429 0.04521,0 0.08231,0.02119 0.08231,0.04714 0,0.02595 0.03703,0.04714 0.08224,0.04714 0.04535,0 0.112386,0.04246 0.149067,0.09429 0.03668,0.05189 0.09539,0.09429 0.130416,0.09429 0.03503,0 0.122089,0.06366 0.193388,0.141497 0.07129,0.07777 0.158356,0.141427 0.193386,0.141427 0.03503,0 0.09381,0.0424 0.130485,0.09429 0.03668,0.05183 0.09539,0.09429 0.130416,0.09429 0.03503,0 0.122089,0.06366 0.193388,0.141427 0.07129,0.07777 0.154159,0.141427 0.184096,0.141427 0.02993,0 0.134477,0.08486 0.232271,0.188639 0.09779,0.103716 0.201165,0.188571 0.229657,0.188571 0.02856,0 0.216649,0.169711 0.418018,0.377139 0.201371,0.207426 0.388152,0.377208 0.415061,0.377208 0.0638,0 0.834043,0.784905 0.834043,0.849941 0,0.02746 0.166547,0.21775 0.370051,0.422974 0.203572,0.205225 0.370119,0.397373 0.370119,0.426966 0,0.0296 0.06249,0.113281 0.138813,0.185955 0.07633,0.07267 0.138743,0.157118 0.138743,0.187606 0,0.03056 0.08328,0.137023 0.18506,0.236676 0.10179,0.09972 0.18506,0.210042 0.18506,0.24521 0,0.03524 0.04163,0.09463 0.0925,0.131999 0.05093,0.03737 0.09256,0.101026 0.09256,0.141427 0,0.0404 0.04163,0.104061 0.0925,0.141428 0.05093,0.03737 0.09256,0.101026 0.09256,0.141427 0,0.04047 0.04163,0.104061 0.0925,0.141496 0.05093,0.03737 0.09256,0.105641 0.09256,0.15182 0,0.04611 0.02079,0.08389 0.04625,0.08389 0.02546,0 0.04625,0.03778 0.04625,0.08389 0,0.04611 0.04163,0.11445 0.0925,0.15182 0.05093,0.03737 0.09257,0.105709 0.09257,0.151888 0,0.04611 0.02079,0.08382 0.04625,0.08382 0.02546,0 0.04625,0.04246 0.04625,0.09436 0,0.05183 0.02086,0.09429 0.04625,0.09429 0.02546,0 0.04632,0.03771 0.04632,0.08382 0,0.04618 0.04163,0.114518 0.0925,0.151888 0.05093,0.03737 0.09257,0.105709 0.09257,0.151888 0,0.04611 0.02079,0.08382 0.04625,0.08382 0.02539,0 0.04625,0.03276 0.04625,0.07288 0,0.09429 0.20605,0.304327 0.298614,0.304327 0.0393,0 0.0715,0.02119 0.0715,0.04714 0,0.02594 0.08328,0.04714 0.185059,0.04714 0.101717,0 0.184991,-0.02119 0.184991,-0.04714 0,-0.02595 0.03193,-0.04714 0.07096,-0.04714 0.03902,0 0.143148,-0.07357 0.231307,-0.16345 0.150238,-0.153127 0.160354,-0.182858 0.160354,-0.471494 0,-0.173911 -0.02009,-0.307974 -0.04625,-0.307974 -0.02539,0 -0.04625,-0.03778 -0.04625,-0.08389 0,-0.04617 -0.04163,-0.11445 -0.0925,-0.151888 -0.05093,-0.03737 -0.09257,-0.10571 -0.09257,-0.15182 0,-0.04611 -0.02079,-0.08389 -0.04625,-0.08389 -0.02546,0 -0.04625,-0.04246 -0.04625,-0.09429 0,-0.05189 -0.02086,-0.09429 -0.04625,-0.09429 -0.02546,0 -0.04631,-0.04246 -0.04631,-0.09429 0,-0.05189 -0.02078,-0.09429 -0.04625,-0.09429 -0.02546,0 -0.04625,-0.03778 -0.04625,-0.08389 0,-0.04618 -0.04163,-0.114518 -0.0925,-0.151887 -0.113761,-0.08355 -0.128351,-0.329998 -0.01955,-0.329998 0.04019,0 0.153059,-0.08486 0.250853,-0.18857 0.09779,-0.103778 0.202266,-0.188638 0.232203,-0.188638 0.03001,0 0.112866,-0.06359 0.184096,-0.141428 0.0713,-0.07777 0.15416,-0.141427 0.184166,-0.141427 0.02993,0 0.134407,-0.08486 0.232203,-0.18857 0.09779,-0.103716 0.202333,-0.18857 0.232271,-0.18857 0.03001,0 0.112798,-0.06366 0.184096,-0.141496 0.0713,-0.07777 0.154572,-0.141427 0.18506,-0.141427 0.03049,0 0.113762,-0.06366 0.18506,-0.141428 0.0713,-0.07777 0.154159,-0.141427 0.184097,-0.141427 0.02993,0 0.134475,-0.08486 0.232271,-0.18857 0.09779,-0.103716 0.202333,-0.188639 0.232202,-0.188639 0.03,0 0.112867,-0.06359 0.184165,-0.141427 0.0713,-0.07777 0.154573,-0.141428 0.18506,-0.141428 0.03049,0 0.113762,-0.06366 0.18506,-0.141427 0.07123,-0.07777 0.15409,-0.141427 0.184097,-0.141427 0.02993,0 0.134408,-0.08486 0.232202,-0.18857 0.09779,-0.103779 0.202335,-0.188638 0.232271,-0.188638 0.03,0 0.112798,-0.06366 0.184097,-0.141429 0.0713,-0.07777 0.154572,-0.141427 0.18506,-0.141427 0.03049,0 0.113761,-0.06366 0.18506,-0.141427 0.0713,-0.07783 0.154159,-0.141427 0.184096,-0.141427 0.02994,0 0.134477,-0.08486 0.232271,-0.188639 0.09779,-0.103716 0.202335,-0.188569 0.232203,-0.188569 0.03,0 0.112866,-0.06366 0.184165,-0.141428 0.0713,-0.07777 0.153058,-0.141428 0.181688,-0.141428 0.07812,0 0.465987,-0.410999 0.465987,-0.493791 0,-0.03957 0.02078,-0.07198 0.04625,-0.07198 0.02546,0 0.04625,-0.08486 0.04625,-0.188569 0,-0.103716 -0.02078,-0.18857 -0.04625,-0.18857 -0.02546,0 -0.04625,-0.03255 -0.04625,-0.07227 0,-0.03984 -0.07219,-0.145902 -0.160421,-0.235782 -0.144319,-0.147139 -0.185887,-0.16345 -0.416368,-0.16345 -0.14074,0 -0.255946,0.02119 -0.255946,0.04714 0,0.02595 -0.03703,0.04714 -0.08231,0.04714 -0.04528,0 -0.112316,0.04246 -0.148998,0.09429 -0.03668,0.05189 -0.0949,0.09429 -0.129521,0.09429 -0.03455,0 -0.142804,0.08492 -0.240599,0.188638 -0.09779,0.103716 -0.202265,0.18857 -0.232202,0.18857 -0.03,0 -0.112867,0.06366 -0.184165,0.141428 -0.0713,0.07777 -0.154504,0.141427 -0.18506,0.141427 -0.03042,0 -0.113693,0.06366 -0.184991,0.141427 -0.0713,0.07783 -0.15416,0.141496 -0.184166,0.141496 -0.02993,0 -0.134407,0.08486 -0.232202,0.18857 -0.09779,0.103716 -0.202334,0.18857 -0.232271,0.18857 -0.02993,0 -0.112798,0.06366 -0.184097,0.141427 -0.0713,0.07783 -0.154572,0.141428 -0.18506,0.141428 -0.03049,0 -0.113761,0.06366 -0.18506,0.141496 -0.0713,0.07777 -0.154159,0.141428 -0.184096,0.141428 -0.02993,0 -0.134477,0.08486 -0.232271,0.188569 -0.09779,0.103716 -0.202266,0.18857 -0.232203,0.18857 -0.03001,0 -0.112866,0.06366 -0.184165,0.141427 -0.0713,0.07783 -0.154573,0.141496 -0.18506,0.141496 -0.03049,0 -0.113692,0.06359 -0.184991,0.141428 -0.0713,0.07777 -0.15416,0.141428 -0.184165,0.141428 -0.02993,0 -0.134408,0.08486 -0.232203,0.188569 -0.09779,0.103716 -0.202334,0.18857 -0.232271,0.18857 -0.02993,0 -0.112798,0.06366 -0.184097,0.141496 -0.0713,0.07777 -0.154572,0.141427 -0.185059,0.141427 -0.03049,0 -0.113762,0.06366 -0.18506,0.141428 -0.0713,0.07777 -0.15416,0.141428 -0.184098,0.141428 -0.02993,0 -0.134475,0.08486 -0.232271,0.18857 -0.09779,0.103716 -0.20894,0.188569 -0.246929,0.188569 -0.03806,0 -0.0777,0.02595 -0.08803,0.05768 -0.02175,0.06628 -0.266475,-0.162143 -0.266475,-0.24872 0,-0.02973 -0.06242,-0.113417 -0.138744,-0.186092 -0.07633,-0.07268 -0.138811,-0.156637 -0.138811,-0.186575 0,-0.02987 -0.124911,-0.179347 -0.277557,-0.332062 -0.152644,-0.152713 -0.277555,-0.300472 -0.277555,-0.328414 0,-0.02787 -0.358213,-0.414853 -0.795916,-0.859782 -0.43777,-0.444997 -0.770796,-0.817594 -0.74024,-0.827986 0.0307,-0.01036 0.05574,-0.05114 0.05574,-0.09036 0,-0.03936 0.06242,-0.130967 0.138744,-0.203573 0.07639,-0.07267 0.138812,-0.161385 0.138812,-0.197103 0,-0.03572 0.04163,-0.09559 0.09257,-0.132962 0.05086,-0.03737 0.0925,-0.09718 0.0925,-0.132963 0,-0.03565 0.06242,-0.124428 0.138813,-0.197034 0.07633,-0.07268 0.138742,-0.157532 0.138742,-0.188571 0,-0.0311 0.06249,-0.115963 0.138813,-0.188638 0.07633,-0.07261 0.138743,-0.157463 0.138743,-0.18857 0,-0.03104 0.06249,-0.115895 0.138812,-0.18857 0.07633,-0.07267 0.138812,-0.161385 0.138812,-0.197103 0,-0.03572 0.04163,-0.09552 0.0925,-0.132962 0.05093,-0.03737 0.09257,-0.09718 0.09257,-0.132895 0,-0.03572 0.06242,-0.124428 0.138744,-0.197103 0.07633,-0.07267 0.138812,-0.157532 0.138812,-0.18857 0,-0.0311 0.06242,-0.115964 0.138812,-0.18857 0.07633,-0.07267 0.138744,-0.157531 0.138744,-0.188638 0,-0.03104 0.06249,-0.115895 0.138812,-0.18857 0.07633,-0.07261 0.138743,-0.157531 0.138743,-0.18857 0,-0.03104 0.06249,-0.115963 0.138812,-0.18857 0.07633,-0.07267 0.138813,-0.161385 0.138813,-0.197104 0,-0.03572 0.04163,-0.09552 0.0925,-0.132962 0.05093,-0.03737 0.09257,-0.09718 0.09257,-0.132962 0,-0.03565 0.06242,-0.12436 0.138743,-0.197035 0.07633,-0.07268 0.138813,-0.157531 0.138813,-0.18857 0,-0.0311 0.06242,-0.115963 0.138742,-0.188639 0.07639,-0.0726 0.138813,-0.157463 0.138813,-0.18857 0,-0.03104 0.06249,-0.115894 0.138812,-0.188569 0.07633,-0.07267 0.138743,-0.161385 0.138743,-0.197104 0,-0.03572 0.04163,-0.09552 0.09257,-0.132893 0.05085,-0.03744 0.0925,-0.09725 0.0925,-0.132963 0,-0.03572 0.06249,-0.124436 0.138811,-0.19709 0.127044,-0.120974 0.138744,-0.158364 0.138744,-0.443221 0,-0.175997 -0.02003,-0.31112 -0.04625,-0.31112 -0.02539,0 -0.04625,-0.03333 -0.04625,-0.07407 0,-0.09528 -0.111422,-0.20881 -0.204881,-0.20881 -0.03999,0 -0.07267,-0.02121 -0.07267,-0.04715 0,-0.02593 -0.104124,-0.04715 -0.231308,-0.04715 -0.12725,0 -0.231307,0.02121 -0.231307,0.04715 0,0.02593 -0.03193,0.04715 -0.07096,0.04715 -0.0819,0 -0.391661,0.300742 -0.391661,0.38023 0,0.02938 -0.06249,0.112874 -0.138812,0.185522 -0.07633,0.07265 -0.138812,0.157517 -0.138812,0.18859 0,0.03106 -0.06242,0.115929 -0.138744,0.188584 -0.07639,0.07265 -0.138812,0.161379 -0.138812,0.197096 0,0.03572 -0.04163,0.09552 -0.0925,0.132893 -0.05093,0.03744 -0.09256,0.09725 -0.09256,0.132963 0,0.03572 -0.06242,0.124428 -0.138744,0.197104 -0.07639,0.07267 -0.138813,0.157532 -0.138813,0.18857 0,0.0311 -0.06249,0.115963 -0.138811,0.188569 -0.07633,0.07267 -0.138744,0.157532 -0.138744,0.188639 0,0.03104 -0.06249,0.115895 -0.138812,0.188569 -0.07633,0.07261 -0.138813,0.161387 -0.138813,0.197035 0,0.03579 -0.04163,0.0956 -0.0925,0.132963 -0.05093,0.03737 -0.09257,0.09725 -0.09257,0.132962 0,0.03572 -0.06242,0.124429 -0.138742,0.197104 -0.07633,0.0726 -0.138813,0.157463 -0.138813,0.18857 0,0.03104 -0.06242,0.115895 -0.138743,0.188569 -0.07639,0.07268 -0.138813,0.157532 -0.138813,0.188571 0,0.0311 -0.06249,0.115963 -0.138811,0.188639 -0.07633,0.07261 -0.138744,0.157462 -0.138744,0.188569 0,0.03104 -0.06249,0.115895 -0.138812,0.18857 -0.07633,0.07267 -0.138812,0.161385 -0.138812,0.197104 0,0.03572 -0.04163,0.09552 -0.0925,0.132893 -0.05085,0.03744 -0.0925,0.09725 -0.0925,0.132963 0,0.03572 -0.06249,0.124428 -0.138812,0.197103 -0.07633,0.07261 -0.138813,0.157532 -0.138813,0.18857 0,0.03104 -0.06242,0.115964 -0.138744,0.18857 -0.07639,0.07267 -0.138811,0.156155 -0.138811,0.185541 0,0.06938 -0.305016,0.380238 -0.37308,0.380238 -0.02883,0 -0.110801,-0.06366 -0.1821,-0.141429 -0.07123,-0.07783 -0.158358,-0.141427 -0.193319,-0.141427 -0.0351,0 -0.0938,-0.04246 -0.130485,-0.09435 -0.03668,-0.05183 -0.09917,-0.09429 -0.138812,-0.09429 -0.03964,0 -0.102062,-0.0424 -0.138743,-0.09429 -0.03668,-0.05183 -0.09917,-0.09429 -0.138812,-0.09429 -0.03964,0 -0.102135,-0.0424 -0.138813,-0.09429 -0.03668,-0.05189 -0.0991,-0.09429 -0.138742,-0.09429 -0.03965,0 -0.102136,-0.04246 -0.138813,-0.09429 -0.03668,-0.05189 -0.0991,-0.09429 -0.138744,-0.09429 -0.03971,0 -0.102135,-0.04246 -0.138811,-0.09429 -0.03668,-0.05189 -0.103716,-0.09435 -0.148999,-0.09435 -0.04528,0 -0.08231,-0.02119 -0.08231,-0.04714 0,-0.02588 -0.03709,-0.04714 -0.08231,-0.04714 -0.04529,0 -0.112317,-0.0424 -0.148998,-0.09429 -0.03668,-0.05183 -0.103716,-0.09429 -0.148998,-0.09429 -0.04529,0 -0.08231,-0.02119 -0.08231,-0.04714 0,-0.02595 -0.04163,-0.04714 -0.09257,-0.04714 -0.05086,0 -0.0925,-0.02119 -0.0925,-0.04715 0,-0.02595 -0.04163,-0.04714 -0.09257,-0.04714 -0.05085,0 -0.0925,-0.02119 -0.0925,-0.04714 0,-0.02595 -0.04163,-0.04715 -0.0925,-0.04715 -0.05093,0 -0.09257,-0.02127 -0.09257,-0.04714 0,-0.02595 -0.03703,-0.04714 -0.08231,-0.04714 -0.04529,0 -0.112316,-0.04246 -0.148997,-0.09429 -0.03668,-0.05189 -0.103716,-0.09435 -0.148999,-0.09435 -0.04528,0 -0.08231,-0.02119 -0.08231,-0.04714 0,-0.02588 -0.03268,-0.04714 -0.07267,-0.04714 -0.101372,0 -0.246242,-0.150925 -0.169781,-0.176938 0.03159,-0.01074 0.05739,-0.06015 0.05739,-0.10984 0,-0.04969 0.02086,-0.09036 0.04625,-0.09036 0.02546,0 0.04631,-0.06366 0.04631,-0.141428 0,-0.07783 0.02078,-0.141496 0.04625,-0.141496 0.02546,0 0.04625,-0.0424 0.04625,-0.09429 0,-0.05183 0.02086,-0.09429 0.04625,-0.09429 0.02546,0 0.04625,-0.06366 0.04625,-0.141427 0,-0.07777 0.02086,-0.141428 0.04632,-0.141428 0.02539,0 0.04625,-0.06366 0.04625,-0.141427 0,-0.07783 0.02079,-0.141427 0.04625,-0.141427 0.02546,0 0.04625,-0.04246 0.04625,-0.09436 0,-0.05183 0.02086,-0.09429 0.04632,-0.09429 0.02539,0 0.04625,-0.06359 0.04625,-0.141427 0,-0.07777 0.02078,-0.141427 0.04625,-0.141427 0.02546,0 0.04625,-0.04246 0.04625,-0.09429 0,-0.05189 0.02086,-0.09429 0.04625,-0.09429 0.02546,0 0.04631,-0.06366 0.04631,-0.141427 0,-0.07783 0.02079,-0.141496 0.04625,-0.141496 0.02546,0 0.04625,-0.06359 0.04625,-0.141408 0,-0.07779 0.02078,-0.14144 0.04625,-0.14144 0.02546,0 0.04625,-0.04244 0.04625,-0.09429 0,-0.05187 0.02086,-0.0943 0.04632,-0.0943 0.02539,0 0.04625,-0.06365 0.04625,-0.141441 0,-0.07779 0.02079,-0.141442 0.04625,-0.141442 0.02546,0 0.04625,-0.04243 0.04625,-0.09429 0,-0.05186 0.02085,-0.0943 0.04625,-0.0943 0.02546,0 0.04631,-0.06364 0.04631,-0.141441 0,-0.07779 0.02078,-0.141435 0.04625,-0.141435 0.02546,0 0.04625,-0.04244 0.04625,-0.0943 0,-0.05186 0.02086,-0.09429 0.04625,-0.09429 0.02546,0 0.04631,-0.06364 0.04631,-0.141435 0,-0.07779 0.02078,-0.14144 0.04625,-0.14144 0.02539,0 0.04625,-0.06364 0.04625,-0.141442 0,-0.07779 0.02078,-0.141441 0.04625,-0.141441 0.02546,0 0.04625,-0.04243 0.04625,-0.0943 0,-0.05186 0.02085,-0.09429 0.04632,-0.09429 0.02539,0 0.04625,-0.06364 0.04625,-0.14144 0,-0.07779 0.02078,-0.141435 0.04625,-0.141435 0.02546,0 0.04625,-0.04244 0.04625,-0.0943 0,-0.05186 0.02085,-0.0943 0.04625,-0.0943 0.02546,0 0.04631,-0.06364 0.04631,-0.141434 0,-0.07779 0.02079,-0.141441 0.04625,-0.141441 0.02546,0 0.04625,-0.06364 0.04625,-0.141441 0,-0.07779 0.02085,-0.141434 0.04625,-0.141434 0.02546,0 0.04631,-0.04244 0.04631,-0.0943 0,-0.05186 0.02078,-0.0943 0.04625,-0.0943 0.02539,0 0.04625,-0.06364 0.04625,-0.141434 0,-0.07779 0.02079,-0.141442 0.04625,-0.141442 0.02546,0 0.04625,-0.04244 0.04625,-0.09429 0,-0.05187 0.02085,-0.0943 0.04631,-0.0943 0.02539,0 0.04625,-0.06365 0.04625,-0.141441 0,-0.07779 0.02078,-0.141441 0.04625,-0.141441 0.02546,0 0.04625,-0.06364 0.04625,-0.141434 0,-0.07779 -0.02078,-0.141441 -0.04625,-0.141441 -0.02546,0 -0.04625,-0.05398 -0.04625,-0.11999 0,-0.132336 -0.18623,-0.351476 -0.298616,-0.351476 -0.03936,0 -0.0715,-0.02121 -0.0715,-0.04714 0,-0.02593 -0.104061,-0.04715 -0.231308,-0.04715 -0.12725,0 -0.231308,0.02121 -0.231308,0.04715 0,0.02592 -0.03214,0.04714 -0.0715,0.04714 -0.09257,0 -0.298616,0.209993 -0.298616,0.304334 0,0.04007 -0.02079,0.07284 -0.04625,0.07284 -0.02546,0 -0.04625,0.06364 -0.04625,0.141434 0,0.07779 -0.02085,0.141441 -0.04625,0.141441 -0.02546,0 -0.04632,0.06364 -0.04632,0.141441 0,0.07779 -0.02079,0.141441 -0.04625,0.141441 -0.02546,0 -0.04625,0.04243 -0.04625,0.0943 0,0.05186 -0.02078,0.0943 -0.04625,0.0943 -0.02546,0 -0.04625,0.06364 -0.04625,0.141434 0,0.07779 -0.02086,0.141441 -0.04631,0.141441 -0.02539,0 -0.04625,0.04244 -0.04625,0.09429 0,0.05187 -0.02078,0.0943 -0.04625,0.0943 -0.02546,0 -0.04625,0.06365 -0.04625,0.141441 0,0.07779 -0.02085,0.141442 -0.04625,0.141442 -0.02546,0 -0.04632,0.06364 -0.04632,0.141441 0,0.07779 -0.02078,0.141434 -0.04625,0.141434 -0.02546,0 -0.04625,0.04244 -0.04625,0.09429 0,0.05187 -0.02086,0.0943 -0.04625,0.0943 -0.02546,0 -0.04632,0.06364 -0.04632,0.141434 0,0.07779 -0.02078,0.141442 -0.04625,0.141442 -0.02539,0 -0.04625,0.04244 -0.04625,0.09429 0,0.05186 -0.02078,0.09429 -0.04625,0.09429 -0.02546,0 -0.04625,0.06365 -0.04625,0.141442 0,0.07779 -0.02086,0.141441 -0.04631,0.141441 -0.02539,0 -0.04625,0.06364 -0.04625,0.141434 0,0.07779 -0.02078,0.141441 -0.04625,0.141441 -0.02546,0 -0.04625,0.04244 -0.04625,0.0943 0,0.05186 -0.02086,0.09429 -0.04625,0.09429 -0.02546,0 -0.04631,0.06365 -0.04631,0.141441 0,0.07779 -0.02079,0.141441 -0.04625,0.141441 -0.02546,0 -0.04625,0.04243 -0.04625,0.09429 0,0.05187 -0.02086,0.0943 -0.04625,0.0943 -0.02546,0 -0.04631,0.06364 -0.04631,0.141441 0,0.07779 -0.02078,0.141441 -0.04625,0.141441 -0.02539,0 -0.04625,0.06364 -0.04625,0.141435 0,0.07779 -0.02079,0.14144 -0.04625,0.14144 -0.02546,0 -0.04625,0.04243 -0.04625,0.09429 0,0.05187 -0.02086,0.09427 -0.04631,0.09427 -0.02539,0 -0.04625,0.06366 -0.04625,0.141427 0,0.07783 -0.02078,0.141497 -0.04625,0.141497 -0.02546,0 -0.04625,0.0424 -0.04625,0.09429 0,0.05183 -0.02086,0.09429 -0.04625,0.09429 -0.02546,0 -0.04631,0.06366 -0.04631,0.141427 0,0.07777 -0.02078,0.141427 -0.04625,0.141427 -0.02546,0 -0.04625,0.04246 -0.04625,0.09429 0,0.05189 -0.02086,0.09429 -0.04625,0.09429 -0.02546,0 -0.04625,0.06366 -0.04625,0.141496 0,0.07777 -0.02086,0.141428 -0.04632,0.141428 -0.02539,0 -0.04625,0.06366 -0.04625,0.141428 0,0.07777 -0.02079,0.141427 -0.04625,0.141427 -0.02546,0 -0.04625,0.03331 -0.04625,0.07406 0,0.04081 -0.0298,0.104469 -0.06613,0.141496 -0.07577,0.07722 -0.211487,0.09023 -0.211487,0.02017 0,-0.02588 -0.06242,-0.04714 -0.138744,-0.04714 -0.07633,0 -0.138812,-0.02119 -0.138812,-0.04714 0,-0.02588 -0.06242,-0.04714 -0.138812,-0.04714 -0.07633,0 -0.138743,-0.02119 -0.138743,-0.04714 0,-0.02595 -0.04163,-0.04714 -0.09257,-0.04714 -0.05086,0 -0.0925,-0.02119 -0.0925,-0.04714 0,-0.02594 -0.06242,-0.04714 -0.138813,-0.04714 -0.07633,0 -0.138744,-0.02119 -0.138744,-0.04714 0,-0.02595 -0.08328,-0.04714 -0.18506,-0.04714 -0.10179,0 -0.18506,-0.02119 -0.18506,-0.04714 0,-0.02595 -0.06242,-0.04714 -0.138811,-0.04714 -0.07633,0 -0.138744,-0.02119 -0.138744,-0.04714 0,-0.02594 -0.06249,-0.04714 -0.138812,-0.04714 -0.07633,0 -0.138813,-0.02127 -0.138813,-0.04714 0,-0.02595 -0.0832,-0.04714 -0.18499,-0.04714 -0.101791,0 -0.18506,-0.02127 -0.18506,-0.04714 0,-0.02595 -0.08328,-0.04721 -0.18506,-0.04721 -0.10179,0 -0.18506,-0.02119 -0.18506,-0.04714 0,-0.02588 -0.08328,-0.04714 -0.18506,-0.04714 -0.10179,0 -0.18506,-0.02119 -0.18506,-0.04714 0,-0.02588 -0.08328,-0.04714 -0.184991,-0.04714 -0.10179,0 -0.18506,-0.02119 -0.18506,-0.04714 0,-0.02595 -0.104124,-0.04714 -0.231308,-0.04714 -0.12725,0 -0.231307,-0.02119 -0.231307,-0.04714 0,-0.02595 -0.08328,-0.04714 -0.18506,-0.04714 h -0.18506 v -0.471493 c 0,-0.282848 0.01851,-0.471432 0.04625,-0.471432 0.02746,0 0.04625,-0.172885 0.04625,-0.424317 0,-0.251431 0.01886,-0.424323 0.04631,-0.424323 0.02739,0 0.04625,-0.172885 0.04625,-0.424316 0,-0.251432 0.01879,-0.424317 0.04625,-0.424317 0.02773,0 0.04625,-0.188584 0.04625,-0.471466 0,-0.282875 0.01851,-0.471459 0.04625,-0.471459 0.02746,0 0.04632,-0.172885 0.04632,-0.424316 0,-0.251432 0.01879,-0.424317 0.04625,-0.424317 0.02739,0 0.04625,-0.172892 0.04625,-0.424323 0,-0.251432 0.01886,-0.424317 0.04625,-0.424317 0.02746,0 0.04625,-0.172885 0.04625,-0.424316 0,-0.251431 0.01886,-0.424317 0.04631,-0.424317 0.02739,0 0.04625,-0.172885 0.04625,-0.424316 0,-0.251433 -0.01886,-0.424319 -0.04625,-0.424319 -0.02546,0 -0.04631,-0.03277 -0.04631,-0.07284 0,-0.09434 -0.20605,-0.30433 -0.298615,-0.30433 -0.0393,0 -0.07144,-0.02121 -0.07144,-0.04715 0,-0.02593 -0.08328,-0.04715 -0.18506,-0.04715 -0.10179,0 -0.18506,0.02122 -0.18506,0.04715 0,0.02593 -0.03193,0.04715 -0.07089,0.04715 -0.03909,0 -0.143148,0.07355 -0.231377,0.163456 -0.144386,0.147097 -0.160353,0.189482 -0.160353,0.424318 0,0.143463 -0.02086,0.260858 -0.04625,0.260858 -0.02781,0 -0.04631,0.188591 -0.04631,0.471466 0,0.282882 -0.01844,0.471466 -0.04625,0.471466 -0.02739,0 -0.04625,0.172885 -0.04625,0.424317 0,0.251431 -0.01886,0.424316 -0.04625,0.424316 -0.02746,0 -0.04625,0.172885 -0.04625,0.424317 0,0.25143 -0.01886,0.424316 -0.04632,0.424316 -0.02773,0 -0.04625,0.188591 -0.04625,0.471466 0,0.282875 -0.01851,0.471466 -0.04625,0.471466 -0.02746,0 -0.04625,0.172885 -0.04625,0.424316 0,0.251432 -0.01886,0.424317 -0.04625,0.424317 -0.02746,0 -0.04631,0.172885 -0.04631,0.424317 0,0.251431 -0.01879,0.424316 -0.04625,0.424316 -0.02725,0 -0.04625,0.166148 -0.04625,0.404097 0,0.287383 -0.01913,0.42358 -0.06613,0.47148 -0.07901,0.08052 -1.044154,0.09924 -1.044154,0.02023 0,-0.03049 -0.539764,-0.04714 -1.526659,-0.04714 -0.986894,0 -1.526658,0.01665 -1.526658,0.04714 0,0.02829 -0.18506,0.04714 -0.462616,0.04714 h -0.462641 v -0.282919 c 0,-0.157119 -0.02057,-0.282855 -0.04631,-0.282855 -0.02636,0 -0.04625,-0.141441 -0.04625,-0.330025 0,-0.188584 -0.01982,-0.330025 -0.04625,-0.330025 -0.02574,0 -0.04625,-0.125743 -0.04625,-0.282882 0,-0.157139 -0.02058,-0.282875 -0.04625,-0.282875 -0.02643,0 -0.04632,-0.141441 -0.04632,-0.330025 0,-0.188584 -0.01982,-0.330024 -0.04625,-0.330024 -0.02574,0 -0.04625,-0.125737 -0.04625,-0.282876 0,-0.15714 -0.02058,-0.282883 -0.04625,-0.282883 -0.02643,0 -0.04632,-0.141441 -0.04632,-0.330024 0,-0.188584 -0.01982,-0.330025 -0.04625,-0.330025 -0.02567,0 -0.04625,-0.125736 -0.04625,-0.282875 0,-0.157139 -0.02051,-0.282883 -0.04625,-0.282883 -0.02643,0 -0.04625,-0.141434 -0.04625,-0.330024 0,-0.188584 -0.01988,-0.330026 -0.04631,-0.330026 -0.02567,0 -0.04625,-0.125735 -0.04625,-0.282875 0,-0.157139 -0.02051,-0.282875 -0.04625,-0.282875 -0.02574,0 -0.04625,-0.125743 -0.04625,-0.282882 0,-0.157139 -0.02058,-0.282875 -0.04625,-0.282875 -0.02574,0 -0.04632,-0.125743 -0.04632,-0.282883 0,-0.157139 -0.02051,-0.282877 -0.04625,-0.282877 -0.02546,0 -0.04625,-0.05398 -0.04625,-0.119986 0,-0.132341 -0.18623,-0.351477 -0.298615,-0.351477 -0.03936,0 -0.0715,-0.02121 -0.0715,-0.04715 0,-0.02593 -0.08328,-0.04715 -0.18506,-0.04715 -0.101717,0 -0.184991,0.02122 -0.184991,0.04715 z M 23.167239,22.2469 c 0,0.02829 -0.18506,0.04714 -0.462615,0.04714 -0.277624,0 -0.462616,0.01886 -0.462616,0.04714 0,0.02691 -0.138812,0.04714 -0.323872,0.04714 -0.18506,0 -0.323804,0.02023 -0.323804,0.04715 0,0.02622 -0.123395,0.04714 -0.277624,0.04714 -0.154159,0 -0.277556,0.02092 -0.277556,0.04714 0,0.02595 -0.08328,0.04714 -0.18506,0.04714 -0.10179,0 -0.185059,0.02127 -0.185059,0.04714 0,0.02595 -0.08328,0.04714 -0.184991,0.04714 -0.10179,0 -0.18506,0.02127 -0.18506,0.04721 0,0.02588 -0.08328,0.04714 -0.18506,0.04714 -0.10179,0 -0.18506,0.02119 -0.18506,0.04714 0,0.02588 -0.08328,0.04714 -0.18506,0.04714 -0.10179,0 -0.18506,0.02119 -0.18506,0.04714 0,0.02595 -0.06242,0.04714 -0.138744,0.04714 -0.07639,0 -0.138812,0.02119 -0.138812,0.04715 0,0.02595 -0.06249,0.04714 -0.138812,0.04714 -0.07633,0 -0.138743,0.02119 -0.138743,0.04714 0,0.02595 -0.06249,0.04715 -0.138813,0.04715 -0.07633,0 -0.138811,0.02119 -0.138811,0.04714 0,0.02595 -0.06242,0.04714 -0.138744,0.04714 -0.07633,0 -0.138812,0.02119 -0.138812,0.04714 0,0.02594 -0.04163,0.04714 -0.0925,0.04714 -0.05093,0 -0.09257,0.02127 -0.09257,0.04714 0,0.02595 -0.06242,0.04714 -0.138744,0.04714 -0.07633,0 -0.138811,0.02127 -0.138811,0.04714 0,0.02595 -0.04163,0.04721 -0.0925,0.04721 -0.05093,0 -0.09257,0.02119 -0.09257,0.04714 0,0.02588 -0.06242,0.04714 -0.138743,0.04714 -0.07639,0 -0.138812,0.02119 -0.138812,0.04714 0,0.02588 -0.04163,0.04715 -0.0925,0.04715 -0.05093,0 -0.09256,0.02119 -0.09256,0.04714 0,0.02594 -0.04163,0.04714 -0.0925,0.04714 -0.05093,0 -0.09256,0.02119 -0.09256,0.04715 0,0.02595 -0.04163,0.04714 -0.0925,0.04714 -0.05093,0 -0.09256,0.02119 -0.09256,0.04714 0,0.02594 -0.04163,0.04714 -0.0925,0.04714 -0.05085,0 -0.0925,0.02119 -0.0925,0.04714 0,0.02595 -0.04163,0.04714 -0.09257,0.04714 -0.05085,0 -0.0925,0.02119 -0.0925,0.04714 0,0.02595 -0.04163,0.04714 -0.09257,0.04714 -0.05085,0 -0.0925,0.02127 -0.0925,0.04714 0,0.02594 -0.04163,0.04715 -0.09257,0.04715 -0.05085,0 -0.0925,0.02127 -0.0925,0.04714 0,0.02594 -0.04163,0.04721 -0.0925,0.04721 -0.05093,0 -0.09257,0.02119 -0.09257,0.04715 0,0.02588 -0.04163,0.04714 -0.0925,0.04714 -0.05093,0 -0.09257,0.02119 -0.09257,0.04714 0,0.02588 -0.04163,0.04715 -0.0925,0.04715 -0.05093,0 -0.09257,0.02119 -0.09257,0.04714 0,0.02595 -0.03703,0.04714 -0.08224,0.04714 -0.04535,0 -0.112384,0.0424 -0.149066,0.09429 -0.03668,0.05189 -0.103716,0.09429 -0.148998,0.09429 -0.04521,0 -0.08231,0.02119 -0.08231,0.04714 0,0.02595 -0.03703,0.04714 -0.08231,0.04714 -0.04529,0 -0.112316,0.04246 -0.148997,0.09429 -0.03668,0.05189 -0.0991,0.09429 -0.138744,0.09429 -0.03964,0 -0.102136,0.04246 -0.138813,0.09435 -0.03668,0.05183 -0.103716,0.09429 -0.148997,0.09429 -0.04528,0 -0.08231,0.02119 -0.08231,0.04714 0,0.02595 -0.03709,0.04714 -0.08231,0.04714 -0.04529,0 -0.112317,0.0424 -0.148999,0.09429 -0.03668,0.05183 -0.09917,0.09429 -0.138811,0.09429 -0.03965,0 -0.102062,0.04246 -0.138744,0.09429 -0.03668,0.05189 -0.09546,0.09429 -0.130485,0.09429 -0.03503,0 -0.122089,0.06366 -0.193387,0.141427 -0.0713,0.07783 -0.158357,0.141497 -0.193387,0.141497 -0.03503,0 -0.09373,0.0424 -0.130416,0.09429 -0.03668,0.05183 -0.09539,0.09429 -0.130485,0.09429 -0.03503,0 -0.122089,0.06366 -0.193387,0.141428 -0.0713,0.07777 -0.15416,0.141427 -0.184097,0.141427 -0.02993,0 -0.134476,0.08486 -0.232271,0.18857 -0.09779,0.103779 -0.201852,0.188638 -0.231308,0.188638 -0.02939,0 -0.133513,0.08486 -0.231307,0.188571 -0.09779,0.103715 -0.201371,0.188569 -0.230208,0.188569 -0.02891,0 -0.17508,0.127319 -0.324903,0.282855 -0.149893,0.155604 -0.294555,0.282923 -0.321533,0.282923 -0.06434,0 -2.4079814,2.388781 -2.4079814,2.454436 0,0.02773 -0.1040611,0.153746 -0.2313082,0.280034 -0.1272501,0.126286 -0.2313071,0.262828 -0.2313071,0.303363 0,0.04061 -0.020858,0.07385 -0.046248,0.07385 -0.025735,0 -0.046311,0.125736 -0.046311,0.282854 0,0.15712 0.020576,0.282856 0.046311,0.282856 0.02539,0 0.046248,0.04246 0.046248,0.09429 0,0.05189 0.020785,0.09429 0.046248,0.09429 0.025463,0 0.046248,0.03778 0.046248,0.08389 0,0.04618 0.041633,0.114449 0.09257,0.151887 0.050864,0.03737 0.092496,0.101026 0.092496,0.141428 0,0.0404 0.041633,0.104062 0.09257,0.141428 0.050864,0.03737 0.092496,0.09648 0.092496,0.131379 0,0.03482 0.104124,0.166616 0.2313075,0.292972 0.1272502,0.126286 0.2313082,0.252297 0.2313082,0.280102 0,0.06565 1.788316,1.888588 1.852801,1.888588 0.02698,0 0.171709,0.127319 0.321533,0.282924 0.149824,0.155535 0.296481,0.282854 0.325867,0.282854 0.02932,0 0.111766,0.06366 0.182995,0.141428 0.0713,0.07777 0.15416,0.141428 0.184167,0.141428 0.02993,0 0.134407,0.08486 0.232202,0.188569 0.09779,0.103778 0.20605,0.188639 0.240667,0.188639 0.03455,0 0.09277,0.0424 0.129453,0.09429 0.03668,0.05183 0.09538,0.09429 0.130485,0.09429 0.03503,0 0.122088,0.06366 0.193386,0.141428 0.07123,0.07777 0.158358,0.141428 0.193319,0.141428 0.0351,0 0.0938,0.04246 0.130485,0.09429 0.03668,0.05189 0.09917,0.09429 0.138813,0.09429 0.03964,0 0.102062,0.04246 0.138742,0.09435 0.03668,0.05183 0.09917,0.09429 0.138813,0.09429 0.03964,0 0.102135,0.0424 0.138812,0.09429 0.03668,0.05183 0.103715,0.09429 0.148998,0.09429 0.04521,0 0.08231,0.02119 0.08231,0.04714 0,0.02595 0.03703,0.04715 0.08231,0.04715 0.04529,0 0.112316,0.04246 0.148997,0.09429 0.03668,0.05189 0.103716,0.09429 0.148998,0.09429 0.04521,0 0.08231,0.02127 0.08231,0.04714 0,0.02595 0.03703,0.04714 0.08231,0.04714 0.04528,0 0.112315,0.04246 0.148997,0.09435 0.03668,0.05183 0.103716,0.09429 0.148998,0.09429 0.04521,0 0.08231,0.02119 0.08231,0.04715 0,0.02587 0.04163,0.04714 0.0925,0.04714 0.05093,0 0.09257,0.02119 0.09257,0.04715 0,0.02594 0.03703,0.04714 0.08231,0.04714 0.04528,0 0.112315,0.0424 0.148998,0.09429 0.03668,0.05189 0.103716,0.09429 0.148997,0.09429 0.04521,0 0.08231,0.02119 0.08231,0.04714 0,0.02594 0.04163,0.04715 0.0925,0.04715 0.05093,0 0.09257,0.02119 0.09257,0.04714 0,0.02594 0.04163,0.04715 0.0925,0.04715 0.05093,0 0.09257,0.02127 0.09257,0.04714 0,0.02595 0.04163,0.04714 0.0925,0.04714 0.05086,0 0.0925,0.02127 0.0925,0.04714 0,0.02594 0.04163,0.04721 0.09257,0.04721 0.05086,0 0.0925,0.02119 0.0925,0.04714 0,0.02587 0.06249,0.04714 0.138813,0.04714 0.07633,0 0.138811,0.02119 0.138811,0.04714 0,0.02587 0.04163,0.04715 0.0925,0.04715 0.05086,0 0.0925,0.02119 0.0925,0.04714 0,0.02595 0.04163,0.04714 0.09256,0.04714 0.05086,0 0.0925,0.02119 0.0925,0.04715 0,0.02595 0.04163,0.04714 0.09256,0.04714 0.05086,0 0.0925,0.02119 0.0925,0.04714 0,0.02595 0.06249,0.04714 0.138812,0.04714 0.07633,0 0.138743,0.02119 0.138743,0.04714 0,0.02594 0.04163,0.04714 0.09257,0.04714 0.05086,0 0.0925,0.02127 0.0925,0.04714 0,0.02595 0.06249,0.04715 0.138812,0.04715 0.07633,0 0.138744,0.02127 0.138744,0.04714 0,0.02594 0.06249,0.04715 0.138812,0.04715 0.07633,0 0.138812,0.02127 0.138812,0.04714 0,0.02594 0.04163,0.04721 0.0925,0.04721 0.05093,0 0.09257,0.02119 0.09257,0.04715 0,0.02588 0.08328,0.04714 0.18499,0.04714 0.10179,0 0.18506,0.02119 0.18506,0.04714 0,0.02594 0.06249,0.04715 0.138812,0.04715 0.07633,0 0.138813,0.02119 0.138813,0.04714 0,0.02595 0.06242,0.04715 0.138742,0.04715 0.07633,0 0.138813,0.02119 0.138813,0.04714 0,0.02595 0.08328,0.04715 0.18506,0.04715 0.10179,0 0.18506,0.02119 0.18506,0.04714 0,0.02595 0.08328,0.04714 0.184991,0.04714 0.10179,0 0.18506,0.02119 0.18506,0.04714 0,0.02595 0.08328,0.04714 0.18506,0.04714 0.10179,0 0.18506,0.02127 0.18506,0.04715 0,0.02595 0.104061,0.04714 0.231308,0.04714 0.12725,0 0.231307,0.02127 0.231307,0.04715 0,0.02595 0.104124,0.04714 0.231308,0.04714 0.127251,0 0.231308,0.02127 0.231308,0.04721 0,0.02746 0.154228,0.04715 0.370119,0.04715 0.215893,0 0.37012,0.01961 0.37012,0.04714 0,0.02877 0.215892,0.04714 0.555112,0.04714 0.339219,0 0.55518,0.0183 0.55518,0.04714 0,0.02931 0.262139,0.04714 0.693923,0.04714 0.431784,0 0.693923,-0.01782 0.693923,-0.04714 0,-0.02883 0.215892,-0.04714 0.55518,-0.04714 0.33922,0 0.555111,-0.01838 0.555111,-0.04714 0,-0.02752 0.154229,-0.04714 0.37012,-0.04714 0.215892,0 0.37012,-0.01969 0.37012,-0.04715 0,-0.02595 0.104061,-0.04721 0.231308,-0.04721 0.127181,0 0.231308,-0.02119 0.231308,-0.04714 0,-0.02588 0.104061,-0.04715 0.231307,-0.04715 0.127181,0 0.231308,-0.02119 0.231308,-0.04714 0,-0.02588 0.08328,-0.04715 0.18506,-0.04715 0.101717,0 0.184991,-0.02119 0.184991,-0.04714 0,-0.02595 0.08328,-0.04714 0.18506,-0.04714 0.10179,0 0.18506,-0.02119 0.18506,-0.04714 0,-0.02594 0.08328,-0.04714 0.18506,-0.04714 0.10179,0 0.18506,-0.02119 0.18506,-0.04715 0,-0.02595 0.06242,-0.04714 0.138744,-0.04714 0.07639,0 0.138811,-0.02119 0.138811,-0.04715 0,-0.02595 0.06249,-0.04714 0.138813,-0.04714 0.07632,0 0.138743,-0.02119 0.138743,-0.04715 0,-0.02595 0.06249,-0.04714 0.138813,-0.04714 0.07633,0 0.138811,-0.02127 0.138811,-0.04714 0,-0.02595 0.06242,-0.04715 0.138744,-0.04715 0.07633,0 0.138812,-0.02127 0.138812,-0.04721 0,-0.02587 0.06242,-0.04714 0.138812,-0.04714 0.07633,0 0.138743,-0.02119 0.138743,-0.04715 0,-0.02587 0.04163,-0.04714 0.09257,-0.04714 0.05086,0 0.0925,-0.02119 0.0925,-0.04715 0,-0.02587 0.06249,-0.04714 0.138813,-0.04714 0.07633,0 0.138743,-0.02119 0.138743,-0.04714 0,-0.02595 0.04163,-0.04714 0.09257,-0.04714 0.05086,0 0.0925,-0.02119 0.0925,-0.04714 0,-0.02595 0.04163,-0.04714 0.09257,-0.04714 0.05086,0 0.0925,-0.02119 0.0925,-0.04714 0,-0.02594 0.06249,-0.04715 0.138813,-0.04715 0.07633,0 0.138744,-0.02119 0.138744,-0.04714 0,-0.02594 0.04163,-0.04714 0.09256,-0.04714 0.05086,0 0.0925,-0.02127 0.0925,-0.04715 0,-0.02594 0.04163,-0.04714 0.09256,-0.04714 0.05086,0 0.0925,-0.02127 0.0925,-0.04714 0,-0.02595 0.04163,-0.04714 0.0925,-0.04714 0.05093,0 0.09257,-0.02127 0.09257,-0.04721 0,-0.02587 0.04163,-0.04714 0.0925,-0.04714 0.05093,0 0.09257,-0.02119 0.09257,-0.04714 0,-0.02587 0.04163,-0.04714 0.0925,-0.04714 0.05093,0 0.09257,-0.02119 0.09257,-0.04715 0,-0.02595 0.03703,-0.04714 0.08224,-0.04714 0.04528,0 0.112384,-0.0424 0.149066,-0.09429 0.03668,-0.05183 0.103716,-0.09429 0.148998,-0.09429 0.04521,0 0.08231,-0.02119 0.08231,-0.04714 0,-0.02595 0.04163,-0.04715 0.0925,-0.04715 0.05093,0 0.09257,-0.02119 0.09257,-0.04714 0,-0.02595 0.03703,-0.04715 0.08224,-0.04715 0.04528,0 0.112384,-0.04246 0.149066,-0.09429 0.03668,-0.05189 0.103715,-0.09429 0.148998,-0.09429 0.04521,0 0.08231,-0.02127 0.08231,-0.04721 0,-0.02587 0.03703,-0.04714 0.08224,-0.04714 0.04535,0 0.112385,-0.0424 0.149066,-0.09429 0.03668,-0.05183 0.0991,-0.09429 0.138744,-0.09429 0.03964,0 0.102135,-0.0424 0.138812,-0.09429 0.03668,-0.05183 0.09917,-0.09429 0.138812,-0.09429 0.03965,0 0.102062,-0.04246 0.138744,-0.09429 0.03668,-0.05189 0.09917,-0.09429 0.138812,-0.09429 0.03964,0 0.102062,-0.04246 0.138812,-0.09429 0.03668,-0.05189 0.0991,-0.09435 0.138743,-0.09435 0.03964,0 0.102135,-0.0424 0.138813,-0.09429 0.03668,-0.05183 0.09539,-0.09429 0.130416,-0.09429 0.03503,0 0.122088,-0.06366 0.193386,-0.141427 0.0713,-0.07777 0.154572,-0.141428 0.18506,-0.141428 0.03049,0 0.113762,-0.06366 0.18506,-0.141427 0.0713,-0.07783 0.15416,-0.141427 0.184097,-0.141427 0.02993,0 0.134476,-0.08493 0.232271,-0.18864 0.09779,-0.103715 0.201371,-0.188569 0.230207,-0.188569 0.02891,0 0.17508,-0.127319 0.324904,-0.282855 0.149893,-0.155604 0.294555,-0.282923 0.321533,-0.282923 0.06407,0 2.315486,-2.294358 2.315486,-2.35967 0,-0.02753 0.12491,-0.174943 0.277555,-0.327657 0.152645,-0.152714 0.277555,-0.302125 0.277555,-0.332062 0,-0.02993 0.06249,-0.113899 0.138813,-0.186505 0.07633,-0.07268 0.138743,-0.166066 0.138743,-0.207496 0,-0.0415 0.02086,-0.07543 0.04632,-0.07543 0.02567,0 0.04625,-0.125736 0.04625,-0.282856 0,-0.157118 -0.02058,-0.282854 -0.04625,-0.282854 -0.02546,0 -0.04632,-0.03193 -0.04632,-0.07096 0,-0.07908 -2.42319,-2.569299 -2.500202,-2.569299 -0.02677,0 -0.192354,-0.148515 -0.368055,-0.329997 -0.175631,-0.18155 -0.342798,-0.329996 -0.371496,-0.329996 -0.02863,0 -0.132137,-0.08493 -0.229932,-0.188639 -0.09779,-0.103716 -0.201852,-0.18857 -0.231307,-0.18857 -0.02939,0 -0.133513,-0.08486 -0.231308,-0.18857 -0.09779,-0.103715 -0.202265,-0.18857 -0.232202,-0.18857 -0.03001,0 -0.112867,-0.06366 -0.184165,-0.141496 -0.07123,-0.07777 -0.154504,-0.141427 -0.184992,-0.141427 -0.03049,0 -0.113761,-0.06366 -0.18506,-0.141427 -0.0713,-0.07777 -0.158358,-0.141428 -0.193387,-0.141428 -0.0351,0 -0.0938,-0.04246 -0.130485,-0.09429 -0.03668,-0.05189 -0.09539,-0.09429 -0.130416,-0.09429 -0.03503,0 -0.122088,-0.06366 -0.193387,-0.141428 -0.07129,-0.07783 -0.158358,-0.141496 -0.193388,-0.141496 -0.0351,0 -0.09381,-0.0424 -0.130484,-0.09429 -0.03668,-0.05183 -0.0991,-0.09429 -0.138744,-0.09429 -0.03964,0 -0.102135,-0.0424 -0.138812,-0.09429 -0.03668,-0.05189 -0.103715,-0.09429 -0.148998,-0.09429 -0.04528,0 -0.08231,-0.02119 -0.08231,-0.04714 0,-0.02595 -0.03709,-0.04714 -0.08231,-0.04714 -0.04529,0 -0.112316,-0.04246 -0.148998,-0.09429 -0.03668,-0.05189 -0.09917,-0.09429 -0.138812,-0.09429 -0.03964,0 -0.102062,-0.04246 -0.138744,-0.09435 -0.03668,-0.05183 -0.103778,-0.09429 -0.149066,-0.09429 -0.04521,0 -0.08224,-0.02119 -0.08224,-0.04714 0,-0.02588 -0.03709,-0.04715 -0.08231,-0.04715 -0.04528,0 -0.112317,-0.0424 -0.149067,-0.09429 -0.03668,-0.05183 -0.103716,-0.09429 -0.148997,-0.09429 -0.04521,0 -0.08231,-0.02119 -0.08231,-0.04714 0,-0.02594 -0.04163,-0.04714 -0.0925,-0.04714 -0.05086,0 -0.0925,-0.02119 -0.0925,-0.04714 0,-0.02595 -0.04163,-0.04714 -0.09257,-0.04714 -0.05086,0 -0.0925,-0.02127 -0.0925,-0.04715 0,-0.02595 -0.03709,-0.04714 -0.08231,-0.04714 -0.04528,0 -0.112316,-0.04246 -0.148998,-0.09429 -0.03668,-0.05189 -0.103716,-0.09435 -0.149066,-0.09435 -0.04521,0 -0.08224,-0.02119 -0.08224,-0.04715 0,-0.02588 -0.04163,-0.04714 -0.09256,-0.04714 -0.05086,0 -0.0925,-0.02119 -0.0925,-0.04714 0,-0.02595 -0.04163,-0.04714 -0.09256,-0.04714 -0.05086,0 -0.0925,-0.02119 -0.0925,-0.04714 0,-0.02595 -0.04163,-0.04714 -0.09256,-0.04714 -0.05086,0 -0.0925,-0.02119 -0.0925,-0.04714 0,-0.02594 -0.04163,-0.04714 -0.0925,-0.04714 -0.05093,0 -0.09257,-0.02119 -0.09257,-0.04714 0,-0.02595 -0.04163,-0.04715 -0.0925,-0.04715 -0.05093,0 -0.09257,-0.02119 -0.09257,-0.04714 0,-0.02595 -0.06242,-0.04714 -0.138742,-0.04714 -0.07633,0 -0.138813,-0.02127 -0.138813,-0.04715 0,-0.02594 -0.04163,-0.04714 -0.0925,-0.04714 -0.05093,0 -0.09257,-0.02127 -0.09257,-0.04714 0,-0.02595 -0.04163,-0.04714 -0.0925,-0.04714 -0.05093,0 -0.09257,-0.02127 -0.09257,-0.04721 0,-0.02588 -0.06242,-0.04714 -0.138742,-0.04714 -0.07633,0 -0.138813,-0.02119 -0.138813,-0.04714 0,-0.02588 -0.04163,-0.04714 -0.0925,-0.04714 -0.05093,0 -0.09257,-0.02119 -0.09257,-0.04714 0,-0.02594 -0.06242,-0.04714 -0.138743,-0.04714 -0.07639,0 -0.138813,-0.02119 -0.138813,-0.04714 0,-0.02595 -0.06249,-0.04714 -0.138811,-0.04714 -0.07633,0 -0.138744,-0.02119 -0.138744,-0.04715 0,-0.02595 -0.06249,-0.04714 -0.138812,-0.04714 -0.07633,0 -0.138813,-0.02119 -0.138813,-0.04714 0,-0.02594 -0.06242,-0.04715 -0.138743,-0.04715 -0.07633,0 -0.138812,-0.02119 -0.138812,-0.04714 0,-0.02595 -0.06242,-0.04714 -0.138744,-0.04714 -0.07639,0 -0.138811,-0.02127 -0.138811,-0.04714 0,-0.02594 -0.08328,-0.04714 -0.18506,-0.04714 -0.10179,0 -0.18506,-0.02127 -0.18506,-0.04714 0,-0.02594 -0.08328,-0.04721 -0.18506,-0.04721 -0.10179,0 -0.18506,-0.02119 -0.18506,-0.04714 0,-0.02588 -0.0832,-0.04714 -0.184991,-0.04714 -0.10179,0 -0.18506,-0.02119 -0.18506,-0.04714 0,-0.02588 -0.104124,-0.04714 -0.231308,-0.04714 -0.12725,0 -0.231308,-0.02119 -0.231308,-0.04714 0,-0.02691 -0.138812,-0.04715 -0.323872,-0.04715 -0.18506,0 -0.323804,-0.02023 -0.323804,-0.04714 0,-0.02794 -0.169644,-0.04714 -0.416367,-0.04714 -0.246724,0 -0.416368,-0.0192 -0.416368,-0.04714 0,-0.0298 -0.323872,-0.04714 -0.878983,-0.04714 -0.55518,0 -0.878983,0.01734 -0.878983,0.04714 z m 2.035522,1.414411 c 0,0.02588 0.104124,0.04715 0.231308,0.04715 0.12725,0 0.231307,0.02119 0.231307,0.04714 0,0.02595 0.08328,0.04714 0.18506,0.04714 0.10179,0 0.18506,0.02119 0.18506,0.04715 0,0.02595 0.08328,0.04714 0.18506,0.04714 0.10179,0 0.18506,0.02119 0.18506,0.04714 0,0.02595 0.06242,0.04714 0.138744,0.04714 0.07633,0 0.138812,0.02119 0.138812,0.04714 0,0.02594 0.04163,0.04714 0.0925,0.04714 0.05093,0 0.09257,0.02119 0.09257,0.04714 0,0.02595 0.06242,0.04714 0.138742,0.04714 0.07639,0 0.138813,0.02127 0.138813,0.04714 0,0.02595 0.04163,0.04715 0.0925,0.04715 0.05093,0 0.09257,0.02127 0.09257,0.04714 0,0.02595 0.04163,0.04721 0.0925,0.04721 0.05093,0 0.09257,0.02119 0.09257,0.04715 0,0.02588 0.03703,0.04714 0.08231,0.04714 0.04528,0 0.112315,0.0424 0.148997,0.09429 0.03668,0.05183 0.103715,0.09429 0.148998,0.09429 0.04521,0 0.08231,0.02119 0.08231,0.04714 0,0.02595 0.03703,0.04714 0.08231,0.04714 0.04529,0 0.112316,0.04246 0.148997,0.09429 0.03668,0.05189 0.09539,0.09429 0.130485,0.09429 0.03497,0 0.122089,0.06366 0.193319,0.141427 0.0713,0.07783 0.152714,0.141496 0.180931,0.141496 0.0669,0 1.29948,1.256124 1.29948,1.324325 0,0.0287 0.06249,0.111697 0.138812,0.184303 0.07633,0.07268 0.138743,0.161386 0.138743,0.197103 0,0.03572 0.04163,0.09559 0.09257,0.132963 0.05086,0.03737 0.0925,0.105709 0.0925,0.151819 0,0.04611 0.02086,0.08389 0.04632,0.08389 0.02539,0 0.04625,0.03778 0.04625,0.08389 0,0.04611 0.04163,0.11445 0.0925,0.15182 0.05093,0.03744 0.09257,0.105709 0.09257,0.151888 0,0.04611 0.02079,0.08389 0.04625,0.08389 0.02546,0 0.04625,0.0424 0.04625,0.09429 0,0.05183 0.02086,0.09429 0.04625,0.09429 0.02546,0 0.04625,0.06366 0.04625,0.141427 0,0.07777 0.02085,0.141428 0.04631,0.141428 0.02539,0 0.04625,0.04246 0.04625,0.09429 0,0.05189 0.02079,0.09429 0.04625,0.09429 0.02546,0 0.04625,0.06366 0.04625,0.141496 0,0.07777 0.02085,0.141428 0.04631,0.141428 0.02539,0 0.04625,0.06366 0.04625,0.141428 0,0.07777 0.02079,0.141427 0.04625,0.141427 0.02546,0 0.04625,0.06366 0.04625,0.141427 0,0.07783 0.02085,0.141428 0.04625,0.141428 0.02546,0 0.04631,0.08492 0.04631,0.188638 0,0.103716 0.02079,0.18857 0.04625,0.18857 0.02573,0 0.04625,0.125736 0.04625,0.282854 0,0.157188 0.02051,0.282924 0.04625,0.282924 0.02946,0 0.04625,0.37714 0.04625,1.037203 0,0.660063 -0.01679,1.037203 -0.04625,1.037203 -0.02574,0 -0.04625,0.125736 -0.04625,0.282855 0,0.157187 -0.02051,0.282923 -0.04625,0.282923 -0.02546,0 -0.04625,0.08486 -0.04625,0.18857 0,0.103716 -0.02085,0.188571 -0.04631,0.188571 -0.02539,0 -0.04625,0.06366 -0.04625,0.141427 0,0.07783 -0.02079,0.141496 -0.04625,0.141496 -0.02546,0 -0.04625,0.06359 -0.04625,0.141427 0,0.07777 -0.02085,0.141427 -0.04625,0.141427 -0.02546,0 -0.04631,0.06366 -0.04631,0.141428 0,0.07777 -0.02079,0.141427 -0.04625,0.141427 -0.02546,0 -0.04625,0.04246 -0.04625,0.09429 0,0.05189 -0.02085,0.09435 -0.04625,0.09435 -0.02546,0 -0.04631,0.0424 -0.04631,0.09429 0,0.05183 -0.02079,0.09429 -0.04625,0.09429 -0.02539,0 -0.04625,0.0424 -0.04625,0.09429 0,0.05183 -0.02079,0.09429 -0.04625,0.09429 -0.02546,0 -0.04625,0.05898 -0.04625,0.131035 0,0.07694 -0.03826,0.159046 -0.09257,0.198962 -0.05086,0.03744 -0.0925,0.101026 -0.0925,0.141496 0,0.0404 -0.04163,0.103988 -0.09257,0.141427 -0.05085,0.03737 -0.0925,0.101027 -0.0925,0.141428 0,0.0404 -0.04163,0.104061 -0.09257,0.141427 -0.05086,0.03737 -0.0925,0.09725 -0.0925,0.132962 0,0.03572 -0.06242,0.124429 -0.138811,0.197035 -0.07633,0.07267 -0.138744,0.155742 -0.138744,0.18444 0,0.06827 -1.047388,1.135687 -1.114351,1.135687 -0.02829,0 -0.1097,0.06366 -0.181,0.141427 -0.0713,0.07783 -0.158357,0.141427 -0.193387,0.141427 -0.0351,0 -0.0938,0.04246 -0.130485,0.09435 -0.03668,0.05183 -0.0991,0.09429 -0.138743,0.09429 -0.03964,0 -0.102125,0.0424 -0.138813,0.09429 -0.03668,0.05183 -0.103715,0.09429 -0.148997,0.09429 -0.04528,0 -0.08231,0.02119 -0.08231,0.04715 0,0.02595 -0.04163,0.04714 -0.0925,0.04714 -0.05093,0 -0.09257,0.02119 -0.09257,0.04714 0,0.02594 -0.04163,0.04715 -0.0925,0.04715 -0.05093,0 -0.09257,0.02119 -0.09257,0.04714 0,0.02595 -0.04163,0.04715 -0.0925,0.04715 -0.05093,0 -0.09257,0.02119 -0.09257,0.04714 0,0.02595 -0.04163,0.04715 -0.0925,0.04715 -0.05086,0 -0.0925,0.02127 -0.0925,0.04714 0,0.02595 -0.04163,0.04714 -0.09257,0.04714 -0.05086,0 -0.0925,0.02127 -0.0925,0.04714 0,0.02594 -0.06249,0.04721 -0.138813,0.04721 -0.07633,0 -0.138743,0.02119 -0.138743,0.04714 0,0.02587 -0.06249,0.04714 -0.138812,0.04714 -0.07633,0 -0.138812,0.02119 -0.138812,0.04714 0,0.02587 -0.06242,0.04715 -0.138743,0.04715 -0.07639,0 -0.138813,0.02119 -0.138813,0.04714 0,0.02594 -0.08328,0.04714 -0.18506,0.04714 -0.10179,0 -0.18506,0.02119 -0.18506,0.04715 0,0.02622 -0.123396,0.04714 -0.277556,0.04714 -0.154158,0 -0.277555,0.02092 -0.277555,0.04714 0,0.03001 -0.37012,0.04714 -1.017795,0.04714 -0.647675,0 -1.017795,-0.01713 -1.017795,-0.04714 0,-0.02622 -0.123328,-0.04714 -0.277556,-0.04714 -0.154159,0 -0.277555,-0.02092 -0.277555,-0.04714 0,-0.02595 -0.08328,-0.04715 -0.18506,-0.04715 -0.10179,0 -0.18506,-0.02119 -0.18506,-0.04714 0,-0.02594 -0.08328,-0.04714 -0.18506,-0.04714 -0.10179,0 -0.18506,-0.02127 -0.18506,-0.04715 0,-0.02594 -0.04163,-0.04714 -0.0925,-0.04714 -0.05085,0 -0.0925,-0.02127 -0.0925,-0.04714 0,-0.02595 -0.06249,-0.04714 -0.138812,-0.04714 -0.07633,0 -0.138812,-0.02127 -0.138812,-0.04721 0,-0.02587 -0.06242,-0.04714 -0.138743,-0.04714 -0.07633,0 -0.138813,-0.02119 -0.138813,-0.04714 0,-0.02587 -0.04163,-0.04714 -0.0925,-0.04714 -0.05093,0 -0.09257,-0.02119 -0.09257,-0.04715 0,-0.02595 -0.04163,-0.04714 -0.0925,-0.04714 -0.05093,0 -0.09257,-0.02119 -0.09257,-0.04715 0,-0.02595 -0.04163,-0.04714 -0.0925,-0.04714 -0.05093,0 -0.0925,-0.02119 -0.0925,-0.04715 0,-0.02595 -0.03709,-0.04714 -0.08231,-0.04714 -0.04529,0 -0.112316,-0.04246 -0.149067,-0.09429 -0.03668,-0.05189 -0.103715,-0.09429 -0.148998,-0.09429 -0.04521,0 -0.08231,-0.02127 -0.08231,-0.04714 0,-0.02595 -0.03324,-0.04715 -0.07391,-0.04715 -0.04067,0 -0.132343,-0.06366 -0.203642,-0.141497 -0.0713,-0.07777 -0.153884,-0.141427 -0.183478,-0.141427 -0.0296,0 -0.15519,-0.106053 -0.279137,-0.235712 -0.123948,-0.129658 -0.247894,-0.235712 -0.27556,-0.235712 -0.06552,0 -0.557176,-0.501018 -0.557176,-0.567775 0,-0.02822 -0.104061,-0.154572 -0.231308,-0.280858 -0.127181,-0.126355 -0.231307,-0.258149 -0.231307,-0.292971 0,-0.03489 -0.04163,-0.09401 -0.0925,-0.13138 -0.05093,-0.03737 -0.09257,-0.101026 -0.09257,-0.141427 0,-0.0404 -0.04163,-0.104062 -0.0925,-0.141428 -0.05093,-0.03737 -0.09257,-0.105709 -0.09257,-0.151888 0,-0.04611 -0.02079,-0.08382 -0.04625,-0.08382 -0.02546,0 -0.04625,-0.03778 -0.04625,-0.08389 0,-0.04618 -0.04163,-0.11445 -0.0925,-0.151888 -0.05093,-0.03737 -0.09256,-0.105709 -0.09256,-0.15182 0,-0.04611 -0.02079,-0.08389 -0.04625,-0.08389 -0.02546,0 -0.04625,-0.04246 -0.04625,-0.09429 0,-0.05189 -0.02085,-0.09429 -0.04631,-0.09429 -0.02539,0 -0.04625,-0.06366 -0.04625,-0.141428 0,-0.07783 -0.02079,-0.141496 -0.04625,-0.141496 -0.02546,0 -0.04625,-0.0424 -0.04625,-0.09429 0,-0.05183 -0.02085,-0.09429 -0.04625,-0.09429 -0.02546,0 -0.04631,-0.06366 -0.04631,-0.141427 0,-0.07777 -0.02079,-0.141428 -0.04625,-0.141428 -0.02546,0 -0.04625,-0.06366 -0.04625,-0.141427 0,-0.07783 -0.02085,-0.141497 -0.04625,-0.141497 -0.02546,0 -0.04625,-0.08486 -0.04625,-0.188569 0,-0.103715 -0.02085,-0.18857 -0.04631,-0.18857 -0.02539,0 -0.04625,-0.08486 -0.04625,-0.18857 0,-0.103716 -0.02079,-0.188569 -0.04625,-0.188569 -0.02643,0 -0.04625,-0.141497 -0.04625,-0.330066 0,-0.188571 -0.01989,-0.329998 -0.04631,-0.329998 -0.02891,0 -0.04625,-0.282923 -0.04625,-0.754348 0,-0.471494 0.01734,-0.754348 0.04625,-0.754348 0.02643,0 0.04631,-0.141427 0.04631,-0.329997 0,-0.188639 0.01982,-0.330067 0.04625,-0.330067 0.02546,0 0.04625,-0.08486 0.04625,-0.188569 0,-0.103716 0.02086,-0.18857 0.04625,-0.18857 0.02546,0 0.04631,-0.08486 0.04631,-0.188638 0,-0.103716 0.02079,-0.18857 0.04625,-0.18857 0.02539,0 0.04625,-0.06366 0.04625,-0.141428 0,-0.07777 0.02079,-0.141428 0.04625,-0.141428 0.02546,0 0.04625,-0.06366 0.04625,-0.141427 0,-0.07783 0.02085,-0.141427 0.04631,-0.141427 0.02539,0 0.04625,-0.06366 0.04625,-0.141496 0,-0.07777 0.02079,-0.141427 0.04625,-0.141427 0.02546,0 0.04625,-0.0424 0.04625,-0.09429 0,-0.05183 0.02085,-0.09429 0.04625,-0.09429 0.02546,0 0.04631,-0.04246 0.04631,-0.09429 0,-0.05189 0.02079,-0.09429 0.04625,-0.09429 0.02546,0 0.04625,-0.04246 0.04625,-0.09429 0,-0.05189 0.02085,-0.09429 0.04625,-0.09429 0.02546,0 0.04631,-0.03778 0.04631,-0.08389 0,-0.04617 0.04163,-0.114518 0.0925,-0.151887 0.05086,-0.03737 0.0925,-0.10571 0.0925,-0.15182 0,-0.04611 0.02085,-0.08389 0.04631,-0.08389 0.02539,0 0.04625,-0.03778 0.04625,-0.08389 0,-0.04611 0.04163,-0.11445 0.0925,-0.151819 0.05093,-0.03744 0.09257,-0.09677 0.09257,-0.131999 0,-0.03524 0.08328,-0.145557 0.184991,-0.24521 0.10179,-0.09965 0.18506,-0.20433 0.18506,-0.232616 0,-0.06717 0.862397,-0.946014 0.928327,-0.946014 0.02773,0 0.130485,-0.08486 0.22828,-0.18857 0.09779,-0.103779 0.206051,-0.188639 0.240598,-0.188639 0.03455,0 0.09277,-0.0424 0.129454,-0.09429 0.03668,-0.05183 0.09917,-0.09429 0.138811,-0.09429 0.03965,0 0.102125,-0.0424 0.138813,-0.09429 0.03668,-0.05189 0.103716,-0.09429 0.148997,-0.09429 0.04521,0 0.08231,-0.02119 0.08231,-0.04714 0,-0.02595 0.03703,-0.04714 0.08231,-0.04714 0.04528,0 0.112315,-0.04246 0.148998,-0.09429 0.03916,-0.0554 0.119748,-0.09429 0.195245,-0.09429 0.07068,0 0.128557,-0.02127 0.128557,-0.04721 0,-0.02588 0.04163,-0.04714 0.09257,-0.04714 0.05086,0 0.0925,-0.02119 0.0925,-0.04715 0,-0.02588 0.04163,-0.04714 0.0925,-0.04714 0.05093,0 0.09257,-0.02119 0.09257,-0.04714 0,-0.02595 0.06242,-0.04714 0.138813,-0.04714 0.07633,0 0.138742,-0.02119 0.138742,-0.04714 0,-0.02594 0.06249,-0.04714 0.138813,-0.04714 0.07633,0 0.138744,-0.02119 0.138744,-0.04714 0,-0.02595 0.06249,-0.04714 0.138811,-0.04714 0.07633,0 0.138812,-0.02119 0.138812,-0.04714 0,-0.02595 0.08328,-0.04715 0.18506,-0.04715 0.101717,0 0.184992,-0.02119 0.184992,-0.04714 0,-0.02595 0.104124,-0.04714 0.231307,-0.04714 0.12725,0 0.231377,-0.02127 0.231377,-0.04715 0,-0.03022 0.416298,-0.04714 1.156538,-0.04714 0.740172,0 1.156539,0.01693 1.156539,0.04714 z m -7.772037,1.592521 c 0,0.02023 -0.04163,0.0673 -0.09256,0.104746 -0.05086,0.03737 -0.0925,0.09669 -0.0925,0.131929 0,0.03524 -0.08328,0.145557 -0.18506,0.24521 -0.10179,0.09966 -0.18506,0.209974 -0.18506,0.24521 0,0.03524 -0.04163,0.09456 -0.0925,0.131998 -0.05093,0.03737 -0.09257,0.101026 -0.09257,0.141427 0,0.0404 -0.04163,0.104062 -0.0925,0.141429 -0.05093,0.03737 -0.09257,0.105708 -0.09257,0.151887 0,0.04611 -0.02079,0.08382 -0.04625,0.08382 -0.02546,0 -0.04625,0.04246 -0.04625,0.09429 0,0.05189 -0.02085,0.09435 -0.04625,0.09435 -0.02546,0 -0.04632,0.03772 -0.04632,0.08382 0,0.04617 -0.04163,0.114519 -0.0925,0.151888 -0.05085,0.03737 -0.0925,0.105709 -0.0925,0.151819 0,0.04611 -0.02086,0.08389 -0.04631,0.08389 -0.02539,0 -0.04625,0.06366 -0.04625,0.141428 0,0.07783 -0.02079,0.141427 -0.04625,0.141427 -0.02546,0 -0.04625,0.04246 -0.04625,0.09436 0,0.05183 -0.02086,0.09429 -0.04631,0.09429 -0.02539,0 -0.04625,0.0424 -0.04625,0.09429 0,0.05183 -0.02079,0.09429 -0.04625,0.09429 -0.02546,0 -0.04625,0.06366 -0.04625,0.141427 0,0.07777 -0.02086,0.141428 -0.04625,0.141428 -0.02546,0 -0.04632,0.06366 -0.04632,0.141427 0,0.07783 -0.02079,0.141497 -0.04625,0.141497 -0.02539,0 -0.04625,0.06359 -0.04625,0.141427 0,0.07777 -0.02079,0.141427 -0.04625,0.141427 -0.02546,0 -0.04625,0.08486 -0.04625,0.18857 0,0.103716 -0.02086,0.18857 -0.04631,0.18857 -0.02539,0 -0.04625,0.106122 -0.04625,0.235781 0,0.129659 -0.02079,0.235713 -0.04625,0.235713 -0.02643,0 -0.04625,0.141427 -0.04625,0.329997 0,0.188638 -0.01989,0.330065 -0.04625,0.330065 -0.02931,0 -0.04631,0.345689 -0.04631,0.942918 0,0.597161 0.017,0.942919 0.04631,0.942919 0.02636,0 0.04625,0.141427 0.04625,0.329996 0,0.188639 0.01982,0.330066 0.04625,0.330066 0.02546,0 0.04625,0.106054 0.04625,0.235713 0,0.129659 0.02086,0.235712 0.04625,0.235712 0.02546,0 0.04631,0.08493 0.04631,0.188639 0,0.103716 0.02079,0.188569 0.04625,0.188569 0.02546,0 0.04625,0.06366 0.04625,0.141428 0,0.07777 0.02086,0.141427 0.04625,0.141427 0.02546,0 0.04625,0.06366 0.04625,0.141428 0,0.07783 0.02086,0.141496 0.04632,0.141496 0.02539,0 0.04625,0.06359 0.04625,0.141428 0,0.07777 0.02079,0.141427 0.04625,0.141427 0.02546,0 0.04625,0.0424 0.04625,0.09429 0,0.05189 0.02086,0.09429 0.04625,0.09429 0.02546,0 0.04631,0.04246 0.04631,0.09429 0,0.05189 0.02079,0.09429 0.04625,0.09429 0.02546,0 0.04625,0.04246 0.04625,0.09429 0,0.05189 0.02086,0.09435 0.04625,0.09435 0.02546,0 0.04631,0.05897 0.04631,0.130966 0,0.07695 0.0382,0.159114 0.0925,0.199031 0.05086,0.03737 0.0925,0.105708 0.0925,0.151888 0,0.04611 0.02086,0.08382 0.04632,0.08382 0.02539,0 0.04625,0.04246 0.04625,0.09429 0,0.05189 0.02079,0.09429 0.04625,0.09429 0.02546,0 0.04625,0.03778 0.04625,0.08389 0,0.04617 0.04163,0.114517 0.09257,0.151887 0.05086,0.03737 0.0925,0.09718 0.0925,0.132963 0,0.03565 0.06249,0.124359 0.138813,0.197035 0.07633,0.07267 0.138744,0.157118 0.138744,0.187675 0,0.03049 0.08328,0.136954 0.18506,0.236676 0.10179,0.09965 0.185059,0.209973 0.185059,0.245209 0,0.03516 0.04163,0.09456 0.09256,0.13193 0.05086,0.03737 0.0925,0.08451 0.0925,0.104746 0,0.02017 -0.04163,0.03668 -0.0925,0.03668 -0.05093,0 -0.09256,-0.02119 -0.09256,-0.04714 0,-0.02595 -0.04163,-0.04715 -0.0925,-0.04715 -0.05093,0 -0.09256,-0.02119 -0.09256,-0.04714 0,-0.02595 -0.04163,-0.04714 -0.0925,-0.04714 -0.05093,0 -0.09256,-0.02119 -0.09256,-0.04715 0,-0.02595 -0.04163,-0.04714 -0.0925,-0.04714 -0.05085,0 -0.0925,-0.02119 -0.0925,-0.04714 0,-0.02594 -0.04163,-0.04714 -0.09257,-0.04714 -0.05085,0 -0.0925,-0.02119 -0.0925,-0.04714 0,-0.02594 -0.04163,-0.04714 -0.09257,-0.04714 -0.05085,0 -0.0925,-0.02127 -0.0925,-0.04714 0,-0.02595 -0.04163,-0.04715 -0.09257,-0.04715 -0.05085,0 -0.0925,-0.02127 -0.0925,-0.04714 0,-0.02594 -0.04163,-0.04721 -0.0925,-0.04721 -0.05093,0 -0.09257,-0.02119 -0.09257,-0.04715 0,-0.02587 -0.03703,-0.04714 -0.08231,-0.04714 -0.04529,0 -0.112316,-0.0424 -0.148997,-0.09429 -0.03668,-0.05183 -0.103716,-0.09429 -0.148998,-0.09429 -0.04529,0 -0.08231,-0.02119 -0.08231,-0.04714 0,-0.02595 -0.03703,-0.04715 -0.08231,-0.04715 -0.04529,0 -0.112315,-0.04246 -0.148997,-0.09429 -0.03668,-0.05189 -0.103716,-0.09429 -0.148998,-0.09429 -0.04528,0 -0.08231,-0.02119 -0.08231,-0.04714 0,-0.02595 -0.03709,-0.04714 -0.08231,-0.04714 -0.04528,0 -0.112315,-0.04246 -0.148998,-0.09429 -0.03668,-0.05189 -0.09917,-0.09435 -0.138811,-0.09435 -0.03965,0 -0.102062,-0.0424 -0.138744,-0.09429 -0.03668,-0.05183 -0.09917,-0.09429 -0.138812,-0.09429 -0.03964,0 -0.102135,-0.0424 -0.138812,-0.09429 -0.03668,-0.05183 -0.0991,-0.09429 -0.138743,-0.09429 -0.03964,0 -0.102136,-0.04246 -0.138813,-0.09429 -0.03668,-0.05189 -0.09538,-0.09429 -0.130484,-0.09429 -0.03497,0 -0.122089,-0.06366 -0.193318,-0.141427 -0.0713,-0.07783 -0.15416,-0.141496 -0.184167,-0.141496 -0.02993,0 -0.134406,-0.08486 -0.232202,-0.18857 -0.09779,-0.103716 -0.202333,-0.18857 -0.232271,-0.18857 -0.02994,0 -0.112798,-0.06366 -0.184097,-0.141428 -0.07129,-0.07783 -0.153883,-0.141427 -0.183476,-0.141427 -0.0296,0 -0.155261,-0.106122 -0.279139,-0.235781 -0.123946,-0.129658 -0.247618,-0.235712 -0.274802,-0.235712 -0.07102,0 -2.2234039,-2.203239 -2.2234039,-2.275914 0,-0.03331 -0.04163,-0.09119 -0.0925,-0.128558 -0.05093,-0.03737 -0.09257,-0.09629 -0.09257,-0.130898 0,-0.03455 0.12491,-0.187882 0.2776239,-0.340527 0.152646,-0.152713 0.277556,-0.300266 0.277556,-0.327863 0,-0.06517 1.232998,-1.32226 1.296934,-1.32226 0.0267,0 0.213414,-0.169782 0.414785,-0.377209 0.201369,-0.207426 0.389183,-0.377139 0.417331,-0.377139 0.02821,0 0.152645,-0.106123 0.276591,-0.235781 0.123947,-0.12966 0.249132,-0.235713 0.278175,-0.235713 0.02912,0 0.132894,-0.08486 0.230689,-0.18857 0.09779,-0.103716 0.202333,-0.18857 0.232271,-0.18857 0.02994,0 0.112798,-0.06366 0.184097,-0.141496 0.0713,-0.07777 0.158357,-0.141427 0.193386,-0.141427 0.03503,0 0.09381,-0.0424 0.130485,-0.09429 0.03668,-0.05183 0.09539,-0.09429 0.130417,-0.09429 0.03503,0 0.122088,-0.06366 0.193387,-0.141427 0.07129,-0.07777 0.158358,-0.141427 0.193388,-0.141427 0.03503,0 0.0938,-0.04246 0.130484,-0.09429 0.03668,-0.05189 0.0991,-0.09429 0.138743,-0.09429 0.03965,0 0.102125,-0.04246 0.138812,-0.09435 0.03668,-0.05183 0.0991,-0.09429 0.138744,-0.09429 0.03971,0 0.102125,-0.0424 0.138813,-0.09429 0.03668,-0.05183 0.09917,-0.09429 0.138811,-0.09429 0.03965,0 0.102063,-0.0424 0.138744,-0.09429 0.03668,-0.05189 0.103716,-0.09429 0.149066,-0.09429 0.04521,0 0.08224,-0.02119 0.08224,-0.04714 0,-0.02595 0.03709,-0.04714 0.08231,-0.04714 0.04529,0 0.112317,-0.04246 0.148998,-0.09429 0.03676,-0.05189 0.103779,-0.09435 0.149066,-0.09435 0.04521,0 0.08231,-0.02119 0.08231,-0.04714 0,-0.02588 0.04163,-0.04714 0.0925,-0.04714 0.05086,0 0.0925,-0.02119 0.0925,-0.04714 0,-0.02588 0.03709,-0.04714 0.08231,-0.04714 0.04528,0 0.112317,-0.0424 0.148998,-0.09429 0.03676,-0.05183 0.103779,-0.09429 0.149066,-0.09429 0.04521,0 0.08231,-0.02119 0.08231,-0.04714 0,-0.02594 0.04163,-0.04714 0.0925,-0.04714 0.05086,0 0.0925,-0.02119 0.0925,-0.04714 0,-0.02595 0.04163,-0.04714 0.09256,-0.04714 0.05086,0 0.0925,-0.02119 0.0925,-0.04714 0,-0.02595 0.04163,-0.04714 0.09256,-0.04714 0.05086,0 0.0925,-0.02127 0.0925,-0.04714 0,-0.02594 0.02085,-0.04715 0.04625,-0.04715 0.02546,0 0.04631,0.01652 0.04631,0.03668 z m 13.693612,0.3876 c 0,0.02595 0.04163,0.04715 0.09256,0.04715 0.05086,0 0.0925,0.02119 0.0925,0.04714 0,0.02595 0.03709,0.04715 0.08231,0.04715 0.04528,0 0.112316,0.04246 0.148997,0.09429 0.03668,0.05189 0.103716,0.09429 0.148998,0.09429 0.04528,0 0.08231,0.02127 0.08231,0.04721 0,0.02587 0.03709,0.04714 0.08231,0.04714 0.04528,0 0.112315,0.0424 0.148997,0.09429 0.03668,0.05183 0.103715,0.09429 0.149067,0.09429 0.04521,0 0.08224,0.02119 0.08224,0.04714 0,0.02594 0.03709,0.04714 0.08231,0.04714 0.04528,0 0.112316,0.0424 0.148997,0.09429 0.03676,0.05189 0.09917,0.09429 0.138813,0.09429 0.03964,0 0.102135,0.04246 0.138812,0.09429 0.03668,0.05189 0.0991,0.09429 0.138743,0.09429 0.03965,0 0.102136,0.04246 0.138812,0.09435 0.03668,0.05183 0.09917,0.09429 0.138813,0.09429 0.03964,0 0.102062,0.0424 0.138743,0.09429 0.03668,0.05183 0.09917,0.09429 0.138812,0.09429 0.03964,0 0.102062,0.0424 0.138812,0.09429 0.03668,0.05189 0.09539,0.09429 0.130416,0.09429 0.03503,0 0.122089,0.06366 0.193387,0.141428 0.0713,0.07783 0.154573,0.141427 0.18506,0.141427 0.03049,0 0.113762,0.06366 0.18506,0.141496 0.0713,0.07777 0.154572,0.141427 0.18506,0.141427 0.03049,0 0.113762,0.06366 0.184991,0.141427 0.0713,0.07777 0.15416,0.141428 0.184166,0.141428 0.02993,0 0.134407,0.08486 0.232202,0.188569 0.09779,0.103716 0.201646,0.18864 0.230757,0.18864 0.02904,0 0.154229,0.106053 0.278175,0.235712 0.123947,0.129659 0.248445,0.235712 0.27673,0.235712 0.02843,0 0.195246,0.148516 0.370946,0.330066 0.175632,0.181481 0.341284,0.329998 0.368192,0.329998 0.02685,0 0.413547,0.371702 0.85937,0.826059 l 0.810575,0.82606 -0.32518,0.326762 c -0.178797,0.179692 -0.325111,0.34913 -0.325111,0.376521 0,0.06497 -1.325769,1.416269 -1.389429,1.416269 -0.02677,0 -0.213414,0.169782 -0.414785,0.377209 -0.201371,0.207427 -0.389252,0.37714 -0.4174,0.37714 -0.02815,0 -0.152645,0.106122 -0.276523,0.235781 -0.123947,0.129659 -0.249133,0.235712 -0.278175,0.235712 -0.02912,0 -0.132963,0.08486 -0.230757,0.188569 -0.09779,0.103716 -0.20605,0.188571 -0.240599,0.188571 -0.03455,0 -0.09277,0.04246 -0.129452,0.09435 -0.03674,0.05183 -0.09546,0.09429 -0.130485,0.09429 -0.03503,0 -0.122088,0.06366 -0.193388,0.141428 -0.07129,0.07777 -0.158357,0.141427 -0.193387,0.141427 -0.03503,0 -0.09373,0.04246 -0.130416,0.09429 -0.03675,0.05189 -0.09917,0.09429 -0.138812,0.09429 -0.03964,0 -0.102135,0.04246 -0.138812,0.09429 -0.03668,0.05189 -0.0991,0.09429 -0.138743,0.09429 -0.03965,0 -0.102136,0.04246 -0.138813,0.09435 -0.03668,0.05183 -0.09917,0.09429 -0.138812,0.09429 -0.03964,0 -0.102062,0.0424 -0.138743,0.09429 -0.03668,0.05183 -0.09917,0.09429 -0.138812,0.09429 -0.03965,0 -0.102062,0.0424 -0.138813,0.09429 -0.03668,0.05189 -0.103716,0.09429 -0.148997,0.09429 -0.04521,0 -0.08231,0.02119 -0.08231,0.04714 0,0.02595 -0.04163,0.04714 -0.0925,0.04714 -0.05086,0 -0.0925,0.02127 -0.0925,0.04714 0,0.02594 -0.03709,0.04715 -0.08231,0.04715 -0.04529,0 -0.112317,0.04246 -0.149068,0.09429 -0.03668,0.05189 -0.103715,0.09435 -0.148997,0.09435 -0.04521,0 -0.08231,0.02119 -0.08231,0.04715 0,0.02587 -0.04163,0.04714 -0.0925,0.04714 -0.05086,0 -0.0925,0.02119 -0.0925,0.04714 0,0.02595 -0.04163,0.04714 -0.09256,0.04714 -0.05086,0 -0.0925,0.02119 -0.0925,0.04714 0,0.02594 -0.04163,0.04714 -0.09256,0.04714 -0.05086,0 -0.0925,0.02119 -0.0925,0.04714 0,0.02595 -0.04163,0.04715 -0.09256,0.04715 -0.05086,0 -0.0925,0.02119 -0.0925,0.04714 0,0.02595 -0.04163,0.04714 -0.0925,0.04714 -0.125047,0 -0.116926,-0.03324 0.04625,-0.188569 0.07633,-0.07267 0.138743,-0.157532 0.138743,-0.18857 0,-0.0311 0.06249,-0.115964 0.138812,-0.188638 0.07633,-0.07261 0.138812,-0.157463 0.138812,-0.18857 0,-0.03104 0.06242,-0.115895 0.138743,-0.188571 0.07639,-0.07267 0.138813,-0.166064 0.138813,-0.207495 0,-0.0415 0.02079,-0.07536 0.04625,-0.07536 0.02546,0 0.04625,-0.03778 0.04625,-0.08389 0,-0.04617 0.04163,-0.114449 0.09257,-0.151887 0.05085,-0.03737 0.0925,-0.105641 0.0925,-0.15182 0,-0.04611 0.02085,-0.08389 0.04625,-0.08389 0.02546,0 0.04632,-0.0424 0.04632,-0.09429 0,-0.05189 0.02078,-0.09429 0.04625,-0.09429 0.02546,0 0.04625,-0.04246 0.04625,-0.09429 0,-0.05189 0.02085,-0.09429 0.04625,-0.09429 0.02546,0 0.04632,-0.04246 0.04632,-0.09429 0,-0.05189 0.02078,-0.09435 0.04625,-0.09435 0.02539,0 0.04625,-0.0424 0.04625,-0.09429 0,-0.05183 0.02079,-0.09429 0.04625,-0.09429 0.02546,0 0.04625,-0.0424 0.04625,-0.09429 0,-0.05183 0.02086,-0.09429 0.04631,-0.09429 0.02539,0 0.04625,-0.06366 0.04625,-0.141428 0,-0.07783 0.02078,-0.141427 0.04625,-0.141427 0.02546,0 0.04625,-0.06366 0.04625,-0.141496 0,-0.07777 0.02086,-0.141427 0.04625,-0.141427 0.02546,0 0.04632,-0.06366 0.04632,-0.141427 0,-0.07777 0.02078,-0.141429 0.04625,-0.141429 0.02546,0 0.04625,-0.06366 0.04625,-0.141427 0,-0.07783 0.02086,-0.141427 0.04625,-0.141427 0.02546,0 0.04632,-0.106122 0.04632,-0.235781 0,-0.129659 0.02079,-0.235712 0.04625,-0.235712 0.02539,0 0.04625,-0.106054 0.04625,-0.235712 0,-0.12966 0.02078,-0.235782 0.04625,-0.235782 0.02773,0 0.04625,-0.18857 0.04625,-0.471424 0,-0.282855 0.01851,-0.471493 0.04631,-0.471493 0.02567,0 0.04625,-0.125737 0.04625,-0.282856 0,-0.157118 -0.02058,-0.282854 -0.04625,-0.282854 -0.02829,0 -0.04631,-0.22009 -0.04631,-0.565779 0,-0.345757 -0.01796,-0.565778 -0.04625,-0.565778 -0.02573,0 -0.04625,-0.125736 -0.04625,-0.282854 0,-0.157119 -0.02058,-0.282856 -0.04625,-0.282856 -0.02546,0 -0.04625,-0.08493 -0.04625,-0.188638 0,-0.103716 -0.02086,-0.18857 -0.04632,-0.18857 -0.02539,0 -0.04625,-0.08486 -0.04625,-0.18857 0,-0.103716 -0.02079,-0.188569 -0.04625,-0.188569 -0.02546,0 -0.04625,-0.06366 -0.04625,-0.141428 0,-0.07783 -0.02086,-0.141497 -0.04632,-0.141497 -0.02539,0 -0.04625,-0.06359 -0.04625,-0.141427 0,-0.07777 -0.02079,-0.141427 -0.04625,-0.141427 -0.02546,0 -0.04625,-0.04246 -0.04625,-0.09429 0,-0.05189 -0.02086,-0.09429 -0.04625,-0.09429 -0.02546,0 -0.04631,-0.04246 -0.04631,-0.09429 0,-0.05189 -0.02078,-0.09429 -0.04625,-0.09429 -0.02546,0 -0.04625,-0.06366 -0.04625,-0.141496 0,-0.07777 -0.02086,-0.141429 -0.04625,-0.141429 -0.02546,0 -0.04625,-0.0424 -0.04625,-0.09429 0,-0.05183 -0.02086,-0.09429 -0.04632,-0.09429 -0.02539,0 -0.04625,-0.03778 -0.04625,-0.08389 0,-0.04611 -0.04163,-0.114449 -0.0925,-0.151818 -0.05093,-0.03744 -0.09257,-0.10571 -0.09257,-0.151889 0,-0.04611 -0.02078,-0.08389 -0.04625,-0.08389 -0.02546,0 -0.04625,-0.03772 -0.04625,-0.08382 0,-0.04618 -0.04163,-0.114518 -0.09257,-0.151887 -0.05086,-0.03737 -0.0925,-0.10571 -0.0925,-0.15182 0,-0.04611 -0.02079,-0.08389 -0.04625,-0.08389 -0.02546,0 -0.04625,-0.03351 -0.04625,-0.07439 0,-0.04102 -0.08328,-0.155949 -0.18506,-0.255671 -0.174599,-0.170883 -0.241493,-0.329997 -0.138812,-0.329997 0.02546,0 0.04625,0.02119 0.04625,0.04714 z m -7.586977,1.791552 c 0,0.02594 -0.104124,0.04714 -0.231377,0.04714 -0.127181,0 -0.231307,0.02127 -0.231307,0.04715 0,0.02594 -0.06242,0.04714 -0.138744,0.04714 -0.07633,0 -0.138812,0.02127 -0.138812,0.04714 0,0.02595 -0.06242,0.04721 -0.138812,0.04721 -0.07633,0 -0.138743,0.02119 -0.138743,0.04714 0,0.02588 -0.04163,0.04714 -0.09257,0.04714 -0.05086,0 -0.0925,0.02119 -0.0925,0.04715 0,0.02588 -0.03703,0.04714 -0.08231,0.04714 -0.04529,0 -0.112317,0.0424 -0.148999,0.09429 -0.03668,0.05183 -0.0949,0.09429 -0.129521,0.09429 -0.03455,0 -0.142803,0.08486 -0.240598,0.188571 -0.09779,0.103715 -0.201164,0.188569 -0.229794,0.188569 -0.06792,0 -0.27907,0.215892 -0.27907,0.285401 0,0.02973 -0.06249,0.113417 -0.138812,0.186092 -0.07633,0.07267 -0.138743,0.161386 -0.138743,0.197104 0,0.03572 -0.04163,0.09552 -0.09257,0.132894 -0.05085,0.03744 -0.0925,0.105709 -0.0925,0.151888 0,0.04611 -0.02086,0.08389 -0.04625,0.08389 -0.02546,0 -0.04632,0.0424 -0.04632,0.09429 0,0.05183 -0.02079,0.09429 -0.04625,0.09429 -0.02546,0 -0.04625,0.06366 -0.04625,0.141427 0,0.07777 -0.02086,0.141427 -0.04625,0.141427 -0.02546,0 -0.04625,0.06366 -0.04625,0.141427 0,0.07783 -0.02086,0.141497 -0.04631,0.141497 -0.02539,0 -0.04625,0.08486 -0.04625,0.18857 0,0.103716 -0.02079,0.18857 -0.04625,0.18857 -0.02863,0 -0.04625,0.251403 -0.04625,0.660063 0,0.408591 0.01761,0.660063 0.04625,0.660063 0.02546,0 0.04625,0.08486 0.04625,0.18857 0,0.103716 0.02086,0.188569 0.04625,0.188569 0.02546,0 0.04631,0.06366 0.04631,0.141429 0,0.07783 0.02079,0.141427 0.04625,0.141427 0.02539,0 0.04625,0.06366 0.04625,0.141496 0,0.07777 0.02079,0.141427 0.04625,0.141427 0.02546,0 0.04625,0.03778 0.04625,0.08389 0,0.04611 0.04163,0.114449 0.09257,0.151818 0.05086,0.03737 0.0925,0.10571 0.0925,0.151889 0,0.04611 0.02086,0.08382 0.04625,0.08382 0.02546,0 0.04631,0.03214 0.04631,0.07137 0,0.08671 0.853451,0.965904 0.93755,0.965904 0.03289,0 0.08974,0.0424 0.126494,0.09429 0.03668,0.05183 0.103715,0.09429 0.148998,0.09429 0.04521,0 0.08231,0.02119 0.08231,0.04714 0,0.02595 0.04163,0.04714 0.0925,0.04714 0.05085,0 0.0925,0.02119 0.0925,0.04714 0,0.02595 0.04163,0.04714 0.09257,0.04714 0.05085,0 0.0925,0.02119 0.0925,0.04714 0,0.02594 0.06249,0.04714 0.138812,0.04714 0.07633,0 0.138813,0.02119 0.138813,0.04715 0,0.02594 0.06242,0.04714 0.138742,0.04714 0.07633,0 0.138813,0.02127 0.138813,0.04715 0,0.02622 0.123396,0.04714 0.277555,0.04714 0.154228,0 0.277556,0.02099 0.277556,0.04714 0,0.02753 0.154228,0.04721 0.37012,0.04721 0.215892,0 0.37012,-0.01969 0.37012,-0.04721 0,-0.02588 0.104061,-0.04714 0.231308,-0.04714 0.127181,0 0.231307,-0.02119 0.231307,-0.04714 0,-0.02588 0.08328,-0.04715 0.18506,-0.04715 0.10179,0 0.18506,-0.02119 0.18506,-0.04714 0,-0.02595 0.06242,-0.04715 0.138744,-0.04715 0.07633,0 0.138811,-0.02119 0.138811,-0.04714 0,-0.02595 0.04163,-0.04714 0.0925,-0.04714 0.05093,0 0.09257,-0.02119 0.09257,-0.04714 0,-0.02595 0.03703,-0.04714 0.08231,-0.04714 0.04528,0 0.112316,-0.04246 0.148998,-0.09429 0.03668,-0.05189 0.0991,-0.09429 0.138743,-0.09429 0.03965,0 0.102136,-0.04246 0.138812,-0.09429 0.03668,-0.05189 0.09381,-0.09429 0.126837,-0.09429 0.0735,0 0.567087,-0.49565 0.567087,-0.569426 0,-0.02904 0.06249,-0.112316 0.138811,-0.184922 0.07633,-0.07267 0.138744,-0.166066 0.138744,-0.207495 0,-0.0415 0.02086,-0.07543 0.04631,-0.07543 0.02539,0 0.04625,-0.0424 0.04625,-0.09429 0,-0.05183 0.02079,-0.09429 0.04625,-0.09429 0.02546,0 0.04625,-0.04246 0.04625,-0.09429 0,-0.05189 0.02086,-0.09429 0.04631,-0.09429 0.02539,0 0.04625,-0.04246 0.04625,-0.09429 0,-0.05189 0.02079,-0.09429 0.04625,-0.09429 0.02546,0 0.04625,-0.06366 0.04625,-0.141497 0,-0.07777 0.02086,-0.141427 0.04625,-0.141427 0.02546,0 0.04632,-0.06366 0.04632,-0.141428 0,-0.07777 0.02079,-0.141427 0.04625,-0.141427 0.02912,0 0.04625,-0.314306 0.04625,-0.848633 0,-0.534327 -0.01713,-0.848633 -0.04625,-0.848633 -0.02546,0 -0.04625,-0.08486 -0.04625,-0.18857 0,-0.103779 -0.02086,-0.188639 -0.04632,-0.188639 -0.02539,0 -0.04625,-0.0424 -0.04625,-0.09429 0,-0.05183 -0.02079,-0.09429 -0.04625,-0.09429 -0.02546,0 -0.04625,-0.06366 -0.04625,-0.141427 0,-0.07777 -0.02086,-0.141427 -0.04625,-0.141427 -0.02546,0 -0.04631,-0.03778 -0.04631,-0.08389 0,-0.04618 -0.04163,-0.114449 -0.0925,-0.151818 -0.05093,-0.03744 -0.09257,-0.1011 -0.09257,-0.141496 0,-0.0404 -0.04163,-0.104062 -0.0925,-0.141429 -0.05086,-0.03737 -0.0925,-0.09552 -0.0925,-0.129107 0,-0.07467 -0.579062,-0.672382 -0.651393,-0.672382 -0.02849,0 -0.110045,-0.06366 -0.181344,-0.141428 -0.0713,-0.07777 -0.162967,-0.141428 -0.203641,-0.141428 -0.04067,0 -0.07391,-0.02119 -0.07391,-0.04714 0,-0.02595 -0.04163,-0.04715 -0.09257,-0.04715 -0.05086,0 -0.0925,-0.02127 -0.0925,-0.04714 0,-0.02594 -0.04163,-0.04715 -0.09257,-0.04715 -0.05085,0 -0.0925,-0.02127 -0.0925,-0.04714 0,-0.02594 -0.06249,-0.04714 -0.138812,-0.04714 -0.07633,0 -0.138744,-0.02127 -0.138744,-0.04721 0,-0.02588 -0.06249,-0.04714 -0.138811,-0.04714 -0.07633,0 -0.138813,-0.02119 -0.138813,-0.04714 0,-0.02588 -0.104061,-0.04715 -0.231307,-0.04715 -0.127182,0 -0.231308,-0.02119 -0.231308,-0.04714 0,-0.02856 -0.200476,-0.04714 -0.508864,-0.04714 -0.308456,0 -0.508863,0.01859 -0.508863,0.04714 z m 0.740171,1.320126 c 0,0.02594 0.104061,0.04714 0.231308,0.04714 0.12725,0 0.231307,0.02119 0.231307,0.04714 0,0.02595 0.06242,0.04714 0.138813,0.04714 0.07633,0 0.138743,0.02119 0.138743,0.04715 0,0.02594 0.04163,0.04714 0.09257,0.04714 0.05086,0 0.0925,0.02119 0.0925,0.04714 0,0.02595 0.03324,0.04715 0.07398,0.04715 0.04067,0 0.132344,0.06366 0.203573,0.141427 0.0713,0.07783 0.153471,0.141496 0.182652,0.141496 0.07288,0 0.280033,0.217337 0.280033,0.293866 0,0.03434 0.04163,0.09305 0.0925,0.130416 0.05086,0.03737 0.0925,0.101026 0.0925,0.141427 0,0.0404 0.04163,0.104061 0.09256,0.141427 0.0543,0.03999 0.0925,0.12209 0.0925,0.199031 0,0.07206 0.02085,0.131036 0.04625,0.131036 0.02546,0 0.04631,0.06366 0.04631,0.141427 0,0.07777 0.02079,0.141428 0.04625,0.141428 0.02829,0 0.04625,0.220021 0.04625,0.565778 0,0.345688 -0.01796,0.565778 -0.04625,0.565778 -0.02546,0 -0.04625,0.06359 -0.04625,0.141427 0,0.07777 -0.02085,0.141428 -0.04631,0.141428 -0.02539,0 -0.04625,0.0424 -0.04625,0.09429 0,0.05189 -0.02079,0.09429 -0.04625,0.09429 -0.02546,0 -0.04625,0.04246 -0.04625,0.09429 0,0.05189 -0.02085,0.09429 -0.04625,0.09429 -0.02546,0 -0.04631,0.03393 -0.04631,0.07543 0,0.04143 -0.06242,0.134821 -0.138744,0.207495 -0.07633,0.07261 -0.138813,0.165997 -0.138813,0.207497 0,0.04143 -0.03324,0.07536 -0.07398,0.07536 -0.04067,0 -0.132274,0.06366 -0.203573,0.141427 -0.0713,0.07783 -0.158358,0.141427 -0.193387,0.141427 -0.0351,0 -0.0938,0.04246 -0.130485,0.09429 -0.03668,0.05189 -0.103716,0.09435 -0.148998,0.09435 -0.04521,0 -0.08231,0.02119 -0.08231,0.04714 0,0.02588 -0.08328,0.04715 -0.18506,0.04715 -0.101717,0 -0.184991,0.02119 -0.184991,0.04714 0,0.02897 -0.231308,0.04714 -0.601428,0.04714 -0.37012,0 -0.601427,-0.01817 -0.601427,-0.04714 0,-0.02595 -0.06242,-0.04714 -0.138813,-0.04714 -0.07633,0 -0.138742,-0.02127 -0.138742,-0.04715 0,-0.02595 -0.04163,-0.04714 -0.09257,-0.04714 -0.05086,0 -0.0925,-0.02127 -0.0925,-0.04714 0,-0.02595 -0.04163,-0.04721 -0.0925,-0.04721 -0.05093,0 -0.09257,-0.02119 -0.09257,-0.04714 0,-0.02588 -0.03159,-0.04714 -0.07027,-0.04714 -0.09146,0 -0.669906,-0.589521 -0.669906,-0.682705 0,-0.03944 -0.02085,-0.07164 -0.04625,-0.07164 -0.02546,0 -0.04631,-0.03772 -0.04631,-0.08382 0,-0.04618 -0.04163,-0.114517 -0.0925,-0.151887 -0.0543,-0.03992 -0.09256,-0.122021 -0.09256,-0.198962 0,-0.07206 -0.02079,-0.131036 -0.04625,-0.131036 -0.02539,0 -0.04625,-0.08486 -0.04625,-0.18857 0,-0.103778 -0.02079,-0.188638 -0.04625,-0.188638 -0.02698,0 -0.04625,-0.157118 -0.04625,-0.37714 0,-0.220021 0.01927,-0.377209 0.04625,-0.377209 0.02546,0 0.04625,-0.08486 0.04625,-0.188569 0,-0.103716 0.02086,-0.18857 0.04625,-0.18857 0.02546,0 0.04625,-0.06366 0.04625,-0.141427 0,-0.07783 0.02085,-0.141428 0.04631,-0.141428 0.02539,0 0.04625,-0.03778 0.04625,-0.08389 0,-0.04617 0.04163,-0.114449 0.0925,-0.151887 0.05093,-0.03737 0.09256,-0.09552 0.09256,-0.129109 0,-0.08582 0.58443,-0.672382 0.669906,-0.672382 0.03868,0 0.07027,-0.02119 0.07027,-0.04715 0,-0.02587 0.03709,-0.04714 0.08231,-0.04714 0.04529,0 0.112316,-0.0424 0.148997,-0.09429 0.03923,-0.05533 0.119818,-0.09429 0.195315,-0.09429 0.07068,0 0.128558,-0.02119 0.128558,-0.04714 0,-0.02622 0.123328,-0.04714 0.277555,-0.04714 0.154159,0 0.277556,-0.02092 0.277556,-0.04714 0,-0.02595 0.08328,-0.04714 0.18506,-0.04714 0.10179,0 0.18506,0.02119 0.18506,0.04714 z"
     fill="#eaae13"
     id="path2"
     style="stroke-width:0.688211" />
</svg>
