<?xml version="1.0" encoding="UTF-8" standalone="no"?>
<svg
   xmlns:dc="http://purl.org/dc/elements/1.1/"
   xmlns:cc="http://creativecommons.org/ns#"
   xmlns:rdf="http://www.w3.org/1999/02/22-rdf-syntax-ns#"
   xmlns:svg="http://www.w3.org/2000/svg"
   xmlns="http://www.w3.org/2000/svg"
   xmlns:sodipodi="http://sodipodi.sourceforge.net/DTD/sodipodi-0.dtd"
   xmlns:inkscape="http://www.inkscape.org/namespaces/inkscape"
   width="48"
   height="51"
   viewBox="0 0 48 51"
   fill="none"
   version="1.1"
   id="svg4"
   sodipodi:docname="image 14 (Traced).svg"
   inkscape:version="1.0.1 (1.0.1+r73)">
  <metadata
     id="metadata10">
    <rdf:RDF>
      <cc:Work
         rdf:about="">
        <dc:format>image/svg+xml</dc:format>
        <dc:type
           rdf:resource="http://purl.org/dc/dcmitype/StillImage" />
        <dc:title></dc:title>
      </cc:Work>
    </rdf:RDF>
  </metadata>
  <defs
     id="defs8" />
  <sodipodi:namedview
     pagecolor="#ffffff"
     bordercolor="#666666"
     borderopacity="1"
     objecttolerance="10"
     gridtolerance="10"
     guidetolerance="10"
     inkscape:pageopacity="0"
     inkscape:pageshadow="2"
     inkscape:window-width="1366"
     inkscape:window-height="705"
     id="namedview6"
     showgrid="false"
     inkscape:zoom="6.0196078"
     inkscape:cx="25.5"
     inkscape:cy="25.5"
     inkscape:window-x="0"
     inkscape:window-y="30"
     inkscape:window-maximized="1"
     inkscape:current-layer="svg4" />
  <path
     fill-rule="evenodd"
     clip-rule="evenodd"
     d="m 23.381094,2.9076471 c 0,0.024316 -0.0995,0.044212 -0.221123,0.044212 -0.121534,0 -0.221035,0.019896 -0.221035,0.044212 0,0.024316 -0.07962,0.044211 -0.176881,0.044211 -0.09727,0 -0.176792,0.019896 -0.176792,0.044212 0,0.024316 -0.05974,0.044212 -0.132639,0.044212 -0.07299,0 -0.132638,0.019894 -0.132638,0.044211 0,0.024316 -0.05974,0.044212 -0.132638,0.044212 -0.07299,0 -0.132639,0.019894 -0.132639,0.044211 0,0.024316 -0.03976,0.044212 -0.0884,0.044212 -0.04863,0 -0.08849,0.019894 -0.08849,0.044211 0,0.024317 -0.03976,0.044212 -0.0884,0.044212 -0.04863,0 -0.0884,0.019894 -0.0884,0.044212 0,0.024316 -0.03546,0.044211 -0.07872,0.044211 -0.04326,0 -0.107293,0.039791 -0.1424,0.088424 -0.03502,0.048633 -0.09467,0.088424 -0.132639,0.088424 -0.03789,0 -0.09753,0.039791 -0.132638,0.088424 -0.03502,0.04863 -0.09073,0.088421 -0.123683,0.088421 -0.03305,0 -0.136489,0.079583 -0.22999,0.1768543 -0.09341,0.097263 -0.191748,0.1768452 -0.218526,0.1768452 -0.06341,0 -0.533062,0.4696619 -0.533062,0.5330615 0,0.026743 -0.07962,0.1250706 -0.176881,0.2185355 -0.09727,0.093465 -0.176791,0.1969247 -0.176791,0.2299455 0,0.033029 -0.03976,0.088691 -0.0884,0.1237541 -0.04873,0.035054 -0.08849,0.099116 -0.08849,0.1424005 0,0.04324 -0.01988,0.07866 -0.04416,0.07866 -0.02436,0 -0.04424,0.039783 -0.04424,0.088423 0,0.048631 -0.01988,0.088423 -0.04424,0.088423 -0.02428,0 -0.04416,0.039791 -0.04416,0.088423 0,0.048631 -0.01997,0.088423 -0.04424,0.088423 -0.02436,0 -0.04424,0.039792 -0.04424,0.088423 0,0.048631 -0.01988,0.088423 -0.04416,0.088423 -0.02436,0 -0.04424,0.039791 -0.04424,0.088423 0,0.04864 -0.01988,0.088423 -0.04424,0.088423 -0.02427,0 -0.04416,0.059692 -0.04416,0.1326384 0,0.072946 -0.01988,0.1326385 -0.04424,0.1326385 -0.02436,0 -0.04424,0.059683 -0.04424,0.1326294 0,0.072955 -0.01988,0.1326385 -0.04416,0.1326385 -0.02436,0 -0.04424,0.079583 -0.04424,0.1768453 0,0.097271 -0.01988,0.1768543 -0.04424,0.1768543 -0.02454,0 -0.04416,0.1179058 -0.04416,0.2652679 0,0.1473532 -0.01961,0.265268 -0.04424,0.265268 -0.02624,0 -0.04424,0.1621306 -0.04424,0.3979063 0,0.2357849 0.018,0.3979065 0.04424,0.3979065 0.02526,0 0.04424,0.1326384 0.04424,0.3094837 0,0.1768453 0.01889,0.3094838 0.04416,0.3094838 0.02436,0 0.04424,0.079583 0.04424,0.1768453 0,0.097271 0.01988,0.1768542 0.04424,0.1768542 0.02428,0 0.04416,0.059683 0.04416,0.1326296 0,0.072955 0.01988,0.1326384 0.04424,0.1326384 0.02436,0 0.04424,0.039791 0.04424,0.088423 0,0.048633 0.01988,0.088418 0.04416,0.088418 0.02436,0 0.04424,0.059688 0.04424,0.132639 0,0.072949 0.01988,0.1326382 0.04424,0.1326382 0.02426,0 0.04416,0.03978 0.04416,0.08842 0,0.04863 0.01988,0.08843 0.04424,0.08843 0.02427,0 0.04424,0.03541 0.04424,0.07865 0,0.04328 0.03976,0.107347 0.0884,0.142409 0.04863,0.03505 0.0884,0.09911 0.0884,0.142401 0,0.04324 0.01988,0.07865 0.04424,0.07865 0.02428,0 0.04424,0.03179 0.04424,0.0707 0,0.03886 0.05965,0.12645 0.13255,0.194578 0.07299,0.06813 0.132638,0.146028 0.132638,0.17304 0,0.06415 0.823952,0.888005 0.888077,0.888005 0.02705,0 0.104875,0.05974 0.173031,0.132638 0.06815,0.07299 0.151356,0.132639 0.184851,0.132639 0.03349,0 0.08956,0.03986 0.124668,0.08849 0.03502,0.04863 0.09914,0.0884 0.1424,0.0884 0.04326,0 0.07863,0.01988 0.07863,0.04424 0,0.02428 0.03976,0.04416 0.0884,0.04416 0.04863,0 0.08849,0.01988 0.08849,0.04424 0,0.02426 0.03976,0.04424 0.0884,0.04424 0.04863,0 0.0884,0.01988 0.0884,0.04416 0,0.02436 0.03986,0.04424 0.08849,0.04424 0.04863,0 0.0884,0.01988 0.0884,0.04424 0,0.02427 0.03976,0.04416 0.0884,0.04416 0.04863,0 0.08849,0.01988 0.08849,0.04424 0,0.02428 0.05965,0.04424 0.132639,0.04424 0.0729,0 0.132549,0.01988 0.132549,0.04416 0,0.02436 0.05974,0.04424 0.132639,0.04424 0.07299,0 0.132638,0.01988 0.132638,0.04424 0,0.02427 0.0995,0.04416 0.221123,0.04416 0.121534,0 0.221034,0.01988 0.221034,0.04424 0,0.02428 0.07962,0.04416 0.176882,0.04416 0.09727,0 0.176792,0.01998 0.176792,0.04424 0,0.02651 -0.176792,0.04424 -0.442069,0.04424 -0.265277,0 -0.442158,0.01764 -0.442158,0.04416 0,0.02462 -0.117861,0.04424 -0.265277,0.04424 -0.147326,0 -0.265277,0.01961 -0.265277,0.04424 0,0.02427 -0.07953,0.04416 -0.176792,0.04416 -0.09727,0 -0.176881,0.01998 -0.176881,0.04424 0,0.02436 -0.07962,0.04424 -0.176881,0.04424 -0.09727,0 -0.176791,0.01988 -0.176791,0.04416 0,0.02436 -0.05974,0.04424 -0.132639,0.04424 -0.07299,0 -0.132638,0.01988 -0.132638,0.04424 0,0.02427 -0.05974,0.04416 -0.132639,0.04416 -0.07299,0 -0.132638,0.01988 -0.132638,0.04424 0,0.02436 -0.05974,0.04424 -0.132639,0.04424 -0.07299,0 -0.132638,0.01988 -0.132638,0.04416 0,0.02436 -0.03976,0.04424 -0.0884,0.04424 -0.04863,0 -0.08848,0.01988 -0.08848,0.04424 0,0.02427 -0.05965,0.04416 -0.132639,0.04416 -0.0729,0 -0.132638,0.01988 -0.132638,0.04424 0,0.02427 -0.03976,0.04424 -0.0884,0.04424 -0.04863,0 -0.0884,0.01988 -0.0884,0.04416 0,0.02436 -0.03986,0.04424 -0.08849,0.04424 -0.04863,0 -0.0884,0.01988 -0.0884,0.04424 0,0.02428 -0.03976,0.04416 -0.0884,0.04416 -0.04863,0 -0.0884,0.01988 -0.0884,0.04424 0,0.02427 -0.03986,0.04424 -0.08849,0.04424 -0.04863,0 -0.0884,0.01988 -0.0884,0.04416 0,0.02436 -0.03976,0.04424 -0.0884,0.04424 -0.04863,0 -0.08849,0.01988 -0.08849,0.04416 0,0.02436 -0.03537,0.04424 -0.07863,0.04424 -0.04326,0 -0.107382,0.03977 -0.142401,0.0884 -0.03502,0.04863 -0.09475,0.08849 -0.132638,0.08849 -0.03789,0 -0.09753,0.03976 -0.132638,0.0884 -0.03502,0.04863 -0.09475,0.0884 -0.132639,0.0884 -0.03789,0 -0.09753,0.03986 -0.132638,0.08849 -0.03502,0.04863 -0.09117,0.0884 -0.124667,0.0884 -0.03349,0 -0.116697,0.05965 -0.184763,0.132639 -0.06815,0.07299 -0.147327,0.132638 -0.175986,0.132638 -0.02866,0 -0.128518,0.07962 -0.221929,0.176882 -0.0935,0.09727 -0.191659,0.176791 -0.218168,0.176791 -0.02651,0 -0.256859,0.208675 -0.511926,0.463742 -0.254977,0.255067 -0.463652,0.485326 -0.463652,0.511925 0,0.02642 -0.07962,0.124578 -0.176882,0.218079 -0.09727,0.09341 -0.176791,0.19336 -0.176791,0.221929 0,0.02866 -0.05974,0.107831 -0.132638,0.175986 -0.07299,0.06815 -0.132639,0.151357 -0.132639,0.184763 0,0.03349 -0.03986,0.08966 -0.08849,0.124667 -0.04863,0.0351 -0.0884,0.09476 -0.0884,0.132638 0,0.03789 -0.03976,0.09762 -0.0884,0.132639 -0.04863,0.0351 -0.08849,0.09914 -0.08849,0.142401 0,0.04326 -0.01988,0.07872 -0.04416,0.07872 -0.02436,0 -0.04424,0.03537 -0.04424,0.07863 0,0.04326 -0.03976,0.107293 -0.0884,0.1424 -0.04863,0.03502 -0.0884,0.09914 -0.0884,0.142401 0,0.04326 -0.01997,0.07863 -0.04424,0.07863 -0.02436,0 -0.04424,0.03977 -0.04424,0.0884 0,0.04873 -0.01988,0.08849 -0.04416,0.08849 -0.02436,0 -0.04424,0.03976 -0.04424,0.0884 0,0.04863 -0.01988,0.0884 -0.04424,0.0884 -0.02428,0 -0.04416,0.03986 -0.04416,0.08849 0,0.04863 -0.01997,0.0884 -0.04424,0.0884 -0.02436,0 -0.04424,0.05965 -0.04424,0.132638 0,0.07299 -0.01988,0.132639 -0.04416,0.132639 -0.02436,0 -0.04424,0.03976 -0.04424,0.0884 0,0.04863 -0.01988,0.08849 -0.04424,0.08849 -0.02427,0 -0.04416,0.05965 -0.04416,0.132638 0,0.0729 -0.01988,0.132639 -0.04424,0.132639 -0.02428,0 -0.04424,0.05965 -0.04424,0.132638 0,0.0729 -0.01988,0.132549 -0.04416,0.132549 -0.02436,0 -0.04424,0.05974 -0.04424,0.132638 0,0.07299 -0.01988,0.132639 -0.04424,0.132639 -0.02428,0 -0.04416,0.07962 -0.04416,0.176881 0,0.09727 -0.01988,0.176881 -0.04424,0.176881 -0.02426,0 -0.04424,0.07953 -0.04424,0.176792 0,0.09727 0.01998,0.176881 0.04424,0.176881 0.02436,0 0.04424,0.05024 0.04424,0.111682 0,0.124847 0.349016,0.507267 0.463026,0.507267 0.03708,0 0.06752,0.01988 0.06752,0.04424 0,0.02929 2.976887,0.04416 8.842355,0.04416 5.865468,0 8.842354,-0.01487 8.842354,-0.04416 0,-0.02436 0.03036,-0.04424 0.06744,-0.04424 0.114009,0 0.463114,-0.38242 0.463114,-0.507267 0,-0.06144 0.01988,-0.111682 0.04416,-0.111682 0.02436,0 0.04424,-0.07962 0.04424,-0.176881 0,-0.09727 -0.01988,-0.176792 -0.04424,-0.176792 -0.02428,0 -0.04416,-0.07962 -0.04416,-0.176881 0,-0.09727 -0.01988,-0.176881 -0.04424,-0.176881 -0.02426,0 -0.04416,-0.05965 -0.04416,-0.132639 0,-0.0729 -0.01998,-0.132638 -0.04424,-0.132638 -0.02436,0 -0.04424,-0.05965 -0.04424,-0.132549 0,-0.07299 -0.01988,-0.132638 -0.04416,-0.132638 -0.02436,0 -0.04424,-0.05974 -0.04424,-0.132639 0,-0.07299 -0.01988,-0.132638 -0.04424,-0.132638 -0.02428,0 -0.04416,-0.03986 -0.04416,-0.08849 0,-0.04863 -0.01998,-0.0884 -0.04424,-0.0884 -0.02436,0 -0.04424,-0.05965 -0.04424,-0.132639 0,-0.07299 -0.01988,-0.132638 -0.04416,-0.132638 -0.02436,0 -0.04424,-0.03976 -0.04424,-0.0884 0,-0.04863 -0.01988,-0.08849 -0.04424,-0.08849 -0.02428,0 -0.04415,-0.03977 -0.04415,-0.0884 0,-0.04863 -0.01988,-0.0884 -0.04424,-0.0884 -0.02436,0 -0.04424,-0.03976 -0.04424,-0.08849 0,-0.04863 -0.01988,-0.0884 -0.04416,-0.0884 -0.02436,0 -0.04424,-0.03537 -0.04424,-0.07863 0,-0.04326 -0.03977,-0.107383 -0.0884,-0.142401 -0.04863,-0.0351 -0.08849,-0.09914 -0.08849,-0.1424 0,-0.04326 -0.01988,-0.07863 -0.04416,-0.07863 -0.02436,0 -0.04424,-0.03546 -0.04424,-0.07872 0,-0.04326 -0.03976,-0.107293 -0.0884,-0.142401 -0.04863,-0.03502 -0.08849,-0.09476 -0.08849,-0.132639 0,-0.03789 -0.03976,-0.09753 -0.0884,-0.132638 -0.04863,-0.03502 -0.0884,-0.09117 -0.0884,-0.124667 0,-0.0334 -0.05974,-0.116608 -0.132639,-0.184763 -0.07299,-0.06815 -0.132638,-0.147326 -0.132638,-0.175986 0,-0.02857 -0.07962,-0.128518 -0.176881,-0.221929 -0.09727,-0.0935 -0.176792,-0.191658 -0.176792,-0.218079 0,-0.06296 -0.912706,-0.975667 -0.975667,-0.975667 -0.02651,0 -0.124578,-0.07953 -0.218079,-0.176791 -0.0935,-0.09727 -0.19336,-0.176882 -0.221929,-0.176882 -0.02866,0 -0.107831,-0.05965 -0.175986,-0.132638 -0.06815,-0.07299 -0.151356,-0.132639 -0.184763,-0.132639 -0.03359,0 -0.08964,-0.03976 -0.124757,-0.0884 -0.03502,-0.04863 -0.09467,-0.08849 -0.132638,-0.08849 -0.03789,0 -0.09753,-0.03977 -0.132549,-0.0884 -0.0351,-0.04863 -0.09475,-0.0884 -0.132638,-0.0884 -0.03797,0 -0.09762,-0.03986 -0.132638,-0.08849 -0.0351,-0.04863 -0.09914,-0.0884 -0.142401,-0.0884 -0.04326,0 -0.07872,-0.01988 -0.07872,-0.04424 0,-0.02428 -0.03977,-0.04416 -0.0884,-0.04416 -0.04863,0 -0.0884,-0.01988 -0.0884,-0.04424 0,-0.02428 -0.03986,-0.04416 -0.08849,-0.04416 -0.04863,0 -0.0884,-0.01998 -0.0884,-0.04424 0,-0.02436 -0.03976,-0.04424 -0.0884,-0.04424 -0.04863,0 -0.08849,-0.01988 -0.08849,-0.04416 0,-0.02436 -0.03976,-0.04424 -0.0884,-0.04424 -0.04863,0 -0.0884,-0.01988 -0.0884,-0.04424 0,-0.02426 -0.03976,-0.04416 -0.0884,-0.04416 -0.04872,0 -0.08849,-0.01998 -0.08849,-0.04424 0,-0.02436 -0.05965,-0.04424 -0.132638,-0.04424 -0.0729,0 -0.132639,-0.01988 -0.132639,-0.04416 0,-0.02436 -0.03976,-0.04424 -0.0884,-0.04424 -0.04863,0 -0.0884,-0.01988 -0.0884,-0.04424 0,-0.02428 -0.05974,-0.04416 -0.132638,-0.04416 -0.07299,0 -0.132639,-0.01988 -0.132639,-0.04424 0,-0.02436 -0.05974,-0.04424 -0.132638,-0.04424 -0.07299,0 -0.132639,-0.01988 -0.132639,-0.04416 0,-0.02436 -0.05974,-0.04424 -0.132638,-0.04424 -0.07299,0 -0.13264,-0.01988 -0.13264,-0.04424 0,-0.02428 -0.07962,-0.04416 -0.17688,-0.04416 -0.09727,0 -0.176792,-0.01988 -0.176792,-0.04424 0,-0.02428 -0.07962,-0.04424 -0.176881,-0.04424 -0.09727,0 -0.176881,-0.01988 -0.176881,-0.04416 0,-0.02463 -0.117861,-0.04424 -0.265277,-0.04424 -0.147326,0 -0.265276,-0.01961 -0.265276,-0.04424 0,-0.02615 -0.162105,-0.04416 -0.397827,-0.04416 -0.235811,0 -0.397915,-0.018 -0.397915,-0.04424 0,-0.02428 0.05965,-0.04424 0.132638,-0.04424 0.0729,0 0.132639,-0.01988 0.132639,-0.04416 0,-0.02436 0.09941,-0.04424 0.221034,-0.04424 0.121533,0 0.221034,-0.01988 0.221034,-0.04416 0,-0.02436 0.05974,-0.04424 0.132638,-0.04424 0.07299,0 0.132639,-0.01988 0.132639,-0.04424 0,-0.02428 0.05974,-0.04416 0.132638,-0.04416 0.07299,0 0.132639,-0.01998 0.132639,-0.04424 0,-0.02436 0.03977,-0.04424 0.0884,-0.04424 0.04863,0 0.08849,-0.01988 0.08849,-0.04416 0,-0.02436 0.03976,-0.04424 0.0884,-0.04424 0.04863,0 0.0884,-0.01988 0.0884,-0.04424 0,-0.02428 0.03986,-0.04416 0.08849,-0.04416 0.04863,0 0.0884,-0.01997 0.0884,-0.04424 0,-0.02436 0.03976,-0.04424 0.0884,-0.04424 0.04863,0 0.08849,-0.01988 0.08849,-0.04416 0,-0.02436 0.03537,-0.04424 0.07863,-0.04424 0.04326,0 0.107293,-0.03976 0.142401,-0.0884 0.03502,-0.04863 0.09117,-0.08849 0.124668,-0.08849 0.03349,0 0.116696,-0.05965 0.184762,-0.132639 0.06815,-0.0729 0.146072,-0.132638 0.173119,-0.132638 0.06896,0 0.887988,-0.826371 0.887988,-0.895958 0,-0.03143 0.03977,-0.08582 0.0884,-0.12088 0.04863,-0.03505 0.08849,-0.09475 0.08849,-0.132629 0,-0.0379 0.03976,-0.09758 0.0884,-0.132639 0.04863,-0.03506 0.0884,-0.09475 0.0884,-0.132638 0,-0.03789 0.03986,-0.09757 0.08849,-0.132629 0.04863,-0.03506 0.0884,-0.09912 0.0884,-0.14241 0,-0.04324 0.01988,-0.07865 0.04424,-0.07865 0.02426,0 0.04416,-0.0398 0.04416,-0.08843 0,-0.04864 0.01988,-0.08842 0.04424,-0.08842 0.02427,0 0.04424,-0.05969 0.04424,-0.1326382 0,-0.072949 0.01988,-0.132639 0.04416,-0.132639 0.02436,0 0.04424,-0.039795 0.04424,-0.088418 0,-0.048632 0.01988,-0.088423 0.04424,-0.088423 0.02428,0 0.04416,-0.059683 0.04416,-0.1326385 0,-0.072946 0.01988,-0.1326295 0.04424,-0.1326295 0.02427,0 0.04424,-0.079583 0.04424,-0.1768542 0,-0.097263 0.01988,-0.1768453 0.04416,-0.1768453 0.02526,0 0.04424,-0.1326385 0.04424,-0.3094838 0,-0.1768453 0.01898,-0.3094837 0.04424,-0.3094837 0.02615,0 0.04416,-0.1621216 0.04416,-0.3979065 0,-0.2357757 -0.018,-0.3979063 -0.04416,-0.3979063 -0.02463,0 -0.04424,-0.1179148 -0.04424,-0.265268 0,-0.1473621 -0.01961,-0.2652679 -0.04424,-0.2652679 -0.02427,0 -0.04416,-0.079583 -0.04416,-0.1768543 0,-0.097263 -0.01998,-0.1768453 -0.04424,-0.1768453 -0.02436,0 -0.04424,-0.059683 -0.04424,-0.1326385 0,-0.072946 -0.01988,-0.1326294 -0.04416,-0.1326294 -0.02436,0 -0.04424,-0.059692 -0.04424,-0.1326385 0,-0.072946 -0.01988,-0.1326384 -0.04424,-0.1326384 -0.02428,0 -0.04416,-0.039783 -0.04416,-0.088423 0,-0.048631 -0.01997,-0.088423 -0.04424,-0.088423 -0.02436,0 -0.04424,-0.039791 -0.04424,-0.088423 0,-0.048631 -0.01988,-0.088423 -0.04416,-0.088423 -0.02436,0 -0.04424,-0.039791 -0.04424,-0.088423 0,-0.048631 -0.01988,-0.088423 -0.04424,-0.088423 -0.02427,0 -0.04416,-0.039791 -0.04416,-0.088423 0,-0.04864 -0.01988,-0.088423 -0.04424,-0.088423 -0.02426,0 -0.04424,-0.035421 -0.04424,-0.07866 0,-0.043285 -0.03976,-0.1073467 -0.0884,-0.1424005 -0.04863,-0.035063 -0.0884,-0.090725 -0.0884,-0.1237541 0,-0.033021 -0.07962,-0.1364806 -0.176881,-0.2299455 -0.09727,-0.093465 -0.176791,-0.1917929 -0.176791,-0.2185355 0,-0.063399 -0.469743,-0.5330615 -0.533152,-0.5330615 -0.02669,0 -0.125025,-0.079583 -0.218526,-0.1768452 -0.09341,-0.097271 -0.196853,-0.1768543 -0.229901,-0.1768543 -0.03305,0 -0.08866,-0.039791 -0.123772,-0.088421 -0.03502,-0.048633 -0.09475,-0.088424 -0.132638,-0.088424 -0.03789,0 -0.09753,-0.039791 -0.132638,-0.088424 -0.03502,-0.048633 -0.09914,-0.088424 -0.142401,-0.088424 -0.04326,0 -0.07863,-0.019894 -0.07863,-0.044211 0,-0.024317 -0.03976,-0.044212 -0.0884,-0.044212 -0.04863,0 -0.08849,-0.019896 -0.08849,-0.044212 0,-0.024316 -0.03976,-0.044211 -0.0884,-0.044211 -0.04863,0 -0.0884,-0.019896 -0.0884,-0.044212 0,-0.024316 -0.05974,-0.044211 -0.132639,-0.044211 -0.07299,0 -0.132638,-0.019896 -0.132638,-0.044212 0,-0.024316 -0.05974,-0.044211 -0.132638,-0.044211 -0.07299,0 -0.132639,-0.019896 -0.132639,-0.044212 0,-0.024316 -0.07962,-0.044212 -0.176881,-0.044212 -0.09727,0 -0.176791,-0.019894 -0.176791,-0.044211 0,-0.024316 -0.0995,-0.044212 -0.221124,-0.044212 -0.121533,0 -0.221035,-0.019896 -0.221035,-0.044212 0,-0.027367 -0.235812,-0.044212 -0.618949,-0.044212 -0.383227,0 -0.618949,0.016845 -0.618949,0.044212 z m 0.972623,1.8568975 c 0,0.024585 0.11795,0.044216 0.265276,0.044216 0.147327,0 0.265277,0.019622 0.265277,0.044207 0,0.024315 0.07953,0.044216 0.176882,0.044216 0.09727,0 0.176791,0.019891 0.176791,0.044207 0,0.024315 0.03976,0.044216 0.0884,0.044216 0.04863,0 0.08849,0.019891 0.08849,0.044207 0,0.024315 0.03976,0.044216 0.0884,0.044216 0.04863,0 0.0884,0.019891 0.0884,0.044207 0,0.024325 0.03986,0.044216 0.08849,0.044216 0.04863,0 0.0884,0.019891 0.0884,0.044216 0,0.024315 0.03179,0.044207 0.07066,0.044207 0.03887,0 0.126458,0.059692 0.194614,0.1326385 0.06815,0.072946 0.146431,0.1326384 0.173926,0.1326384 0.06511,0 0.356627,0.2914822 0.356627,0.3565655 0,0.02754 0.05965,0.1058421 0.132639,0.1739704 0.0729,0.068128 0.132638,0.1557181 0.132638,0.1945782 0,0.038905 0.01988,0.070699 0.04416,0.070699 0.02436,0 0.04424,0.039783 0.04424,0.088423 0,0.048631 0.01988,0.088423 0.04424,0.088423 0.02428,0 0.04416,0.039791 0.04416,0.088423 0,0.048631 0.01998,0.088423 0.04424,0.088423 0.02436,0 0.04424,0.059683 0.04424,0.1326385 0,0.072946 0.01988,0.1326294 0.04416,0.1326294 0.02436,0 0.04424,0.079583 0.04424,0.1768543 0,0.097263 0.01988,0.1768452 0.04424,0.1768452 0.02767,0 0.04415,0.2799917 0.04415,0.7515971 0,0.4716143 -0.01648,0.751606 -0.04415,0.751606 -0.02436,0 -0.04424,0.079583 -0.04424,0.1768453 0,0.097263 -0.01988,0.1768452 -0.04424,0.1768452 -0.02428,0 -0.04416,0.059692 -0.04416,0.1326385 0,0.072946 -0.01988,0.1326384 -0.04424,0.1326384 -0.02426,0 -0.04424,0.039791 -0.04424,0.088423 0,0.048631 -0.01988,0.088423 -0.04416,0.088423 -0.02436,0 -0.04424,0.039791 -0.04424,0.088423 0,0.048631 -0.01988,0.088423 -0.04424,0.088423 -0.02427,0 -0.04416,0.035412 -0.04416,0.078652 0,0.043281 -0.03986,0.107347 -0.08848,0.1424099 -0.04863,0.035062 -0.0884,0.089573 -0.0884,0.1210946 0,0.07476 -0.555721,0.630502 -0.630503,0.630502 -0.03152,0 -0.08607,0.0398 -0.121086,0.08843 -0.03502,0.04863 -0.09914,0.08842 -0.1424,0.08842 -0.04326,0 -0.07863,0.01989 -0.07863,0.04421 0,0.02432 -0.03986,0.04422 -0.08849,0.04422 -0.04863,0 -0.0884,0.01989 -0.0884,0.04421 0,0.02432 -0.03976,0.04422 -0.0884,0.04422 -0.04863,0 -0.08849,0.01989 -0.08849,0.04421 0,0.02433 -0.07953,0.04422 -0.176792,0.04422 -0.09727,0 -0.176881,0.01989 -0.176881,0.04422 0,0.02432 -0.07953,0.04421 -0.176791,0.04421 -0.09727,0 -0.176882,0.0199 -0.176882,0.04422 0,0.02736 -0.235812,0.04421 -0.618949,0.04421 -0.383227,0 -0.618949,-0.01685 -0.618949,-0.04421 0,-0.02432 -0.07962,-0.04422 -0.176882,-0.04422 -0.09727,0 -0.176881,-0.01989 -0.176881,-0.04421 0,-0.02433 -0.07953,-0.04422 -0.176791,-0.04422 -0.09727,0 -0.176881,-0.01989 -0.176881,-0.04422 0,-0.02432 -0.03976,-0.04421 -0.0884,-0.04421 -0.04863,0 -0.08849,-0.0199 -0.08849,-0.04422 0,-0.02432 -0.03976,-0.04421 -0.0884,-0.04421 -0.04863,0 -0.0884,-0.0199 -0.0884,-0.04422 0,-0.02432 -0.03546,-0.04421 -0.07863,-0.04421 -0.04335,0 -0.107383,-0.03979 -0.142401,-0.08842 -0.0351,-0.04864 -0.08966,-0.08843 -0.121175,-0.08843 -0.07469,0 -0.630503,-0.555738 -0.630503,-0.630502 0,-0.03153 -0.03976,-0.08604 -0.0884,-0.1210946 -0.04863,-0.035062 -0.0884,-0.099122 -0.0884,-0.1424099 0,-0.04324 -0.01988,-0.078652 -0.04424,-0.078652 -0.02427,0 -0.04424,-0.039792 -0.04424,-0.088423 0,-0.048631 -0.01988,-0.088423 -0.04416,-0.088423 -0.02436,0 -0.04424,-0.039791 -0.04424,-0.088423 0,-0.048631 -0.01988,-0.088423 -0.04416,-0.088423 -0.02436,0 -0.04424,-0.059692 -0.04424,-0.1326384 0,-0.072946 -0.01988,-0.1326385 -0.04424,-0.1326385 -0.02427,0 -0.04416,-0.079583 -0.04416,-0.1768452 0,-0.097263 -0.01997,-0.1768453 -0.04424,-0.1768453 -0.02776,0 -0.04424,-0.2799917 -0.04424,-0.751606 0,-0.4716054 0.01648,-0.7515971 0.04424,-0.7515971 0.02427,0 0.04424,-0.079583 0.04424,-0.1768452 0,-0.097271 0.01988,-0.1768543 0.04416,-0.1768543 0.02436,0 0.04424,-0.059682 0.04424,-0.1326294 0,-0.072955 0.01988,-0.1326385 0.04424,-0.1326385 0.02426,0 0.04416,-0.039791 0.04416,-0.088423 0,-0.048631 0.01988,-0.088423 0.04424,-0.088423 0.02427,0 0.04416,-0.039792 0.04416,-0.088423 0,-0.04864 0.01997,-0.088423 0.04424,-0.088423 0.02436,0 0.04424,-0.031794 0.04424,-0.070699 0,-0.03886 0.05965,-0.1264499 0.132638,-0.1945782 0.0729,-0.068128 0.132639,-0.1464307 0.132639,-0.1739704 0,-0.065083 0.291428,-0.3565655 0.356538,-0.3565655 0.02759,0 0.10586,-0.059692 0.174015,-0.1326384 0.06807,-0.072946 0.155656,-0.1326385 0.194525,-0.1326385 0.03896,0 0.07075,-0.019891 0.07075,-0.044207 0,-0.024325 0.03976,-0.044216 0.0884,-0.044216 0.04863,0 0.0884,-0.019891 0.0884,-0.044216 0,-0.024315 0.03977,-0.044207 0.0884,-0.044207 0.04873,0 0.08849,-0.019901 0.08849,-0.044216 0,-0.024315 0.03976,-0.044207 0.0884,-0.044207 0.04863,0 0.0884,-0.019901 0.0884,-0.044216 0,-0.024315 0.07962,-0.044207 0.176881,-0.044207 0.09727,0 0.176882,-0.019901 0.176882,-0.044216 0,-0.024585 0.11786,-0.044207 0.265277,-0.044207 0.147326,0 0.265276,-0.019632 0.265276,-0.044216 0,-0.025776 0.147327,-0.044216 0.353673,-0.044216 0.206346,0 0.353673,0.018441 0.353673,0.044216 z m -9.196028,6.4549334 c 0,0.02432 -0.03986,0.04421 -0.08849,0.04421 -0.04863,0 -0.0884,0.0199 -0.0884,0.04422 0,0.02432 -0.03179,0.04421 -0.07066,0.04421 -0.03887,0 -0.126459,0.05969 -0.194614,0.132639 -0.06815,0.07295 -0.147684,0.132638 -0.176882,0.132638 -0.0291,0 -0.108636,0.05968 -0.176791,0.13263 -0.06815,0.07292 -0.147326,0.132657 -0.175986,0.132657 -0.02857,0 -0.128428,0.07953 -0.221929,0.176791 -0.0935,0.09727 -0.19148,0.176881 -0.21781,0.176881 -0.06269,0 -1.948558,1.885866 -1.948558,1.948559 0,0.02633 -0.07962,0.124398 -0.176881,0.217809 -0.09727,0.0935 -0.176792,0.19336 -0.176792,0.22193 0,0.02866 -0.05974,0.10783 -0.132638,0.175986 -0.07299,0.06815 -0.132639,0.147684 -0.132639,0.176881 0,0.0291 -0.05974,0.108726 -0.132638,0.176791 -0.07299,0.06815 -0.132639,0.151357 -0.132639,0.184853 0,0.03349 -0.03986,0.08956 -0.08849,0.124667 -0.04863,0.03502 -0.0884,0.09475 -0.0884,0.132638 0,0.03789 -0.03976,0.09753 -0.0884,0.132639 -0.04863,0.03502 -0.08849,0.09914 -0.08849,0.142401 0,0.04326 -0.01988,0.07863 -0.04416,0.07863 -0.02436,0 -0.04424,0.03546 -0.04424,0.07863 0,0.04334 -0.03976,0.107382 -0.0884,0.1424 -0.04863,0.0351 -0.08844,0.09914 -0.08844,0.142401 0,0.04326 -0.0199,0.07872 -0.04422,0.07872 -0.02432,0 -0.04421,0.03537 -0.04421,0.07863 0,0.04326 -0.0398,0.107293 -0.08842,0.1424 -0.04864,0.03502 -0.08843,0.09914 -0.08843,0.142401 0,0.04326 -0.01989,0.07863 -0.04421,0.07863 -0.02432,0 -0.04422,0.03986 -0.04422,0.08849 0,0.04863 -0.01989,0.0884 -0.04421,0.0884 -0.02432,0 -0.04422,0.03977 -0.04422,0.0884 0,0.04863 -0.01989,0.0884 -0.04421,0.0884 -0.02432,0 -0.04422,0.03986 -0.04422,0.08849 0,0.04863 -0.01989,0.0884 -0.04421,0.0884 -0.02433,0 -0.04422,0.03976 -0.04422,0.0884 0,0.04863 -0.01989,0.08849 -0.04422,0.08849 -0.02432,0 -0.04421,0.03976 -0.04421,0.0884 0,0.04863 -0.0199,0.0884 -0.04422,0.0884 -0.02432,0 -0.04421,0.03986 -0.04421,0.08849 0,0.04863 -0.0199,0.0884 -0.04422,0.0884 -0.02432,0 -0.04421,0.03976 -0.04421,0.0884 0,0.04863 -0.0199,0.08849 -0.04422,0.08849 -0.02432,0 -0.04421,0.05965 -0.04421,0.132638 0,0.0729 -0.0199,0.132639 -0.04422,0.132639 -0.02432,0 -0.04422,0.03977 -0.04422,0.0884 0,0.04863 -0.01989,0.0884 -0.04421,0.0884 -0.02432,0 -0.04422,0.03976 -0.04422,0.0884 0,0.04873 -0.01989,0.08849 -0.04421,0.08849 -0.02432,0 -0.04422,0.05965 -0.04422,0.132639 0,0.0729 -0.01989,0.132638 -0.04421,0.132638 -0.02433,0 -0.04422,0.05965 -0.04422,0.132639 0,0.0729 -0.01989,0.132638 -0.04422,0.132638 -0.02432,0 -0.04421,0.05965 -0.04421,0.132639 0,0.0729 -0.01989,0.132638 -0.04422,0.132638 -0.02432,0 -0.04421,0.05965 -0.04421,0.132638 0,0.0729 -0.0199,0.132639 -0.04422,0.132639 -0.024316,0 -0.044209,0.05965 -0.044209,0.132638 0,0.0729 -0.019903,0.132549 -0.044219,0.132549 -0.024316,0 -0.044209,0.05974 -0.044209,0.132638 0,0.07299 -0.019903,0.132639 -0.044219,0.132639 -0.024316,0 -0.044219,0.07962 -0.044219,0.176881 0,0.09727 -0.019893,0.176881 -0.044209,0.176881 -0.024316,0 -0.044219,0.07953 -0.044219,0.176792 0,0.09727 -0.019893,0.176881 -0.044209,0.176881 -0.024316,0 -0.044219,0.0995 -0.044219,0.221034 0,0.121623 -0.019893,0.221034 -0.044209,0.221034 -0.024316,0 -0.044219,0.0995 -0.044219,0.221124 0,0.121533 -0.019891,0.221034 -0.044207,0.221034 -0.024585,0 -0.044216,0.117952 -0.044216,0.265277 0,0.147326 -0.019632,0.265277 -0.044216,0.265277 -0.026214,0 -0.044207,0.162104 -0.044207,0.397915 0,0.235722 -0.017993,0.397916 -0.044216,0.397916 -0.028561,0 -0.044207,0.515776 -0.044207,1.458934 0,0.943157 0.015646,1.459022 0.044207,1.459022 0.025247,0 0.044216,0.132639 0.044216,0.30952 0,0.176791 0.018968,0.30943 0.044207,0.30943 0.024325,0 0.044216,0.03976 0.044216,0.0884 0,0.04863 0.019891,0.08849 0.044216,0.08849 0.024315,0 0.044207,0.03126 0.044207,0.06941 0,0.08526 0.1050897,0.195868 0.1860424,0.195868 0.032855,0 0.088376,0.03976 0.1234415,0.0884 0.055398,0.07684 0.1144666,0.0884 0.4518931,0.0884 0.229283,0 0.388136,-0.01809 0.388136,-0.04416 0,-0.02436 0.0305,-0.04424 0.06777,-0.04424 0.08803,0 0.374344,-0.286323 0.374344,-0.374361 0,-0.03726 0.0199,-0.06779 0.04422,-0.06779 0.02719,0 0.04421,-0.221036 0.04421,-0.574708 0,-0.353673 -0.01702,-0.574797 -0.04421,-0.574797 -0.02839,0 -0.04422,-0.42738 -0.04422,-1.193656 0,-0.766366 0.01583,-1.193746 0.04422,-1.193746 0.02621,0 0.04421,-0.162103 0.04421,-0.397915 0,-0.235812 0.01801,-0.397915 0.04422,-0.397915 0.02458,0 0.04421,-0.117862 0.04421,-0.265277 0,-0.147327 0.01963,-0.265277 0.04422,-0.265277 0.02432,0 0.04422,-0.09941 0.04422,-0.221034 0,-0.121623 0.01989,-0.221034 0.04421,-0.221034 0.02432,0 0.04422,-0.0995 0.04422,-0.221124 0,-0.121534 0.01989,-0.221035 0.04421,-0.221035 0.02432,0 0.04422,-0.05965 0.04422,-0.132638 0,-0.0729 0.01989,-0.132638 0.0442,-0.132638 0.02436,0 0.04424,-0.07953 0.04424,-0.176793 0,-0.09727 0.01988,-0.17688 0.04416,-0.17688 0.02436,0 0.04424,-0.05965 0.04424,-0.132638 0,-0.0729 0.01988,-0.132639 0.04424,-0.132639 0.02428,0 0.04416,-0.05965 0.04416,-0.132638 0,-0.0729 0.01998,-0.13264 0.04424,-0.13264 0.02436,0 0.04424,-0.05965 0.04424,-0.132638 0,-0.0729 0.01988,-0.132639 0.04415,-0.132639 0.02436,0 0.04424,-0.05965 0.04424,-0.132638 0,-0.0729 0.01988,-0.132639 0.04424,-0.132639 0.02428,0 0.04416,-0.03976 0.04416,-0.0884 0,-0.04863 0.01988,-0.0884 0.04424,-0.0884 0.02436,0 0.04424,-0.05974 0.04424,-0.132638 0,-0.07299 0.01988,-0.132639 0.04416,-0.132639 0.02436,0 0.04424,-0.03986 0.04424,-0.08849 0,-0.04863 0.01988,-0.0884 0.04424,-0.0884 0.02427,0 0.04416,-0.03976 0.04416,-0.0884 0,-0.04863 0.01988,-0.08849 0.04424,-0.08849 0.02426,0 0.04424,-0.03976 0.04424,-0.0884 0,-0.04863 0.01988,-0.0884 0.04416,-0.0884 0.02436,0 0.04424,-0.03976 0.04424,-0.0884 0,-0.04863 0.01988,-0.08849 0.04424,-0.08849 0.02427,0 0.04416,-0.03976 0.04416,-0.0884 0,-0.04863 0.01988,-0.0884 0.04424,-0.0884 0.02428,0 0.04424,-0.03986 0.04424,-0.08849 0,-0.04863 0.01988,-0.0884 0.04416,-0.0884 0.02436,0 0.04424,-0.03976 0.04424,-0.0884 0,-0.04863 0.01988,-0.08849 0.04424,-0.08849 0.02427,0 0.04416,-0.03537 0.04416,-0.07863 0,-0.04326 0.03976,-0.107293 0.0884,-0.142401 0.04863,-0.03502 0.08849,-0.09914 0.08849,-0.1424 0,-0.04326 0.01988,-0.07863 0.04416,-0.07863 0.02436,0 0.04424,-0.03546 0.04424,-0.07863 0,-0.04334 0.03976,-0.107382 0.0884,-0.142401 0.04863,-0.0351 0.08849,-0.09476 0.08849,-0.132638 0,-0.03797 0.03976,-0.09762 0.0884,-0.132639 0.04863,-0.0351 0.0884,-0.09475 0.0884,-0.132638 0,-0.03789 0.03986,-0.09762 0.08849,-0.132639 0.04863,-0.0351 0.0884,-0.09117 0.0884,-0.124668 0,-0.03349 0.05965,-0.116696 0.132639,-0.184851 0.0729,-0.06815 0.132638,-0.147327 0.132638,-0.175986 0,-0.02857 0.07953,-0.128429 0.176881,-0.22193 0.09727,-0.09341 0.176792,-0.192285 0.176792,-0.21969 0,-0.02741 0.139266,-0.187181 0.309519,-0.355016 0.170165,-0.167926 0.30943,-0.326537 0.30943,-0.352509 0,-0.06152 0.470012,-0.531718 0.531539,-0.531718 0.02588,0 0.204467,-0.159238 0.396931,-0.353762 0.192464,-0.194525 0.372211,-0.353673 0.399527,-0.353673 0.02722,0 0.126012,-0.07962 0.219423,-0.176881 0.0935,-0.09727 0.196942,-0.176792 0.22999,-0.176792 0.03305,0 0.08866,-0.03986 0.123771,-0.08849 0.03502,-0.04863 0.09108,-0.0884 0.124668,-0.0884 0.0334,0 0.116608,-0.05965 0.184763,-0.132639 0.06815,-0.0729 0.146699,-0.132638 0.174552,-0.132638 0.07433,0 0.267606,-0.205988 0.267606,-0.285338 0,-0.03762 0.01988,-0.06833 0.04416,-0.06833 0.02436,0 0.04424,-0.05965 0.04424,-0.132638 0,-0.07299 0.01988,-0.132639 0.04424,-0.132639 0.02427,0 0.04416,-0.07962 0.04416,-0.176881 0,-0.09727 -0.01988,-0.176791 -0.04416,-0.176791 -0.02436,0 -0.04424,-0.05024 -0.04424,-0.1117 0,-0.1249 -0.349016,-0.507286 -0.463116,-0.507286 -0.03707,0 -0.06744,-0.01989 -0.06744,-0.04421 0,-0.02577 -0.147327,-0.04422 -0.353674,-0.04422 -0.206346,0 -0.353672,0.01844 -0.353672,0.04422 z m 16.977274,0 c 0,0.02432 -0.03036,0.04421 -0.06744,0.04421 -0.114009,0 -0.463025,0.382386 -0.463025,0.507287 0,0.06145 -0.01998,0.1117 -0.04424,0.1117 -0.02436,0 -0.04424,0.07953 -0.04424,0.176791 0,0.09727 0.01988,0.176881 0.04424,0.176881 0.02428,0 0.04424,0.05965 0.04424,0.132639 0,0.07299 0.01988,0.132638 0.04416,0.132638 0.02436,0 0.04424,0.03072 0.04424,0.06833 0,0.07935 0.19318,0.285339 0.267605,0.285339 0.02785,0 0.106398,0.05974 0.174463,0.132638 0.06815,0.07299 0.151357,0.132639 0.184852,0.132639 0.0335,0 0.08965,0.03976 0.124668,0.0884 0.0351,0.04863 0.09073,0.08849 0.123771,0.08849 0.03305,0 0.13649,0.07953 0.229901,0.176791 0.0935,0.09727 0.192285,0.176881 0.219512,0.176881 0.02722,0 0.207063,0.159149 0.399438,0.353673 0.192465,0.194524 0.371137,0.353762 0.39702,0.353762 0.06152,0 0.531449,0.470191 0.531449,0.531718 0,0.02598 0.139266,0.184583 0.30952,0.352509 0.170164,0.167835 0.309429,0.327611 0.309429,0.355016 0,0.0274 0.07962,0.126279 0.176882,0.21969 0.09727,0.0935 0.176881,0.193361 0.176881,0.22193 0,0.02866 0.05965,0.107831 0.132638,0.175986 0.0729,0.06815 0.132639,0.151356 0.132639,0.184852 0,0.03349 0.03976,0.08956 0.0884,0.124667 0.04863,0.03502 0.0884,0.09476 0.0884,0.132639 0,0.03789 0.03986,0.09753 0.08849,0.132638 0.04863,0.03502 0.0884,0.09467 0.0884,0.132639 0,0.03789 0.03976,0.09753 0.0884,0.132638 0.04863,0.03502 0.0884,0.09905 0.0884,0.142401 0,0.04317 0.01998,0.07863 0.04424,0.07863 0.02436,0 0.04424,0.03537 0.04424,0.07863 0,0.04326 0.03977,0.107382 0.0884,0.142399 0.04863,0.0351 0.0884,0.09914 0.0884,0.142401 0,0.04326 0.01998,0.07863 0.04424,0.07863 0.02436,0 0.04424,0.03986 0.04424,0.08849 0,0.04863 0.01988,0.0884 0.04416,0.0884 0.02436,0 0.04424,0.03976 0.04424,0.0884 0,0.04863 0.01988,0.08849 0.04424,0.08849 0.02428,0 0.04415,0.03976 0.04415,0.0884 0,0.04863 0.01997,0.0884 0.04424,0.0884 0.02436,0 0.04424,0.03986 0.04424,0.08849 0,0.04863 0.01988,0.0884 0.04416,0.0884 0.02436,0 0.04424,0.03976 0.04424,0.0884 0,0.04863 0.01988,0.0884 0.04424,0.0884 0.02427,0 0.04416,0.03986 0.04416,0.08849 0,0.04863 0.01988,0.0884 0.04424,0.0884 0.02427,0 0.04424,0.03976 0.04424,0.0884 0,0.04863 0.01988,0.08849 0.04416,0.08849 0.02436,0 0.04424,0.05965 0.04424,0.132639 0,0.0729 0.01988,0.132638 0.04424,0.132638 0.02428,0 0.04416,0.03976 0.04416,0.0884 0,0.04863 0.01988,0.0884 0.04424,0.0884 0.02428,0 0.04424,0.05974 0.04424,0.132639 0,0.07299 0.01988,0.132638 0.04416,0.132638 0.02436,0 0.04424,0.05974 0.04424,0.132639 0,0.07299 0.01988,0.132638 0.04424,0.132638 0.02428,0 0.04416,0.05974 0.04416,0.132639 0,0.07299 0.01988,0.132638 0.04424,0.132638 0.02428,0 0.04416,0.05974 0.04416,0.132639 0,0.07299 0.01997,0.132638 0.04424,0.132638 0.02436,0 0.04424,0.07962 0.04424,0.176881 0,0.09727 0.01988,0.176792 0.04416,0.176792 0.02436,0 0.04424,0.07962 0.04424,0.176881 0,0.09727 0.01988,0.176881 0.04424,0.176881 0.02427,0 0.04416,0.07953 0.04416,0.176791 0,0.09727 0.01998,0.176882 0.04424,0.176882 0.02436,0 0.04424,0.09941 0.04424,0.221034 0,0.121622 0.01988,0.221034 0.04416,0.221034 0.02463,0 0.04424,0.11795 0.04424,0.265277 0,0.147416 0.01961,0.265277 0.04424,0.265277 0.02615,0 0.04416,0.162104 0.04416,0.397915 0,0.235812 0.01801,0.397915 0.04424,0.397915 0.02839,0 0.04424,0.427381 0.04424,1.193746 0,0.766276 -0.01585,1.193657 -0.04424,1.193657 -0.02722,0 -0.04424,0.221124 -0.04424,0.574797 0,0.353672 0.01702,0.574707 0.04424,0.574707 0.02427,0 0.04424,0.03054 0.04424,0.06779 0,0.08804 0.286323,0.374362 0.374272,0.374362 0.03735,0 0.06779,0.01988 0.06779,0.04424 0,0.02571 0.147417,0.04416 0.353673,0.04416 0.206346,0 0.353762,-0.01845 0.353762,-0.04416 0,-0.02436 0.03976,-0.04424 0.0884,-0.04424 0.04863,0 0.0884,-0.01988 0.0884,-0.04424 0,-0.02427 0.03126,-0.04416 0.06949,-0.04416 0.08938,0 0.195779,-0.106487 0.195779,-0.195868 0,-0.03816 0.01988,-0.06941 0.04424,-0.06941 0.02428,0 0.04424,-0.03986 0.04424,-0.08849 0,-0.04863 0.01988,-0.0884 0.04416,-0.0884 0.02526,0 0.04424,-0.132639 0.04424,-0.30943 0,-0.176881 0.01898,-0.30952 0.04424,-0.30952 0.02848,0 0.04415,-0.515865 0.04415,-1.459022 0,-0.943158 -0.01568,-1.458933 -0.04415,-1.458933 -0.02624,0 -0.04424,-0.162194 -0.04424,-0.397916 0,-0.235812 -0.01801,-0.397915 -0.04424,-0.397915 -0.02454,0 -0.04416,-0.117952 -0.04416,-0.265277 0,-0.147326 -0.01971,-0.265277 -0.04424,-0.265277 -0.02436,0 -0.04424,-0.0995 -0.04424,-0.221035 0,-0.121622 -0.01988,-0.221123 -0.04416,-0.221123 -0.02436,0 -0.04424,-0.09941 -0.04424,-0.221034 0,-0.121533 -0.01988,-0.221035 -0.04424,-0.221035 -0.02428,0 -0.04416,-0.07962 -0.04416,-0.17688 0,-0.09727 -0.01988,-0.176793 -0.04424,-0.176793 -0.02436,0 -0.04424,-0.07962 -0.04424,-0.176881 0,-0.09727 -0.01988,-0.176881 -0.04416,-0.176881 -0.02436,0 -0.04424,-0.05965 -0.04424,-0.132639 0,-0.0729 -0.01988,-0.132638 -0.04424,-0.132638 -0.02427,0 -0.04416,-0.05965 -0.04416,-0.132549 0,-0.07299 -0.01988,-0.132638 -0.04424,-0.132638 -0.02427,0 -0.04424,-0.05974 -0.04424,-0.132639 0,-0.07299 -0.01988,-0.132638 -0.04416,-0.132638 -0.02436,0 -0.04424,-0.05974 -0.04424,-0.132638 0,-0.07299 -0.01988,-0.132639 -0.04424,-0.132639 -0.02426,0 -0.04416,-0.05974 -0.04416,-0.132638 0,-0.07299 -0.01988,-0.132639 -0.04424,-0.132639 -0.02427,0 -0.04424,-0.05974 -0.04424,-0.132638 0,-0.07299 -0.01988,-0.132639 -0.04416,-0.132639 -0.02436,0 -0.04424,-0.03976 -0.04424,-0.08849 0,-0.04863 -0.01988,-0.0884 -0.04424,-0.0884 -0.02428,0 -0.04416,-0.03976 -0.04416,-0.0884 0,-0.04863 -0.01988,-0.0884 -0.04424,-0.0884 -0.02428,0 -0.04416,-0.05974 -0.04416,-0.132639 0,-0.07299 -0.01998,-0.132638 -0.04424,-0.132638 -0.02436,0 -0.04424,-0.03986 -0.04424,-0.08849 0,-0.04863 -0.01988,-0.0884 -0.04416,-0.0884 -0.02436,0 -0.04424,-0.03977 -0.04424,-0.0884 0,-0.04863 -0.01988,-0.08849 -0.04424,-0.08849 -0.02428,0 -0.04416,-0.03976 -0.04416,-0.0884 0,-0.04863 -0.01997,-0.0884 -0.04424,-0.0884 -0.02436,0 -0.04424,-0.03986 -0.04424,-0.08849 0,-0.04863 -0.01988,-0.0884 -0.04415,-0.0884 -0.02436,0 -0.04424,-0.03976 -0.04424,-0.0884 0,-0.04863 -0.01988,-0.08849 -0.04424,-0.08849 -0.02427,0 -0.04416,-0.03976 -0.04416,-0.0884 0,-0.04863 -0.01998,-0.0884 -0.04424,-0.0884 -0.02436,0 -0.04424,-0.03976 -0.04424,-0.0884 0,-0.04863 -0.01988,-0.08849 -0.04416,-0.08849 -0.02436,0 -0.04424,-0.03537 -0.04424,-0.07863 0,-0.04326 -0.03977,-0.107383 -0.0884,-0.1424 -0.04863,-0.0351 -0.08849,-0.09914 -0.08849,-0.142401 0,-0.04326 -0.01988,-0.07863 -0.04416,-0.07863 -0.02436,0 -0.04424,-0.03986 -0.04424,-0.08849 0,-0.04863 -0.01988,-0.0884 -0.04424,-0.0884 -0.02426,0 -0.04416,-0.03537 -0.04416,-0.07863 0,-0.04326 -0.03986,-0.107382 -0.08848,-0.1424 -0.04863,-0.0351 -0.0884,-0.09475 -0.0884,-0.132639 0,-0.03789 -0.03976,-0.09762 -0.0884,-0.132638 -0.04863,-0.03511 -0.0884,-0.09475 -0.0884,-0.132639 0,-0.03789 -0.03986,-0.09762 -0.08849,-0.132638 -0.04863,-0.0351 -0.0884,-0.09117 -0.0884,-0.124667 0,-0.0335 -0.05974,-0.116697 -0.132639,-0.184853 -0.07299,-0.06806 -0.132638,-0.147684 -0.132638,-0.176791 0,-0.02919 -0.05965,-0.108726 -0.132639,-0.176881 -0.07299,-0.06815 -0.132638,-0.147327 -0.132638,-0.175986 0,-0.02857 -0.07962,-0.128429 -0.176881,-0.22193 -0.09727,-0.09341 -0.176792,-0.191479 -0.176792,-0.217809 0,-0.06269 -1.885956,-1.948559 -1.948558,-1.948559 -0.02633,0 -0.1244,-0.07962 -0.217811,-0.176881 -0.0935,-0.09727 -0.19336,-0.176791 -0.222018,-0.176791 -0.02857,0 -0.107831,-0.05974 -0.175897,-0.132657 -0.06815,-0.07295 -0.147774,-0.13263 -0.17688,-0.13263 -0.02911,0 -0.108726,-0.05969 -0.176793,-0.132638 -0.06815,-0.07295 -0.155744,-0.132639 -0.194614,-0.132639 -0.03887,0 -0.07066,-0.01989 -0.07066,-0.04421 0,-0.02432 -0.03986,-0.04422 -0.08849,-0.04422 -0.04863,0 -0.0884,-0.01989 -0.0884,-0.04421 0,-0.02577 -0.147326,-0.04422 -0.353672,-0.04422 -0.206346,0 -0.353763,0.01844 -0.353763,0.04422 z m -7.073811,3.979065 c 0,0.02454 0.11786,0.04424 0.265187,0.04424 0.147416,0 0.265276,0.01961 0.265276,0.04416 0,0.02436 0.0995,0.04424 0.221124,0.04424 0.121534,0 0.221035,0.01988 0.221035,0.04424 0,0.02428 0.05965,0.04416 0.132638,0.04416 0.0729,0 0.132638,0.01988 0.132638,0.04424 0,0.02427 0.07953,0.04424 0.176882,0.04424 0.09727,0 0.176791,0.01988 0.176791,0.04415 0,0.02436 0.03976,0.04424 0.0884,0.04424 0.04863,0 0.08848,0.01988 0.08848,0.04424 0,0.02428 0.05965,0.04416 0.132639,0.04416 0.0729,0 0.132638,0.01988 0.132638,0.04424 0,0.02426 0.03976,0.04424 0.0884,0.04424 0.04863,0 0.0884,0.01988 0.0884,0.04416 0,0.02436 0.03986,0.04424 0.08849,0.04424 0.04863,0 0.0884,0.01988 0.0884,0.04416 0,0.02436 0.03977,0.04424 0.0884,0.04424 0.04863,0 0.08849,0.01988 0.08849,0.04424 0,0.02426 0.03976,0.04416 0.0884,0.04416 0.04863,0 0.0884,0.01998 0.0884,0.04424 0,0.02436 0.03976,0.04424 0.08849,0.04424 0.04863,0 0.0884,0.01988 0.0884,0.04416 0,0.02436 0.03537,0.04424 0.07863,0.04424 0.04326,0 0.107382,0.03976 0.142401,0.0884 0.0351,0.04863 0.09475,0.08849 0.132638,0.08849 0.03789,0 0.09762,0.03976 0.132638,0.0884 0.03502,0.04863 0.09117,0.0884 0.124667,0.0884 0.0335,0 0.116698,0.05974 0.184853,0.132639 0.06806,0.07299 0.145983,0.132638 0.17294,0.132638 0.06404,0 1.064959,1.001013 1.064959,1.064959 0,0.02705 0.05965,0.104875 0.132638,0.17303 0.0729,0.06806 0.132639,0.147685 0.132639,0.176791 0,0.02919 0.05965,0.108726 0.132638,0.176881 0.0729,0.06815 0.132639,0.155746 0.132639,0.194525 0,0.03896 0.01988,0.07075 0.04416,0.07075 0.02436,0 0.04424,0.03537 0.04424,0.07863 0,0.04326 0.03976,0.107382 0.0884,0.142399 0.04863,0.0351 0.08849,0.09914 0.08849,0.142401 0,0.04326 0.01988,0.07863 0.04416,0.07863 0.02436,0 0.04424,0.03986 0.04424,0.08849 0,0.04863 0.01988,0.0884 0.04424,0.0884 0.02427,0 0.04416,0.03976 0.04416,0.0884 0,0.04863 0.01998,0.08849 0.04424,0.08849 0.02436,0 0.04424,0.03976 0.04424,0.0884 0,0.04863 0.01988,0.0884 0.04415,0.0884 0.02436,0 0.04424,0.03986 0.04424,0.08849 0,0.08804 -0.02946,0.0884 -7.162297,0.0884 -7.132832,0 -7.162297,-3.59e-4 -7.162297,-0.0884 0,-0.04863 0.01988,-0.08849 0.04416,-0.08849 0.02436,0 0.04424,-0.03976 0.04424,-0.0884 0,-0.04863 0.01988,-0.0884 0.04424,-0.0884 0.02427,0 0.04416,-0.03986 0.04416,-0.08849 0,-0.04863 0.01988,-0.0884 0.04424,-0.0884 0.02427,0 0.04416,-0.03976 0.04416,-0.0884 0,-0.04863 0.01997,-0.08849 0.04424,-0.08849 0.02436,0 0.04424,-0.03537 0.04424,-0.07863 0,-0.04326 0.03976,-0.107293 0.0884,-0.142401 0.04863,-0.03502 0.0884,-0.09914 0.0884,-0.142399 0,-0.04326 0.01997,-0.07863 0.04424,-0.07863 0.02436,0 0.04424,-0.03179 0.04424,-0.07075 0,-0.03878 0.05965,-0.126369 0.132639,-0.194525 0.0729,-0.06815 0.132638,-0.147684 0.132638,-0.176881 0,-0.0291 0.05965,-0.108726 0.132639,-0.176791 0.0729,-0.06815 0.132638,-0.145983 0.132638,-0.17303 0,-0.02696 0.228557,-0.277547 0.507895,-0.556974 0.279427,-0.279428 0.530106,-0.507985 0.557064,-0.507985 0.02696,0 0.104785,-0.05965 0.17294,-0.132638 0.06815,-0.0729 0.151357,-0.132639 0.184763,-0.132639 0.03359,0 0.08965,-0.03976 0.124757,-0.0884 0.03502,-0.04863 0.09467,-0.0884 0.132638,-0.0884 0.03789,0 0.09753,-0.03986 0.132549,-0.08849 0.0351,-0.04863 0.09914,-0.0884 0.14249,-0.0884 0.04317,0 0.07863,-0.01988 0.07863,-0.04424 0,-0.02427 0.03976,-0.04416 0.0884,-0.04416 0.04863,0 0.0884,-0.01988 0.0884,-0.04424 0,-0.02426 0.03986,-0.04424 0.08849,-0.04424 0.04863,0 0.0884,-0.01988 0.0884,-0.04416 0,-0.02436 0.03976,-0.04424 0.0884,-0.04424 0.04863,0 0.08848,-0.01988 0.08848,-0.04424 0,-0.02427 0.03977,-0.04416 0.0884,-0.04416 0.04863,0 0.0884,-0.01988 0.0884,-0.04424 0,-0.02428 0.03986,-0.04416 0.08849,-0.04416 0.04863,0 0.0884,-0.01997 0.0884,-0.04424 0,-0.02436 0.05965,-0.04424 0.132638,-0.04424 0.0729,0 0.132639,-0.01988 0.132639,-0.04416 0,-0.02436 0.03976,-0.04424 0.0884,-0.04424 0.04863,0 0.0884,-0.01988 0.0884,-0.04424 0,-0.02427 0.07962,-0.04415 0.176881,-0.04415 0.09727,0 0.176882,-0.01998 0.176882,-0.04424 0,-0.02436 0.05965,-0.04424 0.132638,-0.04424 0.0729,0 0.132638,-0.01988 0.132638,-0.04416 0,-0.02436 0.09941,-0.04424 0.221035,-0.04424 0.121533,0 0.221034,-0.01988 0.221034,-0.04424 0,-0.02454 0.11795,-0.04416 0.265277,-0.04416 0.147326,0 0.265276,-0.01971 0.265276,-0.04424 0,-0.02821 0.383228,-0.04424 1.061108,-0.04424 0.67788,0 1.061108,0.01604 1.061108,0.04424 z M 9.9406541,29.346346 c 0,0.02427 -0.07958,0.04424 -0.176846,0.04424 -0.09726,0 -0.176844,0.01988 -0.176844,0.04416 0,0.02436 -0.05969,0.04424 -0.132638,0.04424 -0.07295,0 -0.13263,0.01988 -0.13263,0.04416 0,0.02436 -0.05969,0.04424 -0.132639,0.04424 -0.07296,0 -0.132638,0.01988 -0.132638,0.04424 0,0.02427 -0.05968,0.04416 -0.132639,0.04416 -0.07295,0 -0.132629,0.01997 -0.132629,0.04424 0,0.02436 -0.03979,0.04424 -0.088428,0.04424 -0.048643,0 -0.088418,0.01988 -0.088418,0.04416 0,0.02436 -0.035423,0.04424 -0.078662,0.04424 -0.04327,0 -0.1073471,0.03976 -0.1424007,0.0884 -0.035062,0.04863 -0.099122,0.08849 -0.1424089,0.08849 -0.04324,0 -0.078652,0.01988 -0.078652,0.04416 0,0.02436 -0.031785,0.04424 -0.070699,0.04424 -0.03886,0 -0.126441,0.05965 -0.1945693,0.132638 -0.068138,0.07299 -0.1459918,0.132639 -0.1729584,0.132639 -0.06897,0 -1.0649765,1.003431 -1.0649765,1.072929 0,0.03135 -0.039791,0.08571 -0.088423,0.120817 -0.048631,0.03502 -0.088423,0.09476 -0.088423,0.132638 0,0.03789 -0.039791,0.09753 -0.088423,0.132639 -0.04864,0.03502 -0.088423,0.09905 -0.088423,0.1424 0,0.04317 -0.019901,0.07863 -0.044216,0.07863 -0.024315,0 -0.044216,0.03976 -0.044216,0.0884 0,0.04863 -0.019891,0.0884 -0.044207,0.0884 -0.024315,0 -0.044216,0.03986 -0.044216,0.08849 0,0.04863 -0.019892,0.0884 -0.044207,0.0884 -0.024315,0 -0.044216,0.03976 -0.044216,0.0884 0,0.04863 -0.019891,0.08849 -0.044207,0.08849 -0.024315,0 -0.044216,0.03976 -0.044216,0.0884 0,0.04863 -0.019891,0.0884 -0.044207,0.0884 -0.024325,0 -0.044216,0.05974 -0.044216,0.132638 0,0.07299 -0.019901,0.132639 -0.044216,0.132639 -0.024315,0 -0.044207,0.07962 -0.044207,0.176881 0,0.09727 -0.0199,0.176881 -0.044216,0.176881 -0.024316,0 -0.044207,0.09941 -0.044207,0.221034 0,0.121534 -0.019901,0.221034 -0.044216,0.221034 -0.027495,0 -0.044207,0.250589 -0.044207,0.663193 0,0.412603 0.016712,0.663192 0.044207,0.663192 0.024315,0 0.044216,0.09941 0.044216,0.221035 0,0.121622 0.019891,0.221034 0.044207,0.221034 0.024315,0 0.044216,0.05974 0.044216,0.132639 0,0.07299 0.019891,0.132638 0.044207,0.132638 0.024315,0 0.044216,0.05974 0.044216,0.132638 0,0.07299 0.019891,0.132639 0.044216,0.132639 0.024315,0 0.044207,0.05974 0.044207,0.132638 0,0.07299 0.019901,0.132639 0.044216,0.132639 0.024315,0 0.044207,0.03976 0.044207,0.0884 0,0.04863 0.019901,0.08849 0.044216,0.08849 0.024315,0 0.044207,0.03976 0.044207,0.0884 0,0.04863 0.0199,0.0884 0.044216,0.0884 0.024315,0 0.044207,0.03986 0.044207,0.08849 0,0.04863 0.019901,0.0884 0.044216,0.0884 0.024315,0 0.044216,0.03537 0.044216,0.07863 0,0.04326 0.039783,0.107382 0.088423,0.1424 0.048631,0.0351 0.088423,0.09117 0.088423,0.124668 0,0.03349 0.059683,0.116696 0.1326296,0.184851 0.072955,0.06815 0.1326384,0.145983 0.1326384,0.17303 0,0.06412 0.8238898,0.888078 0.8880417,0.888078 0.027011,0 0.1049107,0.05965 0.173048,0.132638 0.068128,0.0729 0.1513296,0.132639 0.1847982,0.132639 0.033513,0 0.089622,0.03977 0.1246766,0.0884 0.035063,0.04863 0.099125,0.0884 0.1424095,0.0884 0.04324,0 0.078652,0.01988 0.078652,0.04424 0,0.02428 0.039795,0.04416 0.088428,0.04416 0.048643,0 0.088418,0.01998 0.088418,0.04424 0,0.02436 0.039795,0.04424 0.088428,0.04424 0.048633,0 0.088418,0.01988 0.088418,0.04416 0,0.02436 0.039795,0.04424 0.088428,0.04424 0.04863,0 0.08842,0.01988 0.08842,0.04424 0,0.02428 0.05969,0.04416 0.132639,0.04416 0.07295,0 0.132629,0.01997 0.132629,0.04424 0,0.02436 0.05969,0.04424 0.132638,0.04424 0.07295,0 0.132639,0.01988 0.132639,0.04416 0,0.02436 0.05969,0.04424 0.132629,0.04424 0.07296,0 0.132639,0.01988 0.132639,0.04424 0,0.02428 0.09947,0.04416 0.221061,0.04416 0.1215777,0 0.2210607,0.01988 0.2210607,0.04424 0,0.02428 -0.03979,0.04424 -0.08843,0.04424 -0.04863,0 -0.08842,0.01988 -0.08842,0.04416 0,0.02525 -0.13263,0.04424 -0.309484,0.04424 -0.176844,0 -0.309474,0.01899 -0.309474,0.04424 0,0.02454 -0.117915,0.04415 -0.265277,0.04415 -0.147354,0 -0.265268,0.01961 -0.265268,0.04424 0,0.02428 -0.07958,0.04424 -0.1768456,0.04424 -0.097266,0 -0.1768541,0.01988 -0.1768541,0.04416 0,0.02436 -0.059688,0.04424 -0.1326298,0.04424 -0.072955,0 -0.1326379,0.01988 -0.1326379,0.04424 0,0.02428 -0.079583,0.04416 -0.1768453,0.04416 -0.097271,0 -0.1768452,0.01988 -0.1768452,0.04424 0,0.02428 -0.039792,0.04424 -0.088431,0.04424 -0.048631,0 -0.088423,0.01988 -0.088423,0.04416 0,0.02436 -0.059682,0.04424 -0.1326295,0.04424 -0.072955,0 -0.1326385,0.01988 -0.1326385,0.04416 0,0.02436 -0.059682,0.04424 -0.1326384,0.04424 -0.072946,0 -0.1326295,0.01988 -0.1326295,0.04424 0,0.02427 -0.039791,0.04416 -0.088431,0.04416 -0.048631,0 -0.088423,0.01997 -0.088423,0.04424 0,0.02436 -0.039791,0.04424 -0.088423,0.04424 -0.048631,0 -0.088423,0.01988 -0.088423,0.04416 0,0.02436 -0.039791,0.04424 -0.088423,0.04424 -0.048631,0 -0.088423,0.01988 -0.088423,0.04424 0,0.02427 -0.039791,0.04416 -0.088423,0.04416 -0.048631,0 -0.088423,0.01998 -0.088423,0.04424 0,0.02436 -0.039792,0.04424 -0.088423,0.04424 -0.04864,0 -0.088431,0.01988 -0.088431,0.04416 0,0.02436 -0.035412,0.04424 -0.078652,0.04424 -0.043285,0 -0.1073467,0.03976 -0.1424005,0.0884 -0.035063,0.04863 -0.099125,0.08849 -0.1424095,0.08849 -0.04324,0 -0.078652,0.01988 -0.078652,0.04416 0,0.02436 -0.035411,0.04424 -0.078652,0.04424 -0.043285,0 -0.1073467,0.03976 -0.1424094,0.0884 -0.035063,0.04863 -0.094745,0.08849 -0.1326385,0.08849 -0.037884,0 -0.097575,0.03977 -0.1326295,0.0884 -0.035063,0.04863 -0.090725,0.0884 -0.1237541,0.0884 -0.033021,0 -0.1364806,0.07962 -0.2299455,0.176881 -0.093465,0.09727 -0.1923212,0.176792 -0.2197266,0.176792 -0.027414,0 -0.1871536,0.139265 -0.3550251,0.30952 -0.1678713,0.170253 -0.3274763,0.309519 -0.3547116,0.309519 -0.063838,0 -0.1758332,0.11186 -0.1758332,0.175538 0,0.02713 -0.1591572,0.206704 -0.3536906,0.399169 -0.1945334,0.192465 -0.3536995,0.372659 -0.3536995,0.400423 0,0.02776 -0.059683,0.106218 -0.1326296,0.174374 -0.072955,0.06806 -0.1326384,0.151266 -0.1326384,0.184761 0,0.0335 -0.039791,0.08964 -0.088423,0.124668 -0.048631,0.0351 -0.088423,0.09475 -0.088423,0.132639 0,0.03789 -0.039791,0.09762 -0.088423,0.132638 -0.04864,0.0351 -0.088423,0.09914 -0.088423,0.142401 0,0.04326 -0.019901,0.07863 -0.044216,0.07863 -0.024315,0 -0.044216,0.03546 -0.044216,0.07872 0,0.04326 -0.039791,0.107294 -0.088423,0.142401 -0.048631,0.03502 -0.088421,0.09914 -0.088421,0.1424 0,0.04326 -0.019896,0.07863 -0.044212,0.07863 -0.024316,0 -0.044211,0.03976 -0.044211,0.0884 0,0.04863 -0.019896,0.08849 -0.044212,0.08849 -0.024316,0 -0.044212,0.03976 -0.044212,0.0884 0,0.04863 -0.019895,0.0884 -0.044211,0.0884 -0.024316,0 -0.044212,0.03986 -0.044212,0.08849 0,0.04863 -0.019894,0.0884 -0.044211,0.0884 -0.024317,0 -0.044212,0.03976 -0.044212,0.0884 0,0.04863 -0.019896,0.08849 -0.044212,0.08849 -0.024316,0 -0.044211,0.05965 -0.044211,0.132639 0,0.0729 -0.019896,0.132549 -0.044212,0.132549 -0.024317,0 -0.044211,0.05974 -0.044211,0.132639 0,0.07299 -0.019896,0.132638 -0.044212,0.132638 -0.024316,0 -0.044211,0.03986 -0.044211,0.08849 0,0.04863 -0.019896,0.0884 -0.044212,0.0884 -0.024316,0 -0.044212,0.05965 -0.044212,0.132638 0,0.07299 -0.019895,0.132638 -0.044211,0.132638 -0.024316,0 -0.044212,0.07962 -0.044212,0.176882 0,0.09727 -0.019896,0.176791 -0.044212,0.176791 -0.025244,0 -0.044212,0.132638 -0.044212,0.30952 0,0.176791 0.018967,0.309429 0.044212,0.309429 0.024316,0 0.044212,0.03045 0.044212,0.06753 0,0.08777 0.3753148,0.463025 0.4630746,0.463025 0.037094,0 0.067467,0.01988 0.067467,0.04424 0,0.02929 2.9621919,0.04424 8.7981858,0.04424 5.835913,0 8.798111,-0.01495 8.798111,-0.04424 0,-0.02436 0.03976,-0.04424 0.08849,-0.04424 0.04863,0 0.0884,-0.01988 0.0884,-0.04416 0,-0.02436 0.03126,-0.04424 0.06941,-0.04424 0.08526,0 0.195868,-0.105055 0.195868,-0.186017 0,-0.03287 0.03976,-0.0884 0.0884,-0.123503 0.07693,-0.05535 0.0884,-0.114457 0.0884,-0.451831 0,-0.229274 -0.01809,-0.388153 -0.04416,-0.388153 -0.02436,0 -0.04424,-0.07962 -0.04424,-0.176881 0,-0.09727 -0.01988,-0.176791 -0.04424,-0.176791 -0.02426,0 -0.04415,-0.05974 -0.04415,-0.132639 0,-0.07299 -0.01988,-0.132638 -0.04424,-0.132638 -0.02428,0 -0.04424,-0.03986 -0.04424,-0.08849 0,-0.04863 -0.01988,-0.0884 -0.04416,-0.0884 -0.02436,0 -0.04424,-0.05965 -0.04424,-0.132639 0,-0.0729 -0.01988,-0.132638 -0.04424,-0.132638 -0.02427,0 -0.04416,-0.03976 -0.04416,-0.0884 0,-0.04863 -0.01988,-0.0884 -0.04424,-0.0884 -0.02427,0 -0.04416,-0.03986 -0.04416,-0.08849 0,-0.04863 -0.01998,-0.0884 -0.04424,-0.0884 -0.02436,0 -0.04424,-0.05974 -0.04424,-0.132638 0,-0.07299 -0.01988,-0.132639 -0.04416,-0.132639 -0.02436,0 -0.04424,-0.03537 -0.04424,-0.07863 0,-0.04334 -0.03976,-0.107382 -0.0884,-0.142401 -0.04863,-0.0351 -0.08849,-0.09914 -0.08849,-0.142401 0,-0.04326 -0.01988,-0.07872 -0.04416,-0.07872 -0.02436,0 -0.04424,-0.03976 -0.04424,-0.0884 0,-0.04863 -0.01988,-0.0884 -0.04424,-0.0884 -0.02427,0 -0.04416,-0.03546 -0.04416,-0.07863 0,-0.04335 -0.03986,-0.107383 -0.08849,-0.1424 -0.04863,-0.0351 -0.0884,-0.09475 -0.0884,-0.132639 0,-0.03797 -0.03976,-0.09762 -0.0884,-0.132638 -0.04863,-0.0351 -0.08849,-0.09117 -0.08849,-0.124758 0,-0.0334 -0.05965,-0.116607 -0.132639,-0.184762 -0.0729,-0.06815 -0.132638,-0.147058 -0.132638,-0.175359 0,-0.0283 -0.09941,-0.148311 -0.221034,-0.266799 -0.121534,-0.118399 -0.221034,-0.236707 -0.221034,-0.262949 0,-0.06215 -0.8244,-0.886554 -0.886556,-0.886554 -0.02624,0 -0.14455,-0.09941 -0.262948,-0.221034 -0.118488,-0.121534 -0.242081,-0.221034 -0.27477,-0.221034 -0.03269,0 -0.08813,-0.03976 -0.123145,-0.0884 -0.0351,-0.04872 -0.09117,-0.08849 -0.124668,-0.08849 -0.03349,0 -0.116696,-0.05965 -0.184852,-0.132638 -0.06806,-0.0729 -0.155655,-0.132638 -0.194524,-0.132638 -0.03896,0 -0.07075,-0.01988 -0.07075,-0.04416 0,-0.02436 -0.03537,-0.04424 -0.07863,-0.04424 -0.04326,0 -0.107292,-0.03976 -0.1424,-0.0884 -0.03502,-0.04863 -0.09914,-0.08849 -0.1424,-0.08849 -0.04326,0 -0.07863,-0.01988 -0.07863,-0.04416 0,-0.02436 -0.03976,-0.04424 -0.0884,-0.04424 -0.04863,0 -0.08849,-0.01988 -0.08849,-0.04424 0,-0.02427 -0.03976,-0.04416 -0.0884,-0.04416 -0.04863,0 -0.0884,-0.01988 -0.0884,-0.04424 0,-0.02428 -0.03986,-0.04424 -0.08849,-0.04424 -0.04863,0 -0.0884,-0.01988 -0.0884,-0.04416 0,-0.02436 -0.03976,-0.04424 -0.0884,-0.04424 -0.04863,0 -0.08849,-0.01988 -0.08849,-0.04424 0,-0.02426 -0.03976,-0.04416 -0.0884,-0.04416 -0.04863,0 -0.0884,-0.01988 -0.0884,-0.04424 0,-0.02427 -0.03986,-0.04424 -0.08849,-0.04424 -0.04863,0 -0.0884,-0.01988 -0.0884,-0.04416 0,-0.02436 -0.05965,-0.04424 -0.132639,-0.04424 -0.0729,0 -0.132638,-0.01988 -0.132638,-0.04424 0,-0.02428 -0.03977,-0.04416 -0.0884,-0.04416 -0.04863,0 -0.0884,-0.01988 -0.0884,-0.04424 0,-0.02428 -0.05974,-0.04416 -0.132639,-0.04416 -0.07299,0 -0.132638,-0.01998 -0.132638,-0.04424 0,-0.02436 -0.05974,-0.04424 -0.132639,-0.04424 -0.07299,0 -0.132638,-0.01988 -0.132638,-0.04416 0,-0.02436 -0.07962,-0.04424 -0.176881,-0.04424 -0.09727,0 -0.176882,-0.01988 -0.176882,-0.04424 0,-0.02428 -0.07953,-0.04416 -0.176791,-0.04416 -0.09727,0 -0.176881,-0.01997 -0.176881,-0.04424 0,-0.02436 -0.0995,-0.04424 -0.221034,-0.04424 -0.121622,0 -0.221034,-0.01988 -0.221034,-0.04415 0,-0.02579 -0.147416,-0.04424 -0.353763,-0.04424 -0.206256,0 -0.353672,-0.01845 -0.353672,-0.04424 0,-0.02428 -0.03976,-0.04416 -0.0884,-0.04416 -0.04863,0 -0.0884,-0.01998 -0.0884,-0.04424 0,-0.02436 0.09941,-0.04424 0.221034,-0.04424 0.121534,0 0.221034,-0.01988 0.221034,-0.04416 0,-0.02436 0.07962,-0.04424 0.176882,-0.04424 0.09727,0 0.176791,-0.01988 0.176791,-0.04424 0,-0.02428 0.05974,-0.04416 0.132638,-0.04416 0.07299,0 0.132639,-0.01988 0.132639,-0.04424 0,-0.02426 0.03986,-0.04424 0.08849,-0.04424 0.04863,0 0.0884,-0.01988 0.0884,-0.04416 0,-0.02436 0.03977,-0.04424 0.0884,-0.04424 0.04863,0 0.08849,-0.01988 0.08849,-0.04424 0,-0.02426 0.03976,-0.04416 0.0884,-0.04416 0.04863,0 0.0884,-0.01988 0.0884,-0.04424 0,-0.02428 0.03976,-0.04424 0.0884,-0.04424 0.04863,0 0.08849,-0.01988 0.08849,-0.04416 0,-0.02436 0.03537,-0.04424 0.07863,-0.04424 0.04326,0 0.107383,-0.03976 0.142401,-0.0884 0.0351,-0.04863 0.09475,-0.0884 0.132638,-0.0884 0.03789,0 0.09762,-0.03986 0.132639,-0.08849 0.03502,-0.04863 0.08938,-0.0884 0.120727,-0.0884 0.06949,0 1.073019,-0.995998 1.073019,-1.064958 0,-0.02696 0.05965,-0.104876 0.132638,-0.172941 0.0729,-0.06815 0.132639,-0.155745 0.132639,-0.194614 0,-0.03887 0.01988,-0.07066 0.04416,-0.07066 0.02436,0 0.04424,-0.03546 0.04424,-0.07872 0,-0.04326 0.03976,-0.107294 0.0884,-0.142401 0.04863,-0.03502 0.08849,-0.09905 0.08849,-0.1424 0,-0.04326 0.01988,-0.07863 0.04416,-0.07863 0.02436,0 0.04424,-0.03976 0.04424,-0.0884 0,-0.04863 0.01988,-0.08849 0.04424,-0.08849 0.02427,0 0.04416,-0.05965 0.04416,-0.132638 0,-0.0729 0.01988,-0.132638 0.04424,-0.132638 0.02428,0 0.04416,-0.05965 0.04416,-0.132549 0,-0.07299 0.01997,-0.132638 0.04424,-0.132638 0.02436,0 0.04424,-0.05974 0.04424,-0.132639 0,-0.07299 0.01988,-0.132638 0.04416,-0.132638 0.02436,0 0.04424,-0.07962 0.04424,-0.176882 0,-0.09727 0.01988,-0.176881 0.04424,-0.176881 0.02795,0 0.04416,-0.30943 0.04416,-0.839983 0,-0.530554 -0.01621,-0.840074 -0.04416,-0.840074 -0.02436,0 -0.04424,-0.07953 -0.04424,-0.176791 0,-0.09727 -0.01988,-0.176881 -0.04424,-0.176881 -0.02427,0 -0.04416,-0.07953 -0.04416,-0.176793 0,-0.09727 -0.01988,-0.176881 -0.04424,-0.176881 -0.02426,0 -0.04424,-0.05965 -0.04424,-0.132638 0,-0.07299 -0.01988,-0.132639 -0.04416,-0.132639 -0.02436,0 -0.04424,-0.03976 -0.04424,-0.0884 0,-0.04863 -0.01988,-0.08849 -0.04416,-0.08849 -0.02436,0 -0.04424,-0.03976 -0.04424,-0.0884 0,-0.04863 -0.01988,-0.0884 -0.04424,-0.0884 -0.02428,0 -0.04416,-0.03986 -0.04416,-0.08849 0,-0.04863 -0.01997,-0.0884 -0.04424,-0.0884 -0.02436,0 -0.04424,-0.03537 -0.04424,-0.07863 0,-0.04326 -0.03976,-0.107383 -0.0884,-0.142401 -0.04863,-0.0351 -0.0884,-0.09476 -0.0884,-0.132638 0,-0.03789 -0.03986,-0.09762 -0.08849,-0.132639 -0.04863,-0.0351 -0.0884,-0.09073 -0.0884,-0.123772 0,-0.03305 -0.07962,-0.136489 -0.176882,-0.2299 -0.09727,-0.0935 -0.176791,-0.191838 -0.176791,-0.218527 0,-0.06395 -0.469922,-0.533061 -0.533957,-0.533061 -0.02722,0 -0.105323,-0.05974 -0.173478,-0.132638 -0.06806,-0.07299 -0.151357,-0.132639 -0.184762,-0.132639 -0.0335,0 -0.08965,-0.03986 -0.124668,-0.08848 -0.0351,-0.04863 -0.09475,-0.0884 -0.132638,-0.0884 -0.03789,0 -0.09762,-0.03976 -0.132639,-0.0884 -0.0351,-0.04863 -0.09914,-0.08849 -0.142401,-0.08849 -0.04326,0 -0.07872,-0.01988 -0.07872,-0.04416 0,-0.02436 -0.03976,-0.04424 -0.0884,-0.04424 -0.04863,0 -0.0884,-0.01988 -0.0884,-0.04424 0,-0.02426 -0.03976,-0.04416 -0.0884,-0.04416 -0.04873,0 -0.08849,-0.01988 -0.08849,-0.04424 0,-0.02428 -0.03977,-0.04424 -0.0884,-0.04424 -0.04863,0 -0.0884,-0.01988 -0.0884,-0.04416 0,-0.02436 -0.05974,-0.04424 -0.132638,-0.04424 -0.07299,0 -0.132638,-0.01988 -0.132638,-0.04424 0,-0.02426 -0.05974,-0.04416 -0.132639,-0.04416 -0.07299,0 -0.132638,-0.01988 -0.132638,-0.04424 0,-0.02428 -0.0995,-0.04416 -0.221123,-0.04416 -0.121534,0 -0.221035,-0.01997 -0.221035,-0.04424 0,-0.02795 -0.30943,-0.04424 -0.839984,-0.04424 -0.530571,0 -0.840055,0.0163 -0.840055,0.04424 z m 26.4386509,0 c 0,0.02427 -0.07953,0.04424 -0.176793,0.04424 -0.09727,0 -0.176881,0.01988 -0.176881,0.04416 0,0.02436 -0.07953,0.04424 -0.176791,0.04424 -0.09735,0 -0.176882,0.01988 -0.176882,0.04416 0,0.02436 -0.05965,0.04424 -0.132638,0.04424 -0.07299,0 -0.132638,0.01988 -0.132638,0.04424 0,0.02427 -0.03976,0.04416 -0.0884,0.04416 -0.04863,0 -0.08849,0.01997 -0.08849,0.04424 0,0.02436 -0.03976,0.04424 -0.0884,0.04424 -0.04863,0 -0.0884,0.01988 -0.0884,0.04416 0,0.02436 -0.03986,0.04424 -0.08849,0.04424 -0.04863,0 -0.0884,0.01988 -0.0884,0.04424 0,0.02426 -0.03537,0.04416 -0.07863,0.04416 -0.04326,0 -0.107383,0.03986 -0.1424,0.08849 -0.0351,0.04863 -0.09475,0.0884 -0.132639,0.0884 -0.03789,0 -0.09762,0.03976 -0.132638,0.0884 -0.0351,0.04863 -0.09117,0.08848 -0.124668,0.08848 -0.03349,0 -0.116697,0.05965 -0.184852,0.132639 -0.06806,0.0729 -0.146072,0.132638 -0.173299,0.132638 -0.02714,0 -0.178314,0.128967 -0.33594,0.286503 -0.157536,0.157626 -0.286502,0.308803 -0.286502,0.335939 0,0.02723 -0.05974,0.105234 -0.132638,0.173299 -0.07299,0.06816 -0.13264,0.151356 -0.13264,0.184852 0,0.03349 -0.03986,0.08956 -0.08849,0.124667 -0.04863,0.03502 -0.0884,0.09476 -0.0884,0.132639 0,0.03789 -0.03976,0.09753 -0.0884,0.132638 -0.04863,0.03502 -0.08849,0.09914 -0.08849,0.142401 0,0.04326 -0.01988,0.07863 -0.04416,0.07863 -0.02436,0 -0.04424,0.03977 -0.04424,0.0884 0,0.04863 -0.01988,0.08849 -0.04424,0.08849 -0.02427,0 -0.04416,0.03976 -0.04416,0.0884 0,0.04863 -0.01988,0.0884 -0.04424,0.0884 -0.02427,0 -0.04424,0.03986 -0.04424,0.08849 0,0.04863 -0.01988,0.0884 -0.04416,0.0884 -0.02436,0 -0.04424,0.05965 -0.04424,0.132639 0,0.07299 -0.01988,0.132638 -0.04424,0.132638 -0.02428,0 -0.04416,0.07962 -0.04416,0.176881 0,0.09727 -0.01988,0.176792 -0.04424,0.176792 -0.02428,0 -0.04424,0.07962 -0.04424,0.176881 0,0.09727 -0.01988,0.176791 -0.04416,0.176791 -0.02795,0 -0.04424,0.30952 -0.04424,0.840074 0,0.530553 0.0163,0.839983 0.04424,0.839983 0.02428,0 0.04416,0.07962 0.04416,0.176881 0,0.09727 0.01998,0.176882 0.04424,0.176882 0.02436,0 0.04424,0.05965 0.04424,0.132638 0,0.0729 0.01988,0.132639 0.04416,0.132639 0.02436,0 0.04424,0.05965 0.04424,0.132638 0,0.0729 0.01988,0.13255 0.04424,0.13255 0.02428,0 0.04416,0.05974 0.04416,0.132638 0,0.07299 0.01997,0.132638 0.04424,0.132638 0.02436,0 0.04424,0.03986 0.04424,0.08849 0,0.04863 0.01988,0.0884 0.04416,0.0884 0.02436,0 0.04424,0.03538 0.04424,0.07863 0,0.04334 0.03976,0.107382 0.0884,0.142401 0.04863,0.0351 0.08849,0.09914 0.08849,0.1424 0,0.04326 0.01988,0.07872 0.04415,0.07872 0.02436,0 0.04424,0.03179 0.04424,0.07066 0,0.03887 0.05965,0.126458 0.132639,0.194614 0.0729,0.06806 0.132638,0.145982 0.132638,0.17294 0,0.06404 1.000923,1.064959 1.064959,1.064959 0.02696,0 0.104875,0.05965 0.17294,0.132638 0.06815,0.0729 0.155745,0.132638 0.194614,0.132638 0.03887,0 0.07066,0.01988 0.07066,0.04424 0,0.02428 0.03977,0.04416 0.0884,0.04416 0.04873,0 0.08849,0.01988 0.08849,0.04424 0,0.02428 0.03977,0.04416 0.0884,0.04416 0.04863,0 0.0884,0.01998 0.0884,0.04424 0,0.02436 0.03986,0.04424 0.08849,0.04424 0.04863,0 0.0884,0.01988 0.0884,0.04416 0,0.02436 0.03976,0.04424 0.0884,0.04424 0.04863,0 0.08849,0.01988 0.08849,0.04424 0,0.02428 0.03976,0.04416 0.0884,0.04416 0.04863,0 0.0884,0.01997 0.0884,0.04424 0,0.02436 0.05974,0.04424 0.132639,0.04424 0.07299,0 0.132638,0.01988 0.132638,0.04416 0,0.02436 0.07962,0.04424 0.176881,0.04424 0.09727,0 0.176792,0.01988 0.176792,0.04424 0,0.02427 0.0995,0.04416 0.221124,0.04416 0.121533,0 0.221034,0.01988 0.221034,0.04424 0,0.02427 -0.03976,0.04424 -0.0884,0.04424 -0.04863,0 -0.08849,0.01988 -0.08849,0.04416 0,0.02579 -0.147327,0.04424 -0.353673,0.04424 -0.206346,0 -0.353673,0.01845 -0.353673,0.04424 0,0.02426 -0.0995,0.04415 -0.221034,0.04415 -0.121623,0 -0.221124,0.01988 -0.221124,0.04424 0,0.02428 -0.07953,0.04424 -0.176791,0.04424 -0.09727,0 -0.176881,0.01988 -0.176881,0.04416 0,0.02436 -0.07953,0.04424 -0.176881,0.04424 -0.09727,0 -0.176792,0.01988 -0.176792,0.04424 0,0.02428 -0.05974,0.04416 -0.132638,0.04416 -0.07299,0 -0.132639,0.01988 -0.132639,0.04424 0,0.02428 -0.05965,0.04424 -0.132638,0.04424 -0.07299,0 -0.132639,0.01988 -0.132639,0.04416 0,0.02436 -0.03976,0.04424 -0.0884,0.04424 -0.04863,0 -0.08849,0.01988 -0.08849,0.04416 0,0.02436 -0.05965,0.04424 -0.132638,0.04424 -0.0729,0 -0.132639,0.01988 -0.132639,0.04424 0,0.02428 -0.03977,0.04416 -0.0884,0.04416 -0.04863,0 -0.0884,0.01998 -0.0884,0.04424 0,0.02436 -0.03976,0.04424 -0.0884,0.04424 -0.04863,0 -0.08848,0.01988 -0.08848,0.04416 0,0.02436 -0.03976,0.04424 -0.0884,0.04424 -0.04863,0 -0.0884,0.01988 -0.0884,0.04424 0,0.02427 -0.03986,0.04416 -0.08849,0.04416 -0.04863,0 -0.0884,0.01997 -0.0884,0.04424 0,0.02436 -0.03976,0.04424 -0.0884,0.04424 -0.04863,0 -0.08849,0.01988 -0.08849,0.04416 0,0.02436 -0.03976,0.04424 -0.0884,0.04424 -0.04863,0 -0.0884,0.01988 -0.0884,0.04424 0,0.02428 -0.03546,0.04416 -0.07863,0.04416 -0.04334,0 -0.107382,0.03986 -0.142489,0.08849 -0.03502,0.04863 -0.09905,0.0884 -0.142401,0.0884 -0.04317,0 -0.07863,0.01988 -0.07863,0.04424 0,0.02428 -0.03538,0.04416 -0.07863,0.04416 -0.04326,0 -0.107383,0.03986 -0.142401,0.08849 -0.0351,0.04863 -0.09117,0.0884 -0.124668,0.0884 -0.03349,0 -0.116696,0.05965 -0.184851,0.132638 -0.06806,0.0729 -0.147058,0.132639 -0.175359,0.132639 -0.0283,0 -0.148311,0.0995 -0.266709,0.221034 -0.118489,0.121622 -0.236798,0.221034 -0.263038,0.221034 -0.06215,0 -0.886466,0.8244 -0.886466,0.886555 0,0.02624 -0.0995,0.144549 -0.221124,0.262948 -0.121533,0.118489 -0.221034,0.238499 -0.221034,0.266799 0,0.0283 -0.05965,0.107204 -0.132638,0.175359 -0.0729,0.06815 -0.132639,0.151357 -0.132639,0.184763 0,0.03359 -0.03977,0.08966 -0.0884,0.124757 -0.04863,0.03502 -0.0884,0.09467 -0.0884,0.132638 0,0.03789 -0.03986,0.09753 -0.08849,0.132639 -0.04863,0.03502 -0.0884,0.09905 -0.0884,0.142401 0,0.04317 -0.01988,0.07863 -0.04424,0.07863 -0.02427,0 -0.04416,0.03976 -0.04416,0.0884 0,0.04863 -0.01998,0.0884 -0.04424,0.0884 -0.02436,0 -0.04424,0.03546 -0.04424,0.07872 0,0.04326 -0.03976,0.107293 -0.0884,0.1424 -0.04863,0.03502 -0.0884,0.09905 -0.0884,0.142401 0,0.04326 -0.01988,0.07863 -0.04424,0.07863 -0.02426,0 -0.04424,0.05965 -0.04424,0.132639 0,0.0729 -0.01988,0.132638 -0.04416,0.132638 -0.02436,0 -0.04424,0.03976 -0.04424,0.0884 0,0.04863 -0.01988,0.08849 -0.04424,0.08849 -0.02426,0 -0.04416,0.03976 -0.04416,0.0884 0,0.04863 -0.01988,0.0884 -0.04424,0.0884 -0.02427,0 -0.04424,0.05974 -0.04424,0.132638 0,0.07299 -0.01988,0.132639 -0.04416,0.132639 -0.02436,0 -0.04424,0.03976 -0.04424,0.0884 0,0.04863 -0.01988,0.08849 -0.04424,0.08849 -0.02426,0 -0.04416,0.05965 -0.04416,0.132638 0,0.0729 -0.01988,0.132639 -0.04424,0.132639 -0.02427,0 -0.04416,0.07953 -0.04416,0.176791 0,0.09727 -0.01997,0.176881 -0.04424,0.176881 -0.02579,0 -0.04424,0.147327 -0.04424,0.353673 0,0.206346 0.01845,0.353672 0.04424,0.353672 0.02428,0 0.04424,0.03986 0.04424,0.08849 0,0.04863 0.01988,0.0884 0.04416,0.0884 0.02436,0 0.04424,0.03126 0.04424,0.0695 0,0.08929 0.106487,0.195779 0.19578,0.195779 0.03824,0 0.06949,0.01988 0.06949,0.04424 0,0.02428 0.03976,0.04416 0.0884,0.04416 0.04863,0 0.0884,0.01988 0.0884,0.04424 0,0.02929 2.962198,0.04424 8.798201,0.04424 5.835913,0 8.798111,-0.01495 8.798111,-0.04424 0,-0.02436 0.03045,-0.04424 0.06753,-0.04424 0.08777,0 0.463025,-0.375256 0.463025,-0.463024 0,-0.03708 0.01988,-0.06753 0.04424,-0.06753 0.02526,0 0.04424,-0.132638 0.04424,-0.309429 0,-0.176882 -0.01899,-0.30952 -0.04424,-0.30952 -0.02436,0 -0.04424,-0.07953 -0.04424,-0.176791 0,-0.09727 -0.01988,-0.176882 -0.04416,-0.176882 -0.02436,0 -0.04424,-0.05965 -0.04424,-0.132638 0,-0.07299 -0.01988,-0.132638 -0.04424,-0.132638 -0.02428,0 -0.04416,-0.03976 -0.04416,-0.0884 0,-0.04863 -0.01998,-0.08849 -0.04424,-0.08849 -0.02436,0 -0.04424,-0.05965 -0.04424,-0.132638 0,-0.0729 -0.01988,-0.132639 -0.04416,-0.132639 -0.02436,0 -0.04424,-0.05965 -0.04424,-0.132548 0,-0.07299 -0.01988,-0.132639 -0.04424,-0.132639 -0.02428,0 -0.04416,-0.03986 -0.04416,-0.08849 0,-0.04863 -0.01988,-0.0884 -0.04424,-0.0884 -0.02428,0 -0.04424,-0.03977 -0.04424,-0.0884 0,-0.04863 -0.01988,-0.08849 -0.04416,-0.08849 -0.02436,0 -0.04424,-0.03976 -0.04424,-0.0884 0,-0.04863 -0.01988,-0.0884 -0.04424,-0.0884 -0.02427,0 -0.04416,-0.03986 -0.04416,-0.08849 0,-0.04863 -0.01988,-0.0884 -0.04424,-0.0884 -0.02427,0 -0.04424,-0.03537 -0.04424,-0.07863 0,-0.04326 -0.03976,-0.107382 -0.0884,-0.142401 -0.04863,-0.0351 -0.0884,-0.09914 -0.0884,-0.1424 0,-0.04326 -0.01988,-0.07872 -0.04424,-0.07872 -0.02427,0 -0.04415,-0.03537 -0.04415,-0.07863 0,-0.04326 -0.03986,-0.107292 -0.08849,-0.142401 -0.04863,-0.03502 -0.0884,-0.09476 -0.0884,-0.132638 0,-0.03789 -0.03976,-0.09753 -0.0884,-0.132639 -0.04863,-0.03502 -0.08849,-0.09073 -0.08849,-0.123682 0,-0.03305 -0.07953,-0.136489 -0.176791,-0.22999 -0.09727,-0.0935 -0.176881,-0.19148 -0.176881,-0.2179 0,-0.06269 -1.44362,-1.5064 -1.506311,-1.5064 -0.02642,0 -0.124489,-0.07953 -0.217989,-0.176791 -0.09341,-0.09727 -0.196853,-0.176882 -0.229901,-0.176882 -0.03305,0 -0.08866,-0.03976 -0.123772,-0.0884 -0.03502,-0.04863 -0.09476,-0.0884 -0.132638,-0.0884 -0.03789,0 -0.09753,-0.03986 -0.13264,-0.08849 -0.03502,-0.04863 -0.09905,-0.0884 -0.142399,-0.0884 -0.04326,0 -0.07863,-0.01988 -0.07863,-0.04424 0,-0.02428 -0.03537,-0.04416 -0.07863,-0.04416 -0.04334,0 -0.107382,-0.03986 -0.142401,-0.08849 -0.0351,-0.04863 -0.09914,-0.0884 -0.1424,-0.0884 -0.04326,0 -0.07872,-0.01988 -0.07872,-0.04424 0,-0.02428 -0.03977,-0.04416 -0.0884,-0.04416 -0.04863,0 -0.0884,-0.01988 -0.0884,-0.04424 0,-0.02428 -0.03976,-0.04424 -0.0884,-0.04424 -0.04871,0 -0.08849,-0.01988 -0.08849,-0.04416 0,-0.02436 -0.03976,-0.04424 -0.0884,-0.04424 -0.04863,0 -0.0884,-0.01988 -0.0884,-0.04424 0,-0.02426 -0.03986,-0.04416 -0.08849,-0.04416 -0.04863,0 -0.0884,-0.01988 -0.0884,-0.04424 0,-0.02428 -0.03976,-0.04424 -0.0884,-0.04424 -0.04863,0 -0.08849,-0.01988 -0.08849,-0.04416 0,-0.02436 -0.05965,-0.04424 -0.132639,-0.04424 -0.0729,0 -0.132638,-0.01988 -0.132638,-0.04424 0,-0.02428 -0.05965,-0.04416 -0.132639,-0.04416 -0.0729,0 -0.132638,-0.01988 -0.132638,-0.04424 0,-0.02427 -0.03977,-0.04416 -0.0884,-0.04416 -0.04863,0 -0.0884,-0.01998 -0.0884,-0.04424 0,-0.02436 -0.07962,-0.04424 -0.176882,-0.04424 -0.09727,0 -0.176791,-0.01988 -0.176791,-0.04416 0,-0.02436 -0.05974,-0.04424 -0.132638,-0.04424 -0.07299,0 -0.132639,-0.01988 -0.132639,-0.04424 0,-0.02427 -0.07962,-0.04416 -0.176881,-0.04416 -0.09727,0 -0.176881,-0.01998 -0.176881,-0.04424 0,-0.02436 -0.09941,-0.04424 -0.221034,-0.04424 -0.121533,0 -0.221034,-0.01988 -0.221034,-0.04415 0,-0.02579 -0.147416,-0.04424 -0.353673,-0.04424 -0.206346,0 -0.353762,-0.01845 -0.353762,-0.04424 0,-0.02428 -0.03976,-0.04416 -0.0884,-0.04416 -0.04863,0 -0.0884,-0.01998 -0.0884,-0.04424 0,-0.02436 0.09941,-0.04424 0.221034,-0.04424 0.121623,0 0.221034,-0.01988 0.221034,-0.04416 0,-0.02436 0.05974,-0.04424 0.132639,-0.04424 0.07299,0 0.132638,-0.01988 0.132638,-0.04424 0,-0.02427 0.05974,-0.04416 0.132639,-0.04416 0.07299,0 0.132638,-0.01988 0.132638,-0.04424 0,-0.02427 0.05974,-0.04424 0.132639,-0.04424 0.07299,0 0.132638,-0.01988 0.132638,-0.04416 0,-0.02436 0.03976,-0.04424 0.0884,-0.04424 0.04863,0 0.08849,-0.01988 0.08849,-0.04424 0,-0.02426 0.03976,-0.04416 0.0884,-0.04416 0.04863,0 0.0884,-0.01988 0.0884,-0.04424 0,-0.02427 0.03986,-0.04424 0.08849,-0.04424 0.04863,0 0.0884,-0.01988 0.0884,-0.04416 0,-0.02436 0.03538,-0.04424 0.07863,-0.04424 0.04326,0 0.107383,-0.03976 0.142401,-0.0884 0.0351,-0.04863 0.09117,-0.0884 0.124667,-0.0884 0.0335,0 0.116698,-0.05974 0.184853,-0.132639 0.06815,-0.07299 0.145982,-0.132638 0.173029,-0.132638 0.06412,0 0.888078,-0.823953 0.888078,-0.888078 0,-0.02705 0.05965,-0.104875 0.132639,-0.173031 0.0729,-0.06815 0.132638,-0.151355 0.132638,-0.184851 0,-0.03349 0.03976,-0.08956 0.0884,-0.124667 0.04863,-0.03502 0.0884,-0.09914 0.0884,-0.142401 0,-0.04326 0.01988,-0.07863 0.04424,-0.07863 0.02427,0 0.04416,-0.03976 0.04416,-0.0884 0,-0.04863 0.01998,-0.08849 0.04424,-0.08849 0.02436,0 0.04424,-0.03976 0.04424,-0.0884 0,-0.04863 0.01988,-0.0884 0.04416,-0.0884 0.02436,0 0.04424,-0.03986 0.04424,-0.08849 0,-0.04863 0.01988,-0.0884 0.04424,-0.0884 0.02428,0 0.04416,-0.05965 0.04416,-0.132639 0,-0.0729 0.01998,-0.132638 0.04424,-0.132638 0.02436,0 0.04424,-0.05965 0.04424,-0.132639 0,-0.0729 0.01988,-0.132638 0.04415,-0.132638 0.02436,0 0.04424,-0.05965 0.04424,-0.132638 0,-0.0729 0.01988,-0.132639 0.04424,-0.132639 0.02428,0 0.04416,-0.09941 0.04416,-0.221034 0,-0.121623 0.01988,-0.221034 0.04424,-0.221034 0.02749,0 0.04424,-0.250589 0.04424,-0.663192 0,-0.412604 -0.01675,-0.663193 -0.04424,-0.663193 -0.02436,0 -0.04424,-0.0995 -0.04424,-0.221034 0,-0.121623 -0.01988,-0.221035 -0.04416,-0.221035 -0.02436,0 -0.04424,-0.07962 -0.04424,-0.17688 0,-0.09727 -0.01988,-0.176881 -0.04424,-0.176881 -0.02426,0 -0.04415,-0.05965 -0.04415,-0.132639 0,-0.0729 -0.01988,-0.132638 -0.04424,-0.132638 -0.02428,0 -0.04424,-0.03976 -0.04424,-0.0884 0,-0.04863 -0.01988,-0.0884 -0.04416,-0.0884 -0.02436,0 -0.04424,-0.03986 -0.04424,-0.08849 0,-0.04863 -0.01988,-0.0884 -0.04424,-0.0884 -0.02428,0 -0.04416,-0.03976 -0.04416,-0.0884 0,-0.04863 -0.01988,-0.08849 -0.04424,-0.08849 -0.02428,0 -0.04424,-0.03976 -0.04424,-0.0884 0,-0.04863 -0.01988,-0.0884 -0.04416,-0.0884 -0.02436,0 -0.04424,-0.03976 -0.04424,-0.0884 0,-0.04863 -0.01988,-0.08849 -0.04424,-0.08849 -0.02427,0 -0.04416,-0.03179 -0.04416,-0.07066 0,-0.03887 -0.05974,-0.126459 -0.132639,-0.194614 -0.07299,-0.06807 -0.132638,-0.145983 -0.132638,-0.172941 0,-0.02696 -0.228557,-0.277636 -0.507985,-0.556974 -0.279427,-0.279428 -0.530016,-0.507985 -0.556974,-0.507985 -0.02696,0 -0.104875,-0.05965 -0.17294,-0.132639 -0.06815,-0.07299 -0.155745,-0.132638 -0.194614,-0.132638 -0.03887,0 -0.07066,-0.01988 -0.07066,-0.04424 0,-0.02428 -0.03546,-0.04416 -0.07872,-0.04416 -0.04326,0 -0.107293,-0.03986 -0.1424,-0.08849 -0.03502,-0.04863 -0.09905,-0.0884 -0.142401,-0.0884 -0.04326,0 -0.07863,-0.01988 -0.07863,-0.04424 0,-0.02426 -0.03976,-0.04416 -0.0884,-0.04416 -0.04863,0 -0.08849,-0.01988 -0.08849,-0.04424 0,-0.02427 -0.05965,-0.04424 -0.132639,-0.04424 -0.0729,0 -0.132638,-0.01988 -0.132638,-0.04416 0,-0.02436 -0.05965,-0.04424 -0.132639,-0.04424 -0.0729,0 -0.132549,-0.01988 -0.132549,-0.04424 0,-0.02426 -0.05974,-0.04416 -0.132639,-0.04416 -0.07299,0 -0.132638,-0.01988 -0.132638,-0.04424 0,-0.02427 -0.07962,-0.04416 -0.176881,-0.04416 -0.09727,0 -0.176881,-0.01997 -0.176881,-0.04424 0,-0.02795 -0.30943,-0.04424 -0.839984,-0.04424 -0.530554,0 -0.840073,0.0163 -0.840073,0.04424 z m -25.023888,1.856848 c 0,0.02436 0.0995,0.04424 0.221124,0.04424 0.121532,0 0.221034,0.01988 0.221034,0.04424 0,0.02427 0.05965,0.04416 0.132638,0.04416 0.0729,0 0.132639,0.01997 0.132639,0.04424 0,0.02436 0.05965,0.04424 0.132638,0.04424 0.0729,0 0.132639,0.01988 0.132639,0.04416 0,0.02436 0.03537,0.04424 0.07863,0.04424 0.04326,0 0.107293,0.03976 0.142401,0.0884 0.03502,0.04863 0.09476,0.08849 0.132638,0.08849 0.03789,0 0.09753,0.03977 0.132639,0.0884 0.03502,0.04863 0.08965,0.0884 0.121443,0.0884 0.07515,0 0.453263,0.378211 0.453263,0.453353 0,0.0317 0.03986,0.08633 0.08849,0.121443 0.04863,0.03502 0.0884,0.09475 0.0884,0.132639 0,0.03789 0.03976,0.09753 0.0884,0.132638 0.04863,0.03502 0.08849,0.09905 0.08849,0.1424 0,0.04326 0.01988,0.07863 0.04416,0.07863 0.02436,0 0.04424,0.05965 0.04424,0.132639 0,0.0729 0.01988,0.132638 0.04424,0.132638 0.02428,0 0.04416,0.05965 0.04416,0.132638 0,0.0729 0.01988,0.132639 0.04424,0.132639 0.02428,0 0.04424,0.0995 0.04424,0.221034 0,0.121622 0.01988,0.221034 0.04415,0.221034 0.02722,0 0.04424,0.221124 0.04424,0.574797 0,0.353672 -0.01702,0.574706 -0.04424,0.574706 -0.02426,0 -0.04415,0.0995 -0.04415,0.221124 0,0.121534 -0.01997,0.221034 -0.04424,0.221034 -0.02436,0 -0.04424,0.05965 -0.04424,0.132639 0,0.07299 -0.01988,0.132638 -0.04416,0.132638 -0.02436,0 -0.04424,0.03976 -0.04424,0.0884 0,0.04863 -0.01988,0.08849 -0.04424,0.08849 -0.02428,0 -0.04416,0.03976 -0.04416,0.0884 0,0.04863 -0.01997,0.0884 -0.04424,0.0884 -0.02436,0 -0.04424,0.03977 -0.04424,0.0884 0,0.04873 -0.01988,0.08849 -0.04416,0.08849 -0.02436,0 -0.04424,0.03009 -0.04424,0.06691 0,0.0814 -0.727138,0.817325 -0.807563,0.817325 -0.03143,0 -0.0858,0.03976 -0.120906,0.0884 -0.03502,0.04863 -0.09914,0.08849 -0.1424,0.08849 -0.04326,0 -0.07863,0.01988 -0.07863,0.04416 0,0.02436 -0.03976,0.04424 -0.0884,0.04424 -0.04863,0 -0.08849,0.01988 -0.08849,0.04424 0,0.02427 -0.05965,0.04416 -0.132638,0.04416 -0.0729,0 -0.132639,0.01988 -0.132639,0.04424 0,0.02427 -0.05965,0.04416 -0.132638,0.04416 -0.0729,0 -0.132639,0.01998 -0.132639,0.04424 0,0.02463 -0.11786,0.04424 -0.265187,0.04424 -0.147415,0 -0.265277,0.01961 -0.265277,0.04416 0,0.02579 -0.147416,0.04424 -0.353762,0.04424 -0.206346,0 -0.353673,-0.01845 -0.353673,-0.04424 0,-0.02454 -0.11786,-0.04416 -0.265258,-0.04416 -0.147362,0 -0.2652769,-0.01961 -0.2652769,-0.04424 0,-0.02428 -0.07958,-0.04424 -0.176846,-0.04424 -0.09727,0 -0.176845,-0.01988 -0.176845,-0.04416 0,-0.02436 -0.05969,-0.04424 -0.132638,-0.04424 -0.07295,0 -0.13263,-0.01988 -0.13263,-0.04416 0,-0.02436 -0.03979,-0.04424 -0.08843,-0.04424 -0.04863,0 -0.08842,-0.01988 -0.08842,-0.04424 0,-0.02427 -0.03541,-0.04416 -0.07865,-0.04416 -0.04328,0 -0.107347,-0.03986 -0.14241,-0.08849 -0.03505,-0.04863 -0.08948,-0.0884 -0.121003,-0.0884 -0.07467,0 -0.7190158,-0.644385 -0.7190158,-0.718988 0,-0.03153 -0.039791,-0.08597 -0.088423,-0.121085 -0.048631,-0.03502 -0.088423,-0.09905 -0.088423,-0.142401 0,-0.04317 -0.019901,-0.07863 -0.044216,-0.07863 -0.024315,0 -0.044207,-0.03977 -0.044207,-0.0884 0,-0.04863 -0.019901,-0.0884 -0.044216,-0.0884 -0.024315,0 -0.044216,-0.05974 -0.044216,-0.132639 0,-0.07299 -0.019891,-0.132638 -0.044207,-0.132638 -0.024315,0 -0.044216,-0.07962 -0.044216,-0.176881 0,-0.09727 -0.019891,-0.176881 -0.044207,-0.176881 -0.024584,0 -0.044216,-0.117861 -0.044216,-0.265277 0,-0.147326 -0.019631,-0.265188 -0.044207,-0.265188 -0.025776,0 -0.044216,-0.147415 -0.044216,-0.353762 0,-0.206346 0.01844,-0.353673 0.044216,-0.353673 0.024575,0 0.044207,-0.11795 0.044207,-0.265277 0,-0.147326 0.019632,-0.265276 0.044216,-0.265276 0.024315,0 0.044207,-0.05965 0.044207,-0.132639 0,-0.0729 0.019901,-0.132638 0.044216,-0.132638 0.024315,0 0.044207,-0.05965 0.044207,-0.132639 0,-0.0729 0.0199,-0.132638 0.044216,-0.132638 0.024315,0 0.044216,-0.03976 0.044216,-0.0884 0,-0.04863 0.019891,-0.0884 0.044207,-0.0884 0.024315,0 0.044216,-0.03546 0.044216,-0.07872 0,-0.04326 0.039791,-0.107293 0.088423,-0.142401 0.048631,-0.03502 0.088423,-0.08947 0.088423,-0.120906 0,-0.08042 0.7359058,-0.807473 0.8172978,-0.807473 0.03683,0 0.06694,-0.01997 0.06694,-0.04424 0,-0.02436 0.0398,-0.04424 0.08842,-0.04424 0.04863,0 0.08843,-0.01988 0.08843,-0.04416 0,-0.02436 0.0398,-0.04424 0.08842,-0.04424 0.04864,0 0.08843,-0.01988 0.08843,-0.04424 0,-0.02426 0.03979,-0.04416 0.08842,-0.04416 0.04863,0 0.08842,-0.01988 0.08842,-0.04424 0,-0.02427 0.05969,-0.04424 0.132629,-0.04424 0.07296,0 0.132638,-0.01988 0.132638,-0.04416 0,-0.02436 0.09947,-0.04424 0.221062,-0.04424 0.1215769,0 0.2210609,-0.01988 0.2210609,-0.04424 0,-0.02713 0.221017,-0.04416 0.574779,-0.04416 0.353673,0 0.574707,0.01702 0.574707,0.04416 z m 26.438668,0 c 0,0.02436 0.0995,0.04424 0.221124,0.04424 0.121532,0 0.221034,0.01988 0.221034,0.04424 0,0.02427 0.05965,0.04416 0.132638,0.04416 0.0729,0 0.132639,0.01997 0.132639,0.04424 0,0.02436 0.03976,0.04424 0.0884,0.04424 0.04863,0 0.08849,0.01988 0.08849,0.04416 0,0.02436 0.03976,0.04424 0.0884,0.04424 0.04863,0 0.0884,0.01988 0.0884,0.04424 0,0.02427 0.03976,0.04416 0.0884,0.04416 0.04863,0 0.08849,0.01988 0.08849,0.04424 0,0.02427 0.03009,0.04424 0.06691,0.04424 0.0814,0 0.817325,0.727049 0.817325,0.807474 0,0.03143 0.03976,0.08589 0.0884,0.120905 0.04863,0.0351 0.08849,0.09914 0.08849,0.142401 0,0.04326 0.01988,0.07872 0.04416,0.07872 0.02436,0 0.04424,0.03976 0.04424,0.0884 0,0.04863 0.01988,0.0884 0.04416,0.0884 0.02436,0 0.04424,0.05974 0.04424,0.132638 0,0.07299 0.01988,0.13264 0.04424,0.13264 0.02427,0 0.04416,0.05974 0.04416,0.132637 0,0.07299 0.01998,0.13264 0.04424,0.13264 0.02463,0 0.04424,0.11795 0.04424,0.265276 0,0.147326 0.01961,0.265277 0.04416,0.265277 0.02579,0 0.04424,0.147326 0.04424,0.353673 0,0.206346 -0.01845,0.353762 -0.04424,0.353762 -0.02454,0 -0.04416,0.117861 -0.04416,0.265187 0,0.147416 -0.01961,0.265277 -0.04424,0.265277 -0.02428,0 -0.04424,0.07962 -0.04424,0.176881 0,0.09727 -0.01988,0.176882 -0.04416,0.176882 -0.02436,0 -0.04424,0.05965 -0.04424,0.132638 0,0.0729 -0.01988,0.132639 -0.04424,0.132639 -0.02427,0 -0.04416,0.03976 -0.04416,0.0884 0,0.04863 -0.01988,0.0884 -0.04424,0.0884 -0.02427,0 -0.04416,0.03546 -0.04416,0.07863 0,0.04334 -0.03986,0.107384 -0.08849,0.142401 -0.04863,0.0351 -0.0884,0.08956 -0.0884,0.121085 0,0.03143 -0.148939,0.206168 -0.330925,0.388064 -0.181986,0.181986 -0.356628,0.330924 -0.388064,0.330924 -0.03152,0 -0.08597,0.03976 -0.121085,0.0884 -0.03502,0.04863 -0.09905,0.08849 -0.1424,0.08849 -0.04317,0 -0.07863,0.01988 -0.07863,0.04416 0,0.02436 -0.03977,0.04424 -0.0884,0.04424 -0.04863,0 -0.0884,0.01988 -0.0884,0.04424 0,0.02427 -0.05974,0.04416 -0.132639,0.04416 -0.07299,0 -0.132638,0.01988 -0.132638,0.04424 0,0.02428 -0.07962,0.04416 -0.176881,0.04416 -0.09726,0 -0.176881,0.01997 -0.176881,0.04424 0,0.02463 -0.117861,0.04424 -0.265277,0.04424 -0.147326,0 -0.265277,0.01961 -0.265277,0.04416 0,0.02579 -0.147326,0.04424 -0.353673,0.04424 -0.206346,0 -0.353672,-0.01845 -0.353672,-0.04424 0,-0.02454 -0.117951,-0.04416 -0.265277,-0.04416 -0.147327,0 -0.265277,-0.01961 -0.265277,-0.04424 0,-0.02427 -0.05965,-0.04424 -0.132639,-0.04424 -0.0729,0 -0.132638,-0.01988 -0.132638,-0.04416 0,-0.02436 -0.05965,-0.04424 -0.132638,-0.04424 -0.0729,0 -0.132639,-0.01988 -0.132639,-0.04416 0,-0.02436 -0.03976,-0.04424 -0.0884,-0.04424 -0.04863,0 -0.0884,-0.01988 -0.0884,-0.04424 0,-0.02427 -0.03546,-0.04416 -0.07872,-0.04416 -0.04326,0 -0.107294,-0.03986 -0.142401,-0.08849 -0.03502,-0.04863 -0.08947,-0.0884 -0.120907,-0.0884 -0.08043,0 -0.807472,-0.735914 -0.807472,-0.817325 0,-0.03681 -0.01997,-0.06691 -0.04424,-0.06691 -0.02436,0 -0.04424,-0.03977 -0.04424,-0.08849 0,-0.04863 -0.01988,-0.0884 -0.04416,-0.0884 -0.02436,0 -0.04424,-0.03977 -0.04424,-0.0884 0,-0.04863 -0.01988,-0.0884 -0.04424,-0.0884 -0.02427,0 -0.04416,-0.03986 -0.04416,-0.08849 0,-0.04863 -0.01998,-0.0884 -0.04424,-0.0884 -0.02436,0 -0.04424,-0.05965 -0.04424,-0.132638 0,-0.07299 -0.01988,-0.132639 -0.04416,-0.132639 -0.02436,0 -0.04424,-0.0995 -0.04424,-0.221034 0,-0.121622 -0.01988,-0.221124 -0.04424,-0.221124 -0.02714,0 -0.04416,-0.221034 -0.04416,-0.574706 0,-0.353673 0.01702,-0.574797 0.04416,-0.574797 0.02436,0 0.04424,-0.09941 0.04424,-0.221034 0,-0.121533 0.01988,-0.221034 0.04424,-0.221034 0.02428,0 0.04416,-0.05974 0.04416,-0.132639 0,-0.07299 0.01988,-0.132638 0.04424,-0.132638 0.02428,0 0.04424,-0.05974 0.04424,-0.132638 0,-0.07299 0.01988,-0.132639 0.04416,-0.132639 0.02436,0 0.04424,-0.03537 0.04424,-0.07863 0,-0.04334 0.03976,-0.107383 0.0884,-0.1424 0.04863,-0.0351 0.08849,-0.09475 0.08849,-0.132638 0,-0.03789 0.03976,-0.09762 0.0884,-0.132639 0.04863,-0.0351 0.0884,-0.08974 0.0884,-0.121443 0,-0.03179 0.08903,-0.14679 0.197838,-0.255516 0.108727,-0.108815 0.223721,-0.197837 0.255515,-0.197837 0.0317,0 0.08633,-0.03976 0.121443,-0.0884 0.03502,-0.04863 0.09476,-0.0884 0.132639,-0.0884 0.03789,0 0.09753,-0.03986 0.132638,-0.08849 0.03502,-0.04863 0.09905,-0.0884 0.142401,-0.0884 0.04326,0 0.07863,-0.01988 0.07863,-0.04424 0,-0.02427 0.05965,-0.04416 0.132639,-0.04416 0.0729,0 0.132638,-0.01988 0.132638,-0.04424 0,-0.02427 0.05965,-0.04424 0.132639,-0.04424 0.0729,0 0.132638,-0.01988 0.132638,-0.04416 0,-0.02436 0.0995,-0.04424 0.221034,-0.04424 0.121624,0 0.221034,-0.01988 0.221034,-0.04424 0,-0.02713 0.221124,-0.04416 0.574797,-0.04416 0.353674,0 0.574708,0.01702 0.574708,0.04416 z M 17.98725,37.658146 c 0,0.02436 -0.03054,0.04424 -0.06779,0.04424 -0.08804,0 -0.374361,0.286324 -0.374361,0.374362 0,0.03726 -0.01988,0.06771 -0.04424,0.06771 -0.02427,0 -0.04416,0.05974 -0.04416,0.13264 0,0.07299 -0.01988,0.132638 -0.04424,0.132638 -0.02426,0 -0.04424,0.05974 -0.04424,0.132639 0,0.07299 0.01997,0.132638 0.04424,0.132638 0.02436,0 0.04424,0.05974 0.04424,0.132639 0,0.07299 0.01988,0.132638 0.04416,0.132638 0.02436,0 0.04424,0.03053 0.04424,0.06779 0,0.08804 0.286323,0.37436 0.374361,0.37436 0.03726,0 0.06779,0.01988 0.06779,0.04416 0,0.02436 0.05965,0.04424 0.132638,0.04424 0.0729,0 0.132639,0.01988 0.132639,0.04424 0,0.02428 0.03976,0.04416 0.0884,0.04416 0.04863,0 0.0884,0.01988 0.0884,0.04424 0,0.02428 0.05974,0.04424 0.132639,0.04424 0.07299,0 0.132638,0.01988 0.132638,0.04416 0,0.02436 0.05974,0.04424 0.132639,0.04424 0.07299,0 0.132638,0.01988 0.132638,0.04424 0,0.02426 0.05965,0.04415 0.132638,0.04415 0.07299,0 0.132639,0.01988 0.132639,0.04424 0,0.02428 0.07962,0.04424 0.176881,0.04424 0.09727,0 0.176791,0.01988 0.176791,0.04416 0,0.02436 0.05974,0.04424 0.132639,0.04424 0.07299,0 0.132638,0.01988 0.132638,0.04424 0,0.02427 0.07962,0.04416 0.176882,0.04416 0.09727,0 0.176791,0.01988 0.176791,0.04424 0,0.02427 0.0995,0.04424 0.221124,0.04424 0.121533,0 0.221034,0.01988 0.221034,0.04416 0,0.02436 0.0995,0.04424 0.221034,0.04424 0.121623,0 0.221034,0.01988 0.221034,0.04416 0,0.02463 0.117952,0.04424 0.265278,0.04424 0.147415,0 0.265277,0.01961 0.265277,0.04424 0,0.02579 0.147415,0.04416 0.353761,0.04416 0.206348,0 0.353673,0.01845 0.353673,0.04424 0,0.02866 0.589485,0.04424 1.680058,0.04424 1.090572,0 1.680057,-0.01558 1.680057,-0.04424 0,-0.02579 0.147326,-0.04424 0.353673,-0.04424 0.206346,0 0.353672,-0.01836 0.353672,-0.04416 0,-0.02463 0.117951,-0.04424 0.265277,-0.04424 0.147326,0 0.265277,-0.01961 0.265277,-0.04424 0,-0.02427 0.0995,-0.04416 0.221034,-0.04416 0.121623,0 0.221124,-0.01988 0.221124,-0.04424 0,-0.02428 0.09941,-0.04416 0.221034,-0.04416 0.121533,0 0.221034,-0.01997 0.221034,-0.04424 0,-0.02436 0.07962,-0.04424 0.176881,-0.04424 0.09727,0 0.176793,-0.01988 0.176793,-0.04416 0,-0.02436 0.05974,-0.04424 0.132638,-0.04424 0.07299,0 0.132639,-0.01988 0.132639,-0.04424 0,-0.02427 0.07962,-0.04416 0.17688,-0.04416 0.09727,0 0.176881,-0.01998 0.176881,-0.04424 0,-0.02436 0.05965,-0.04424 0.132639,-0.04424 0.0729,0 0.132638,-0.01988 0.132638,-0.04415 0,-0.02436 0.05965,-0.04424 0.132638,-0.04424 0.0729,0 0.13255,-0.01988 0.13255,-0.04424 0,-0.02428 0.05974,-0.04416 0.132638,-0.04416 0.07299,0 0.132639,-0.01997 0.132639,-0.04424 0,-0.02436 0.03986,-0.04424 0.08849,-0.04424 0.04863,0 0.0884,-0.01988 0.0884,-0.04416 0,-0.02436 0.05965,-0.04424 0.132639,-0.04424 0.07299,0 0.132638,-0.01988 0.132638,-0.04424 0,-0.02428 0.03054,-0.04416 0.06779,-0.04416 0.08804,0 0.374361,-0.286323 0.374361,-0.37436 0,-0.03726 0.01988,-0.06779 0.04416,-0.06779 0.02436,0 0.04424,-0.05965 0.04424,-0.132638 0,-0.0729 0.01988,-0.132639 0.04416,-0.132639 0.02436,0 0.04424,-0.05965 0.04424,-0.132638 0,-0.0729 -0.01988,-0.132639 -0.04424,-0.132639 -0.02427,0 -0.04416,-0.05965 -0.04416,-0.132638 0,-0.0729 -0.01988,-0.13264 -0.04424,-0.13264 -0.02428,0 -0.04416,-0.03045 -0.04416,-0.06771 0,-0.111413 -0.294026,-0.374362 -0.418604,-0.374362 -0.06162,0 -0.11195,-0.01988 -0.11195,-0.04424 0,-0.02454 -0.117951,-0.04424 -0.265277,-0.04424 -0.147416,0 -0.265276,0.01971 -0.265276,0.04424 0,0.02436 -0.05974,0.04424 -0.132639,0.04424 -0.07299,0 -0.132638,0.01988 -0.132638,0.04416 0,0.02436 -0.05974,0.04424 -0.132639,0.04424 -0.07299,0 -0.132638,0.01988 -0.132638,0.04424 0,0.02428 -0.03977,0.04416 -0.0884,0.04416 -0.04863,0 -0.08848,0.01997 -0.08848,0.04424 0,0.02436 -0.05965,0.04424 -0.132639,0.04424 -0.0729,0 -0.132638,0.01988 -0.132638,0.04416 0,0.02436 -0.07953,0.04424 -0.176792,0.04424 -0.09727,0 -0.176881,0.01988 -0.176881,0.04424 0,0.02427 -0.05965,0.04415 -0.132638,0.04415 -0.0729,0 -0.132639,0.01998 -0.132639,0.04424 0,0.02436 -0.07953,0.04424 -0.176792,0.04424 -0.09727,0 -0.176881,0.01988 -0.176881,0.04416 0,0.02436 -0.07962,0.04424 -0.176881,0.04424 -0.09727,0 -0.176792,0.01988 -0.176792,0.04424 0,0.02428 -0.07962,0.04416 -0.176881,0.04416 -0.09727,0 -0.17688,0.01988 -0.17688,0.04424 0,0.02454 -0.117862,0.04424 -0.265188,0.04424 -0.147416,0 -0.265277,0.01961 -0.265277,0.04416 0,0.02526 -0.132639,0.04424 -0.30952,0.04424 -0.176881,0 -0.30952,0.01899 -0.30952,0.04424 0,0.02758 -0.264023,0.04416 -0.703673,0.04416 -0.519717,0 -0.71048,0.01451 -0.729466,0.05525 -0.02059,0.04424 -0.03099,0.04424 -0.05158,0 -0.01935,-0.04129 -0.236349,-0.05525 -0.862105,-0.05525 -0.528136,0 -0.836401,-0.0163 -0.836401,-0.04416 0,-0.02526 -0.132639,-0.04424 -0.30943,-0.04424 -0.176881,0 -0.30952,-0.01899 -0.30952,-0.04424 0,-0.02454 -0.11795,-0.04416 -0.265277,-0.04416 -0.147326,0 -0.265277,-0.01971 -0.265277,-0.04424 0,-0.02436 -0.07953,-0.04424 -0.176881,-0.04424 -0.09727,0 -0.176791,-0.01988 -0.176791,-0.04416 0,-0.02436 -0.07962,-0.04424 -0.176881,-0.04424 -0.09727,0 -0.176792,-0.01988 -0.176792,-0.04424 0,-0.02428 -0.07962,-0.04416 -0.176881,-0.04416 -0.09727,0 -0.176881,-0.01988 -0.176881,-0.04424 0,-0.02428 -0.05965,-0.04424 -0.132639,-0.04424 -0.0729,0 -0.132638,-0.01988 -0.132638,-0.04415 0,-0.02436 -0.07953,-0.04424 -0.176792,-0.04424 -0.09727,0 -0.176881,-0.01988 -0.176881,-0.04424 0,-0.02427 -0.03976,-0.04416 -0.0884,-0.04416 -0.04863,0 -0.0884,-0.01988 -0.0884,-0.04424 0,-0.02426 -0.05974,-0.04424 -0.132638,-0.04424 -0.07299,0 -0.132639,-0.01988 -0.132639,-0.04416 0,-0.02436 -0.05974,-0.04424 -0.132638,-0.04424 -0.07299,0 -0.132639,-0.01988 -0.132639,-0.04424 0,-0.02428 -0.05974,-0.04416 -0.132638,-0.04416 -0.07299,0 -0.132639,-0.01988 -0.132639,-0.04424 0,-0.02526 -0.132638,-0.04424 -0.309519,-0.04424 -0.176792,0 -0.30943,0.01899 -0.30943,0.04424 z m -6.808625,3.890669 c 0,0.02651 0.176792,0.04424 0.442069,0.04424 0.265276,0 0.442158,0.01764 0.442158,0.04416 0,0.02463 0.11786,0.04424 0.265277,0.04424 0.147326,0 0.265276,0.01961 0.265276,0.04416 0,0.02436 0.07953,0.04424 0.176792,0.04424 0.09727,0 0.176881,0.01988 0.176881,0.04424 0,0.02428 0.05965,0.04416 0.132638,0.04416 0.0729,0 0.132639,0.01998 0.132639,0.04424 0,0.02436 0.05965,0.04424 0.132638,0.04424 0.0729,0 0.132639,0.01988 0.132639,0.04416 0,0.02436 0.05965,0.04424 0.132638,0.04424 0.0729,0 0.132639,0.01988 0.132639,0.04424 0,0.02428 0.03976,0.04416 0.0884,0.04416 0.04863,0 0.0884,0.01998 0.0884,0.04424 0,0.02436 0.05974,0.04424 0.132638,0.04424 0.07299,0 0.132639,0.01988 0.132639,0.04416 0,0.02436 0.03977,0.04424 0.08849,0.04424 0.04863,0 0.0884,0.01988 0.0884,0.04424 0,0.02427 0.03976,0.04416 0.0884,0.04416 0.04863,0 0.0884,0.01988 0.0884,0.04424 0,0.02426 0.03546,0.04424 0.07872,0.04424 0.04326,0 0.107292,0.03976 0.1424,0.0884 0.03502,0.04863 0.09905,0.0884 0.1424,0.0884 0.04326,0 0.07863,0.01988 0.07863,0.04424 0,0.02427 0.03179,0.04424 0.07066,0.04424 0.03887,0 0.126458,0.05965 0.194614,0.13264 0.06815,0.0729 0.147684,0.132638 0.176882,0.132638 0.02911,0 0.108636,0.05965 0.176791,0.132549 0.06815,0.07299 0.145983,0.132638 0.17294,0.132638 0.06404,0 1.065049,1.001013 1.065049,1.065048 0,0.02696 0.05965,0.104786 0.132638,0.172941 0.0729,0.06815 0.132549,0.151356 0.132549,0.184762 0,0.0335 0.03986,0.08965 0.08849,0.124668 0.04863,0.0351 0.0884,0.09476 0.0884,0.132638 0,0.03789 0.03976,0.09762 0.0884,0.132639 0.04863,0.0351 0.08849,0.09914 0.08849,0.1424 0,0.04326 0.01988,0.07872 0.04416,0.07872 0.02436,0 0.04424,0.03537 0.04424,0.07863 0,0.04326 0.03976,0.107293 0.0884,0.142401 0.04863,0.03502 0.08849,0.09914 0.08849,0.142401 0,0.04326 0.01988,0.07863 0.04416,0.07863 0.02436,0 0.04424,0.05974 0.04424,0.132638 0,0.07299 0.01988,0.132639 0.04424,0.132639 0.02426,0 0.04415,0.05974 0.04415,0.132638 V 46.27949 H 10.78071 3.6625745 v -0.132639 c 0,-0.0729 0.019891,-0.132638 0.044216,-0.132638 0.024315,0 0.044207,-0.03977 0.044207,-0.0884 0,-0.04863 0.019901,-0.08849 0.044216,-0.08849 0.024315,0 0.044207,-0.03976 0.044207,-0.0884 0,-0.04863 0.019901,-0.0884 0.044216,-0.0884 0.024315,0 0.044207,-0.03976 0.044207,-0.0884 0,-0.04863 0.019901,-0.08849 0.044216,-0.08849 0.024315,0 0.044216,-0.03537 0.044216,-0.07863 0,-0.04326 0.039783,-0.107383 0.088423,-0.142401 0.048631,-0.0351 0.088423,-0.09475 0.088423,-0.132639 0,-0.03789 0.039791,-0.09762 0.088423,-0.132638 0.048631,-0.03502 0.088423,-0.09476 0.088423,-0.132639 0,-0.03789 0.039792,-0.09753 0.088423,-0.132638 0.048631,-0.03502 0.088423,-0.09073 0.088423,-0.123773 0,-0.03296 0.079583,-0.136488 0.1768454,-0.2299 0.097271,-0.0935 0.1768542,-0.191747 0.1768542,-0.218347 0,-0.06269 0.6468207,-0.710122 0.7095575,-0.710122 0.026259,0 0.1446574,-0.0995 0.2631006,-0.221034 0.1184432,-0.121623 0.2420629,-0.221034 0.2747345,-0.221034 0.032716,0 0.088109,-0.03986 0.1231719,-0.08849 0.035063,-0.04863 0.094745,-0.0884 0.1326385,-0.0884 0.037883,0 0.097575,-0.03976 0.1326294,-0.0884 0.035063,-0.04863 0.099125,-0.08849 0.1424095,-0.08849 0.04324,0 0.078652,-0.01988 0.078652,-0.04416 0,-0.02436 0.039791,-0.04424 0.088423,-0.04424 0.048631,0 0.088423,-0.01988 0.088423,-0.04424 0,-0.02427 0.039791,-0.04416 0.088423,-0.04416 0.04864,0 0.088431,-0.01998 0.088431,-0.04424 0,-0.02436 0.039791,-0.04424 0.088423,-0.04424 0.048631,0 0.088423,-0.01988 0.088423,-0.04416 0,-0.02436 0.039791,-0.04424 0.088423,-0.04424 0.048631,0 0.088423,-0.01988 0.088423,-0.04424 0,-0.02426 0.039791,-0.04416 0.088423,-0.04416 0.048631,0 0.088423,-0.01988 0.088423,-0.04424 0,-0.02427 0.039791,-0.04424 0.088423,-0.04424 0.04864,0 0.088431,-0.01988 0.088431,-0.04416 0,-0.02436 0.059682,-0.04424 0.1326294,-0.04424 0.072955,0 0.1326385,-0.01988 0.1326385,-0.04424 0,-0.02428 0.059683,-0.04416 0.1326384,-0.04416 0.072946,0 0.132629,-0.01988 0.132629,-0.04424 0,-0.02428 0.07958,-0.04424 0.1768459,-0.04424 0.097266,0 0.1768541,-0.01988 0.1768541,-0.04416 0,-0.02436 0.07957,-0.04424 0.1768448,-0.04424 0.09727,0 0.176846,-0.01988 0.176846,-0.04424 0,-0.02428 0.09947,-0.04416 0.221061,-0.04416 0.121578,0 0.221061,-0.01988 0.221061,-0.04424 0,-0.02678 0.19157,-0.04416 0.486329,-0.04416 0.2947599,0 0.4863199,-0.01746 0.4863199,-0.04424 0,-0.02579 0.147327,-0.04424 0.353673,-0.04424 0.206346,0 0.353762,0.01845 0.353762,0.04424 z m 26.438668,0 c 0,0.02651 0.176792,0.04424 0.442069,0.04424 0.265276,0 0.442158,0.01764 0.442158,0.04416 0,0.02436 0.0995,0.04424 0.221034,0.04424 0.121622,0 0.221034,0.01988 0.221034,0.04416 0,0.02436 0.07962,0.04424 0.176881,0.04424 0.09727,0 0.176881,0.01988 0.176881,0.04424 0,0.02428 0.07953,0.04416 0.176792,0.04416 0.09727,0 0.176881,0.01998 0.176881,0.04424 0,0.02436 0.05965,0.04424 0.132638,0.04424 0.0729,0 0.132639,0.01988 0.132639,0.04416 0,0.02436 0.05965,0.04424 0.132638,0.04424 0.0729,0 0.132639,0.01988 0.132639,0.04424 0,0.02428 0.03976,0.04416 0.0884,0.04416 0.04863,0 0.0884,0.01998 0.0884,0.04424 0,0.02436 0.03986,0.04424 0.08849,0.04424 0.04863,0 0.0884,0.01988 0.0884,0.04416 0,0.02436 0.03977,0.04424 0.0884,0.04424 0.04863,0 0.08848,0.01988 0.08848,0.04424 0,0.02427 0.03976,0.04416 0.0884,0.04416 0.04863,0 0.0884,0.01988 0.0884,0.04424 0,0.02426 0.03986,0.04424 0.08849,0.04424 0.04863,0 0.0884,0.01988 0.0884,0.04416 0,0.02436 0.03976,0.04424 0.0884,0.04424 0.04863,0 0.08849,0.01988 0.08849,0.04424 0,0.02427 0.03537,0.04416 0.07863,0.04416 0.04326,0 0.107293,0.03986 0.142401,0.08849 0.03502,0.04863 0.09475,0.0884 0.132639,0.0884 0.03789,0 0.09753,0.03976 0.132638,0.0884 0.03502,0.04863 0.09046,0.08849 0.123145,0.08849 0.03269,0 0.156282,0.09941 0.274771,0.221034 0.118398,0.121534 0.236796,0.221034 0.263037,0.221034 0.06278,0 0.709585,0.64743 0.709585,0.710123 0,0.02659 0.07962,0.124846 0.176881,0.218346 0.09727,0.09341 0.176791,0.196944 0.176791,0.229901 0,0.03305 0.03986,0.08876 0.08849,0.123772 0.04863,0.0351 0.0884,0.09475 0.0884,0.132638 0,0.03789 0.03976,0.09762 0.0884,0.132639 0.04863,0.03502 0.08849,0.09475 0.08849,0.132638 0,0.03789 0.03976,0.09753 0.0884,0.13264 0.04863,0.03502 0.0884,0.09914 0.0884,0.1424 0,0.04326 0.01988,0.07863 0.04424,0.07863 0.02428,0 0.04424,0.03986 0.04424,0.08849 0,0.04863 0.01988,0.0884 0.04416,0.0884 0.02436,0 0.04424,0.03976 0.04424,0.0884 0,0.04863 0.01988,0.0884 0.04424,0.0884 0.02427,0 0.04416,0.03986 0.04416,0.08849 0,0.04863 0.01988,0.0884 0.04424,0.0884 0.02426,0 0.04415,0.05974 0.04415,0.132638 v 0.132639 h -7.118054 -7.118144 v -0.132639 c 0,-0.0729 0.01988,-0.132638 0.04424,-0.132638 0.02427,0 0.04424,-0.05965 0.04424,-0.132639 0,-0.0729 0.01988,-0.132638 0.04416,-0.132638 0.02436,0 0.04424,-0.03538 0.04424,-0.07863 0,-0.04326 0.03976,-0.107384 0.0884,-0.142401 0.04863,-0.0351 0.08849,-0.09914 0.08849,-0.142401 0,-0.04326 0.01988,-0.07863 0.04416,-0.07863 0.02436,0 0.04424,-0.03546 0.04424,-0.07872 0,-0.04326 0.03976,-0.107293 0.0884,-0.1424 0.04863,-0.03502 0.0884,-0.09475 0.0884,-0.132639 0,-0.03789 0.03986,-0.09753 0.08849,-0.132638 0.04863,-0.03502 0.0884,-0.09117 0.0884,-0.124668 0,-0.03341 0.05974,-0.116607 0.132639,-0.184762 0.07299,-0.06815 0.132638,-0.145983 0.132638,-0.172941 0,-0.06404 1.000923,-1.065048 1.064958,-1.065048 0.02696,0 0.104876,-0.05965 0.172941,-0.132638 0.06815,-0.0729 0.147774,-0.132549 0.176881,-0.132549 0.02911,0 0.108726,-0.05974 0.176882,-0.132638 0.06806,-0.07299 0.155655,-0.132639 0.194524,-0.132639 0.03896,0 0.07075,-0.01998 0.07075,-0.04424 0,-0.02436 0.03537,-0.04424 0.07863,-0.04424 0.04326,0 0.107293,-0.03976 0.142401,-0.0884 0.03502,-0.04863 0.09914,-0.0884 0.1424,-0.0884 0.04326,0 0.07863,-0.01997 0.07863,-0.04424 0,-0.02436 0.03976,-0.04424 0.0884,-0.04424 0.04863,0 0.08849,-0.01988 0.08849,-0.04416 0,-0.02436 0.03976,-0.04424 0.0884,-0.04424 0.04863,0 0.0884,-0.01988 0.0884,-0.04424 0,-0.02426 0.05974,-0.04416 0.132639,-0.04416 0.07299,0 0.132638,-0.01988 0.132638,-0.04424 0,-0.02427 0.03986,-0.04424 0.08849,-0.04424 0.04863,0 0.0884,-0.01988 0.0884,-0.04416 0,-0.02436 0.05965,-0.04424 0.132639,-0.04424 0.0729,0 0.132638,-0.01988 0.132638,-0.04424 0,-0.02428 0.05965,-0.04416 0.13264,-0.04416 0.0729,0 0.132638,-0.01988 0.132638,-0.04424 0,-0.02428 0.05965,-0.04424 0.132639,-0.04424 0.0729,0 0.132638,-0.01988 0.132638,-0.04416 0,-0.02436 0.07953,-0.04424 0.176791,-0.04424 0.09727,0 0.176882,-0.01988 0.176882,-0.04424 0,-0.02454 0.11795,-0.04416 0.265276,-0.04416 0.147327,0 0.265277,-0.01961 0.265277,-0.04424 0,-0.02678 0.191569,-0.04416 0.486311,-0.04416 0.294742,0 0.486311,-0.01746 0.486311,-0.04424 0,-0.02579 0.147417,-0.04424 0.353763,-0.04424 0.206256,0 0.353672,0.01845 0.353672,0.04424 z"
     fill="#eaae13"
     id="path2"
     style="stroke-width:0.895601" />
</svg>
