<?xml version="1.0" encoding="UTF-8" standalone="no"?>
<svg
   xmlns:dc="http://purl.org/dc/elements/1.1/"
   xmlns:cc="http://creativecommons.org/ns#"
   xmlns:rdf="http://www.w3.org/1999/02/22-rdf-syntax-ns#"
   xmlns:svg="http://www.w3.org/2000/svg"
   xmlns="http://www.w3.org/2000/svg"
   xmlns:sodipodi="http://sodipodi.sourceforge.net/DTD/sodipodi-0.dtd"
   xmlns:inkscape="http://www.inkscape.org/namespaces/inkscape"
   width="48"
   height="51"
   viewBox="0 0 48 51"
   fill="none"
   version="1.1"
   id="svg4"
   sodipodi:docname="image 8 (Traced).svg"
   inkscape:version="1.0.1 (1.0.1+r73)">
  <metadata
     id="metadata10">
    <rdf:RDF>
      <cc:Work
         rdf:about="">
        <dc:format>image/svg+xml</dc:format>
        <dc:type
           rdf:resource="http://purl.org/dc/dcmitype/StillImage" />
        <dc:title></dc:title>
      </cc:Work>
    </rdf:RDF>
  </metadata>
  <defs
     id="defs8" />
  <sodipodi:namedview
     pagecolor="#ffffff"
     bordercolor="#666666"
     borderopacity="1"
     objecttolerance="10"
     gridtolerance="10"
     guidetolerance="10"
     inkscape:pageopacity="0"
     inkscape:pageshadow="2"
     inkscape:window-width="1366"
     inkscape:window-height="705"
     id="namedview6"
     showgrid="false"
     inkscape:zoom="5.9038462"
     inkscape:cx="21"
     inkscape:cy="26"
     inkscape:window-x="0"
     inkscape:window-y="30"
     inkscape:window-maximized="1"
     inkscape:current-layer="svg4" />
  <path
     fill-rule="evenodd"
     clip-rule="evenodd"
     d="m 23.3921,-0.2625341 c 0,0.0277288 -0.114,0.0504161 -0.2533,0.0504161 -0.1393,0 -0.2533,0.022687 -0.2533,0.050416 0,0.027729 -0.0912,0.050416 -0.2026,0.050416 -0.1115,0 -0.2027,0.022687 -0.2027,0.050416 0,0.027728 -0.0684,0.050416 -0.1519,0.050416 -0.0836,0 -0.152,0.022687 -0.152,0.050415 0,0.027729 -0.0456,0.050416 -0.1013,0.050416 -0.0558,0 -0.1014,0.022688 -0.1014,0.050416 0,0.027729 -0.0455,0.050416 -0.1013,0.050416 -0.0557,0 -0.1013,0.022687 -0.1013,0.050416 0,0.027729 -0.0592,0.050416 -0.1317,0.050416 -0.0809,0 -0.1863,0.05823 -0.2736,0.151248 -0.078,0.083186 -0.1734,0.151248 -0.2117,0.151248 -0.0384,0 -0.1027,0.045374 -0.1429,0.100833 -0.0402,0.05546 -0.1025,0.10083 -0.1386,0.10083 -0.0856,0 -0.8239,0.73476 -0.8239,0.81991 0,0.03595 -0.0456,0.09801 -0.1013,0.13799 -0.0558,0.03998 -0.1014,0.10804 -0.1014,0.15125 0,0.04321 -0.0455,0.11127 -0.1013,0.15125 -0.0557,0.03998 -0.1013,0.11303 -0.1013,0.16239 0,0.0493 -0.0228,0.08969 -0.0507,0.08969 -0.0278,0 -0.0506,0.04537 -0.0506,0.10083 0,0.05546 -0.0228,0.10083 -0.0507,0.10083 -0.0278,0 -0.0506,0.04538 -0.0506,0.10083 0,0.05546 -0.0228,0.10084 -0.0507,0.10084 -0.0279,0 -0.0506,0.04537 -0.0506,0.10083 0,0.05545 -0.0228,0.10083 -0.0507,0.10083 -0.0279,0 -0.0507,0.06806 -0.0507,0.15125 0,0.08318 -0.0228,0.15124 -0.0506,0.15124 -0.0279,0 -0.0507,0.08102 -0.0507,0.18004 0,0.35039 0.5724,0.32412 -7.06339,0.32412 -4.57865,0 -6.91861,0.01704 -6.91861,0.05042 0,0.02773 -0.06839,0.05042 -0.15198,0.05042 -0.08359,0 -0.15198,0.02268 -0.15198,0.05041 0,0.02773 -0.06839,0.05042 -0.15198,0.05042 -0.08359,0 -0.15198,0.02268 -0.15198,0.05041 0,0.02773 -0.04057,0.05042 -0.09012,0.05042 -0.04959,0 -0.123,0.04537 -0.16317,0.10083 -0.04018,0.05546 -0.10269,0.10083 -0.13891,0.10083 -0.09225,0 -0.620985,0.53567 -0.620985,0.62909 0,0.0422 -0.022797,0.07674 -0.05066,0.07674 -0.027862,0 -0.050659,0.04038 -0.050659,0.08969 0,0.04935 -0.045594,0.12241 -0.101319,0.16239 -0.059474,0.0427 -0.101319,0.13052 -0.101319,0.2128 0,0.07704 -0.022797,0.14011 -0.05066,0.14011 -0.027862,0 -0.050659,0.06806 -0.050659,0.15124 0,0.08319 -0.022797,0.15125 -0.050659,0.15125 -0.033638,0 -0.05066,5.00796 -0.05066,14.92316 0,9.9151 0.017022,14.9231 0.05066,14.9231 0.027863,0 0.050659,0.068 0.050659,0.1512 0,0.0832 0.022797,0.1513 0.050659,0.1513 0.027863,0 0.05066,0.0453 0.05066,0.1008 0,0.0554 0.022797,0.1008 0.050659,0.1008 0.027863,0 0.05066,0.0454 0.05066,0.1009 0,0.0554 0.022797,0.1008 0.050659,0.1008 0.027863,0 0.05066,0.0404 0.05066,0.0897 0,0.0493 0.045593,0.1224 0.101319,0.1624 0.055725,0.0399 0.101319,0.1024 0.101319,0.1388 0,0.086 0.331313,0.4157 0.417736,0.4157 0.03658,0 0.09934,0.0454 0.13952,0.1009 0.04017,0.0554 0.11358,0.1008 0.16317,0.1008 0.04955,0 0.09013,0.0227 0.09013,0.0504 0,0.0278 0.04559,0.0504 0.10131,0.0504 0.05573,0 0.10132,0.0227 0.10132,0.0505 0,0.0277 0.0456,0.0504 0.10132,0.0504 0.05573,0 0.10132,0.0227 0.10132,0.0504 0,0.0277 0.09119,0.0504 0.20264,0.0504 0.11145,0 0.20264,0.0227 0.20264,0.0504 0,0.0333 2.21214,0.0504 6.53507,0.0504 h 6.53511 v 0.1513 c 0,0.0832 -0.0228,0.1512 -0.0507,0.1512 -0.0279,0 -0.0507,0.0681 -0.0507,0.1513 0,0.0832 -0.0228,0.1512 -0.0506,0.1512 -0.0279,0 -0.0507,0.0681 -0.0507,0.1513 0,0.0832 -0.0228,0.1512 -0.0506,0.1512 -0.0279,0 -0.0507,0.0681 -0.0507,0.1513 0,0.0832 -0.0228,0.1512 -0.0507,0.1512 -0.0278,0 -0.0506,0.0681 -0.0506,0.1513 0,0.0831 -0.0228,0.1512 -0.0507,0.1512 -0.0278,0 -0.0506,0.0681 -0.0506,0.1513 0,0.0831 -0.0228,0.1512 -0.0507,0.1512 -0.0279,0 -0.0507,0.0681 -0.0507,0.1513 0,0.0831 -0.0227,0.1512 -0.0506,0.1512 -0.0279,0 -0.0507,0.0681 -0.0507,0.1513 0,0.0831 -0.0228,0.1512 -0.0506,0.1512 -0.0279,0 -0.0507,0.0681 -0.0507,0.1512 0,0.0832 -0.0228,0.1513 -0.0506,0.1513 -0.0279,0 -0.0507,0.0681 -0.0507,0.1512 0,0.0832 -0.0228,0.1513 -0.0507,0.1513 -0.0278,0 -0.0506,0.0681 -0.0506,0.1512 0,0.0832 -0.0228,0.1513 -0.0507,0.1513 -0.0279,0 -0.0506,0.068 -0.0506,0.1512 0,0.0832 -0.0228,0.1513 -0.0507,0.1513 -0.0279,0 -0.0507,0.068 -0.0507,0.1512 0,0.0832 -0.0228,0.1513 -0.0506,0.1513 -0.0279,0 -0.0507,0.068 -0.0507,0.1512 0,0.0832 -0.0228,0.1513 -0.0506,0.1513 -0.0279,0 -0.0507,0.068 -0.0507,0.1512 0,0.0832 -0.0228,0.1513 -0.0507,0.1513 -0.0278,0 -0.0506,0.068 -0.0506,0.1512 0,0.0832 -0.0228,0.1513 -0.0507,0.1513 -0.0278,0 -0.0506,0.068 -0.0506,0.1512 0,0.0832 -0.0228,0.1513 -0.0507,0.1513 -0.0279,0 -0.0507,0.068 -0.0507,0.1512 0,0.0832 -0.0228,0.1513 -0.0506,0.1513 -0.0279,0 -0.0507,0.068 -0.0507,0.1512 0,0.0832 -0.0228,0.1513 -0.0506,0.1513 -0.0279,0 -0.0507,0.068 -0.0507,0.1512 0,0.0832 -0.0228,0.1512 -0.0507,0.1512 -0.0278,0 -0.0506,0.0681 -0.0506,0.1513 0,0.0832 -0.0228,0.1512 -0.0507,0.1512 -0.0278,0 -0.0506,0.0681 -0.0506,0.1513 0,0.0832 -0.0228,0.1512 -0.0507,0.1512 -0.0279,0 -0.0507,0.0681 -0.0507,0.1513 0,0.0832 -0.0228,0.1512 -0.0506,0.1512 -0.0279,0 -0.0507,0.0681 -0.0507,0.1513 0,0.0832 -0.0228,0.1512 -0.0506,0.1512 -0.0279,0 -0.0507,0.0681 -0.0507,0.1513 0,0.0832 -0.0228,0.1512 -0.0507,0.1512 -0.0278,0 -0.0506,0.0681 -0.0506,0.1513 0,0.0832 -0.0228,0.1512 -0.0507,0.1512 -0.0278,0 -0.0506,0.0681 -0.0506,0.1513 0,0.0832 -0.0228,0.1512 -0.0507,0.1512 -0.0279,0 -0.0507,0.0681 -0.0507,0.1513 0,0.0831 -0.0227,0.1512 -0.0506,0.1512 -0.0279,0 -0.0507,0.0681 -0.0507,0.1513 0,0.0831 -0.0228,0.1512 -0.0506,0.1512 -0.0279,0 -0.0507,0.0681 -0.0507,0.1513 0,0.0831 -0.0228,0.1512 -0.0506,0.1512 -0.0279,0 -0.0507,0.0681 -0.0507,0.1512 0,0.0832 -0.0228,0.1513 -0.0507,0.1513 -0.0278,0 -0.0506,0.0681 -0.0506,0.1512 0,0.0832 -0.0228,0.1513 -0.0507,0.1513 -0.0278,0 -0.0506,0.0681 -0.0506,0.1512 0,0.0832 -0.0228,0.1513 -0.0507,0.1513 -0.0279,0 -0.0507,0.068 -0.0507,0.1512 0,0.0832 -0.0228,0.1513 -0.0506,0.1513 -0.0279,0 -0.0507,0.068 -0.0507,0.1512 0,0.0832 -0.0228,0.1513 -0.0506,0.1513 -0.0279,0 -0.0507,0.068 -0.0507,0.1512 0,0.0832 -0.0228,0.1513 -0.0507,0.1513 -0.0278,0 -0.0506,0.068 -0.0506,0.1512 0,0.0832 -0.0228,0.1513 -0.0507,0.1513 -0.0278,0 -0.0506,0.068 -0.0506,0.1512 0,0.0832 -0.0228,0.1513 -0.0507,0.1513 -0.0279,0 -0.0507,0.068 -0.0507,0.1512 0,0.0832 -0.0228,0.1513 -0.0506,0.1513 -0.0279,0 -0.0507,0.068 -0.0507,0.1512 0,0.0832 -0.0228,0.1513 -0.0506,0.1513 -0.0296,0 -0.0507,0.168 -0.0507,0.4033 0,0.2353 0.0211,0.4033 0.0507,0.4033 0.0278,0 0.0506,0.035 0.0506,0.0779 0,0.1009 0.2257,0.3254 0.327,0.3254 0.0431,0 0.0783,0.0227 0.0783,0.0505 0,0.0277 0.0456,0.0504 0.1013,0.0504 0.0557,0 0.1013,0.0227 0.1013,0.0504 0,0.028 0.1351,0.0504 0.304,0.0504 0.1688,0 0.3039,-0.0224 0.3039,-0.0504 0,-0.0277 0.035,-0.0504 0.0777,-0.0504 0.1009,0 0.4289,-0.3265 0.4289,-0.4269 0,-0.0425 0.0228,-0.0773 0.0507,-0.0773 0.0279,0 0.0507,-0.0454 0.0507,-0.1008 0,-0.0555 0.0228,-0.1009 0.0506,-0.1009 0.0279,0 0.0507,-0.068 0.0507,-0.1512 0,-0.0832 0.0228,-0.1512 0.0506,-0.1512 0.0279,0 0.0507,-0.0681 0.0507,-0.1513 0,-0.0832 0.0228,-0.1512 0.0507,-0.1512 0.0278,0 0.0506,-0.0681 0.0506,-0.1513 0,-0.0832 0.0228,-0.1512 0.0507,-0.1512 0.0278,0 0.0506,-0.0681 0.0506,-0.1513 0,-0.0832 0.0228,-0.1512 0.0507,-0.1512 0.0279,0 0.0507,-0.0681 0.0507,-0.1513 0,-0.0832 0.0228,-0.1512 0.0506,-0.1512 0.0279,0 0.0507,-0.0681 0.0507,-0.1513 0,-0.0832 0.0228,-0.1512 0.0506,-0.1512 0.0279,0 0.0507,-0.0681 0.0507,-0.1513 0,-0.0832 0.0228,-0.1512 0.0507,-0.1512 0.0278,0 0.0506,-0.0681 0.0506,-0.1513 0,-0.0832 0.0228,-0.1512 0.0507,-0.1512 0.0278,0 0.0506,-0.0681 0.0506,-0.1513 0,-0.0832 0.0228,-0.1512 0.0507,-0.1512 0.0279,0 0.0507,-0.0681 0.0507,-0.1513 0,-0.0831 0.0227,-0.1512 0.0506,-0.1512 0.0279,0 0.0507,-0.0681 0.0507,-0.1513 0,-0.0831 0.0228,-0.1512 0.0506,-0.1512 0.0279,0 0.0507,-0.0681 0.0507,-0.1513 0,-0.0831 0.0228,-0.1512 0.0507,-0.1512 0.0278,0 0.0506,-0.0681 0.0506,-0.1512 0,-0.0832 0.0228,-0.1513 0.0507,-0.1513 0.0278,0 0.0506,-0.0681 0.0506,-0.1512 0,-0.0832 0.0228,-0.1513 0.0507,-0.1513 0.0279,0 0.0506,-0.0681 0.0506,-0.1512 0,-0.0832 0.0228,-0.1513 0.0507,-0.1513 0.0279,0 0.0507,-0.068 0.0507,-0.1512 0,-0.0832 0.0228,-0.1513 0.0506,-0.1513 0.0279,0 0.0507,-0.068 0.0507,-0.1512 0,-0.0832 0.0228,-0.1513 0.0506,-0.1513 0.0279,0 0.0507,-0.068 0.0507,-0.1512 0,-0.0832 0.0228,-0.1513 0.0507,-0.1513 0.0278,0 0.0506,-0.068 0.0506,-0.1512 0,-0.0832 0.0228,-0.1513 0.0507,-0.1513 0.0278,0 0.0506,-0.068 0.0506,-0.1512 0,-0.0832 0.0228,-0.1513 0.0507,-0.1513 0.0279,0 0.0507,-0.068 0.0507,-0.1512 0,-0.0832 0.0228,-0.1513 0.0506,-0.1513 0.0279,0 0.0507,-0.068 0.0507,-0.1512 0,-0.0832 0.0228,-0.1513 0.0506,-0.1513 0.0279,0 0.0507,-0.068 0.0507,-0.1512 0,-0.0832 0.0228,-0.1512 0.0507,-0.1512 0.0278,0 0.0506,-0.0681 0.0506,-0.1513 0,-0.0832 0.0228,-0.1512 0.0507,-0.1512 0.0278,0 0.0506,-0.0681 0.0506,-0.1513 0,-0.0832 0.0228,-0.1512 0.0507,-0.1512 0.0279,0 0.0507,-0.0681 0.0507,-0.1513 0,-0.0832 0.0228,-0.1512 0.0506,-0.1512 0.0279,0 0.0507,-0.0681 0.0507,-0.1513 0,-0.0832 0.0228,-0.1512 0.0506,-0.1512 0.0279,0 0.0507,-0.0681 0.0507,-0.1513 0,-0.0832 0.0228,-0.1512 0.0507,-0.1512 0.0278,0 0.0506,-0.0681 0.0506,-0.1513 0,-0.0832 0.0228,-0.1512 0.0507,-0.1512 0.0278,0 0.0506,-0.0681 0.0506,-0.1513 0,-0.0832 0.0228,-0.1512 0.0507,-0.1512 0.0279,0 0.0507,-0.0681 0.0507,-0.1513 0,-0.0832 0.0227,-0.1512 0.0506,-0.1512 0.0279,0 0.0507,-0.0681 0.0507,-0.1513 0,-0.0831 0.0228,-0.1512 0.0506,-0.1512 0.0279,0 0.0507,-0.0681 0.0507,-0.1513 0,-0.0831 0.0228,-0.1512 0.0506,-0.1512 0.0279,0 0.0507,-0.0681 0.0507,-0.1513 0,-0.0831 0.0228,-0.1512 0.0507,-0.1512 0.0278,0 0.0506,-0.0681 0.0506,-0.1512 0,-0.0832 0.0228,-0.1513 0.0507,-0.1513 0.0278,0 0.0506,-0.0681 0.0506,-0.1512 0,-0.0832 0.0228,-0.1513 0.0507,-0.1513 0.0279,0 0.0507,-0.0681 0.0507,-0.1512 0,-0.0832 0.0228,-0.1513 0.0506,-0.1513 0.0279,0 0.0507,-0.0454 0.0507,-0.1008 0,-0.0555 0.0228,-0.1009 0.0506,-0.1009 0.0279,0 0.0507,-0.068 0.0507,-0.1512 0,-0.0832 0.0228,-0.1512 0.0507,-0.1512 0.0278,0 0.0506,-0.0681 0.0506,-0.1513 0,-0.0832 0.0228,-0.1512 0.0507,-0.1512 0.0278,0 0.0506,-0.0681 0.0506,-0.1513 0,-0.0832 0.0228,-0.1512 0.0507,-0.1512 0.0279,0 0.0507,-0.0584 0.0507,-0.1297 0,-0.2849 -0.1457,-0.2737 3.5461,-0.2737 3.6918,0 3.5462,-0.0112 3.5462,0.2737 0,0.0713 0.0228,0.1297 0.0506,0.1297 0.0279,0 0.0507,0.068 0.0507,0.1512 0,0.0832 0.0228,0.1513 0.0507,0.1513 0.0278,0 0.0506,0.068 0.0506,0.1512 0,0.0832 0.0228,0.1513 0.0507,0.1513 0.0278,0 0.0506,0.068 0.0506,0.1512 0,0.0832 0.0228,0.1512 0.0507,0.1512 0.0279,0 0.0507,0.0454 0.0507,0.1009 0,0.0554 0.0228,0.1008 0.0506,0.1008 0.0279,0 0.0507,0.0681 0.0507,0.1513 0,0.0831 0.0228,0.1512 0.0506,0.1512 0.0279,0 0.0507,0.0681 0.0507,0.1513 0,0.0831 0.0228,0.1512 0.0507,0.1512 0.0278,0 0.0506,0.0681 0.0506,0.1513 0,0.0831 0.0228,0.1512 0.0507,0.1512 0.0278,0 0.0506,0.0681 0.0506,0.1512 0,0.0832 0.0228,0.1513 0.0507,0.1513 0.0279,0 0.0507,0.0681 0.0507,0.1512 0,0.0832 0.0228,0.1513 0.0506,0.1513 0.0279,0 0.0507,0.0681 0.0507,0.1512 0,0.0832 0.0228,0.1513 0.0506,0.1513 0.0279,0 0.0507,0.068 0.0507,0.1512 0,0.0832 0.0228,0.1513 0.0507,0.1513 0.0278,0 0.0506,0.068 0.0506,0.1512 0,0.0832 0.0228,0.1513 0.0507,0.1513 0.0278,0 0.0506,0.068 0.0506,0.1512 0,0.0832 0.0228,0.1513 0.0507,0.1513 0.0279,0 0.0507,0.068 0.0507,0.1512 0,0.0832 0.0227,0.1513 0.0506,0.1513 0.0279,0 0.0507,0.068 0.0507,0.1512 0,0.0832 0.0228,0.1513 0.0506,0.1513 0.0279,0 0.0507,0.068 0.0507,0.1512 0,0.0832 0.0228,0.1513 0.0506,0.1513 0.0279,0 0.0507,0.068 0.0507,0.1512 0,0.0832 0.0228,0.1513 0.0507,0.1513 0.0278,0 0.0506,0.068 0.0506,0.1512 0,0.0832 0.0228,0.1513 0.0507,0.1513 0.0278,0 0.0506,0.068 0.0506,0.1512 0,0.0832 0.0228,0.1512 0.0507,0.1512 0.0279,0 0.0507,0.0681 0.0507,0.1513 0,0.0832 0.0228,0.1512 0.0506,0.1512 0.0279,0 0.0507,0.0681 0.0507,0.1513 0,0.0832 0.0228,0.1512 0.0506,0.1512 0.0279,0 0.0507,0.0681 0.0507,0.1513 0,0.0832 0.0228,0.1512 0.0507,0.1512 0.0278,0 0.0506,0.0681 0.0506,0.1513 0,0.0832 0.0228,0.1512 0.0507,0.1512 0.0278,0 0.0506,0.0681 0.0506,0.1513 0,0.0832 0.0228,0.1512 0.0507,0.1512 0.0279,0 0.0507,0.0681 0.0507,0.1513 0,0.0832 0.0228,0.1512 0.0506,0.1512 0.0279,0 0.0507,0.0681 0.0507,0.1513 0,0.0832 0.0228,0.1512 0.0506,0.1512 0.0279,0 0.0507,0.0681 0.0507,0.1513 0,0.0831 0.0228,0.1512 0.0507,0.1512 0.0278,0 0.0506,0.0681 0.0506,0.1513 0,0.0831 0.0228,0.1512 0.0507,0.1512 0.0278,0 0.0506,0.0681 0.0506,0.1513 0,0.0831 0.0228,0.1512 0.0507,0.1512 0.0279,0 0.0507,0.0681 0.0507,0.1512 0,0.0832 0.0228,0.1513 0.0506,0.1513 0.0279,0 0.0507,0.0681 0.0507,0.1512 0,0.0832 0.0228,0.1513 0.0506,0.1513 0.0279,0 0.0507,0.0681 0.0507,0.1512 0,0.0832 0.0228,0.1513 0.0507,0.1513 0.0278,0 0.0506,0.068 0.0506,0.1512 0,0.0832 0.0228,0.1513 0.0507,0.1513 0.0278,0 0.0506,0.068 0.0506,0.1512 0,0.0832 0.0228,0.1513 0.0507,0.1513 0.0279,0 0.0506,0.068 0.0506,0.1512 0,0.0832 0.0228,0.1513 0.0507,0.1513 0.0279,0 0.0507,0.068 0.0507,0.1512 0,0.0832 0.0228,0.1513 0.0506,0.1513 0.0279,0 0.0507,0.068 0.0507,0.1512 0,0.0832 0.0228,0.1513 0.0506,0.1513 0.0279,0 0.0507,0.068 0.0507,0.1512 0,0.0832 0.0228,0.1513 0.0507,0.1513 0.0278,0 0.0506,0.068 0.0506,0.1512 0,0.0832 0.0228,0.1513 0.0507,0.1513 0.0278,0 0.0506,0.068 0.0506,0.1512 0,0.0832 0.0228,0.1513 0.0507,0.1513 0.0279,0 0.0507,0.068 0.0507,0.1512 0,0.0832 0.0228,0.1512 0.0506,0.1512 0.0279,0 0.0507,0.0454 0.0507,0.1009 0,0.0554 0.0228,0.1008 0.0506,0.1008 0.0279,0 0.0507,0.0348 0.0507,0.0773 0,0.1004 0.3281,0.4269 0.4289,0.4269 0.0427,0 0.0777,0.0227 0.0777,0.0504 0,0.028 0.1351,0.0504 0.304,0.0504 0.1688,0 0.3039,-0.0224 0.3039,-0.0504 0,-0.0277 0.0456,-0.0504 0.1013,-0.0504 0.0558,0 0.1013,-0.0227 0.1013,-0.0504 0,-0.0278 0.0353,-0.0505 0.0783,-0.0505 0.1014,0 0.327,-0.2245 0.327,-0.3254 0,-0.0429 0.0228,-0.0779 0.0507,-0.0779 0.0295,0 0.0506,-0.168 0.0506,-0.4033 0,-0.2353 -0.0211,-0.4033 -0.0506,-0.4033 -0.0279,0 -0.0507,-0.0681 -0.0507,-0.1513 0,-0.0832 -0.0228,-0.1512 -0.0506,-0.1512 -0.0279,0 -0.0507,-0.0681 -0.0507,-0.1513 0,-0.0832 -0.0228,-0.1512 -0.0507,-0.1512 -0.0278,0 -0.0506,-0.0681 -0.0506,-0.1513 0,-0.0832 -0.0228,-0.1512 -0.0507,-0.1512 -0.0278,0 -0.0506,-0.0681 -0.0506,-0.1513 0,-0.0832 -0.0228,-0.1512 -0.0507,-0.1512 -0.0279,0 -0.0507,-0.0681 -0.0507,-0.1513 0,-0.0832 -0.0228,-0.1512 -0.0506,-0.1512 -0.0279,0 -0.0507,-0.0681 -0.0507,-0.1513 0,-0.0832 -0.0228,-0.1512 -0.0506,-0.1512 -0.0279,0 -0.0507,-0.0681 -0.0507,-0.1513 0,-0.0832 -0.0228,-0.1512 -0.0507,-0.1512 -0.0278,0 -0.0506,-0.0681 -0.0506,-0.1513 0,-0.0831 -0.0228,-0.1512 -0.0507,-0.1512 -0.0278,0 -0.0506,-0.0681 -0.0506,-0.1513 0,-0.0831 -0.0228,-0.1512 -0.0507,-0.1512 -0.0279,0 -0.0506,-0.0681 -0.0506,-0.1513 0,-0.0831 -0.0228,-0.1512 -0.0507,-0.1512 -0.0279,0 -0.0507,-0.0681 -0.0507,-0.1512 0,-0.0832 -0.0228,-0.1513 -0.0506,-0.1513 -0.0279,0 -0.0507,-0.0681 -0.0507,-0.1512 0,-0.0832 -0.0228,-0.1513 -0.0506,-0.1513 -0.0279,0 -0.0507,-0.0681 -0.0507,-0.1512 0,-0.0832 -0.0228,-0.1513 -0.0507,-0.1513 -0.0278,0 -0.0506,-0.068 -0.0506,-0.1512 0,-0.0832 -0.0228,-0.1513 -0.0507,-0.1513 -0.0278,0 -0.0506,-0.068 -0.0506,-0.1512 0,-0.0832 -0.0228,-0.1513 -0.0507,-0.1513 -0.0279,0 -0.0507,-0.068 -0.0507,-0.1512 0,-0.0832 -0.0228,-0.1513 -0.0506,-0.1513 -0.0279,0 -0.0507,-0.068 -0.0507,-0.1512 0,-0.0832 -0.0228,-0.1513 -0.0506,-0.1513 -0.0279,0 -0.0507,-0.068 -0.0507,-0.1512 0,-0.0832 -0.0228,-0.1513 -0.0507,-0.1513 -0.0278,0 -0.0506,-0.068 -0.0506,-0.1512 0,-0.0832 -0.0228,-0.1513 -0.0507,-0.1513 -0.0278,0 -0.0506,-0.068 -0.0506,-0.1512 0,-0.0832 -0.0228,-0.1513 -0.0507,-0.1513 -0.0279,0 -0.0507,-0.068 -0.0507,-0.1512 0,-0.0832 -0.0228,-0.1512 -0.0506,-0.1512 -0.0279,0 -0.0507,-0.0681 -0.0507,-0.1513 0,-0.0832 -0.0228,-0.1512 -0.0506,-0.1512 -0.0279,0 -0.0507,-0.0681 -0.0507,-0.1513 0,-0.0832 -0.0228,-0.1512 -0.0507,-0.1512 -0.0278,0 -0.0506,-0.0681 -0.0506,-0.1513 0,-0.0832 -0.0228,-0.1512 -0.0507,-0.1512 -0.0278,0 -0.0506,-0.0681 -0.0506,-0.1513 0,-0.0832 -0.0228,-0.1512 -0.0507,-0.1512 -0.0279,0 -0.0507,-0.0681 -0.0507,-0.1513 0,-0.0832 -0.0227,-0.1512 -0.0506,-0.1512 -0.0279,0 -0.0507,-0.0681 -0.0507,-0.1513 0,-0.0832 -0.0228,-0.1512 -0.0506,-0.1512 -0.0279,0 -0.0507,-0.0681 -0.0507,-0.1513 0,-0.0832 -0.0228,-0.1512 -0.0506,-0.1512 -0.0279,0 -0.0507,-0.0681 -0.0507,-0.1513 0,-0.0832 -0.0228,-0.1512 -0.0507,-0.1512 -0.0278,0 -0.0506,-0.0681 -0.0506,-0.1513 0,-0.0831 -0.0228,-0.1512 -0.0507,-0.1512 -0.0278,0 -0.0506,-0.0681 -0.0506,-0.1513 0,-0.0831 -0.0228,-0.1512 -0.0507,-0.1512 -0.0279,0 -0.0507,-0.0681 -0.0507,-0.1513 0,-0.0831 -0.0228,-0.1512 -0.0506,-0.1512 -0.0279,0 -0.0507,-0.0681 -0.0507,-0.1512 0,-0.0832 -0.0228,-0.1513 -0.0506,-0.1513 -0.0279,0 -0.0507,-0.0681 -0.0507,-0.1512 0,-0.0832 -0.0228,-0.1513 -0.0507,-0.1513 -0.0278,0 -0.0506,-0.0681 -0.0506,-0.1512 0,-0.0832 -0.0228,-0.1513 -0.0507,-0.1513 -0.0278,0 -0.0506,-0.0681 -0.0506,-0.1512 0,-0.0832 -0.0228,-0.1513 -0.0507,-0.1513 -0.0279,0 -0.0507,-0.068 -0.0507,-0.1512 0,-0.0832 -0.0228,-0.1513 -0.0506,-0.1513 -0.0279,0 -0.0507,-0.068 -0.0507,-0.1512 0,-0.0832 -0.0228,-0.1513 -0.0506,-0.1513 -0.0279,0 -0.0507,-0.068 -0.0507,-0.1512 0,-0.0832 -0.0228,-0.1513 -0.0507,-0.1513 -0.0278,0 -0.0506,-0.068 -0.0506,-0.1512 v -0.1513 h 6.5351 c 4.3229,0 6.535,-0.0171 6.535,-0.0504 0,-0.0277 0.0912,-0.0504 0.2027,-0.0504 0.1114,0 0.2026,-0.0227 0.2026,-0.0504 0,-0.0277 0.0456,-0.0504 0.1013,-0.0504 0.0557,0 0.1013,-0.0227 0.1013,-0.0504 0,-0.0278 0.0456,-0.0505 0.1014,-0.0505 0.0557,0 0.1013,-0.0226 0.1013,-0.0504 0,-0.0277 0.0406,-0.0504 0.0901,-0.0504 0.0496,0 0.123,-0.0454 0.1632,-0.1008 0.0401,-0.0555 0.1029,-0.1009 0.1395,-0.1009 0.0366,0 0.1455,-0.0786 0.2421,-0.1747 0.0966,-0.0961 0.1756,-0.2046 0.1756,-0.241 0,-0.0364 0.0456,-0.0989 0.1013,-0.1388 0.0558,-0.04 0.1014,-0.1131 0.1014,-0.1624 0,-0.0493 0.0228,-0.0897 0.0506,-0.0897 0.0279,0 0.0507,-0.0454 0.0507,-0.1008 0,-0.0555 0.0228,-0.1009 0.0506,-0.1009 0.0279,0 0.0507,-0.0454 0.0507,-0.1008 0,-0.0555 0.0228,-0.1008 0.0507,-0.1008 0.0278,0 0.0506,-0.0681 0.0506,-0.1513 0,-0.0832 0.0228,-0.1512 0.0507,-0.1512 0.0336,0 0.0506,-5.008 0.0506,-14.9231 0,-9.9152 -0.017,-14.92316 -0.0506,-14.92316 -0.0279,0 -0.0507,-0.06806 -0.0507,-0.15125 0,-0.08318 -0.0228,-0.15124 -0.0506,-0.15124 -0.0279,0 -0.0507,-0.06307 -0.0507,-0.14011 0,-0.08228 -0.0418,-0.1701 -0.1013,-0.2128 C 44.6134,5.14241 44.5678,5.06935 44.5678,5.02 c 0,-0.04931 -0.0228,-0.08969 -0.0507,-0.08969 -0.0279,0 -0.0507,-0.03454 -0.0507,-0.07674 0,-0.09342 -0.5287,-0.62909 -0.6209,-0.62909 -0.0363,0 -0.0988,-0.04537 -0.1389,-0.10083 -0.0402,-0.05546 -0.1136,-0.10083 -0.1632,-0.10083 -0.0496,0 -0.0901,-0.02269 -0.0901,-0.05042 0,-0.02773 -0.0684,-0.05041 -0.152,-0.05041 -0.0836,0 -0.152,-0.02269 -0.152,-0.05042 0,-0.02773 -0.0684,-0.05041 -0.152,-0.05041 -0.0836,0 -0.152,-0.02269 -0.152,-0.05042 0,-0.03338 -2.3399,-0.05042 -6.9186,-0.05042 -7.6357,0 -7.0634,0.02627 -7.0634,-0.32412 0,-0.09902 -0.0228,-0.18004 -0.0506,-0.18004 -0.0279,0 -0.0507,-0.06806 -0.0507,-0.15124 0,-0.08319 -0.0228,-0.15125 -0.0506,-0.15125 -0.0279,0 -0.0507,-0.04538 -0.0507,-0.10083 0,-0.05546 -0.0228,-0.10083 -0.0507,-0.10083 -0.0278,0 -0.0506,-0.04538 -0.0506,-0.10084 0,-0.05545 -0.0228,-0.10083 -0.0507,-0.10083 -0.0278,0 -0.0506,-0.04537 -0.0506,-0.10083 0,-0.05546 -0.0228,-0.10083 -0.0507,-0.10083 -0.0279,0 -0.0507,-0.04039 -0.0507,-0.08969 0,-0.04936 -0.0456,-0.12241 -0.1013,-0.16239 -0.0557,-0.03998 -0.1013,-0.10804 -0.1013,-0.15125 0,-0.04321 -0.0456,-0.11127 -0.1013,-0.15125 -0.0557,-0.03998 -0.1013,-0.10204 -0.1013,-0.13799 0,-0.08515 -0.7384,-0.81991 -0.8239,-0.81991 -0.0361,0 -0.0985,-0.04537 -0.1387,-0.10083 -0.0401,-0.055459 -0.1044,-0.100833 -0.1428,-0.100833 -0.0384,0 -0.1337,-0.068062 -0.2118,-0.151248 -0.0873,-0.093018 -0.1926,-0.151248 -0.2736,-0.151248 -0.0724,0 -0.1317,-0.022687 -0.1317,-0.050416 0,-0.027729 -0.0456,-0.050416 -0.1013,-0.050416 -0.0557,0 -0.1013,-0.022687 -0.1013,-0.050416 0,-0.027728 -0.0456,-0.050416 -0.1013,-0.050416 -0.0557,0 -0.1013,-0.022687 -0.1013,-0.050416 0,-0.027728 -0.0684,-0.050415 -0.152,-0.050415 -0.0836,0 -0.152,-0.022688 -0.152,-0.050416 0,-0.027729 -0.0912,-0.050416 -0.2026,-0.050416 -0.1115,0 -0.2027,-0.022687 -0.2027,-0.050416 0,-0.027729 -0.114,-0.050416 -0.2533,-0.050416 -0.1393,0 -0.2533,-0.0226873 -0.2533,-0.0504161 0,-0.0308041 -0.2364,-0.0504159 -0.6079,-0.0504159 -0.3715,0 -0.6079,0.0196118 -0.6079,0.0504159 z M 24.5066,1.7541 c 0,0.02773 0.0912,0.05042 0.2027,0.05042 0.1114,0 0.2026,0.02269 0.2026,0.05041 0,0.02773 0.0684,0.05042 0.152,0.05042 0.0836,0 0.152,0.02269 0.152,0.05042 0,0.02773 0.0455,0.05041 0.1013,0.05041 0.0557,0 0.1013,0.02269 0.1013,0.05042 0,0.02773 0.0364,0.05041 0.081,0.05041 0.0445,0 0.1449,0.06807 0.2229,0.15125 0.0781,0.08319 0.1678,0.15125 0.1994,0.15125 0.0795,0 0.4086,0.33476 0.4086,0.41573 0,0.0364 0.0456,0.09886 0.1013,0.13884 0.0557,0.03998 0.1013,0.10805 0.1013,0.15125 0,0.04321 0.0456,0.11127 0.1013,0.15125 0.0557,0.03998 0.1013,0.11303 0.1013,0.16239 0,0.04931 0.0228,0.08969 0.0507,0.08969 0.0279,0 0.0507,0.04537 0.0507,0.10083 0,0.09962 -0.0338,0.10083 -2.837,0.10083 -2.8031,0 -2.8369,-0.00121 -2.8369,-0.10083 0,-0.05546 0.0228,-0.10083 0.0507,-0.10083 0.0278,0 0.0506,-0.04038 0.0506,-0.08969 0,-0.04936 0.0456,-0.12241 0.1013,-0.16239 0.0558,-0.03998 0.1013,-0.10804 0.1013,-0.15125 0,-0.0432 0.0456,-0.11127 0.1014,-0.15125 0.0557,-0.03998 0.1013,-0.10244 0.1013,-0.13884 0,-0.08097 0.329,-0.41573 0.4086,-0.41573 0.0315,0 0.1212,-0.06806 0.1993,-0.15125 0.0781,-0.08318 0.1784,-0.15125 0.223,-0.15125 0.0445,0 0.081,-0.02268 0.081,-0.05041 0,-0.02773 0.0456,-0.05042 0.1013,-0.05042 0.0557,0 0.1013,-0.02268 0.1013,-0.05041 0,-0.02773 0.0684,-0.05042 0.152,-0.05042 0.0836,0 0.152,-0.02269 0.152,-0.05042 0,-0.02772 0.0911,-0.05041 0.2026,-0.05041 0.1114,0 0.2026,-0.02269 0.2026,-0.05042 0,-0.03025 0.2027,-0.05041 0.5066,-0.05041 0.304,0 0.5066,0.02016 0.5066,0.05041 z m 18.0348,4.03328 c 0,0.02773 0.0358,0.05041 0.0796,0.05041 0.1024,0 0.2243,0.1214 0.2243,0.22329 0,0.04356 0.0228,0.07921 0.0507,0.07921 0.0336,0 0.0507,4.89936 0.0507,14.59706 v 14.5971 l -0.1757,0.1748 c -0.0965,0.0961 -0.2105,0.1748 -0.2533,0.1748 -0.0427,0 -0.0776,0.0227 -0.0776,0.0504 0,0.0324 -0.5066,0.0504 -1.4185,0.0504 h -1.4185 v -7.3607 c 0,-4.8736 -0.0171,-7.3608 -0.0506,-7.3608 -0.0279,0 -0.0507,-0.0347 -0.0507,-0.0772 0,-0.1004 -0.328,-0.4269 -0.4289,-0.4269 -0.0427,0 -0.0777,-0.0227 -0.0777,-0.0504 0,-0.0278 -0.0664,-0.0504 -0.1477,-0.0504 -0.0813,0 -0.1611,-0.0284 -0.1774,-0.0631 -0.0236,-0.0504 -0.0354,-0.0504 -0.059,0 -0.0163,0.0347 -0.1188,0.0631 -0.228,0.0631 -0.1092,0 -0.1984,0.0226 -0.1984,0.0504 0,0.0277 -0.0352,0.0504 -0.0783,0.0504 -0.1014,0 -0.327,0.2245 -0.327,0.3254 0,0.0429 -0.0228,0.0779 -0.0507,0.0779 -0.0278,0 -0.0506,0.0681 -0.0506,0.1513 0,0.0832 -0.0228,0.1512 -0.0507,0.1512 -0.0335,0 -0.0506,2.4536 -0.0506,7.2599 v 7.2599 h -1.5705 -1.5704 v -5.8482 c 0,-3.8653 -0.0172,-5.8483 -0.0507,-5.8483 -0.0278,0 -0.0506,-0.035 -0.0506,-0.0779 0,-0.1009 -0.2257,-0.3254 -0.3271,-0.3254 -0.043,0 -0.0782,-0.0227 -0.0782,-0.0504 0,-0.0278 -0.0456,-0.0505 -0.1013,-0.0505 -0.0558,0 -0.1014,-0.0226 -0.1014,-0.0504 0,-0.0277 -0.1139,-0.0504 -0.2533,-0.0504 -0.1393,0 -0.2533,0.0227 -0.2533,0.0504 0,0.0278 -0.0577,0.0504 -0.1283,0.0504 -0.1427,0 -0.4796,0.2999 -0.4796,0.4269 0,0.0425 -0.0228,0.0773 -0.0506,0.0773 -0.0279,0 -0.0507,0.0681 -0.0507,0.1513 0,0.0831 -0.0228,0.1512 -0.0506,0.1512 -0.0335,0 -0.0507,1.9326 -0.0507,5.697 v 5.697 H 30.991 29.5726 v -4.1845 c 0,-2.7561 -0.0173,-4.1845 -0.0507,-4.1845 -0.0279,0 -0.0507,-0.0348 -0.0507,-0.0773 0,-0.0426 -0.079,-0.156 -0.1756,-0.2521 -0.0965,-0.0962 -0.2105,-0.1748 -0.2533,-0.1748 -0.0427,0 -0.0776,-0.0227 -0.0776,-0.0504 0,-0.0293 -0.1652,-0.0504 -0.3941,-0.0504 -0.336,0 -0.4049,0.0148 -0.4672,0.1008 -0.0401,0.0555 -0.1135,0.1008 -0.1631,0.1008 -0.0527,0 -0.0902,0.0373 -0.0902,0.0897 0,0.0494 -0.0456,0.1224 -0.1013,0.1624 -0.0705,0.0506 -0.1013,0.1305 -0.1013,0.2632 0,0.1048 -0.0228,0.1905 -0.0507,0.1905 -0.0333,0 -0.0506,1.3781 -0.0506,4.0333 v 4.0333 h -1.2665 -1.2665 v -5.3945 c 0,-3.5627 -0.0172,-5.3945 -0.0506,-5.3945 -0.0279,0 -0.0507,-0.0573 -0.0507,-0.1274 0,-0.0836 -0.0779,-0.2048 -0.2267,-0.3529 -0.1826,-0.1818 -0.2612,-0.2255 -0.4052,-0.2255 -0.0983,0 -0.1787,-0.0227 -0.1787,-0.0504 0,-0.0278 -0.0456,-0.0505 -0.1013,-0.0505 -0.0557,0 -0.1013,0.0227 -0.1013,0.0505 0,0.0277 -0.0804,0.0504 -0.1786,0.0504 -0.144,0 -0.2226,0.0437 -0.4053,0.2255 -0.1488,0.1481 -0.2266,0.2693 -0.2266,0.3529 0,0.0701 -0.0228,0.1274 -0.0507,0.1274 -0.0334,0 -0.0507,1.8318 -0.0507,5.3945 v 5.3945 h -1.4691 -1.4691 v -2.8737 c 0,-1.8822 -0.0175,-2.8737 -0.0507,-2.8737 -0.0278,0 -0.0506,-0.0631 -0.0506,-0.1401 0,-0.0823 -0.0419,-0.1701 -0.1014,-0.2128 -0.0557,-0.04 -0.1013,-0.1131 -0.1013,-0.1624 0,-0.0561 -0.0379,-0.0897 -0.1013,-0.0897 -0.0557,0 -0.1013,-0.0227 -0.1013,-0.0504 0,-0.0278 -0.0456,-0.0504 -0.1013,-0.0504 -0.0558,0 -0.1013,-0.0227 -0.1013,-0.0505 0,-0.028 -0.1352,-0.0504 -0.304,-0.0504 -0.1689,0 -0.304,0.0224 -0.304,0.0504 0,0.0278 -0.0456,0.0505 -0.1013,0.0505 -0.0557,0 -0.1013,0.0226 -0.1013,0.0504 0,0.0277 -0.0358,0.0504 -0.0796,0.0504 -0.1024,0 -0.2244,0.1214 -0.2244,0.2233 0,0.0435 -0.0228,0.0792 -0.0506,0.0792 -0.0279,0 -0.0507,0.0454 -0.0507,0.1008 0,0.0555 -0.0228,0.1009 -0.0506,0.1009 -0.0332,0 -0.0507,1.0083 -0.0507,2.9241 v 2.9241 H 16.857 15.6919 v -2.6216 c 0,-1.7142 -0.0176,-2.6217 -0.0507,-2.6217 -0.0279,0 -0.0507,-0.08 -0.0507,-0.1777 0,-0.1434 -0.0439,-0.2216 -0.2266,-0.4034 -0.1488,-0.148 -0.2706,-0.2255 -0.3546,-0.2255 -0.0704,0 -0.128,-0.0227 -0.128,-0.0504 0,-0.0278 -0.114,-0.0504 -0.2533,-0.0504 -0.1393,0 -0.2533,0.0226 -0.2533,0.0504 0,0.0277 -0.0456,0.0504 -0.1013,0.0504 -0.0557,0 -0.1013,0.0227 -0.1013,0.0504 0,0.0277 -0.0358,0.0504 -0.0796,0.0504 -0.0977,0 -0.2244,0.1199 -0.2244,0.2122 0,0.0374 -0.0456,0.1008 -0.1013,0.1407 -0.0992,0.0712 -0.1013,0.1306 -0.1013,2.8345 v 2.7617 h -1.36782 -1.3678 v -2.1175 c 0,-1.378 -0.01768,-2.1174 -0.05066,-2.1174 -0.02786,0 -0.05066,-0.0454 -0.05066,-0.1009 0,-0.0554 -0.0228,-0.1008 -0.05066,-0.1008 -0.02786,0 -0.05066,-0.0356 -0.05066,-0.0792 0,-0.0972 -0.12042,-0.2233 -0.21317,-0.2233 -0.03764,0 -0.10127,-0.0454 -0.14145,-0.1008 -0.06226,-0.086 -0.13115,-0.1009 -0.46713,-0.1009 -0.22893,0 -0.39408,0.0212 -0.39408,0.0505 0,0.0277 -0.03521,0.0504 -0.07827,0.0504 -0.10137,0 -0.327,0.2245 -0.327,0.3254 0,0.0429 -0.0228,0.0779 -0.05066,0.0779 -0.02787,0 -0.05066,0.0454 -0.05066,0.1008 0,0.0555 -0.0228,0.1009 -0.05066,0.1009 -0.03298,0 -0.05066,0.7394 -0.05066,2.1174 v 2.1175 H 7.23174 c -1.08072,0 -1.67177,-0.0179 -1.67177,-0.0504 0,-0.0277 -0.03495,-0.0504 -0.07766,-0.0504 -0.04275,0 -0.15674,-0.0787 -0.25329,-0.1748 l -0.17564,-0.1748 v -14.5971 c 0,-9.6977 0.01702,-14.59706 0.05066,-14.59706 0.02786,0 0.05066,-0.03565 0.05066,-0.07921 0,-0.10189 0.12199,-0.22329 0.22437,-0.22329 0.04377,0 0.07958,-0.02268 0.07958,-0.05041 0,-0.03353 6.21425,-0.05042 18.54135,-0.05042 12.3271,0 18.5414,0.01689 18.5414,0.05042 z M 9.91669,9.61899 c 0,0.02772 -0.0456,0.05041 -0.10132,0.05041 -0.05573,0 -0.10132,0.02265 -0.10132,0.05045 0,0.0277 -0.03582,0.0504 -0.07959,0.0504 -0.09767,0 -0.22437,0.1198 -0.22437,0.2121 0,0.0375 -0.04559,0.1008 -0.10132,0.1408 -0.08419,0.0604 -0.10131,0.1305 -0.10131,0.4145 0,0.1942 0.02188,0.3417 0.05066,0.3417 0.02786,0 0.05065,0.0454 0.05065,0.1009 0,0.0554 0.0228,0.1008 0.05066,0.1008 0.02787,0 0.05066,0.0454 0.05066,0.1008 0,0.0631 0.03379,0.1009 0.09013,0.1009 0.04959,0 0.123,0.0453 0.16317,0.1008 0.04291,0.0592 0.13116,0.1008 0.21383,0.1008 0.07741,0 0.14079,0.0227 0.14079,0.0504 0,0.0278 0.09118,0.0505 0.20264,0.0505 0.11145,0 0.20263,-0.0227 0.20263,-0.0505 0,-0.0277 0.05776,-0.0504 0.12832,-0.0504 0.14271,0 0.4796,-0.2998 0.4796,-0.4268 0,-0.0425 0.02279,-0.0773 0.05066,-0.0773 0.02786,0 0.05066,-0.0681 0.05066,-0.1513 0,-0.0832 0.02279,-0.1512 0.05066,-0.1512 0.02786,0 0.05065,-0.0681 0.05065,-0.1513 0,-0.0832 -0.02279,-0.1512 -0.05065,-0.1512 -0.02787,0 -0.05066,-0.0573 -0.05066,-0.1274 0,-0.1424 -0.39996,-0.57845 -0.53061,-0.57845 -0.0425,0 -0.07731,-0.02269 -0.07731,-0.05041 0,-0.02804 -0.13511,-0.05042 -0.30395,-0.05042 -0.16885,0 -0.30396,0.02238 -0.30396,0.05042 z m 24.01261,0 c 0,0.02772 -0.0456,0.05041 -0.1013,0.05041 -0.0558,0 -0.1014,0.02265 -0.1014,0.05045 0,0.0277 -0.0358,0.0504 -0.0795,0.0504 -0.1024,0 -0.2244,0.1214 -0.2244,0.2233 0,0.0435 -0.0228,0.0792 -0.0507,0.0792 -0.0278,0 -0.0506,0.0454 -0.0506,0.1008 0,0.0555 -0.0228,0.1008 -0.0507,0.1008 -0.0282,0 -0.0507,0.1345 -0.0507,0.3025 0,0.1681 0.0225,0.3025 0.0507,0.3025 0.0279,0 0.0507,0.0347 0.0507,0.077 0,0.13 0.4381,0.528 0.5812,0.528 0.0704,0 0.128,0.0227 0.128,0.0504 0,0.032 0.3715,0.0505 1.0132,0.0505 0.5572,0 1.0132,0.0114 1.0132,0.0253 0,0.05 -8.2586,8.2429 -8.309,8.2429 -0.0284,0 -0.5295,-0.4765 -1.1137,-1.0588 -0.5841,-0.5823 -1.0916,-1.0587 -1.1278,-1.0587 -0.0361,0 -0.0985,-0.0454 -0.1387,-0.1008 -0.0429,-0.0592 -0.1311,-0.1009 -0.2138,-0.1009 -0.0774,0 -0.1408,-0.0227 -0.1408,-0.0504 0,-0.0277 -0.0684,-0.0504 -0.152,-0.0504 -0.0836,0 -0.1519,0.0227 -0.1519,0.0504 0,0.0277 -0.0799,0.0504 -0.1776,0.0504 -0.1676,0 -0.3877,0.2092 -3.9259,3.7308 -2.0615,2.0519 -3.7716,3.7308 -3.8,3.7308 -0.0285,0 -0.5525,-0.4991 -1.1646,-1.1092 -0.6121,-0.61 -1.1424,-1.1091 -1.1785,-1.1091 -0.0361,0 -0.0985,-0.0454 -0.1386,-0.1008 -0.0607,-0.0838 -0.1312,-0.1009 -0.4165,-0.1009 -0.1952,0 -0.3434,0.0218 -0.3434,0.0504 0,0.0278 -0.0406,0.0505 -0.0902,0.0505 -0.0495,0 -0.123,0.0453 -0.1631,0.1008 -0.0402,0.0554 -0.1023,0.1008 -0.138,0.1008 -0.085,0 -3.66149,3.5593 -3.66149,3.6439 0,0.0355 -0.04559,0.0973 -0.10132,0.1373 -0.05572,0.04 -0.10132,0.113 -0.10132,0.1624 0,0.0493 -0.02279,0.0897 -0.05065,0.0897 -0.02893,0 -0.05066,0.1512 -0.05066,0.3529 0,0.2017 0.02173,0.3529 0.05066,0.3529 0.02786,0 0.05065,0.0348 0.05065,0.0773 0,0.1004 0.32808,0.4269 0.42894,0.4269 0.0427,0 0.07766,0.0227 0.07766,0.0504 0,0.0293 0.16515,0.0504 0.39408,0.0504 0.33597,0 0.40487,-0.0149 0.46713,-0.1008 0.04017,-0.0555 0.10248,-0.1009 0.13845,-0.1009 0.03597,0 0.74911,-0.6809 1.58468,-1.5131 l 1.51929,-1.5132 1.1642,1.1603 c 0.6404,0.6381 1.1989,1.1602 1.2411,1.1602 0.0423,0 0.0768,0.0227 0.0768,0.0504 0,0.0293 0.1652,0.0505 0.3941,0.0505 0.336,0 0.4049,-0.0149 0.4671,-0.1009 0.0402,-0.0554 0.1023,-0.1008 0.1381,-0.1008 0.0358,0 1.7062,-1.6335 3.712,-3.63 2.0058,-1.9964 3.6703,-3.6299 3.6987,-3.6299 0.0285,0 0.5526,0.4991 1.1646,1.1091 0.6121,0.6101 1.1474,1.1092 1.1897,1.1092 0.0423,0 0.0768,0.0227 0.0768,0.0504 0,0.0277 0.0456,0.0504 0.1013,0.0504 0.0558,0 0.1014,0.0227 0.1014,0.0504 0,0.0281 0.1351,0.0505 0.3039,0.0505 0.1689,0 0.304,-0.0224 0.304,-0.0505 0,-0.0277 0.0406,-0.0504 0.0901,-0.0504 0.0496,0 0.123,-0.0453 0.1632,-0.1008 0.0402,-0.0555 0.1023,-0.1008 0.138,-0.1008 0.0358,0 2.0938,-2.0192 4.5733,-4.487 2.4795,-2.4679 4.5198,-4.4871 4.5338,-4.4871 0.0141,0 0.0256,0.4538 0.0256,1.0084 0,0.6386 0.0186,1.0083 0.0506,1.0083 0.0279,0 0.0507,0.0573 0.0507,0.1273 0,0.1424 0.3999,0.5785 0.5306,0.5785 0.0425,0 0.0773,0.0227 0.0773,0.0504 0,0.028 0.1351,0.0504 0.304,0.0504 0.1688,0 0.3039,-0.0224 0.3039,-0.0504 0,-0.0277 0.0456,-0.0504 0.1013,-0.0504 0.0558,0 0.1013,-0.0227 0.1013,-0.0504 0,-0.0278 0.0359,-0.0504 0.0796,-0.0504 0.0439,0 0.1122,-0.0325 0.152,-0.0721 0.0398,-0.0396 0.0724,-0.1076 0.0724,-0.1512 0,-0.0436 0.0228,-0.0792 0.0507,-0.0792 0.0278,0 0.0506,-0.0454 0.0506,-0.1009 0,-0.0554 0.0228,-0.1008 0.0507,-0.1008 0.0331,0 0.0506,-0.8739 0.0506,-2.5208 0,-1.6469 -0.0175,-2.5208 -0.0506,-2.5208 -0.0279,0 -0.0507,-0.0348 -0.0507,-0.0773 0,-0.1004 -0.328,-0.42685 -0.4289,-0.42685 -0.0427,0 -0.0777,-0.02269 -0.0777,-0.05041 0,-0.03293 -0.8781,-0.05042 -2.5329,-0.05042 -1.6549,0 -2.533,0.01749 -2.533,0.05042 z M 9.81537,13.75305 c 0,0.0278 -0.03496,0.0505 -0.07766,0.0505 -0.10086,0 -0.42894,0.3265 -0.42894,0.4268 0,0.0425 -0.02279,0.0773 -0.05065,0.0773 -0.02893,0 -0.05066,0.1513 -0.05066,0.3529 0,0.2017 0.02173,0.3529 0.05066,0.3529 0.02786,0 0.05065,0.0347 0.05065,0.077 0,0.0423 0.10198,0.1784 0.22666,0.3025 0.1806,0.1798 0.26201,0.2255 0.40102,0.2255 0.09594,0 0.18774,0.0284 0.204,0.063 0.02361,0.0505 0.03546,0.0505 0.05907,0 0.01626,-0.0346 0.1188,-0.063 0.22797,-0.063 0.10917,0 0.19843,-0.0227 0.19843,-0.0504 0,-0.0277 0.03521,-0.0504 0.07827,-0.0504 0.10137,0 0.32701,-0.2246 0.32701,-0.3254 0,-0.0429 0.02279,-0.0779 0.05066,-0.0779 0.02786,0 0.05066,-0.0681 0.05066,-0.1513 0,-0.0832 0.02279,-0.1512 0.05066,-0.1512 0.02786,0 0.05065,-0.0681 0.05065,-0.1513 0,-0.0832 -0.02279,-0.1512 -0.05065,-0.1512 -0.02787,0 -0.05066,-0.0631 -0.05066,-0.1401 0,-0.0823 -0.04185,-0.1701 -0.10132,-0.2128 -0.05573,-0.04 -0.10132,-0.1131 -0.10132,-0.1624 0,-0.0524 -0.03749,-0.0897 -0.09013,-0.0897 -0.04959,0 -0.123,-0.0454 -0.16317,-0.1008 -0.06226,-0.086 -0.13116,-0.1009 -0.46713,-0.1009 -0.22893,0 -0.39408,0.0211 -0.39408,0.0504 z m 0.30396,4.0333 c 0,0.0277 -0.0804,0.0504 -0.17863,0.0504 -0.14402,0 -0.2226,0.0437 -0.40527,0.2256 -0.12468,0.124 -0.22666,0.2601 -0.22666,0.3025 0,0.0423 -0.02279,0.0769 -0.05065,0.0769 -0.02893,0 -0.05066,0.1513 -0.05066,0.3529 0,0.2017 0.02173,0.3529 0.05066,0.3529 0.02786,0 0.05065,0.0348 0.05065,0.0773 0,0.1004 0.32808,0.4269 0.42894,0.4269 0.0427,0 0.07766,0.0227 0.07766,0.0504 0,0.0293 0.16515,0.0504 0.39408,0.0504 0.33597,0 0.40487,-0.0148 0.46713,-0.1008 0.04017,-0.0555 0.1038,-0.1008 0.14144,-0.1008 0.09276,0 0.21318,-0.1261 0.21318,-0.2233 0,-0.0436 0.02279,-0.0792 0.05066,-0.0792 0.02786,0 0.05066,-0.0681 0.05066,-0.1513 0,-0.0832 0.02279,-0.1512 0.05066,-0.1512 0.02786,0 0.05065,-0.0681 0.05065,-0.1513 0,-0.0832 -0.02279,-0.1512 -0.05065,-0.1512 -0.02787,0 -0.05066,-0.0681 -0.05066,-0.1513 0,-0.0831 -0.0228,-0.1512 -0.05066,-0.1512 -0.02787,0 -0.05066,-0.035 -0.05066,-0.0779 0,-0.1009 -0.22564,-0.3254 -0.32701,-0.3254 -0.04306,0 -0.07827,-0.0227 -0.07827,-0.0505 0,-0.0277 -0.09119,-0.0504 -0.20264,-0.0504 -0.11145,0 -0.20263,-0.0227 -0.20263,-0.0504 0,-0.0277 -0.0228,-0.0504 -0.05066,-0.0504 -0.02787,0 -0.05066,0.0227 -0.05066,0.0504 z"
     fill="#eaae13"
     id="path2" />
</svg>
