<?xml version="1.0" encoding="UTF-8" standalone="no"?>
<svg
   xmlns:dc="http://purl.org/dc/elements/1.1/"
   xmlns:cc="http://creativecommons.org/ns#"
   xmlns:rdf="http://www.w3.org/1999/02/22-rdf-syntax-ns#"
   xmlns:svg="http://www.w3.org/2000/svg"
   xmlns="http://www.w3.org/2000/svg"
   xmlns:sodipodi="http://sodipodi.sourceforge.net/DTD/sodipodi-0.dtd"
   xmlns:inkscape="http://www.inkscape.org/namespaces/inkscape"
   width="48"
   height="51"
   viewBox="0 0 48 51"
   fill="none"
   version="1.1"
   id="svg4"
   sodipodi:docname="image 13 (Traced).svg"
   inkscape:version="1.0.1 (1.0.1+r73)">
  <metadata
     id="metadata10">
    <rdf:RDF>
      <cc:Work
         rdf:about="">
        <dc:format>image/svg+xml</dc:format>
        <dc:type
           rdf:resource="http://purl.org/dc/dcmitype/StillImage" />
        <dc:title></dc:title>
      </cc:Work>
    </rdf:RDF>
  </metadata>
  <defs
     id="defs8" />
  <sodipodi:namedview
     pagecolor="#ffffff"
     bordercolor="#666666"
     borderopacity="1"
     objecttolerance="10"
     gridtolerance="10"
     guidetolerance="10"
     inkscape:pageopacity="0"
     inkscape:pageshadow="2"
     inkscape:window-width="1366"
     inkscape:window-height="705"
     id="namedview6"
     showgrid="false"
     inkscape:zoom="6.0196078"
     inkscape:cx="25.5"
     inkscape:cy="25.5"
     inkscape:window-x="0"
     inkscape:window-y="30"
     inkscape:window-maximized="1"
     inkscape:current-layer="svg4" />
  <path
     fill-rule="evenodd"
     clip-rule="evenodd"
     d="m 1.9880924,1.5763008 c 0,0.028419 -0.093008,0.051671 -0.2066849,0.051671 -0.1136771,0 -0.2066848,0.023251 -0.2066848,0.051671 0,0.028419 -0.046499,0.051671 -0.1033376,0.051671 -0.056839,0 -0.1033472,0.023252 -0.1033472,0.051672 0,0.028419 -0.041386,0.051671 -0.091917,0.051671 -0.050587,0 -0.1254584,0.046504 -0.1664368,0.1033424 -0.040978,0.056838 -0.1049975,0.1033416 -0.1423021,0.1033416 -0.088151,0 -0.4260796,0.3379286 -0.4260796,0.4260796 0,0.037305 -0.046504,0.1013238 -0.1033424,0.1423023 -0.056839,0.040978 -0.1033424,0.1158493 -0.1033424,0.1664368 0,0.05053 -0.023251,0.091917 -0.051671,0.091917 -0.028419,0 -0.051672,0.046509 -0.051672,0.1033472 0,0.056839 -0.023251,0.1033376 -0.051671,0.1033376 -0.028419,0 -0.051671,0.093008 -0.051671,0.2066848 0,0.1136772 -0.023252,0.2066849 -0.051671,0.2066849 -0.034361,0 -0.051671,7.371759 -0.051671,22.0119 0,14.640104 0.01731,22.011853 0.051671,22.011853 0.028419,0 0.051671,0.09305 0.051671,0.206694 0,0.113639 0.023251,0.206694 0.051671,0.206694 0.028419,0 0.051671,0.04648 0.051671,0.1033 0,0.05691 0.023252,0.103395 0.051672,0.103395 0.028419,0 0.051671,0.04136 0.051671,0.09192 0,0.05056 0.046504,0.125402 0.1033424,0.16638 0.056839,0.04098 0.1033424,0.105007 0.1033424,0.142381 0,0.08812 0.3379286,0.426005 0.4260796,0.426005 0.037305,0 0.1013238,0.04657 0.1423023,0.103394 0.040978,0.05682 0.1158493,0.1033 0.1664368,0.1033 0.05053,0 0.091917,0.02324 0.091917,0.0517 0,0.02846 0.046509,0.0517 0.1033472,0.0517 0.056839,0 0.1033376,0.02324 0.1033376,0.0516 0,0.02846 0.093008,0.0517 0.2066848,0.0517 0.1136772,0 0.2066849,0.02324 0.2066849,0.0517 0,0.03434 5.4426717,0.0517 16.2247434,0.0517 10.782063,0 16.224697,-0.01736 16.224697,-0.0517 0,-0.02846 0.06972,-0.0517 0.154997,-0.0517 0.08528,0 0.154997,-0.02324 0.154997,-0.0517 0,-0.02836 0.06469,-0.0516 0.143614,-0.0516 0.08433,0 0.174348,-0.04269 0.218077,-0.103395 0.04098,-0.05682 0.104723,-0.1033 0.141527,-0.1033 0.08746,0 0.736948,-0.649488 0.736948,-0.736947 0,-0.0368 0.04648,-0.100549 0.103299,-0.141527 0.06071,-0.04373 0.103395,-0.133749 0.103395,-0.218077 0,-0.07892 0.02324,-0.143614 0.0516,-0.143614 0.02846,0 0.0517,-0.06972 0.0517,-0.154997 0,-0.08528 0.02324,-0.154997 0.0517,-0.154997 0.03358,0 0.0516,-0.723383 0.0516,-2.066849 0,-2.03232 0.0017,-2.066848 0.103395,-2.066848 0.05682,0 0.1033,-0.02324 0.1033,-0.0517 0,-0.02836 0.09305,-0.0516 0.206694,-0.0516 0.113734,0 0.206694,-0.02324 0.206694,-0.0517 0,-0.02846 0.06981,-0.0517 0.154997,-0.0517 0.08528,0 0.154997,-0.02324 0.154997,-0.0516 0,-0.02846 0.06981,-0.0517 0.155092,-0.0517 0.08518,0 0.154997,-0.02324 0.154997,-0.0517 0,-0.02836 0.04648,-0.0517 0.1033,-0.0517 0.05682,0 0.103394,-0.02324 0.103394,-0.0516 0,-0.02846 0.06972,-0.0517 0.154997,-0.0517 0.08528,0 0.154997,-0.02324 0.154997,-0.0517 0,-0.02836 0.04648,-0.0517 0.103395,-0.0517 0.05682,0 0.1033,-0.02324 0.1033,-0.0516 0,-0.02846 0.04648,-0.0517 0.103299,-0.0517 0.05691,0 0.103395,-0.02324 0.103395,-0.0517 0,-0.02836 0.04648,-0.0516 0.1033,-0.0516 0.05691,0 0.103394,-0.02333 0.103394,-0.0517 0,-0.02846 0.04648,-0.0517 0.1033,-0.0517 0.05682,0 0.103395,-0.02324 0.103395,-0.0517 0,-0.02836 0.04648,-0.0516 0.103299,-0.0516 0.05682,0 0.103395,-0.02324 0.103395,-0.0517 0,-0.02846 0.05834,-0.0517 0.129575,-0.0517 0.101972,0 0.614297,0.484911 2.402264,2.273542 1.249936,1.250411 2.302664,2.273543 2.339184,2.273543 0.03662,0 0.100075,0.04648 0.141053,0.1033 0.04373,0.06071 0.133749,0.103394 0.218077,0.103394 0.07892,0 0.143614,0.02324 0.143614,0.0517 0,0.02836 0.04648,0.0516 0.1033,0.0516 0.05682,0 0.103395,0.02324 0.103395,0.0517 0,0.03178 0.258296,0.0517 0.671685,0.0517 0.413389,0 0.67178,-0.01992 0.67178,-0.0517 0,-0.02846 0.06972,-0.0517 0.154997,-0.0517 0.08518,0 0.154997,-0.02324 0.154997,-0.0516 0,-0.02846 0.04648,-0.0517 0.1033,-0.0517 0.05691,0 0.103395,-0.02324 0.103395,-0.0517 0,-0.02836 0.04136,-0.0517 0.09192,-0.0517 0.05056,0 0.125402,-0.04648 0.16638,-0.1033 0.04098,-0.05682 0.105007,-0.103395 0.142381,-0.103395 0.08812,0 0.426005,-0.337882 0.426005,-0.426004 0,-0.03737 0.04657,-0.101403 0.103394,-0.142286 0.05682,-0.04098 0.1033,-0.115916 0.1033,-0.166475 0,-0.05056 0.02324,-0.09192 0.0517,-0.09192 0.02846,0 0.0517,-0.04648 0.0517,-0.103395 0,-0.05682 0.02324,-0.103299 0.0516,-0.103299 0.02846,0 0.0517,-0.09296 0.0517,-0.206695 0,-0.113639 0.02324,-0.206694 0.0517,-0.206694 0.03064,0 0.0517,-0.18943 0.0517,-0.464991 0,-0.275561 -0.02106,-0.465086 -0.0517,-0.465086 -0.02846,0 -0.0517,-0.09296 -0.0517,-0.206694 0,-0.113639 -0.02324,-0.206694 -0.0517,-0.206694 -0.02836,0 -0.0516,-0.04648 -0.0516,-0.1033 0,-0.05682 -0.02324,-0.1033 -0.0517,-0.1033 -0.02846,0 -0.0517,-0.04657 -0.0517,-0.103394 0,-0.05682 -0.02324,-0.1033 -0.0516,-0.1033 -0.02846,0 -0.0517,-0.0351 -0.0517,-0.07797 0,-0.04288 -1.023132,-1.100631 -2.273542,-2.350567 -2.358914,-2.35806 -2.405774,-2.413836 -2.170148,-2.583631 0.05682,-0.04098 0.1033,-0.115821 0.1033,-0.16638 0,-0.05056 0.02324,-0.09192 0.0517,-0.09192 0.02836,0 0.0516,-0.04648 0.0516,-0.103394 0,-0.05682 0.02333,-0.1033 0.0517,-0.1033 0.02846,0 0.0517,-0.04648 0.0517,-0.103395 0,-0.05682 0.02324,-0.103299 0.0517,-0.103299 0.02836,0 0.0516,-0.04648 0.0516,-0.1033 0,-0.05691 0.02324,-0.103395 0.0517,-0.103395 0.02846,0 0.0517,-0.04648 0.0517,-0.103299 0,-0.05691 0.02324,-0.103395 0.0517,-0.103395 0.02836,0 0.0516,-0.04648 0.0516,-0.1033 0,-0.05682 0.02324,-0.103394 0.0517,-0.103394 0.02846,0 0.0517,-0.04648 0.0517,-0.1033 0,-0.05682 0.02324,-0.103395 0.0516,-0.103395 0.02846,0 0.0517,-0.06972 0.0517,-0.154997 0,-0.08528 0.02324,-0.154997 0.0517,-0.154997 0.02836,0 0.0517,-0.06972 0.0517,-0.154997 0,-0.08528 0.02324,-0.154997 0.0516,-0.154997 0.02846,0 0.0517,-0.06981 0.0517,-0.154997 0,-0.08528 0.02324,-0.155092 0.0517,-0.155092 0.02836,0 0.0516,-0.09296 0.0516,-0.206599 0,-0.113734 0.02334,-0.206694 0.0517,-0.206694 0.02846,0 0.0517,-0.09305 0.0517,-0.206695 0,-0.113734 0.02324,-0.206694 0.0517,-0.206694 0.02836,0 0.0516,-0.116295 0.0516,-0.258392 0,-0.142096 0.02333,-0.258296 0.0517,-0.258296 0.0295,0 0.0517,-0.155092 0.0517,-0.361692 0,-0.206694 0.0221,-0.361786 0.0517,-0.361786 0.03263,0 0.0516,-0.37886 0.0516,-1.033376 0,-0.654517 -0.01897,-1.033377 -0.0516,-1.033377 -0.03016,0 -0.0517,-0.172261 -0.0517,-0.413389 0,-0.241127 -0.02153,-0.413388 -0.0517,-0.413388 -0.02836,0 -0.0517,-0.116296 -0.0517,-0.258392 0,-0.142096 -0.02324,-0.258297 -0.0516,-0.258297 -0.02846,0 -0.0517,-0.09305 -0.0517,-0.206694 0,-0.113734 -0.02324,-0.206694 -0.0517,-0.206694 -0.02836,0 -0.0517,-0.03567 -0.0517,-0.07921 0,-0.102921 -0.334562,-0.437483 -0.437482,-0.437483 -0.04354,0 -0.07921,-0.02324 -0.07921,-0.0517 0,-0.02846 -0.09296,-0.0517 -0.206694,-0.0517 -0.113639,0 -0.206694,0.02324 -0.206694,0.0517 0,0.02846 -0.0591,0.0517 -0.131473,0.0517 -0.145037,0 -0.385216,0.207928 -0.385216,0.333519 0,0.04392 -0.02324,0.07977 -0.0517,0.07977 -0.0295,0 -0.0516,0.155092 -0.0516,0.361786 0,0.2066 0.0221,0.361692 0.0516,0.361692 0.02846,0 0.0517,0.1162 0.0517,0.258296 0,0.142097 0.02324,0.258392 0.0517,0.258392 0.02874,0 0.0517,0.137828 0.0517,0.309994 0,0.172261 0.02296,0.310089 0.0516,0.310089 0.03292,0 0.0517,0.413294 0.0517,1.136676 0,0.723478 -0.01878,1.136772 -0.0517,1.136772 -0.02865,0 -0.0516,0.137827 -0.0516,0.310088 0,0.172167 -0.02296,0.309994 -0.0517,0.309994 -0.02846,0 -0.0517,0.116296 -0.0517,0.258392 0,0.142096 -0.02324,0.258297 -0.0517,0.258297 -0.02836,0 -0.0516,0.06981 -0.0516,0.154997 0,0.08528 -0.02324,0.155092 -0.0517,0.155092 -0.02846,0 -0.0517,0.06972 -0.0517,0.154997 0,0.08528 -0.02324,0.154997 -0.0516,0.154997 -0.02846,0 -0.0517,0.06972 -0.0517,0.154997 0,0.08528 -0.02324,0.154997 -0.0517,0.154997 -0.02836,0 -0.0517,0.04658 -0.0517,0.103394 0,0.05682 -0.02324,0.1033 -0.0516,0.1033 -0.02846,0 -0.0517,0.04648 -0.0517,0.103395 0,0.05682 -0.02324,0.103299 -0.0517,0.103299 -0.02836,0 -0.0516,0.04648 -0.0516,0.103395 0,0.05682 -0.02334,0.1033 -0.0517,0.1033 -0.02846,0 -0.0517,0.04648 -0.0517,0.103299 0,0.05692 -0.02324,0.103395 -0.0517,0.103395 -0.02836,0 -0.0516,0.04648 -0.0516,0.1033 0,0.05691 -0.02324,0.103394 -0.0517,0.103394 -0.02846,0 -0.0517,0.04648 -0.0517,0.1033 0,0.05682 -0.02324,0.103395 -0.0517,0.103395 -0.02836,0 -0.0516,0.04136 -0.0516,0.09192 0,0.05056 -0.04658,0.125402 -0.103395,0.16638 -0.05682,0.04098 -0.1033,0.10662 -0.1033,0.145701 0,0.03918 -0.06981,0.136405 -0.154997,0.215991 -0.08528,0.07968 -0.155092,0.172166 -0.155092,0.20565 0,0.03349 -0.09296,0.15016 -0.206599,0.259435 -0.113734,0.109181 -0.206694,0.224054 -0.206694,0.255167 0,0.07332 -0.756014,0.829907 -0.829339,0.829907 -0.03064,0 -0.169036,0.116296 -0.307433,0.258392 -0.138492,0.142096 -0.282959,0.258297 -0.321092,0.258297 -0.03823,0 -0.103015,0.04658 -0.143994,0.103394 -0.04098,0.05682 -0.110698,0.1033 -0.154997,0.1033 -0.0443,0 -0.114018,0.04648 -0.154997,0.103395 -0.04098,0.05682 -0.110698,0.103299 -0.154997,0.103299 -0.0443,0 -0.114018,0.04648 -0.154997,0.103395 -0.04098,0.05682 -0.115915,0.1033 -0.166474,0.1033 -0.05056,0 -0.09192,0.02324 -0.09192,0.0517 0,0.02836 -0.04648,0.0516 -0.1033,0.0516 -0.05691,0 -0.103395,0.02334 -0.103395,0.0517 0,0.02846 -0.04648,0.0517 -0.103299,0.0517 -0.05691,0 -0.103395,0.02324 -0.103395,0.0517 0,0.02836 -0.04648,0.0516 -0.1033,0.0516 -0.05682,0 -0.103394,0.02324 -0.103394,0.0517 0,0.02846 -0.04648,0.0517 -0.1033,0.0517 -0.05682,0 -0.103394,0.02324 -0.103394,0.0517 0,0.02836 -0.06972,0.0516 -0.154997,0.0516 -0.08528,0 -0.154997,0.02324 -0.154997,0.0517 0,0.02846 -0.04648,0.0517 -0.1033,0.0517 -0.05692,0 -0.103395,0.02324 -0.103395,0.0516 0,0.02846 -0.06972,0.0517 -0.154997,0.0517 -0.08528,0 -0.154997,0.02324 -0.154997,0.0517 0,0.02836 -0.06981,0.0517 -0.154997,0.0517 -0.08528,0 -0.155092,0.02324 -0.155092,0.0516 0,0.02846 -0.09296,0.0517 -0.206599,0.0517 -0.113734,0 -0.206694,0.02324 -0.206694,0.0517 0,0.02836 -0.116296,0.0516 -0.258392,0.0516 -0.142096,0 -0.258392,0.02334 -0.258392,0.0517 0,0.02874 -0.137733,0.0517 -0.309994,0.0517 -0.172166,0 -0.309994,0.02295 -0.309994,0.0517 0,0.03282 -0.396219,0.0516 -1.085074,0.0516 -0.688949,0 -1.085168,-0.01878 -1.085168,-0.0516 0,-0.02846 -0.116201,-0.0517 -0.258297,-0.0517 -0.142097,0 -0.258392,-0.02324 -0.258392,-0.0517 0,-0.02836 -0.1162,-0.0517 -0.258297,-0.0517 -0.142096,0 -0.258391,-0.02324 -0.258391,-0.0516 0,-0.02846 -0.06982,-0.0517 -0.154997,-0.0517 -0.08528,0 -0.154997,-0.02324 -0.154997,-0.0517 0,-0.02836 -0.09305,-0.0516 -0.206694,-0.0516 -0.113735,0 -0.206695,-0.02334 -0.206695,-0.0517 0,-0.02846 -0.04648,-0.0517 -0.103394,-0.0517 -0.05682,0 -0.1033,-0.02324 -0.1033,-0.0517 0,-0.02836 -0.06972,-0.0516 -0.154997,-0.0516 -0.08528,0 -0.154997,-0.02324 -0.154997,-0.0517 0,-0.02846 -0.04657,-0.0517 -0.103395,-0.0517 -0.05682,0 -0.103299,-0.02324 -0.103299,-0.0516 0,-0.02846 -0.04658,-0.0517 -0.103395,-0.0517 -0.05682,0 -0.1033,-0.02324 -0.1033,-0.0517 0,-0.02846 -0.04658,-0.0517 -0.103394,-0.0517 -0.05682,0 -0.1033,-0.02324 -0.1033,-0.0516 0,-0.02846 -0.04648,-0.0517 -0.103395,-0.0517 -0.05682,0 -0.103299,-0.02324 -0.103299,-0.0517 0,-0.02836 -0.04136,-0.0517 -0.09192,-0.0517 -0.05056,0 -0.125497,-0.04648 -0.166475,-0.103299 -0.04098,-0.05682 -0.110699,-0.1033 -0.154997,-0.1033 -0.0443,0 -0.114019,-0.04658 -0.154997,-0.103395 -0.04098,-0.05682 -0.110699,-0.103299 -0.154997,-0.103299 -0.0443,0 -0.114019,-0.04657 -0.154997,-0.103395 -0.04098,-0.05682 -0.106051,-0.1033 -0.144658,-0.1033 -0.03861,0 -0.15955,-0.09305 -0.268731,-0.206694 -0.109275,-0.113734 -0.223958,-0.206694 -0.254976,-0.206694 -0.03102,0 -0.276984,-0.220544 -0.546569,-0.490223 -0.269679,-0.269585 -0.490223,-0.51555 -0.490223,-0.546569 0,-0.03102 -0.09305,-0.145796 -0.206694,-0.254977 -0.113734,-0.109275 -0.206694,-0.230124 -0.206694,-0.268731 0,-0.03861 -0.04648,-0.103679 -0.1033,-0.144657 -0.05692,-0.04098 -0.103395,-0.110699 -0.103395,-0.154997 0,-0.0443 -0.04648,-0.114019 -0.1033,-0.154997 -0.05691,-0.04098 -0.103394,-0.110794 -0.103394,-0.154997 0,-0.0443 -0.04648,-0.114114 -0.1033,-0.155092 -0.05682,-0.04098 -0.103394,-0.115821 -0.103394,-0.16638 0,-0.05056 -0.02324,-0.09192 -0.0516,-0.09192 -0.02846,0 -0.0517,-0.04648 -0.0517,-0.103394 0,-0.05682 -0.02324,-0.1033 -0.0517,-0.1033 -0.02836,0 -0.0517,-0.04648 -0.0517,-0.103395 0,-0.05682 -0.02324,-0.103299 -0.0516,-0.103299 -0.02846,0 -0.0517,-0.04648 -0.0517,-0.1033 0,-0.05692 -0.02324,-0.103395 -0.0517,-0.103395 -0.02836,0 -0.0517,-0.06972 -0.0517,-0.154997 0,-0.08528 -0.02324,-0.154997 -0.0516,-0.154997 -0.02846,0 -0.0517,-0.04648 -0.0517,-0.103394 0,-0.05682 -0.02324,-0.1033 -0.0517,-0.1033 -0.02836,0 -0.0516,-0.06972 -0.0516,-0.154997 0,-0.08528 -0.02333,-0.154997 -0.0517,-0.154997 -0.02846,0 -0.0517,-0.06981 -0.0517,-0.155092 0,-0.08518 -0.02324,-0.154997 -0.0517,-0.154997 -0.02836,0 -0.0516,-0.09296 -0.0516,-0.206694 0,-0.113639 -0.02324,-0.206695 -0.0517,-0.206695 -0.02846,0 -0.0517,-0.1162 -0.0517,-0.258296 0,-0.142097 -0.02324,-0.258392 -0.0516,-0.258392 -0.02874,0 -0.0517,-0.137828 -0.0517,-0.309994 0,-0.172261 -0.02296,-0.310089 -0.0517,-0.310089 -0.03282,0 -0.0517,-0.396124 -0.0517,-1.085074 0,-0.688949 0.01888,-1.085074 0.0517,-1.085074 0.02874,0 0.0517,-0.137828 0.0517,-0.309994 0,-0.172261 0.02295,-0.310089 0.0517,-0.310089 0.02836,0 0.0516,-0.09296 0.0516,-0.206694 0,-0.113639 0.02324,-0.206599 0.0517,-0.206599 0.02846,0 0.0517,-0.09305 0.0517,-0.206695 0,-0.113734 0.02324,-0.206694 0.0516,-0.206694 0.02846,0 0.0517,-0.06982 0.0517,-0.154997 0,-0.08528 0.02324,-0.155092 0.0517,-0.155092 0.02836,0 0.0517,-0.06972 0.0517,-0.154997 0,-0.08518 0.02324,-0.154997 0.0516,-0.154997 0.02846,0 0.0517,-0.06972 0.0517,-0.154997 0,-0.08528 0.02324,-0.154997 0.0517,-0.154997 0.02836,0 0.0516,-0.04648 0.0516,-0.103395 0,-0.05682 0.02333,-0.103299 0.0517,-0.103299 0.02846,0 0.0517,-0.04648 0.0517,-0.103395 0,-0.05682 0.02324,-0.1033 0.0517,-0.1033 0.02836,0 0.0516,-0.04648 0.0516,-0.103299 0,-0.05692 0.02333,-0.103395 0.0517,-0.103395 0.02846,0 0.0517,-0.04648 0.0517,-0.1033 0,-0.05691 0.02324,-0.103394 0.0517,-0.103394 0.02836,0 0.0516,-0.04648 0.0516,-0.1033 0,-0.05682 0.02324,-0.103394 0.0517,-0.103394 0.02846,0 0.0517,-0.04136 0.0517,-0.09192 0,-0.05056 0.04648,-0.125402 0.1033,-0.16638 0.05682,-0.04098 0.103394,-0.110794 0.103394,-0.154997 0,-0.0443 0.04648,-0.114114 0.1033,-0.155092 0.05682,-0.04098 0.103395,-0.106525 0.103395,-0.145701 0,-0.03908 0.06972,-0.13631 0.154997,-0.21599 0.08518,-0.07959 0.154997,-0.170554 0.154997,-0.202047 0,-0.03149 0.313693,-0.370892 0.697107,-0.754306 0.383414,-0.383414 0.722813,-0.697107 0.754306,-0.697107 0.03149,0 0.122461,-0.06972 0.202046,-0.154997 0.07959,-0.08528 0.176909,-0.154997 0.215991,-0.154997 0.03918,0 0.104722,-0.04648 0.145701,-0.103395 0.04098,-0.05682 0.110698,-0.103299 0.154997,-0.103299 0.0443,0 0.114018,-0.04648 0.154997,-0.103395 0.04098,-0.05682 0.115916,-0.1033 0.166475,-0.1033 0.05056,0 0.09192,-0.02324 0.09192,-0.0517 0,-0.02836 0.04648,-0.0516 0.1033,-0.0516 0.05692,0 0.103395,-0.02333 0.103395,-0.0517 0,-0.02846 0.04648,-0.0517 0.103299,-0.0517 0.05692,0 0.103395,-0.02324 0.103395,-0.0517 0,-0.02836 0.04648,-0.0516 0.1033,-0.0516 0.05682,0 0.103394,-0.02324 0.103394,-0.0517 0,-0.02846 0.04648,-0.0517 0.1033,-0.0517 0.05682,0 0.103395,-0.02324 0.103395,-0.0517 0,-0.02836 0.04648,-0.0516 0.103299,-0.0516 0.05682,0 0.103395,-0.02324 0.103395,-0.0517 0,-0.02846 0.06972,-0.0517 0.154997,-0.0517 0.08528,0 0.154997,-0.02324 0.154997,-0.0516 0,-0.02846 0.06972,-0.0517 0.154997,-0.0517 0.08528,0 0.154997,-0.02324 0.154997,-0.0517 0,-0.02836 0.06981,-0.0517 0.154997,-0.0517 0.08528,0 0.155092,-0.02324 0.155092,-0.0516 0,-0.02846 0.06972,-0.0517 0.154997,-0.0517 0.08518,0 0.154997,-0.02324 0.154997,-0.0517 0,-0.02836 0.116295,-0.0516 0.258391,-0.0516 0.142097,0 0.258297,-0.02333 0.258297,-0.0517 0,-0.02874 0.137828,-0.0517 0.309994,-0.0517 0.172261,0 0.310089,-0.02295 0.310089,-0.0517 0,-0.03282 0.413389,-0.0516 1.136771,-0.0516 0.723383,0 1.136772,0.01878 1.136772,0.0516 0,0.02874 0.137733,0.0517 0.309994,0.0517 0.172261,0 0.309994,0.02296 0.309994,0.0517 0,0.02836 0.09305,0.0517 0.206694,0.0517 0.113734,0 0.206694,0.02324 0.206694,0.0516 0,0.02846 0.09305,0.0517 0.206695,0.0517 0.113639,0 0.206694,0.02324 0.206694,0.0517 0,0.02836 0.06972,0.0516 0.154997,0.0516 0.08528,0 0.154997,0.02333 0.154997,0.0517 0,0.02846 0.06982,0.0517 0.154997,0.0517 0.08528,0 0.155092,0.02324 0.155092,0.0517 0,0.02836 0.04648,0.0516 0.1033,0.0516 0.05682,0 0.103299,0.02324 0.103299,0.0517 0,0.02846 0.06981,0.0517 0.155092,0.0517 0.08518,0 0.154997,0.02324 0.154997,0.0516 0,0.02846 0.04648,0.0517 0.1033,0.0517 0.05682,0 0.103394,0.02324 0.103394,0.0517 0,0.02846 0.04648,0.0517 0.1033,0.0517 0.05682,0 0.103395,0.02324 0.103395,0.0516 0,0.02846 0.04648,0.0517 0.103299,0.0517 0.05682,0 0.103395,0.02324 0.103395,0.0517 0,0.02836 0.04136,0.0517 0.09192,0.0517 0.05056,0 0.125401,0.04648 0.16638,0.103299 0.04098,0.05682 0.115821,0.1033 0.166475,0.1033 0.05046,0 0.09192,0.02333 0.09192,0.0517 0,0.02874 0.137828,0.0517 0.309994,0.0517 0.172261,0 0.309994,-0.02296 0.309994,-0.0517 0,-0.02836 0.03595,-0.0517 0.07987,-0.0517 0.103395,0 0.333519,-0.230124 0.333519,-0.333519 0,-0.04392 0.02324,-0.07978 0.0517,-0.07978 0.02874,0 0.0517,-0.137827 0.0517,-0.310089 0,-0.172166 -0.02296,-0.309994 -0.0517,-0.309994 -0.02846,0 -0.0517,-0.03652 -0.0517,-0.0812 0,-0.0996 -0.12284,-0.228797 -0.217413,-0.228797 -0.03842,0 -0.1033,-0.04658 -0.144278,-0.103394 -0.04098,-0.05682 -0.115821,-0.1033 -0.16638,-0.1033 -0.05056,0 -0.09192,-0.02324 -0.09192,-0.0517 0,-0.02846 -0.04658,-0.0517 -0.103395,-0.0517 -0.05682,0 -0.103299,-0.02324 -0.103299,-0.0516 0,-0.02846 -0.04657,-0.0517 -0.103395,-0.0517 -0.05682,0 -0.1033,-0.02324 -0.1033,-0.0517 0,-0.02836 -0.04648,-0.0517 -0.103394,-0.0517 -0.05682,0 -0.1033,-0.02324 -0.1033,-0.0516 0,-0.02846 -0.04648,-0.0517 -0.103395,-0.0517 -0.05682,0 -0.103299,-0.02324 -0.103299,-0.0517 0,-0.02836 -0.04648,-0.0517 -0.1033,-0.0517 -0.05691,0 -0.103395,-0.02324 -0.103395,-0.0516 0,-0.02846 -0.04648,-0.0517 -0.103299,-0.0517 -0.05691,0 -0.103395,-0.02324 -0.103395,-0.0517 0,-0.02836 -0.06972,-0.0516 -0.154997,-0.0516 -0.08528,0 -0.154997,-0.02333 -0.154997,-0.0517 0,-0.02846 -0.06981,-0.0517 -0.154997,-0.0517 -0.08528,0 -0.155092,-0.02324 -0.155092,-0.0517 0,-0.02836 -0.06972,-0.0516 -0.154997,-0.0516 -0.08518,0 -0.154997,-0.02324 -0.154997,-0.0517 0,-0.02846 -0.06972,-0.0517 -0.154997,-0.0517 -0.08528,0 -0.154997,-0.02324 -0.154997,-0.0516 0,-0.02846 -0.06981,-0.0517 -0.154997,-0.0517 h -0.155092 v -6.045548 c 0,-3.995868 -0.01745,-6.0455 -0.0516,-6.0455 -0.02846,0 -0.0517,-0.06976 -0.0517,-0.155016 0,-0.104068 -0.02571,-0.155016 -0.07835,-0.155016 -0.08651,0 -0.851724,-0.7420978 -0.851724,-0.8260087 0,-0.084897 -7.587835,-7.648045 -7.673017,-7.648045 -0.04268,0 -0.07769,-0.023252 -0.07769,-0.051671 0,-0.03431 -4.305862,-0.051671 -12.814383,-0.051671 -8.5085194,0 -12.8144294,0.017361 -12.8144294,0.051671 z M 26.480229,6.3300399 c 0,2.0668387 0.01774,3.1519316 0.0516,3.1519316 0.02846,0 0.0517,0.069758 0.0517,0.155016 0,0.085258 0.02324,0.155016 0.0517,0.155016 0.02836,0 0.0516,0.064636 0.0516,0.1435952 0,0.084328 0.04269,0.1743383 0.103395,0.2181053 0.05682,0.04097 0.1033,0.104685 0.1033,0.141528 0,0.08737 0.649488,0.736862 0.736947,0.736862 0.0368,0 0.100549,0.04648 0.141527,0.103394 0.04373,0.06061 0.133749,0.1033 0.218077,0.1033 0.07892,0 0.143614,0.02324 0.143614,0.0517 0,0.02836 0.06972,0.0516 0.154997,0.0516 0.08528,0 0.154997,0.02333 0.154997,0.0517 0,0.03396 1.085074,0.0517 3.151923,0.0517 h 3.151922 v 5.373768 5.373767 h -1.085074 c -0.68895,0 -1.085074,0.01888 -1.085074,0.0517 0,0.02874 -0.137828,0.0517 -0.309994,0.0517 -0.172261,0 -0.310089,0.02296 -0.310089,0.0517 0,0.02836 -0.1162,0.0516 -0.258297,0.0516 -0.142096,0 -0.258391,0.02324 -0.258391,0.0517 0,0.02846 -0.09306,0.0517 -0.206695,0.0517 -0.113639,0 -0.206694,0.02324 -0.206694,0.0517 0,0.02836 -0.06972,0.0516 -0.154997,0.0516 -0.08528,0 -0.154997,0.02324 -0.154997,0.0517 0,0.02846 -0.06972,0.0517 -0.154997,0.0517 -0.08528,0 -0.154997,0.02324 -0.154997,0.0516 0,0.02846 -0.06981,0.0517 -0.155092,0.0517 -0.08518,0 -0.154997,0.02324 -0.154997,0.0517 0,0.02836 -0.04648,0.0517 -0.1033,0.0517 -0.05682,0 -0.103394,0.02324 -0.103394,0.0516 0,0.02846 -0.06972,0.0517 -0.154997,0.0517 -0.08528,0 -0.154997,0.02324 -0.154997,0.0517 0,0.02836 -0.04648,0.0516 -0.103395,0.0516 -0.05682,0 -0.1033,0.02333 -0.1033,0.0517 0,0.02846 -0.04648,0.0517 -0.103299,0.0517 -0.05692,0 -0.103395,0.02324 -0.103395,0.0517 0,0.02836 -0.04648,0.0516 -0.1033,0.0516 -0.05682,0 -0.103394,0.02333 -0.103394,0.0517 0,0.02846 -0.04648,0.0517 -0.1033,0.0517 -0.05682,0 -0.103395,0.02324 -0.103395,0.0517 0,0.02836 -0.04136,0.0516 -0.09192,0.0516 -0.05056,0 -0.125402,0.04658 -0.16638,0.103394 -0.04098,0.05682 -0.110794,0.1033 -0.154997,0.1033 -0.0443,0 -0.114114,0.04648 -0.155092,0.103394 -0.04098,0.05682 -0.110699,0.1033 -0.154997,0.1033 -0.0443,0 -0.114019,0.04648 -0.154997,0.103395 -0.04098,0.05682 -0.110699,0.103299 -0.154997,0.103299 -0.0443,0 -0.114019,0.04648 -0.154997,0.1033 -0.04098,0.05692 -0.105387,0.103395 -0.14314,0.103395 -0.03766,0 -0.229081,0.162775 -0.425246,0.361691 -0.19626,0.198916 -0.381896,0.361691 -0.41263,0.361691 -0.07171,0 -0.414147,0.341013 -0.414147,0.412535 0,0.02979 -0.173969,0.228227 -0.386734,0.440898 l -0.386639,0.386638 h -8.707436 c -5.770461,0 -8.7073979,0.01745 -8.7073979,0.0517 0,0.02846 -0.035904,0.0517 -0.079823,0.0517 -0.1033946,0 -0.3335376,0.230124 -0.3335376,0.333519 0,0.04392 -0.023259,0.07987 -0.051678,0.07987 -0.028723,0 -0.051669,0.137733 -0.051669,0.309994 0,0.172261 0.022946,0.309994 0.051669,0.309994 0.028419,0 0.051678,0.03595 0.051678,0.07987 0,0.103394 0.230143,0.333518 0.3335376,0.333518 0.043919,0 0.079823,0.02324 0.079823,0.0517 0,0.03415 2.7730229,0.0517 8.2157519,0.0517 5.442634,0 8.215696,0.01745 8.215696,0.0516 0,0.02846 -0.02333,0.0517 -0.0517,0.0517 -0.02846,0 -0.0517,0.04648 -0.0517,0.103299 0,0.05692 -0.02324,0.103395 -0.0517,0.103395 -0.02836,0 -0.0516,0.04648 -0.0516,0.1033 0,0.05691 -0.02324,0.103394 -0.0517,0.103394 -0.02846,0 -0.0517,0.04648 -0.0517,0.1033 0,0.05682 -0.02324,0.103394 -0.0516,0.103394 -0.02846,0 -0.0517,0.06972 -0.0517,0.154997 0,0.08528 -0.02324,0.154997 -0.0517,0.154997 -0.02846,0 -0.0517,0.04648 -0.0517,0.1033 0,0.05692 -0.02324,0.103395 -0.0516,0.103395 -0.02846,0 -0.0517,0.06972 -0.0517,0.154997 0,0.08528 -0.02324,0.154997 -0.0517,0.154997 -0.02836,0 -0.0517,0.06981 -0.0517,0.154997 0,0.08528 -0.02324,0.155092 -0.0516,0.155092 -0.02846,0 -0.0517,0.09296 -0.0517,0.206599 0,0.113734 -0.02324,0.206694 -0.0517,0.206694 -0.02836,0 -0.0516,0.09306 -0.0516,0.206695 0,0.113734 -0.02333,0.206694 -0.0517,0.206694 -0.02846,0 -0.0517,0.106335 -0.0517,0.236195 0,0.135836 -0.0314,0.267593 -0.0738,0.309994 -0.06337,0.06337 -1.159442,0.07389 -7.699007,0.07389 -5.048976,0 -7.6251699,0.01745 -7.6251699,0.0517 0,0.02836 -0.035904,0.0516 -0.079823,0.0516 -0.1033946,0 -0.3335376,0.230124 -0.3335376,0.333518 0,0.04392 -0.023259,0.07987 -0.051678,0.07987 -0.028723,0 -0.051669,0.137828 -0.051669,0.309994 0,0.172261 0.022946,0.310089 0.051669,0.310089 0.028419,0 0.051678,0.03586 0.051678,0.07978 0,0.103395 0.230143,0.333614 0.3335376,0.333614 0.043919,0 0.079823,0.02324 0.079823,0.0516 0,0.03424 2.5663289,0.0517 7.5956689,0.0517 h 7.595613 v 0.465085 c 0,0.275561 0.02106,0.464991 0.0517,0.464991 0.03017,0 0.0517,0.172262 0.0517,0.413389 0,0.241128 0.02153,0.413389 0.0516,0.413389 0.02846,0 0.0517,0.1162 0.0517,0.258296 0,0.142097 0.02324,0.258392 0.0517,0.258392 0.02836,0 0.0517,0.09296 0.0517,0.206694 0,0.11364 0.02324,0.206695 0.0516,0.206695 0.02846,0 0.0517,0.09296 0.0517,0.206694 0,0.113639 0.02324,0.206599 0.0517,0.206599 0.02836,0 0.0516,0.04657 0.0516,0.103395 0,0.102825 -0.03443,0.1033 -7.854004,0.1033 -5.201506,0 -7.8539659,0.01745 -7.8539659,0.0517 0,0.02846 -0.035904,0.0517 -0.079823,0.0517 -0.1033946,0 -0.3335376,0.230124 -0.3335376,0.333519 0,0.04392 -0.023259,0.07987 -0.051678,0.07987 -0.028723,0 -0.051669,0.137733 -0.051669,0.309994 0,0.172166 0.022946,0.309994 0.051669,0.309994 0.028419,0 0.051678,0.03595 0.051678,0.07987 0,0.103394 0.230143,0.333519 0.3335376,0.333519 0.043919,0 0.079823,0.02324 0.079823,0.0517 0,0.03415 2.7656249,0.0516 8.1935549,0.0516 8.720812,0 8.341192,-0.01043 8.341192,0.228891 0,0.04468 0.02324,0.0812 0.0517,0.0812 0.02836,0 0.0516,0.04648 0.0516,0.1033 0,0.05682 0.02333,0.103394 0.0517,0.103394 0.02846,0 0.0517,0.04136 0.0517,0.09192 0,0.05056 0.04648,0.125402 0.103299,0.16638 0.05692,0.04098 0.103395,0.110794 0.103395,0.154997 0,0.0443 0.04648,0.114114 0.1033,0.155092 0.05682,0.04098 0.103394,0.106525 0.103394,0.145701 0,0.03908 0.06972,0.13631 0.154997,0.21599 0.08528,0.07959 0.154997,0.171503 0.154997,0.204039 0,0.03263 0.162776,0.219784 0.361692,0.415949 0.198916,0.19626 0.361691,0.382181 0.361691,0.413294 0,0.07276 0.236574,0.310184 0.309045,0.310184 0.05502,0 0.517732,0.437482 0.517732,0.489464 0,0.01499 -4.278354,0.02722 -9.507464,0.02722 -6.303939,0 -9.5075199,0.01736 -9.5075199,0.0517 0,0.02836 -0.035904,0.0516 -0.079823,0.0516 -0.1033946,0 -0.3335376,0.230124 -0.3335376,0.333519 0,0.04392 -0.023259,0.07987 -0.051678,0.07987 -0.028723,0 -0.051669,0.137827 -0.051669,0.309994 0,0.172261 0.022946,0.310089 0.051669,0.310089 0.028419,0 0.051678,0.03586 0.051678,0.07978 0,0.103394 0.230143,0.333518 0.3335376,0.333518 0.043919,0 0.079823,0.02333 0.079823,0.0517 0,0.03424 3.4102759,0.0517 10.1275079,0.0517 6.717233,0 10.127547,-0.01745 10.127547,-0.0517 0,-0.02836 0.08366,-0.0517 0.186015,-0.0517 0.139915,0 0.221682,-0.03832 0.330673,-0.154997 0.141053,-0.150918 0.310089,-0.207263 0.310089,-0.103299 0,0.02836 0.04648,0.0517 0.1033,0.0517 0.05682,0 0.103395,0.02324 0.103395,0.0516 0,0.02846 0.04648,0.0517 0.103299,0.0517 0.05682,0 0.1033,0.02324 0.1033,0.0517 0,0.02836 0.04658,0.0516 0.103395,0.0516 0.05682,0 0.103299,0.02333 0.103299,0.0517 0,0.02846 0.04658,0.0517 0.103395,0.0517 0.05682,0 0.1033,0.02324 0.1033,0.0517 0,0.02836 0.06982,0.0516 0.154997,0.0516 0.08528,0 0.155092,0.02334 0.155092,0.0517 0,0.02846 0.06972,0.0517 0.154997,0.0517 0.08528,0 0.154997,0.02324 0.154997,0.0517 0,0.02836 0.06972,0.0516 0.154997,0.0516 0.08528,0 0.154997,0.02324 0.154997,0.0517 0,0.02846 0.09305,0.0517 0.206694,0.0517 0.113734,0 0.206694,0.02324 0.206694,0.0516 0,0.02846 0.09305,0.0517 0.206695,0.0517 0.113639,0 0.206694,0.02324 0.206694,0.0517 0,0.02846 0.116295,0.0517 0.258391,0.0517 0.142097,0 0.258297,0.02324 0.258297,0.0516 0,0.03017 0.172261,0.0517 0.413389,0.0517 0.241127,0 0.413388,0.02153 0.413388,0.0517 0,0.03235 0.327164,0.0517 0.87838,0.0517 h 0.87838 v 1.808457 c 0,1.171204 -0.01812,1.808456 -0.0516,1.808456 -0.02846,0 -0.0517,0.03595 -0.0517,0.07987 0,0.04392 -0.0571,0.136879 -0.126824,0.206695 -0.06981,0.06972 -0.162776,0.126824 -0.206695,0.126824 -0.04392,0 -0.07987,0.02324 -0.07987,0.0517 0,0.03434 -5.373767,0.0516 -16.018002,0.0516 -10.644263,0 -16.0180588,-0.01726 -16.0180588,-0.0516 0,-0.02846 -0.035913,-0.0517 -0.079832,-0.0517 -0.1033946,0 -0.3335377,-0.230124 -0.3335377,-0.333519 0,-0.04392 -0.023249,-0.07987 -0.051669,-0.07987 -0.034367,0 -0.051669,-7.302787 -0.051669,-21.805158 0,-14.50239 0.017302,-21.8052155 0.051669,-21.8052155 0.028419,0 0.051669,-0.035913 0.051669,-0.079832 0,-0.043919 0.057095,-0.1369267 0.1268529,-0.2066848 0.069758,-0.069758 0.1627658,-0.1268529 0.2066848,-0.1268529 0.043919,0 0.079832,-0.023249 0.079832,-0.051669 0,-0.03431 4.082018,-0.051669 12.1426588,-0.051669 h 12.142793 z m 4.366287,0.749127 c 1.463555,1.4634791 2.66094,2.6725886 2.66094,2.6868931 0,0.014267 -1.092853,0.025944 -2.42854,0.025944 -1.584593,0 -2.428539,-0.017985 -2.428539,-0.051669 0,-0.028419 -0.03595,-0.051678 -0.07987,-0.051678 -0.103395,0 -0.333519,-0.2301431 -0.333519,-0.3335282 0,-0.043928 -0.02324,-0.079832 -0.0517,-0.079832 -0.03367,0 -0.0516,-0.8439464 -0.0516,-2.428549 0,-1.3356967 0.01167,-2.4285395 0.0259,-2.4285395 0.01432,0 1.223471,1.1974326 2.686932,2.6609592 z M 11.082215,5.7099855 c 0,0.028419 -0.06982,0.051669 -0.154997,0.051669 -0.08528,0 -0.154998,0.023259 -0.154998,0.051678 0,0.028419 -0.06469,0.051669 -0.143614,0.051669 -0.08433,0 -0.174348,0.042676 -0.218172,0.1033377 -0.04098,0.056839 -0.104627,0.1033472 -0.141527,0.1033472 -0.0368,0 -0.217793,0.1507189 -0.4019106,0.3348751 -0.184213,0.1842131 -0.334941,0.3651157 -0.334941,0.4020057 0,0.036843 -0.04649,0.1005489 -0.103329,0.1415273 -0.06066,0.043767 -0.103337,0.1337774 -0.103337,0.2181056 0,0.07895 -0.02326,0.1435952 -0.05168,0.1435952 -0.02842,0 -0.05167,0.069749 -0.05167,0.1550065 0,0.085258 -0.02325,0.155016 -0.05167,0.155016 -0.03416,0 -0.05167,2.187393 -0.05167,6.4588982 v 6.458841 h -0.155016 c -0.08526,0 -0.155016,0.02324 -0.155016,0.0517 0,0.02846 -0.03591,0.0517 -0.07983,0.0517 -0.1033946,0 -0.3335376,0.230124 -0.3335376,0.333519 0,0.04392 -0.02325,0.07987 -0.051669,0.07987 -0.028732,0 -0.051669,0.137733 -0.051669,0.309994 0,0.172166 0.022937,0.309994 0.051669,0.309994 0.028419,0 0.051669,0.03595 0.051669,0.07987 0,0.103394 0.230143,0.333518 0.3335376,0.333518 0.04392,0 0.07983,0.02324 0.07983,0.0517 0,0.03424 3.1691856,0.0516 9.4041636,0.0516 6.234978,0 9.404069,-0.01736 9.404069,-0.0516 0,-0.02846 0.03595,-0.0517 0.07987,-0.0517 0.103395,0 0.333519,-0.230124 0.333519,-0.333518 0,-0.04392 0.02324,-0.07987 0.0517,-0.07987 0.02874,0 0.0517,-0.137828 0.0517,-0.309994 0,-0.172261 -0.02295,-0.309994 -0.0517,-0.309994 -0.02846,0 -0.0517,-0.03595 -0.0517,-0.07987 0,-0.103395 -0.230124,-0.333519 -0.333519,-0.333519 -0.04392,0 -0.07987,-0.02324 -0.07987,-0.0517 0,-0.02846 -0.06972,-0.0517 -0.154997,-0.0517 h -0.154997 v -2.325145 c 0,-1.515726 -0.01793,-2.325239 -0.0517,-2.325239 -0.02836,0 -0.0516,-0.06972 -0.0516,-0.154997 0,-0.08528 -0.02324,-0.154997 -0.0517,-0.154997 -0.02846,0 -0.0517,-0.06469 -0.0517,-0.143614 0,-0.08433 -0.04269,-0.174348 -0.1033,-0.218078 -0.05682,-0.04098 -0.103394,-0.104722 -0.103394,-0.141527 0,-0.08736 -0.649489,-0.736947 -0.736853,-0.736947 -0.03681,0 -0.100549,-0.04648 -0.141527,-0.1033 -0.04373,-0.06061 -0.133749,-0.1033 -0.218077,-0.1033 -0.07902,0 -0.143614,-0.02333 -0.143614,-0.0517 0,-0.02846 -0.06972,-0.0517 -0.154997,-0.0517 -0.08528,0 -0.154997,-0.02324 -0.154997,-0.0517 0,-0.03092 -0.206695,-0.0516 -0.516784,-0.0516 -0.309994,0 -0.516688,0.02068 -0.516688,0.0516 0,0.02846 -0.06972,0.0517 -0.154997,0.0517 -0.08528,0 -0.154997,0.02324 -0.154997,0.0517 0,0.02836 -0.06469,0.0517 -0.143614,0.0517 -0.08433,0 -0.174348,0.04269 -0.218077,0.1033 -0.04098,0.05682 -0.104723,0.1033 -0.141528,0.1033 -0.08736,0 -0.736947,0.649583 -0.736947,0.736947 0,0.0368 -0.04648,0.100549 -0.1033,0.141527 -0.06071,0.04373 -0.103299,0.133749 -0.103299,0.218078 0,0.07892 -0.02333,0.143614 -0.0517,0.143614 -0.02846,0 -0.0517,0.06972 -0.0517,0.154997 0,0.08528 -0.02324,0.154997 -0.0517,0.154997 -0.03367,0 -0.0516,0.809513 -0.0516,2.325239 v 2.325145 h -0.826777 -0.826777 v -4.391993 c 0,-2.893625 -0.01755,-4.392088 -0.0516,-4.392088 -0.02846,0 -0.0517,-0.06972 -0.0517,-0.154997 0,-0.08528 -0.02324,-0.154997 -0.0517,-0.154997 -0.02836,0 -0.0516,-0.06469 -0.0516,-0.143614 0,-0.08433 -0.04269,-0.174348 -0.103395,-0.218077 -0.05682,-0.04098 -0.1033,-0.104694 -0.1033,-0.141537 0,-0.08737 -0.649488,-0.736881 -0.736947,-0.736881 -0.03681,0 -0.100549,-0.04651 -0.141527,-0.103347 -0.04373,-0.06066 -0.133749,-0.1033376 -0.218077,-0.1033376 -0.07892,0 -0.143615,-0.02325 -0.143615,-0.051669 0,-0.028419 -0.06972,-0.051678 -0.154997,-0.051678 -0.08528,0 -0.154997,-0.02325 -0.154997,-0.051669 0,-0.030999 -0.206694,-0.051669 -0.516688,-0.051669 -0.310089,0 -0.516783,0.020669 -0.516783,0.051669 0,0.028419 -0.06972,0.051669 -0.154997,0.051669 -0.08518,0 -0.154997,0.023259 -0.154997,0.051678 0,0.028419 -0.0646,0.051669 -0.143614,0.051669 -0.08433,0 -0.174348,0.042676 -0.218078,0.1033376 -0.04098,0.05684 -0.104722,0.103347 -0.141527,0.103347 -0.08736,0 -0.736852,0.649508 -0.736852,0.736881 0,0.03684 -0.04648,0.100559 -0.103395,0.141537 -0.06061,0.04373 -0.103299,0.133749 -0.103299,0.218077 0,0.07892 -0.02324,0.143614 -0.0517,0.143614 -0.02836,0 -0.0517,0.06972 -0.0517,0.154997 0,0.08528 -0.02324,0.154997 -0.0516,0.154997 -0.03405,0 -0.0517,1.498463 -0.0517,4.392088 v 4.391993 H 14.905822 14.07914 v -6.458841 c 0,-4.2715052 -0.01755,-6.4588982 -0.0517,-6.4588982 -0.02836,0 -0.0517,-0.069758 -0.0517,-0.155016 0,-0.085258 -0.02324,-0.1550065 -0.0516,-0.1550065 -0.02846,0 -0.0517,-0.064645 -0.0517,-0.1435952 0,-0.084328 -0.04269,-0.1743384 -0.103394,-0.2181056 -0.05682,-0.040978 -0.1033,-0.1046847 -0.1033,-0.1415273 0,-0.087373 -0.649489,-0.7368808 -0.736852,-0.7368808 -0.0369,0 -0.100549,-0.046509 -0.141528,-0.1033472 -0.04382,-0.060661 -0.133843,-0.1033377 -0.218172,-0.1033377 -0.07892,0 -0.143519,-0.02325 -0.143519,-0.051669 0,-0.028419 -0.06982,-0.051678 -0.154997,-0.051678 -0.08528,0 -0.155092,-0.02325 -0.155092,-0.051669 0,-0.031 -0.206694,-0.051669 -0.516688,-0.051669 -0.309994,0 -0.516688,0.020669 -0.516688,0.051669 z m 0.826682,1.6534785 c 0,0.028419 0.03595,0.051669 0.07987,0.051669 0.103394,0 0.333518,0.2301431 0.333518,0.3335377 0,0.043919 0.02324,0.079832 0.0517,0.079832 0.03415,0 0.0517,2.1529787 0.0517,6.3555133 v 6.355541 h -0.826777 -0.826683 v -6.355541 c 0,-4.2025346 0.01745,-6.3555133 0.0516,-6.3555133 0.02846,0 0.0517,-0.035913 0.0517,-0.079832 0,-0.1033946 0.230124,-0.3335377 0.333519,-0.3335377 0.04392,0 0.07987,-0.02325 0.07987,-0.051669 0,-0.028732 0.137828,-0.051669 0.309994,-0.051669 0.172261,0 0.309994,0.022937 0.309994,0.051669 z m 6.613933,4.133716 c 0,0.02836 0.03595,0.0516 0.07987,0.0516 0.103395,0 0.333519,0.230219 0.333519,0.333614 0,0.04392 0.02324,0.07977 0.0517,0.07977 0.03405,0 0.0516,1.464029 0.0516,4.288693 V 20.53955 H 18.212837 17.38606 v -4.288693 c 0,-2.824664 0.01764,-4.288693 0.0517,-4.288693 0.02836,0 0.0517,-0.03586 0.0517,-0.07977 0,-0.103395 0.230124,-0.333614 0.333519,-0.333614 0.04392,0 0.07978,-0.02324 0.07978,-0.0516 0,-0.02874 0.137828,-0.0517 0.310089,-0.0517 0.172166,0 0.309994,0.02296 0.309994,0.0517 z m 6.613933,4.133696 c 0,0.02836 0.03586,0.0516 0.07977,0.0516 0.103395,0 0.333519,0.230124 0.333519,0.333519 0,0.04392 0.02333,0.07987 0.0517,0.07987 0.03368,0 0.0517,0.77508 0.0517,2.221845 v 2.221845 H 24.826674 23.999992 V 18.31771 c 0,-1.446765 0.01802,-2.221845 0.0517,-2.221845 0.02836,0 0.0516,-0.03595 0.0516,-0.07987 0,-0.103395 0.230124,-0.333519 0.333518,-0.333519 0.04392,0 0.07987,-0.02324 0.07987,-0.0516 0,-0.02874 0.137828,-0.0517 0.309994,-0.0517 0.172261,0 0.310089,0.02295 0.310089,0.0517 z m 16.431391,10.334146 c 0,0.02846 -0.04648,0.0517 -0.103394,0.0517 -0.05682,0 -0.1033,0.02324 -0.1033,0.0517 0,0.02836 -0.03652,0.0516 -0.0812,0.0516 -0.04468,0 -0.114398,0.03329 -0.154997,0.07389 -0.0406,0.0405 -0.0738,0.110319 -0.0738,0.154997 0,0.04468 -0.02333,0.0812 -0.0517,0.0812 -0.0295,0 -0.0517,0.154997 -0.0517,0.361691 0,0.206695 0.0222,0.361692 0.0517,0.361692 0.02836,0 0.0517,0.04136 0.0517,0.09192 0,0.05056 0.04648,0.125497 0.1033,0.166475 0.05682,0.04098 0.103299,0.110699 0.103299,0.154997 0,0.0443 0.04657,0.114019 0.103395,0.154997 0.05682,0.04098 0.1033,0.105292 0.1033,0.14295 0,0.09429 0.23591,0.322041 0.333613,0.322041 0.04392,0 0.07978,0.02333 0.07978,0.0517 0,0.02874 0.137828,0.0517 0.310089,0.0517 0.172166,0 0.309994,-0.02296 0.309994,-0.0517 0,-0.02836 0.03586,-0.0517 0.07977,-0.0517 0.103395,0 0.333614,-0.230124 0.333614,-0.333518 0,-0.04392 0.02324,-0.07978 0.0516,-0.07978 0.02874,0 0.0517,-0.137827 0.0517,-0.310088 0,-0.172167 -0.02295,-0.309994 -0.0517,-0.309994 -0.02836,0 -0.0516,-0.04648 -0.0516,-0.103395 0,-0.05682 -0.02324,-0.1033 -0.0517,-0.1033 -0.02846,0 -0.0517,-0.03718 -0.0517,-0.08262 0,-0.04544 -0.06972,-0.147787 -0.154997,-0.227373 -0.08528,-0.07968 -0.154997,-0.171123 -0.154997,-0.203374 0,-0.113639 -0.355715,-0.416709 -0.48918,-0.416709 -0.072,0 -0.130903,-0.02324 -0.130903,-0.0517 0,-0.02836 -0.06972,-0.0516 -0.154997,-0.0516 -0.08528,0 -0.154997,0.02324 -0.154997,0.0516 z m -4.895876,1.785501 c -0.14921,0.153669 -0.271292,0.305346 -0.271292,0.337123 0,0.03178 -0.06972,0.122936 -0.154997,0.202616 -0.08528,0.07958 -0.154997,0.176814 -0.154997,0.21599 0,0.03918 -0.04648,0.104723 -0.103299,0.145701 -0.05691,0.04098 -0.103395,0.106525 -0.103395,0.145701 0,0.03908 -0.06972,0.136405 -0.154997,0.21599 -0.08528,0.07959 -0.154997,0.17691 -0.154997,0.215991 0,0.03918 -0.04648,0.104722 -0.103395,0.145701 -0.05682,0.04098 -0.103299,0.106525 -0.103299,0.145701 0,0.03918 -0.06972,0.136405 -0.154997,0.21599 -0.08528,0.07968 -0.154997,0.172641 -0.154997,0.206694 0,0.03405 -0.06982,0.127109 -0.155092,0.206695 -0.08518,0.07958 -0.154997,0.176909 -0.154997,0.21599 0,0.03918 -0.04648,0.104723 -0.1033,0.145701 -0.05682,0.04098 -0.103395,0.106525 -0.103395,0.145701 0,0.03908 -0.06972,0.136405 -0.154997,0.21599 -0.08528,0.07959 -0.154997,0.176909 -0.154997,0.215991 0,0.03918 -0.04648,0.104722 -0.103299,0.145701 -0.05691,0.04098 -0.103395,0.106525 -0.103395,0.145701 0,0.03918 -0.06972,0.136405 -0.154997,0.21599 -0.08528,0.07968 -0.154997,0.17264 -0.154997,0.206694 0,0.03405 -0.06982,0.127109 -0.154997,0.206695 -0.08528,0.07959 -0.154997,0.176909 -0.154997,0.21599 0,0.03918 -0.04657,0.104723 -0.103395,0.145701 -0.05682,0.04098 -0.103299,0.106525 -0.103299,0.145701 0,0.03918 -0.06981,0.136405 -0.155092,0.21599 -0.08518,0.07968 -0.154997,0.176909 -0.154997,0.215991 0,0.03918 -0.04648,0.104722 -0.1033,0.145701 -0.05682,0.04098 -0.103394,0.106524 -0.103394,0.145701 0,0.03918 -0.06972,0.136405 -0.154997,0.21599 -0.08528,0.07968 -0.154998,0.17264 -0.154998,0.206694 0,0.03405 -0.06972,0.127109 -0.154997,0.206694 -0.08528,0.07959 -0.154997,0.17691 -0.154997,0.215991 0,0.03918 -0.04657,0.104722 -0.103394,0.145701 -0.05682,0.04098 -0.1033,0.106525 -0.1033,0.145701 0,0.03918 -0.06981,0.136405 -0.154997,0.21599 -0.08528,0.07968 -0.155092,0.176909 -0.155092,0.21599 0,0.03918 -0.04648,0.104723 -0.103299,0.145701 -0.05682,0.04098 -0.1033,0.106525 -0.1033,0.145701 0,0.03918 -0.06981,0.136405 -0.155092,0.215991 -0.08518,0.07968 -0.154997,0.17264 -0.154997,0.206694 0,0.03405 -0.06972,0.127109 -0.154997,0.206694 -0.08528,0.07959 -0.154997,0.176909 -0.154997,0.215991 0,0.03918 -0.04648,0.104722 -0.103395,0.145701 -0.05682,0.04098 -0.103299,0.106525 -0.103299,0.145701 0,0.03918 -0.06972,0.136405 -0.154997,0.21599 -0.08528,0.07968 -0.154997,0.176909 -0.154997,0.21599 0,0.03918 -0.04658,0.104723 -0.103395,0.145701 -0.05682,0.04098 -0.1033,0.110794 -0.1033,0.154997 0,0.0443 -0.04658,0.114114 -0.103394,0.155092 -0.05682,0.04098 -0.1033,0.115821 -0.1033,0.16638 0,0.05056 -0.02324,0.09192 -0.0517,0.09192 -0.02836,0 -0.0517,0.116295 -0.0517,0.258392 0,0.142096 0.02334,0.258296 0.0517,0.258296 0.02846,0 0.0517,0.03595 0.0517,0.07987 0,0.103395 0.230124,0.333519 0.333519,0.333519 0.04392,0 0.07987,0.02324 0.07987,0.0517 0,0.02922 0.146839,0.0517 0.337218,0.0517 0.330483,0 0.341771,-0.0046 0.56829,-0.231167 0.127204,-0.127109 0.231263,-0.256874 0.231263,-0.288272 0,-0.0314 0.09296,-0.14646 0.206599,-0.25564 0.113734,-0.109276 0.206695,-0.230125 0.206695,-0.268732 0,-0.03861 0.04657,-0.103679 0.103394,-0.144657 0.05682,-0.04098 0.1033,-0.106525 0.1033,-0.145701 0,-0.03908 0.06981,-0.136405 0.154997,-0.21599 0.08528,-0.07959 0.155092,-0.176909 0.155092,-0.215991 0,-0.03918 0.04648,-0.104722 0.103299,-0.145701 0.05682,-0.04098 0.1033,-0.106525 0.1033,-0.145701 0,-0.03918 0.06981,-0.136405 0.155092,-0.21599 0.08518,-0.07968 0.154997,-0.172641 0.154997,-0.206694 0,-0.03405 0.06972,-0.127109 0.154997,-0.206695 0.08528,-0.07958 0.154997,-0.176909 0.154997,-0.21599 0,-0.03918 0.04648,-0.104723 0.103395,-0.145701 0.05682,-0.04098 0.103299,-0.106525 0.103299,-0.145701 0,-0.03908 0.06972,-0.136405 0.154997,-0.21599 0.08528,-0.07959 0.154997,-0.176909 0.154997,-0.215991 0,-0.03918 0.04658,-0.104722 0.103395,-0.145701 0.05682,-0.04098 0.1033,-0.106524 0.1033,-0.145701 0,-0.03918 0.06981,-0.136405 0.154997,-0.21599 0.08528,-0.07968 0.155092,-0.176909 0.155092,-0.21599 0,-0.03918 0.04648,-0.104723 0.103299,-0.145701 0.05682,-0.04098 0.103395,-0.106525 0.103395,-0.145701 0,-0.03918 0.06972,-0.136405 0.154997,-0.215991 0.08528,-0.07968 0.154997,-0.17264 0.154997,-0.206694 0,-0.03405 0.06972,-0.127109 0.154997,-0.206694 0.08528,-0.07968 0.154997,-0.176909 0.154997,-0.21599 0,-0.03918 0.04648,-0.104723 0.103395,-0.145701 0.05682,-0.04098 0.103299,-0.106525 0.103299,-0.145701 0,-0.03918 0.06972,-0.136405 0.154997,-0.215991 0.08528,-0.07968 0.154997,-0.176909 0.154997,-0.21599 0,-0.03918 0.04658,-0.104723 0.103395,-0.145701 0.05682,-0.04098 0.1033,-0.10662 0.1033,-0.145701 0,-0.03918 0.06981,-0.136405 0.155092,-0.21599 0.08518,-0.07968 0.154997,-0.17691 0.154997,-0.215991 0,-0.03918 0.04648,-0.104722 0.103299,-0.145701 0.05682,-0.04098 0.103395,-0.106619 0.103395,-0.145796 0,-0.03908 0.06972,-0.13631 0.154997,-0.21599 0.08528,-0.07959 0.154997,-0.172546 0.154997,-0.206599 0,-0.03405 0.06972,-0.127109 0.154997,-0.206695 0.08528,-0.07968 0.154997,-0.176909 0.154997,-0.21599 0,-0.03918 0.04658,-0.104723 0.103394,-0.145701 0.05682,-0.04098 0.1033,-0.10662 0.1033,-0.145701 0,-0.03918 0.06981,-0.136405 0.154997,-0.21599 0.08528,-0.07968 0.154997,-0.176909 0.154997,-0.215991 0,-0.03918 0.04657,-0.104817 0.103395,-0.145701 0.05682,-0.04098 0.1033,-0.106619 0.1033,-0.145795 0,-0.03908 0.06981,-0.136311 0.155091,-0.215991 0.08518,-0.07958 0.154997,-0.176814 0.154997,-0.21599 0,-0.03908 0.04648,-0.104723 0.1033,-0.145701 0.07124,-0.05132 0.103395,-0.133749 0.103395,-0.265411 0,-0.105007 0.02903,-0.204513 0.0646,-0.221113 0.0516,-0.02409 0.0516,-0.03623 0,-0.06023 -0.03557,-0.0166 -0.0646,-0.08699 -0.0646,-0.15642 0,-0.08063 -0.08357,-0.209825 -0.231168,-0.357423 -0.226045,-0.226045 -0.238376,-0.231073 -0.555485,-0.227278 -0.3228,0.0038 -0.325645,0.0052 -0.59561,0.283149 z M 29.27046,27.618482 c 0,0.02846 -0.06981,0.0517 -0.155092,0.0517 -0.08518,0 -0.154997,0.02324 -0.154997,0.0517 0,0.02846 -0.04648,0.0517 -0.1033,0.0517 -0.05682,0 -0.103395,0.02324 -0.103395,0.0516 0,0.02846 -0.04648,0.0517 -0.103299,0.0517 -0.05682,0 -0.103395,0.02324 -0.103395,0.0517 0,0.02836 -0.03538,0.0517 -0.07864,0.0517 -0.102256,0 -0.644746,0.542394 -0.644746,0.644746 0,0.04326 -0.02324,0.07864 -0.0516,0.07864 -0.02846,0 -0.0517,0.04648 -0.0517,0.1033 0,0.05682 -0.02324,0.103395 -0.0517,0.103395 -0.02836,0 -0.0517,0.04648 -0.0517,0.103299 0,0.05682 -0.02324,0.1033 -0.0516,0.1033 -0.02846,0 -0.0517,0.09306 -0.0517,0.206694 0,0.113735 -0.02324,0.206695 -0.0517,0.206695 -0.03064,0 -0.0516,0.189525 -0.0516,0.465086 0,0.27556 0.02096,0.464991 0.0516,0.464991 0.02846,0 0.0517,0.09305 0.0517,0.206694 0,0.113734 0.02324,0.206694 0.0517,0.206694 0.02836,0 0.0516,0.0646 0.0516,0.143614 0,0.08433 0.04269,0.174348 0.103395,0.218078 0.05682,0.04098 0.103299,0.110698 0.103299,0.154997 0,0.0443 0.04658,0.114018 0.103395,0.154997 0.05682,0.04098 0.1033,0.105386 0.1033,0.14295 0,0.08869 0.233444,0.322136 0.322136,0.322136 0.03766,0 0.101971,0.04648 0.14295,0.103299 0.04098,0.05692 0.115821,0.103395 0.16638,0.103395 0.05056,0 0.09192,0.02324 0.09192,0.0517 0,0.02836 0.04657,0.0516 0.103395,0.0516 0.05682,0 0.1033,0.02324 0.1033,0.0517 0,0.02846 0.06981,0.0517 0.154997,0.0517 0.08528,0 0.155092,0.02324 0.155092,0.0516 0,0.03102 0.206599,0.0517 0.516688,0.0517 0.309994,0 0.516688,-0.02068 0.516688,-0.0517 0,-0.02836 0.09305,-0.0516 0.206695,-0.0516 0.113639,0 0.206694,-0.02324 0.206694,-0.0517 0,-0.02846 0.04648,-0.0517 0.1033,-0.0517 0.05691,0 0.103394,-0.02324 0.103394,-0.0516 0,-0.02846 0.04648,-0.0517 0.1033,-0.0517 0.05682,0 0.103395,-0.02324 0.103395,-0.0517 0,-0.02836 0.03529,-0.0517 0.07845,-0.0517 0.102161,0 0.748235,-0.646074 0.748235,-0.748235 0,-0.04316 0.02324,-0.07845 0.0517,-0.07845 0.02846,0 0.0517,-0.04648 0.0517,-0.103395 0,-0.05682 0.02324,-0.103299 0.0516,-0.103299 0.02846,0 0.0517,-0.04648 0.0517,-0.103395 0,-0.05682 0.02324,-0.1033 0.0517,-0.1033 0.02836,0 0.0517,-0.09296 0.0517,-0.206694 0,-0.113639 0.02324,-0.206694 0.0516,-0.206694 0.03017,0 0.0517,-0.172166 0.0517,-0.413389 0,-0.241127 -0.02153,-0.413294 -0.0517,-0.413294 -0.02836,0 -0.0516,-0.09305 -0.0516,-0.206694 0,-0.113734 -0.02333,-0.206694 -0.0517,-0.206694 -0.02846,0 -0.0517,-0.06469 -0.0517,-0.143614 0,-0.08433 -0.04269,-0.174348 -0.1033,-0.218078 -0.05691,-0.04098 -0.103394,-0.104627 -0.103394,-0.141432 0,-0.094 -0.756488,-0.840342 -0.851725,-0.840342 -0.04306,0 -0.07835,-0.02324 -0.07835,-0.0517 0,-0.02836 -0.04648,-0.0516 -0.1033,-0.0516 -0.05682,0 -0.103394,-0.02324 -0.103394,-0.0517 0,-0.02846 -0.09296,-0.0517 -0.206695,-0.0517 -0.113639,0 -0.206599,-0.02324 -0.206599,-0.0517 0,-0.0313 -0.223958,-0.0516 -0.568386,-0.0516 -0.344522,0 -0.568385,0.0203 -0.568385,0.0516 z m 0.930077,1.653554 c 0,0.02836 0.03586,0.0516 0.07978,0.0516 0.04392,0 0.136974,0.0571 0.206694,0.12692 0.06981,0.06972 0.126824,0.162775 0.126824,0.206694 0,0.04392 0.02333,0.07977 0.0517,0.07977 0.02874,0 0.0517,0.137828 0.0517,0.309994 0,0.172261 -0.02296,0.310089 -0.0517,0.310089 -0.02836,0 -0.0517,0.03586 -0.0517,0.07977 0,0.04392 -0.05701,0.136974 -0.126824,0.206694 -0.06972,0.06981 -0.162775,0.12692 -0.206694,0.12692 -0.04392,0 -0.07978,0.02324 -0.07978,0.0516 0,0.02846 -0.116296,0.0517 -0.258392,0.0517 -0.142096,0 -0.258392,-0.02324 -0.258392,-0.0517 0,-0.02836 -0.04648,-0.0516 -0.103299,-0.0516 -0.05682,0 -0.103395,-0.02333 -0.103395,-0.0517 0,-0.02846 -0.04648,-0.0517 -0.1033,-0.0517 -0.06887,0 -0.103299,-0.03443 -0.103299,-0.1033 0,-0.05682 -0.02333,-0.103394 -0.0517,-0.103394 -0.02846,0 -0.0517,-0.04648 -0.0517,-0.1033 0,-0.05682 -0.02324,-0.103395 -0.0517,-0.103395 -0.02836,0 -0.0516,-0.1162 -0.0516,-0.258296 0,-0.142097 0.02324,-0.258392 0.0516,-0.258392 0.02846,0 0.0517,-0.03586 0.0517,-0.07977 0,-0.04392 0.0571,-0.136974 0.126824,-0.206694 0.06982,-0.06981 0.162776,-0.12692 0.206695,-0.12692 0.04392,0 0.07987,-0.02324 0.07987,-0.0516 0,-0.02874 0.137827,-0.0517 0.309994,-0.0517 0.172261,0 0.310089,0.02295 0.310089,0.0517 z m 7.233921,4.133696 c 0,0.02836 -0.06972,0.0516 -0.154997,0.0516 -0.08528,0 -0.154997,0.02324 -0.154997,0.0517 0,0.02846 -0.06469,0.0517 -0.143614,0.0517 -0.08433,0 -0.174348,0.04269 -0.218078,0.1033 -0.04098,0.05682 -0.104722,0.103395 -0.141527,0.103395 -0.0369,0 -0.217792,0.150728 -0.402006,0.334846 -0.184213,0.184214 -0.334941,0.365107 -0.334941,0.402006 0,0.0368 -0.04648,0.100549 -0.1033,0.141527 -0.06071,0.04373 -0.103394,0.133749 -0.103394,0.218078 0,0.07892 -0.02324,0.143614 -0.0516,0.143614 -0.02846,0 -0.0517,0.06972 -0.0517,0.154997 0,0.08528 -0.02324,0.154997 -0.0517,0.154997 -0.03102,0 -0.0517,0.206694 -0.0517,0.516783 0,0.309994 0.02068,0.516688 0.0517,0.516688 0.02846,0 0.0517,0.06972 0.0517,0.154997 0,0.08528 0.02324,0.154997 0.0517,0.154997 0.02836,0 0.0516,0.06972 0.0516,0.154997 0,0.08528 0.02324,0.154997 0.0517,0.154997 0.02846,0 0.0517,0.03519 0.0517,0.07826 0,0.101971 0.853148,0.955214 0.955214,0.955214 0.04297,0 0.07816,0.02324 0.07816,0.0517 0,0.02836 0.06982,0.0516 0.154997,0.0516 0.08528,0 0.155092,0.02334 0.155092,0.0517 0,0.02846 0.06972,0.0517 0.154997,0.0517 0.08528,0 0.154997,0.02324 0.154997,0.0517 0,0.03092 0.206694,0.0516 0.516688,0.0516 0.310089,0 0.516688,-0.02068 0.516688,-0.0516 0,-0.02846 0.06982,-0.0517 0.155092,-0.0517 0.08518,0 0.154997,-0.02324 0.154997,-0.0517 0,-0.02836 0.0646,-0.0517 0.143614,-0.0517 0.08433,0 0.174254,-0.04269 0.218078,-0.1033 0.04098,-0.05682 0.104627,-0.103395 0.141527,-0.103395 0.08736,0 0.736852,-0.649488 0.736852,-0.736852 0,-0.03681 0.04648,-0.100549 0.103395,-0.141527 0.06061,-0.04373 0.1033,-0.133749 0.1033,-0.218078 0,-0.07892 0.02324,-0.143614 0.0517,-0.143614 0.02836,0 0.0516,-0.06972 0.0516,-0.154997 0,-0.08528 0.02334,-0.154997 0.0517,-0.154997 0.03102,0 0.0517,-0.206694 0.0517,-0.516688 0,-0.310089 -0.02068,-0.516783 -0.0517,-0.516783 -0.02836,0 -0.0517,-0.06972 -0.0517,-0.154997 0,-0.08528 -0.02324,-0.154997 -0.0516,-0.154997 -0.02846,0 -0.0517,-0.06469 -0.0517,-0.143614 0,-0.08433 -0.04269,-0.174348 -0.1033,-0.218078 -0.05691,-0.04098 -0.103395,-0.104722 -0.103395,-0.141527 0,-0.08736 -0.649488,-0.736852 -0.736852,-0.736852 -0.0369,0 -0.100549,-0.04657 -0.141527,-0.103395 -0.04382,-0.06061 -0.133749,-0.1033 -0.218078,-0.1033 -0.07902,0 -0.143614,-0.02324 -0.143614,-0.0517 0,-0.02846 -0.06981,-0.0517 -0.154997,-0.0517 -0.08528,0 -0.155092,-0.02324 -0.155092,-0.0516 0,-0.03102 -0.206599,-0.0517 -0.516688,-0.0517 -0.309994,0 -0.516688,0.02068 -0.516688,0.0517 z m 0.620083,1.65346 c 0,0.02836 0.05891,0.0516 0.130808,0.0516 0.174633,0 0.48918,0.314643 0.48918,0.48918 0,0.072 0.02324,0.130903 0.0517,0.130903 0.02846,0 0.0517,0.06972 0.0517,0.154997 0,0.08528 -0.02324,0.154997 -0.0517,0.154997 -0.02846,0 -0.0517,0.05919 -0.0517,0.131568 0,0.07228 -0.0571,0.188576 -0.126825,0.258296 -0.06972,0.06982 -0.186015,0.12692 -0.258391,0.12692 -0.07228,0 -0.131473,0.02324 -0.131473,0.0516 0,0.02846 -0.09296,0.0517 -0.206694,0.0517 -0.113639,0 -0.206694,-0.02324 -0.206694,-0.0517 0,-0.02836 -0.04648,-0.0516 -0.1033,-0.0516 -0.05682,0 -0.103394,-0.02324 -0.103394,-0.0517 0,-0.02846 -0.04648,-0.0517 -0.1033,-0.0517 -0.06887,0 -0.103395,-0.03443 -0.103395,-0.1033 0,-0.05682 -0.02324,-0.103394 -0.0516,-0.103394 -0.02846,0 -0.0517,-0.04648 -0.0517,-0.1033 0,-0.05682 -0.02324,-0.103395 -0.0517,-0.103395 -0.02836,0 -0.0516,-0.1162 -0.0516,-0.258296 0,-0.142097 0.02324,-0.258392 0.0516,-0.258392 0.02846,0 0.0517,-0.03652 0.0517,-0.0812 0,-0.04468 0.0332,-0.114398 0.0738,-0.154997 0.0406,-0.0406 0.110319,-0.0738 0.155091,-0.0738 0.04458,0 0.0811,-0.02324 0.0811,-0.0517 0,-0.02836 0.04657,-0.0517 0.103394,-0.0517 0.05682,0 0.1033,-0.02324 0.1033,-0.0516 0,-0.02846 0.06981,-0.0517 0.154997,-0.0517 0.08528,0 0.155092,0.02324 0.155092,0.0517 z m 6.071443,7.20793 c 1.150905,1.150905 2.092555,2.127462 2.092555,2.170148 0,0.04278 0.02324,0.07769 0.0517,0.07769 0.02836,0 0.0516,0.09306 0.0516,0.206695 0,0.113639 -0.02324,0.206694 -0.0516,0.206694 -0.02846,0 -0.0517,0.04648 -0.0517,0.1033 0,0.05691 -0.02324,0.103394 -0.0517,0.103394 -0.02836,0 -0.0516,0.03652 -0.0516,0.0812 0,0.104343 -0.124453,0.228796 -0.228891,0.228796 -0.04468,0 -0.0812,0.02324 -0.0812,0.0517 0,0.02874 -0.137828,0.0517 -0.309994,0.0517 -0.172261,0 -0.310089,-0.02296 -0.310089,-0.0517 0,-0.02846 -0.03491,-0.0517 -0.07759,-0.0517 -0.04278,0 -1.019527,-0.941839 -2.170527,-2.092839 l -2.092934,-2.092934 0.529968,-0.538221 c 0.291497,-0.29605 0.559185,-0.540118 0.594756,-0.542394 0.03557,-0.0022 1.006437,0.93757 2.157247,2.088475 z"
     fill="#eaae13"
     id="path2"
     style="stroke-width:0.948574" />
</svg>
