<?xml version="1.0" encoding="UTF-8" standalone="no"?>
<svg
   xmlns:dc="http://purl.org/dc/elements/1.1/"
   xmlns:cc="http://creativecommons.org/ns#"
   xmlns:rdf="http://www.w3.org/1999/02/22-rdf-syntax-ns#"
   xmlns:svg="http://www.w3.org/2000/svg"
   xmlns="http://www.w3.org/2000/svg"
   xmlns:sodipodi="http://sodipodi.sourceforge.net/DTD/sodipodi-0.dtd"
   xmlns:inkscape="http://www.inkscape.org/namespaces/inkscape"
   width="48"
   height="51"
   viewBox="0 0 48 51"
   fill="none"
   version="1.1"
   id="svg4"
   sodipodi:docname="image 10 (Traced).svg"
   inkscape:version="1.0.1 (1.0.1+r73)">
  <metadata
     id="metadata10">
    <rdf:RDF>
      <cc:Work
         rdf:about="">
        <dc:format>image/svg+xml</dc:format>
        <dc:type
           rdf:resource="http://purl.org/dc/dcmitype/StillImage" />
        <dc:title></dc:title>
      </cc:Work>
    </rdf:RDF>
  </metadata>
  <defs
     id="defs8" />
  <sodipodi:namedview
     pagecolor="#ffffff"
     bordercolor="#666666"
     borderopacity="1"
     objecttolerance="10"
     gridtolerance="10"
     guidetolerance="10"
     inkscape:pageopacity="0"
     inkscape:pageshadow="2"
     inkscape:window-width="1366"
     inkscape:window-height="705"
     id="namedview6"
     showgrid="false"
     inkscape:zoom="6.14"
     inkscape:cx="35"
     inkscape:cy="25"
     inkscape:window-x="0"
     inkscape:window-y="30"
     inkscape:window-maximized="1"
     inkscape:current-layer="svg4" />
  <path
     fill-rule="evenodd"
     clip-rule="evenodd"
     d="m 30.594537,9.0465614 c 0,0.018135 -0.07418,0.032973 -0.164814,0.032973 -0.09071,0 -0.164881,0.014837 -0.164881,0.032973 0,0.018136 -0.04452,0.032973 -0.0989,0.032973 -0.05445,0 -0.09897,0.014838 -0.09897,0.032973 0,0.018135 -0.02966,0.032973 -0.06592,0.032973 -0.03625,0 -0.06598,0.014838 -0.06598,0.032973 0,0.018135 -0.02965,0.032973 -0.06592,0.032973 -0.03625,0 -0.06598,0.014837 -0.06598,0.032972 0,0.018136 -0.0264,0.032973 -0.05865,0.032973 -0.03226,0 -0.08004,0.029676 -0.106166,0.065945 -0.02619,0.03627 -0.06684,0.065945 -0.09044,0.065945 -0.05591,0 -0.404205,0.3482912 -0.404205,0.4041801 0,0.023573 -0.02965,0.064266 -0.06592,0.090411 -0.03625,0.026145 -0.06598,0.070657 -0.06598,0.098915 0,0.02826 -0.02965,0.07278 -0.06592,0.09892 -0.03872,0.02792 -0.06598,0.08537 -0.06598,0.139176 0,0.05038 -0.01479,0.09163 -0.03292,0.09163 -0.01813,0 -0.03299,0.02968 -0.03299,0.06595 0,0.03627 -0.01486,0.06595 -0.03299,0.06595 -0.01813,0 -0.03299,0.07419 -0.03299,0.164868 0,0.09067 -0.0148,0.164861 -0.03292,0.164861 -0.01999,0 -0.03299,0.142868 -0.03299,0.362698 0,0.21983 0.013,0.362704 0.03299,0.362704 0.01813,0 0.03292,0.05935 0.03292,0.131892 0,0.07254 0.01486,0.131884 0.03299,0.131884 0.01813,0 0.03299,0.04452 0.03299,0.09892 0,0.0544 0.01486,0.09891 0.03299,0.09891 0.01813,0 0.03292,0.02967 0.03292,0.06594 0,0.03627 0.01486,0.06594 0.03299,0.06594 0.01813,0 0.03299,0.02641 0.03299,0.05866 0,0.03228 0.02965,0.08005 0.06592,0.106206 0.03632,0.02615 0.06598,0.06673 0.06598,0.09025 0,0.05569 0.480514,0.536235 0.536229,0.536235 0.02352,0 0.06412,0.02967 0.09024,0.06594 0.02619,0.03627 0.07391,0.06594 0.106232,0.06594 0.03226,0 0.05865,0.01483 0.05865,0.03297 0,0.01814 0.02965,0.03298 0.06592,0.03298 0.03632,0 0.06598,0.01483 0.06598,0.03297 0,0.01813 0.04452,0.03298 0.0989,0.03298 0.05438,0 0.0989,0.01483 0.0989,0.03297 0,0.01814 0.05938,0.03298 0.131891,0.03298 0.07258,0 0.131892,0.01483 0.131892,0.03297 0,0.0212 0.329761,0.03298 0.923239,0.03298 h 0.923239 v 0.461613 0.46162 h -0.0989 c -0.05438,0 -0.0989,0.01483 -0.0989,0.03298 0,0.01978 -0.131891,0.03297 -0.329762,0.03297 -0.197804,0 -0.329695,0.01319 -0.329695,0.03298 0,0.01882 -0.0989,0.03297 -0.230793,0.03297 -0.131891,0 -0.23086,0.01415 -0.23086,0.03298 0,0.01833 -0.08791,0.03297 -0.197804,0.03297 -0.109898,0 -0.19787,0.01464 -0.19787,0.03297 0,0.01814 -0.07418,0.03298 -0.164814,0.03298 -0.09071,0 -0.164881,0.01483 -0.164881,0.03297 0,0.01814 -0.07418,0.03298 -0.16488,0.03298 -0.09064,0 -0.164882,0.01483 -0.164882,0.03297 0,0.01815 -0.05932,0.03298 -0.131891,0.03298 -0.07252,0 -0.131892,0.01483 -0.131892,0.03297 0,0.01815 -0.05932,0.03298 -0.131891,0.03298 -0.07251,0 -0.131891,0.01483 -0.131891,0.03297 0,0.01813 -0.04445,0.03298 -0.0989,0.03298 -0.05438,0 -0.0989,0.01483 -0.0989,0.03297 0,0.01814 -0.05938,0.03298 -0.131892,0.03298 -0.07251,0 -0.131892,0.01483 -0.131892,0.03297 0,0.01814 -0.04452,0.03298 -0.0989,0.03298 -0.05445,0 -0.09897,0.01483 -0.09897,0.03297 0,0.01814 -0.04445,0.03298 -0.0989,0.03298 -0.05438,0 -0.0989,0.01483 -0.0989,0.03297 0,0.01814 -0.04452,0.03298 -0.0989,0.03298 -0.05445,0 -0.0989,0.01483 -0.0989,0.03297 0,0.01814 -0.02973,0.03298 -0.06598,0.03298 -0.03625,0 -0.06592,0.01483 -0.06592,0.03297 0,0.01814 -0.04452,0.03298 -0.09897,0.03298 -0.05438,0 -0.0989,0.01483 -0.0989,0.03297 0,0.01813 -0.02965,0.03298 -0.06592,0.03298 -0.03632,0 -0.06598,0.01483 -0.06598,0.03297 0,0.01814 -0.04452,0.03298 -0.0989,0.03298 -0.05445,0 -0.0989,0.01483 -0.0989,0.03297 0,0.01814 -0.02973,0.03297 -0.06598,0.03297 -0.03625,0 -0.06592,0.01484 -0.06592,0.03298 0,0.01813 -0.02973,0.03297 -0.06598,0.03297 -0.03625,0 -0.06592,0.01484 -0.06592,0.03298 0,0.01814 -0.02973,0.03297 -0.06598,0.03297 -0.03625,0 -0.06592,0.01484 -0.06592,0.03298 0,0.01814 -0.04452,0.03297 -0.09897,0.03297 -0.05438,0 -0.0989,0.01484 -0.0989,0.03298 0,0.01814 -0.02965,0.03297 -0.06592,0.03297 -0.03632,0 -0.06598,0.01486 -0.06598,0.03299 0,0.01813 -0.02965,0.03299 -0.06592,0.03299 -0.03632,0 -0.06598,0.01479 -0.06598,0.03292 0,0.01813 -0.02965,0.03299 -0.06592,0.03299 -0.03632,0 -0.06598,0.01486 -0.06598,0.03299 0,0.01813 -0.02965,0.03299 -0.06592,0.03299 -0.03632,0 -0.06598,0.01479 -0.06598,0.03292 0,0.01813 -0.0264,0.03299 -0.05865,0.03299 -0.03226,0 -0.08004,0.02965 -0.106234,0.06598 -0.02613,0.03625 -0.07391,0.06592 -0.106166,0.06592 -0.03225,0 -0.05865,0.01486 -0.05865,0.03299 0,0.01813 -0.02646,0.03299 -0.05871,0.03299 -0.03226,0 -0.08004,0.02965 -0.106166,0.06591 -0.02612,0.03625 -0.07391,0.06598 -0.106234,0.06598 -0.03225,0 -0.05865,0.0148 -0.05865,0.03292 0,0.01813 -0.02965,0.03299 -0.06592,0.03299 -0.03632,0 -0.06598,0.01486 -0.06598,0.03299 0,0.01813 -0.0264,0.03299 -0.05865,0.03299 -0.03225,0 -0.08004,0.02965 -0.106233,0.06592 -0.02612,0.03625 -0.07064,0.06598 -0.0989,0.06598 -0.02826,0 -0.07277,0.02965 -0.0989,0.06591 -0.02612,0.03625 -0.06798,0.06598 -0.09297,0.06598 -0.02499,0 -0.08704,0.04445 -0.137823,0.0989 -0.05086,0.05438 -0.112897,0.0989 -0.137823,0.0989 -0.02499,0 -0.06684,0.02965 -0.09304,0.06598 -0.02613,0.03625 -0.06798,0.06592 -0.09297,0.06592 -0.02493,0 -0.08697,0.04452 -0.137823,0.0989 -0.05078,0.05445 -0.109832,0.09897 -0.131226,0.09897 -0.02133,0 -0.09584,0.05932 -0.165546,0.131891 -0.06964,0.07251 -0.143488,0.131892 -0.164081,0.131892 -0.0206,0 -0.124761,0.08897 -0.231526,0.197803 -0.106834,0.108832 -0.210001,0.19787 -0.229261,0.19787 -0.04579,0 -1.122643,1.076857 -1.122643,1.122643 0,0.01926 -0.08904,0.122427 -0.19787,0.229194 -0.108765,0.106832 -0.197804,0.211332 -0.197804,0.232259 0,0.02093 -0.04452,0.07964 -0.0989,0.130425 -0.05445,0.05085 -0.09897,0.109898 -0.09897,0.131291 0,0.02133 -0.05932,0.09577 -0.131892,0.165482 -0.07251,0.06971 -0.131891,0.146886 -0.131891,0.171478 0,0.02466 -0.02965,0.06618 -0.06592,0.0923 -0.03625,0.02612 -0.06598,0.07064 -0.06598,0.0989 0,0.02826 -0.02965,0.07277 -0.06592,0.09897 -0.03625,0.02613 -0.06598,0.07064 -0.06598,0.0989 0,0.02826 -0.02965,0.07278 -0.06592,0.0989 -0.03625,0.02612 -0.06598,0.07064 -0.06598,0.0989 0,0.02826 -0.02965,0.07277 -0.06592,0.09897 -0.03625,0.02613 -0.06598,0.07064 -0.06598,0.0989 0,0.02826 -0.02965,0.07278 -0.06592,0.0989 -0.03625,0.02612 -0.06598,0.07391 -0.06598,0.106233 0,0.03225 -0.01479,0.05865 -0.03292,0.05865 -0.01813,0 -0.03299,0.0264 -0.03299,0.05865 0,0.03226 -0.02965,0.08004 -0.06598,0.106233 -0.03625,0.02613 -0.06592,0.07391 -0.06592,0.106166 0,0.03225 -0.01486,0.05865 -0.03299,0.05865 -0.01813,0 -0.03299,0.02973 -0.03299,0.06598 0,0.03625 -0.01479,0.06592 -0.03292,0.06592 -0.01813,0 -0.03299,0.02973 -0.03299,0.06598 0,0.03625 -0.01486,0.06592 -0.03299,0.06592 -0.01813,0 -0.03299,0.02973 -0.03299,0.06598 0,0.03625 -0.01479,0.06592 -0.03292,0.06592 -0.01813,0 -0.03299,0.02973 -0.03299,0.06598 0,0.03625 -0.01486,0.06592 -0.03299,0.06592 -0.01813,0 -0.03299,0.02973 -0.03299,0.06598 0,0.03625 -0.01479,0.06592 -0.03292,0.06592 -0.01813,0 -0.03299,0.02973 -0.03299,0.06598 0,0.03625 -0.01486,0.06592 -0.03299,0.06592 -0.01813,0 -0.03299,0.02973 -0.03299,0.06598 0,0.03625 -0.01479,0.06592 -0.03292,0.06592 -0.01813,0 -0.03299,0.02973 -0.03299,0.06598 0,0.03625 -0.01486,0.06592 -0.03299,0.06592 -0.01813,0 -0.03299,0.02973 -0.03299,0.06598 0,0.03625 -0.01479,0.06591 -0.03292,0.06591 -0.01813,0 -0.03299,0.04452 -0.03299,0.09897 0,0.05438 -0.01486,0.0989 -0.03299,0.0989 -0.01813,0 -0.03299,0.02965 -0.03299,0.06592 0,0.03625 -0.01479,0.06598 -0.03292,0.06598 -0.01813,0 -0.03299,0.04452 -0.03299,0.0989 0,0.05438 -0.01486,0.0989 -0.03299,0.0989 -0.01813,0 -0.03299,0.02973 -0.03299,0.06598 0,0.03625 -0.01479,0.06592 -0.03292,0.06592 -0.01813,0 -0.03299,0.04452 -0.03299,0.0989 0,0.05445 -0.01486,0.09897 -0.03299,0.09897 -0.01813,0 -0.03299,0.04452 -0.03299,0.0989 0,0.05438 -0.01479,0.0989 -0.03292,0.0989 -0.01813,0 -0.03299,0.04452 -0.03299,0.0989 0,0.05445 -0.01486,0.09897 -0.03299,0.09897 -0.01813,0 -0.03299,0.04452 -0.03299,0.0989 0,0.05438 -0.0148,0.0989 -0.03292,0.0989 -0.01813,0 -0.03299,0.04452 -0.03299,0.0989 0,0.05445 -0.01486,0.09897 -0.03299,0.09897 -0.01813,0 -0.03299,0.05932 -0.03299,0.131892 0,0.07251 -0.01479,0.131891 -0.03292,0.131891 -0.01813,0 -0.03299,0.05932 -0.03299,0.131891 0,0.07251 -0.01486,0.131892 -0.03299,0.131892 -0.01813,0 -0.03299,0.04452 -0.03299,0.0989 0,0.05438 -0.01479,0.0989 -0.03292,0.0989 -0.01813,0 -0.03299,0.07418 -0.03299,0.164881 0,0.09064 -0.01486,0.164881 -0.03299,0.164881 -0.01813,0 -0.03299,0.07418 -0.03299,0.164814 0,0.09071 -0.01479,0.164881 -0.03292,0.164881 -0.01833,0 -0.03299,0.08797 -0.03299,0.19787 0,0.109899 -0.01467,0.197804 -0.03299,0.197804 -0.0188,0 -0.03292,0.0989 -0.03292,0.230794 0,0.131891 -0.0142,0.230859 -0.03299,0.230859 -0.01999,0 -0.03299,0.142821 -0.03299,0.362684 0,0.219797 -0.013,0.362685 -0.03299,0.362685 -0.02113,0 -0.03299,0.307702 -0.03299,0.85726 0,0.549558 0.01187,0.857328 0.03299,0.857328 0.02019,0 0.03299,0.153884 0.03299,0.395674 0,0.241789 0.01279,0.395673 0.03299,0.395673 0.0188,0 0.03299,0.0989 0.03299,0.230794 0,0.131891 0.01412,0.230793 0.03292,0.230793 0.01833,0 0.03299,0.08797 0.03299,0.19787 0,0.109898 0.01467,0.197804 0.03299,0.197804 0.01813,0 0.03292,0.07418 0.03292,0.164881 0,0.09071 0.01486,0.164881 0.03299,0.164881 0.01813,0 0.03299,0.07418 0.03299,0.164881 0,0.09064 0.01486,0.164814 0.03299,0.164814 0.01813,0 0.03292,0.05938 0.03292,0.131891 0,0.07258 0.01486,0.131891 0.03299,0.131891 0.01813,0 0.03299,0.05938 0.03299,0.131891 0,0.07258 0.01486,0.131892 0.03299,0.131892 0.01813,0 0.03292,0.05938 0.03292,0.131891 0,0.07258 0.01486,0.131891 0.03299,0.131891 0.01813,0 0.03299,0.04452 0.03299,0.09897 0,0.05438 0.01486,0.0989 0.03299,0.0989 0.01813,0 0.03292,0.04452 0.03292,0.0989 0,0.05438 0.01486,0.0989 0.03299,0.0989 0.01813,0 0.03299,0.04452 0.03299,0.0989 0,0.05445 0.01486,0.09897 0.03299,0.09897 0.01813,0 0.03292,0.04452 0.03292,0.0989 0,0.05438 0.01486,0.0989 0.03299,0.0989 0.01813,0 0.03299,0.02965 0.03299,0.06598 0,0.03625 0.01486,0.06592 0.03299,0.06592 0.01813,0 0.03292,0.04452 0.03292,0.0989 0,0.05445 0.01486,0.09897 0.03299,0.09897 0.01813,0 0.03299,0.04452 0.03299,0.0989 0,0.05438 0.01486,0.0989 0.03299,0.0989 0.01813,0 0.03292,0.02965 0.03292,0.06598 0,0.03625 0.01486,0.06592 0.03299,0.06592 0.01813,0 0.03299,0.02965 0.03299,0.06598 0,0.03625 0.01486,0.06592 0.03299,0.06592 0.01813,0 0.03292,0.04452 0.03292,0.0989 0,0.05445 0.01486,0.09897 0.03299,0.09897 0.01813,0 0.03299,0.02965 0.03299,0.06592 0,0.03625 0.01486,0.06598 0.03299,0.06598 0.01813,0 0.03292,0.02965 0.03292,0.06592 0,0.03625 0.01486,0.06598 0.03299,0.06598 0.01813,0 0.03299,0.02965 0.03299,0.06592 0,0.03625 0.01486,0.06598 0.03299,0.06598 0.01813,0 0.03292,0.02965 0.03292,0.06591 0,0.03625 0.01486,0.06598 0.03299,0.06598 0.01813,0 0.03299,0.02965 0.03299,0.06592 0,0.03625 0.01486,0.06598 0.03299,0.06598 0.01813,0 0.03292,0.02965 0.03292,0.06592 0,0.03625 0.01486,0.06598 0.03299,0.06598 0.01813,0 0.03299,0.0264 0.03299,0.05865 0,0.03226 0.02965,0.08004 0.06592,0.106166 0.03632,0.02619 0.06598,0.07397 0.06598,0.106233 0,0.03225 0.01486,0.05865 0.03299,0.05865 0.01813,0 0.03292,0.02965 0.03292,0.06598 0,0.03625 0.01486,0.06592 0.03299,0.06592 0.01813,0 0.03299,0.0264 0.03299,0.05865 0,0.03233 0.02965,0.08004 0.06592,0.106233 0.03632,0.02612 0.06598,0.07391 0.06598,0.106166 0,0.03225 0.01486,0.05871 0.03299,0.05871 0.01813,0 0.03292,0.0264 0.03292,0.05865 0,0.03225 0.02973,0.08004 0.06598,0.106166 0.03625,0.02619 0.06592,0.07071 0.06592,0.09897 0,0.02826 0.02973,0.07271 0.06598,0.0989 0.03625,0.02613 0.06592,0.07064 0.06592,0.0989 0,0.02826 0.02973,0.07277 0.06598,0.0989 0.03625,0.02619 0.06592,0.06798 0.06592,0.09297 0,0.02499 0.04452,0.08704 0.09897,0.13789 0.05438,0.05078 0.0989,0.110098 0.0989,0.131891 0,0.02172 0.04452,0.08104 0.0989,0.131892 0.05438,0.05078 0.0989,0.110098 0.0989,0.131891 0,0.02173 0.04452,0.08104 0.09897,0.131825 0.05438,0.05085 0.0989,0.109565 0.0989,0.130492 0,0.02092 0.08904,0.125427 0.197805,0.232259 0.108831,0.106766 0.197869,0.209933 0.197869,0.229193 0,0.04598 1.14297,1.188622 1.188889,1.188622 0.01946,0 0.107632,0.07418 0.195937,0.164881 0.08837,0.09064 0.177544,0.164814 0.198271,0.164814 0.02072,0 0.09477,0.05938 0.164414,0.131892 0.06972,0.07258 0.144221,0.131891 0.165547,0.131891 0.02139,0 0.08045,0.04452 0.131226,0.09897 0.05085,0.05438 0.110165,0.0989 0.131891,0.0989 0.02172,0 0.08111,0.04452 0.131891,0.0989 0.05085,0.05438 0.112897,0.0989 0.137823,0.0989 0.02499,0 0.06684,0.02973 0.09297,0.06598 0.02619,0.03625 0.07071,0.06592 0.09897,0.06592 0.02826,0 0.07278,0.02973 0.0989,0.06598 0.02613,0.03625 0.07064,0.06592 0.0989,0.06592 0.02826,0 0.07278,0.02973 0.0989,0.06598 0.02619,0.03625 0.07397,0.06592 0.106233,0.06592 0.03226,0 0.05865,0.01486 0.05865,0.03299 0,0.01813 0.02639,0.03299 0.05865,0.03299 0.03233,0 0.08011,0.02965 0.106233,0.06592 0.02612,0.03632 0.07391,0.06598 0.106167,0.06598 0.03225,0 0.05871,0.01479 0.05871,0.03299 0,0.01813 0.02965,0.03292 0.06592,0.03292 0.03625,0 0.06598,0.01486 0.06598,0.03298 0,0.01813 0.0264,0.03299 0.05865,0.03299 0.03226,0 0.08004,0.02965 0.106166,0.06592 0.02619,0.03632 0.07397,0.06598 0.106233,0.06598 0.03225,0 0.05865,0.01479 0.05865,0.03298 0,0.01813 0.02965,0.03292 0.06598,0.03292 0.03625,0 0.06592,0.01486 0.06592,0.03298 0,0.01813 0.02965,0.03299 0.06598,0.03299 0.03625,0 0.06592,0.01479 0.06592,0.03298 0,0.01813 0.02965,0.03292 0.06598,0.03292 0.03625,0 0.06592,0.01486 0.06592,0.03298 0,0.01813 0.02965,0.03299 0.06598,0.03299 0.03625,0 0.06592,0.01479 0.06592,0.03299 0,0.01813 0.04452,0.03292 0.0989,0.03292 0.05445,0 0.09897,0.01486 0.09897,0.033 0,0.01813 0.02965,0.03299 0.06592,0.03299 0.03625,0 0.06598,0.01479 0.06598,0.03299 0,0.01813 0.02965,0.03292 0.06592,0.03292 0.03625,0 0.06598,0.01486 0.06598,0.03299 0,0.01813 0.02965,0.03299 0.06592,0.03299 0.03625,0 0.06598,0.01479 0.06598,0.03299 0,0.01813 0.04445,0.03292 0.0989,0.03292 0.05438,0 0.0989,0.01486 0.0989,0.03298 0,0.01813 0.02965,0.03299 0.06598,0.03299 0.03625,0 0.06592,0.01479 0.06592,0.03299 0,0.01813 0.04452,0.03292 0.0989,0.03292 0.05445,0 0.09897,0.01486 0.09897,0.03299 0,0.01813 0.04445,0.03298 0.0989,0.03298 0.05438,0 0.0989,0.01479 0.0989,0.03292 0,0.01819 0.04452,0.03299 0.0989,0.03299 0.05445,0 0.0989,0.01486 0.0989,0.03299 0,0.01813 0.04452,0.03298 0.09897,0.03298 0.05438,0 0.0989,0.01479 0.0989,0.03292 0,0.01819 0.04452,0.03299 0.0989,0.03299 0.05445,0 0.0989,0.01486 0.0989,0.03299 0,0.01813 0.04452,0.03299 0.09897,0.03299 0.05438,0 0.0989,0.0148 0.0989,0.03292 0,0.01819 0.05938,0.03299 0.131891,0.03299 0.07251,0 0.131891,0.01486 0.131891,0.03299 0,0.01813 0.04452,0.03299 0.0989,0.03299 0.05445,0 0.0989,0.01479 0.0989,0.03292 0,0.01819 0.07424,0.03299 0.164882,0.03299 0.0907,0 0.16488,0.01486 0.16488,0.03299 0,0.01813 0.07418,0.03299 0.164881,0.03299 0.09064,0 0.164814,0.01479 0.164814,0.03292 0,0.01819 0.07424,0.03298 0.164881,0.03298 0.09071,0 0.164881,0.01486 0.164881,0.03299 0,0.01833 0.08791,0.03299 0.197804,0.03299 0.109898,0 0.19787,0.01459 0.19787,0.03292 0,0.01926 0.109898,0.03299 0.263782,0.03299 0.153886,0 0.263783,0.01379 0.263783,0.03298 0,0.02013 0.153885,0.03299 0.395675,0.03299 0.241789,0 0.395674,0.01279 0.395674,0.03292 0,0.02099 0.263782,0.03299 0.725368,0.03299 0.461653,0 0.725436,-0.012 0.725436,-0.03299 0,-0.02027 0.164815,-0.03292 0.428598,-0.03292 0.263782,0 0.428663,-0.01273 0.428663,-0.03299 0,-0.01919 0.109898,-0.03298 0.263782,-0.03298 0.153884,0 0.263783,-0.01373 0.263783,-0.03299 0,-0.01833 0.08797,-0.03292 0.197871,-0.03292 0.109898,0 0.197803,-0.01467 0.197803,-0.03299 0,-0.01813 0.07418,-0.03299 0.164881,-0.03299 0.09064,0 0.164881,-0.01479 0.164881,-0.03298 0,-0.01813 0.07418,-0.03292 0.164814,-0.03292 0.09071,0 0.164881,-0.01486 0.164881,-0.03299 0,-0.01813 0.05938,-0.03299 0.131891,-0.03299 0.07258,0 0.131892,-0.01479 0.131892,-0.03299 0,-0.01813 0.04452,-0.03292 0.0989,-0.03292 0.05445,0 0.09897,-0.01486 0.09897,-0.03299 0,-0.01813 0.05932,-0.03299 0.131891,-0.03299 0.07252,0 0.131891,-0.01479 0.131891,-0.03299 0,-0.01813 0.04445,-0.03292 0.0989,-0.03292 0.05438,0 0.0989,-0.01486 0.0989,-0.03299 0,-0.01813 0.05938,-0.03299 0.131892,-0.03299 0.07251,0 0.131891,-0.01479 0.131891,-0.03299 0,-0.01813 0.02965,-0.03292 0.06592,-0.03292 0.03632,0 0.06598,-0.01486 0.06598,-0.03298 0,-0.01813 0.05938,-0.03299 0.131891,-0.03299 0.07252,0 0.131892,-0.01479 0.131892,-0.03299 0,-0.01813 0.02965,-0.03292 0.06592,-0.03292 0.03632,0 0.06598,-0.01486 0.06598,-0.03298 0,-0.01813 0.04452,-0.03299 0.0989,-0.03299 0.05445,0 0.0989,-0.01479 0.0989,-0.03292 0,-0.01819 0.02973,-0.03299 0.06598,-0.03299 0.03625,0 0.06592,-0.01486 0.06592,-0.03299 0,-0.01813 0.04452,-0.03298 0.09897,-0.03298 0.05438,0 0.0989,-0.01479 0.0989,-0.03292 0,-0.01819 0.02965,-0.03299 0.06592,-0.03299 0.03632,0 0.06598,-0.01486 0.06598,-0.03299 0,-0.01813 0.02965,-0.03299 0.06592,-0.03299 0.03632,0 0.06598,-0.01479 0.06598,-0.03292 0,-0.01819 0.04452,-0.03299 0.0989,-0.03299 0.05445,0 0.0989,-0.01486 0.0989,-0.03299 0,-0.01813 0.02973,-0.033 0.06598,-0.033 0.03625,0 0.06592,-0.01479 0.06592,-0.03292 0,-0.01819 0.02973,-0.03299 0.06598,-0.03299 0.03625,0 0.06592,-0.01486 0.06592,-0.03299 0,-0.01813 0.02973,-0.03298 0.06598,-0.03298 0.03625,0 0.06592,-0.0148 0.06592,-0.03292 0,-0.01819 0.02973,-0.03298 0.06598,-0.03298 0.03625,0 0.06592,-0.01486 0.06592,-0.03299 0,-0.01813 0.02973,-0.03298 0.06598,-0.03298 0.03625,0 0.06592,-0.01479 0.06592,-0.03292 0,-0.01819 0.02973,-0.03298 0.06598,-0.03298 0.03625,0 0.06592,-0.01486 0.06592,-0.03299 0,-0.01813 0.02646,-0.03299 0.05871,-0.03299 0.03226,0 0.08004,-0.02965 0.106166,-0.06592 0.02612,-0.03625 0.07391,-0.06598 0.106233,-0.06598 0.03225,0 0.05865,-0.01479 0.05865,-0.03292 0,-0.01819 0.0264,-0.03299 0.05865,-0.03299 0.03225,0 0.08004,-0.02965 0.106233,-0.06598 0.02613,-0.03625 0.07391,-0.06592 0.106166,-0.06592 0.03226,0 0.05865,-0.01486 0.05865,-0.03299 0,-0.01813 0.02646,-0.03299 0.05871,-0.03299 0.03225,0 0.08004,-0.02965 0.106167,-0.06592 0.02612,-0.03625 0.07064,-0.06598 0.0989,-0.06598 0.02826,0 0.07278,-0.02965 0.09897,-0.06592 0.02612,-0.03625 0.07064,-0.06598 0.0989,-0.06598 0.02826,0 0.07278,-0.02965 0.0989,-0.06592 0.02612,-0.03625 0.07064,-0.06598 0.0989,-0.06598 0.02826,0 0.07277,-0.02965 0.09897,-0.06592 0.02613,-0.03625 0.06798,-0.06598 0.09297,-0.06598 0.02493,0 0.08697,-0.04452 0.137823,-0.0989 0.05078,-0.05438 0.109832,-0.0989 0.131225,-0.0989 0.02133,0 0.09584,-0.05938 0.165548,-0.131891 0.06964,-0.07258 0.143687,-0.131891 0.164414,-0.131891 0.02072,0 0.109898,-0.07418 0.198269,-0.164881 0.0883,-0.09064 0.176478,-0.164881 0.195871,-0.164881 0.04612,0 1.452739,-1.406619 1.452739,-1.452737 0,-0.01939 0.07418,-0.107566 0.16488,-0.195872 0.09064,-0.0883 0.164881,-0.177876 0.164881,-0.198936 0,-0.02113 0.04452,-0.07998 0.0989,-0.130758 0.05438,-0.05086 0.0989,-0.110165 0.0989,-0.131891 0,-0.02179 0.04452,-0.08111 0.0989,-0.131892 0.05445,-0.05086 0.09897,-0.112898 0.09897,-0.137889 0,-0.02499 0.02965,-0.06678 0.06592,-0.09297 0.03625,-0.02613 0.06598,-0.07064 0.06598,-0.0989 0,-0.02826 0.02965,-0.07278 0.06592,-0.0989 0.03625,-0.02619 0.06598,-0.07064 0.06598,-0.0989 0,-0.02826 0.02965,-0.07277 0.06592,-0.09897 0.03625,-0.02612 0.06598,-0.07064 0.06598,-0.0989 0,-0.02826 0.02965,-0.07278 0.06592,-0.0989 0.03625,-0.02619 0.06598,-0.07064 0.06598,-0.0989 0,-0.02826 0.02965,-0.07278 0.06592,-0.09897 0.03625,-0.02612 0.06598,-0.07064 0.06598,-0.0989 0,-0.02826 0.02965,-0.07278 0.06592,-0.0989 0.03625,-0.02619 0.06598,-0.07391 0.06598,-0.106232 0,-0.03226 0.01479,-0.05865 0.03292,-0.05865 0.01813,0 0.03299,-0.02965 0.03299,-0.06592 0,-0.03632 0.01486,-0.06598 0.03298,-0.06598 0.01813,0 0.03299,-0.02965 0.03299,-0.06592 0,-0.03632 0.01479,-0.06598 0.03292,-0.06598 0.01813,0 0.03299,-0.02965 0.03299,-0.06592 0,-0.03632 0.01486,-0.06598 0.03299,-0.06598 0.01813,0 0.03299,-0.02965 0.03299,-0.06592 0,-0.03632 0.01479,-0.06598 0.03292,-0.06598 0.01813,0 0.03299,-0.02965 0.03299,-0.06592 0,-0.03632 0.01486,-0.06598 0.03299,-0.06598 0.01813,0 0.03299,-0.02965 0.03299,-0.06591 0,-0.03633 0.01479,-0.06598 0.03292,-0.06598 0.01813,0 0.03299,-0.02965 0.03299,-0.06592 0,-0.03632 0.01486,-0.06598 0.03299,-0.06598 0.01813,0 0.03299,-0.02965 0.03299,-0.06592 0,-0.03632 0.01479,-0.06598 0.03292,-0.06598 0.01813,0 0.03299,-0.02965 0.03299,-0.06592 0,-0.03632 0.01486,-0.06598 0.03298,-0.06598 0.01813,0 0.03299,-0.02965 0.03299,-0.06592 0,-0.03632 0.01479,-0.06598 0.03292,-0.06598 0.01813,0 0.03299,-0.04452 0.03299,-0.0989 0,-0.05438 0.01486,-0.0989 0.03299,-0.0989 0.01813,0 0.03298,-0.02973 0.03298,-0.06598 0,-0.03625 0.01479,-0.06592 0.03292,-0.06592 0.01813,0 0.03299,-0.04452 0.03299,-0.09897 0,-0.05438 0.01486,-0.0989 0.03299,-0.0989 0.01813,0 0.03299,-0.02965 0.03299,-0.06592 0,-0.03632 0.01479,-0.06598 0.03292,-0.06598 0.01813,0 0.03299,-0.04452 0.03299,-0.0989 0,-0.05438 0.01486,-0.0989 0.03299,-0.0989 0.01813,0 0.03299,-0.04452 0.03299,-0.09897 0,-0.05438 0.01479,-0.0989 0.03292,-0.0989 0.01813,0 0.03299,-0.04452 0.03299,-0.0989 0,-0.05438 0.01486,-0.0989 0.03299,-0.0989 0.01813,0 0.03299,-0.04452 0.03299,-0.09897 0,-0.05438 0.0148,-0.0989 0.03292,-0.0989 0.01813,0 0.03299,-0.04452 0.03299,-0.0989 0,-0.05438 0.01486,-0.0989 0.03299,-0.0989 0.01813,0 0.03298,-0.05938 0.03298,-0.131891 0,-0.07258 0.0148,-0.131892 0.03292,-0.131892 0.01813,0 0.03298,-0.05938 0.03298,-0.131891 0,-0.07258 0.01486,-0.131892 0.03299,-0.131892 0.01813,0 0.03298,-0.05938 0.03298,-0.131891 0,-0.07258 0.01479,-0.131891 0.03292,-0.131891 0.01813,0 0.03299,-0.05938 0.03299,-0.131892 0,-0.07258 0.01486,-0.131891 0.03299,-0.131891 0.01813,0 0.03292,-0.07418 0.03292,-0.16488 0,-0.09071 0.01486,-0.164881 0.03299,-0.164881 0.01886,0 0.03299,-0.0989 0.03299,-0.230793 0,-0.131892 0.01412,-0.230794 0.03299,-0.230794 0.0188,0 0.03292,-0.0989 0.03292,-0.230793 0,-0.131891 0.0142,-0.23086 0.03299,-0.23086 0.02033,0 0.03299,-0.164814 0.03299,-0.428596 0,-0.263783 0.01267,-0.428665 0.03299,-0.428665 0.02093,0 0.03292,-0.252786 0.03292,-0.692445 0,-0.439594 -0.01199,-0.69238 -0.03292,-0.69238 -0.02019,0 -0.03299,-0.153885 -0.03299,-0.395674 0,-0.24179 -0.01279,-0.395674 -0.03299,-0.395674 -0.01919,0 -0.03299,-0.109899 -0.03299,-0.263783 0,-0.153884 -0.01373,-0.263782 -0.03292,-0.263782 -0.01833,0 -0.03299,-0.08797 -0.03299,-0.197871 0,-0.109899 -0.01467,-0.197803 -0.03299,-0.197803 -0.01813,0 -0.03299,-0.07424 -0.03299,-0.164882 0,-0.0907 -0.01479,-0.16488 -0.03292,-0.16488 -0.01813,0 -0.03299,-0.07418 -0.03299,-0.164881 0,-0.09064 -0.01486,-0.164814 -0.03299,-0.164814 -0.01813,0 -0.03292,-0.05938 -0.03292,-0.131892 0,-0.07258 -0.01486,-0.131891 -0.03298,-0.131891 -0.01813,0 -0.03299,-0.05938 -0.03299,-0.131892 0,-0.07258 -0.01486,-0.131891 -0.03298,-0.131891 -0.01813,0 -0.03292,-0.04452 -0.03292,-0.09897 0,-0.05438 -0.01486,-0.0989 -0.03298,-0.0989 -0.01813,0 -0.03299,-0.05932 -0.03299,-0.131891 0,-0.07251 -0.01486,-0.131891 -0.03299,-0.131891 -0.01813,0 -0.03292,-0.04452 -0.03292,-0.0989 0,-0.05438 -0.01486,-0.0989 -0.03299,-0.0989 -0.01813,0 -0.03299,-0.04452 -0.03299,-0.09897 0,-0.05438 -0.01486,-0.0989 -0.03299,-0.0989 -0.01813,0 -0.03292,-0.02965 -0.03292,-0.06592 0,-0.03632 -0.01486,-0.06598 -0.03299,-0.06598 -0.01813,0 -0.03299,-0.04452 -0.03299,-0.0989 0,-0.05438 -0.01486,-0.0989 -0.03299,-0.0989 -0.01813,0 -0.03292,-0.04452 -0.03292,-0.09897 0,-0.05438 -0.01486,-0.0989 -0.03299,-0.0989 -0.01813,0 -0.03299,-0.02965 -0.03299,-0.06592 0,-0.03625 -0.01486,-0.06598 -0.03299,-0.06598 -0.01813,0 -0.03292,-0.04452 -0.03292,-0.0989 0,-0.05438 -0.01486,-0.0989 -0.03298,-0.0989 -0.01813,0 -0.03299,-0.02973 -0.03299,-0.06598 0,-0.03625 -0.01486,-0.06592 -0.03299,-0.06592 -0.01813,0 -0.03292,-0.02973 -0.03292,-0.06598 0,-0.03625 -0.01486,-0.06591 -0.03299,-0.06591 -0.01813,0 -0.03298,-0.04452 -0.03298,-0.0989 0,-0.05445 -0.01486,-0.09897 -0.03299,-0.09897 -0.01813,0 -0.03292,-0.02965 -0.03292,-0.06592 0,-0.03625 -0.01486,-0.06598 -0.03299,-0.06598 -0.01813,0 -0.03299,-0.02965 -0.03299,-0.06592 0,-0.03625 -0.01486,-0.06598 -0.03299,-0.06598 -0.01813,0 -0.03292,-0.02965 -0.03292,-0.06592 0,-0.03625 -0.01486,-0.06598 -0.03299,-0.06598 -0.01813,0 -0.03299,-0.02965 -0.03299,-0.06592 0,-0.03625 -0.01486,-0.06598 -0.03299,-0.06598 -0.01813,0 -0.03292,-0.02965 -0.03292,-0.06592 0,-0.03625 -0.01486,-0.06598 -0.03299,-0.06598 -0.01813,0 -0.03299,-0.0264 -0.03299,-0.05865 0,-0.03226 -0.02965,-0.08004 -0.06592,-0.106166 -0.03632,-0.02619 -0.06598,-0.07398 -0.06598,-0.106233 0,-0.03226 -0.01486,-0.05865 -0.03299,-0.05865 -0.01813,0 -0.03292,-0.02965 -0.03292,-0.06598 0,-0.03625 -0.01486,-0.06592 -0.03298,-0.06592 -0.01813,0 -0.03299,-0.0264 -0.03299,-0.05865 0,-0.03233 -0.02965,-0.08011 -0.06592,-0.106234 -0.03632,-0.02613 -0.06598,-0.07064 -0.06598,-0.0989 0,-0.02826 -0.02965,-0.07277 -0.06592,-0.0989 -0.03632,-0.02619 -0.06598,-0.07071 -0.06598,-0.09897 0,-0.02826 -0.02965,-0.07278 -0.06592,-0.0989 -0.03632,-0.02613 -0.06598,-0.07064 -0.06598,-0.0989 0,-0.02826 -0.02965,-0.07277 -0.06592,-0.0989 -0.03632,-0.02619 -0.06598,-0.07071 -0.06598,-0.09897 0,-0.02826 -0.02965,-0.07278 -0.06592,-0.0989 -0.03632,-0.02613 -0.06598,-0.06798 -0.06598,-0.09297 0,-0.02499 -0.04452,-0.08704 -0.0989,-0.137823 -0.05438,-0.05085 -0.0989,-0.110165 -0.0989,-0.131891 0,-0.02172 -0.04452,-0.08111 -0.09897,-0.131892 -0.05438,-0.05078 -0.0989,-0.110164 -0.0989,-0.131891 0,-0.02172 -0.04452,-0.08111 -0.0989,-0.131891 -0.05438,-0.05078 -0.0989,-0.109365 -0.0989,-0.130025 0,-0.02072 -0.118695,-0.155084 -0.263783,-0.298638 -0.145087,-0.143488 -0.263783,-0.276579 -0.263783,-0.295706 0,-0.04545 -0.747161,-0.792348 -0.792614,-0.792348 -0.01919,0 -0.137356,-0.1039 -0.262516,-0.23086 -0.125227,-0.12696 -0.244322,-0.230794 -0.264783,-0.230794 -0.02046,0 -0.09417,-0.05938 -0.16388,-0.131891 -0.06972,-0.07251 -0.144221,-0.131891 -0.165548,-0.131891 -0.02133,0 -0.08037,-0.04452 -0.131225,-0.0989 -0.05078,-0.05445 -0.110165,-0.0989 -0.131891,-0.0989 -0.02172,0 -0.08104,-0.04452 -0.131892,-0.09897 -0.05078,-0.05438 -0.11283,-0.0989 -0.137823,-0.0989 -0.02499,0 -0.06684,-0.02965 -0.09297,-0.06592 -0.02613,-0.03632 -0.07064,-0.06598 -0.0989,-0.06598 -0.02826,0 -0.07277,-0.02965 -0.0989,-0.06592 -0.02619,-0.03632 -0.07071,-0.06598 -0.09897,-0.06598 -0.02826,0 -0.07278,-0.02965 -0.0989,-0.06591 -0.02612,-0.03633 -0.07064,-0.06598 -0.0989,-0.06598 -0.02826,0 -0.07278,-0.02965 -0.0989,-0.06592 -0.02619,-0.03632 -0.07398,-0.06598 -0.106234,-0.06598 -0.03225,0 -0.05865,-0.01486 -0.05865,-0.03299 0,-0.01813 -0.02639,-0.03292 -0.05865,-0.03292 -0.03233,0 -0.08011,-0.02973 -0.106232,-0.06598 -0.02613,-0.03625 -0.07391,-0.06591 -0.106166,-0.06591 -0.03226,0 -0.05871,-0.01486 -0.05871,-0.03299 0,-0.01813 -0.02639,-0.03299 -0.05865,-0.03299 -0.03225,0 -0.08004,-0.02965 -0.106166,-0.06592 -0.02619,-0.03632 -0.07397,-0.06598 -0.106232,-0.06598 -0.03226,0 -0.05865,-0.01486 -0.05865,-0.03299 0,-0.01813 -0.02965,-0.03292 -0.06598,-0.03292 -0.03625,0 -0.06592,-0.01486 -0.06592,-0.03299 0,-0.01813 -0.02965,-0.03299 -0.06598,-0.03299 -0.03625,0 -0.06592,-0.01486 -0.06592,-0.03299 0,-0.01813 -0.02965,-0.03292 -0.06598,-0.03292 -0.03625,0 -0.06592,-0.01486 -0.06592,-0.03299 0,-0.01813 -0.02965,-0.03299 -0.06598,-0.03299 -0.03625,0 -0.06592,-0.01483 -0.06592,-0.03297 0,-0.01814 -0.02965,-0.03298 -0.06598,-0.03298 -0.03625,0 -0.06592,-0.01483 -0.06592,-0.03297 0,-0.01813 -0.04452,-0.03298 -0.0989,-0.03298 -0.05445,0 -0.09897,-0.01483 -0.09897,-0.03297 0,-0.01814 -0.02965,-0.03298 -0.06592,-0.03298 -0.03625,0 -0.06598,-0.01483 -0.06598,-0.03297 0,-0.01814 -0.02965,-0.03298 -0.06592,-0.03298 -0.03625,0 -0.06598,-0.01483 -0.06598,-0.03297 0,-0.01814 -0.04445,-0.03297 -0.0989,-0.03297 -0.05438,0 -0.0989,-0.01484 -0.0989,-0.03298 0,-0.01814 -0.02965,-0.03297 -0.06598,-0.03297 -0.03625,0 -0.06592,-0.01484 -0.06592,-0.03298 0,-0.01814 -0.04452,-0.03297 -0.0989,-0.03297 -0.05445,0 -0.09897,-0.01484 -0.09897,-0.03298 0,-0.01813 -0.04445,-0.03297 -0.0989,-0.03297 -0.05438,0 -0.0989,-0.01484 -0.0989,-0.03298 0,-0.01814 -0.02965,-0.03297 -0.06592,-0.03297 -0.03632,0 -0.06598,-0.01484 -0.06598,-0.03298 0,-0.01814 -0.04452,-0.03297 -0.0989,-0.03297 -0.05445,0 -0.09897,-0.01484 -0.09897,-0.03298 0,-0.01814 -0.05932,-0.03297 -0.131825,-0.03297 -0.07258,0 -0.131891,-0.01484 -0.131891,-0.03298 0,-0.01813 -0.04452,-0.03297 -0.09897,-0.03297 -0.05438,0 -0.0989,-0.01484 -0.0989,-0.03298 0,-0.01814 -0.04452,-0.03297 -0.0989,-0.03297 -0.05445,0 -0.0989,-0.01484 -0.0989,-0.03298 0,-0.01814 -0.05938,-0.03297 -0.131891,-0.03297 -0.07258,0 -0.131892,-0.01483 -0.131892,-0.03298 0,-0.01814 -0.05938,-0.03297 -0.131891,-0.03297 -0.07258,0 -0.131891,-0.01483 -0.131891,-0.03298 0,-0.01814 -0.07424,-0.03297 -0.164882,-0.03297 -0.0907,0 -0.16488,-0.01483 -0.16488,-0.03298 0,-0.01814 -0.07418,-0.03297 -0.164881,-0.03297 -0.09064,0 -0.164815,-0.01483 -0.164815,-0.03298 0,-0.01833 -0.08797,-0.03297 -0.19787,-0.03297 -0.109898,0 -0.197804,-0.01464 -0.197804,-0.03297 0,-0.01882 -0.09897,-0.03298 -0.23086,-0.03298 -0.131891,0 -0.230792,-0.01414 -0.230792,-0.03297 0,-0.01979 -0.131891,-0.03298 -0.329696,-0.03298 -0.19787,0 -0.329762,-0.01319 -0.329762,-0.03297 0,-0.01814 -0.04452,-0.03298 -0.0989,-0.03298 h -0.0989 v -0.46162 -0.461613 h 0.923239 c 0.593478,0 0.92324,-0.01178 0.92324,-0.03298 0,-0.01814 0.05932,-0.03297 0.131892,-0.03297 0.0725,0 0.131891,-0.01484 0.131891,-0.03298 0,-0.01814 0.04445,-0.03297 0.0989,-0.03297 0.05438,0 0.0989,-0.01484 0.0989,-0.03298 0,-0.01814 0.02965,-0.03297 0.06598,-0.03297 0.03625,0 0.06592,-0.01484 0.06592,-0.03298 0,-0.01813 0.0264,-0.03297 0.05865,-0.03297 0.03233,0 0.08004,-0.02967 0.106233,-0.06594 0.02612,-0.03627 0.06671,-0.06594 0.09024,-0.06594 0.05572,0 0.536229,-0.480548 0.536229,-0.536236 0,-0.02351 0.02965,-0.0641 0.06598,-0.09025 0.03625,-0.02615 0.06592,-0.07393 0.06592,-0.106206 0,-0.03225 0.01486,-0.05866 0.03298,-0.05866 0.01813,0 0.03299,-0.02967 0.03299,-0.06594 0,-0.03627 0.01479,-0.06594 0.03292,-0.06594 0.01813,0 0.03299,-0.04451 0.03299,-0.09892 0,-0.0544 0.01486,-0.09892 0.03299,-0.09892 0.01813,0 0.03292,-0.05935 0.03292,-0.131884 0,-0.07254 0.01486,-0.131892 0.03299,-0.131892 0.01999,0 0.03298,-0.142874 0.03298,-0.362704 0,-0.21983 -0.013,-0.362698 -0.03298,-0.362698 -0.01813,0 -0.03299,-0.07419 -0.03299,-0.164861 0,-0.09068 -0.01479,-0.164867 -0.03292,-0.164867 -0.01813,0 -0.03299,-0.02968 -0.03299,-0.06595 0,-0.03627 -0.01486,-0.06595 -0.03299,-0.06595 -0.01813,0 -0.03292,-0.04125 -0.03292,-0.09163 0,-0.05381 -0.02726,-0.111252 -0.06598,-0.139176 -0.03625,-0.02614 -0.06592,-0.07066 -0.06592,-0.09892 0,-0.02826 -0.02973,-0.07277 -0.06598,-0.098915 -0.03625,-0.026145 -0.06592,-0.066839 -0.06592,-0.090411 0,-0.055889 -0.348356,-0.40418 -0.404204,-0.40418 -0.0236,0 -0.06425,-0.029675 -0.09044,-0.065945 -0.02612,-0.036269 -0.07391,-0.065945 -0.106166,-0.065945 -0.03226,0 -0.05865,-0.014837 -0.05865,-0.032973 0,-0.018135 -0.02973,-0.032972 -0.06598,-0.032972 -0.03625,0 -0.06592,-0.014838 -0.06592,-0.032973 0,-0.018135 -0.02973,-0.032973 -0.06598,-0.032973 -0.03625,0 -0.06592,-0.014838 -0.06592,-0.032973 0,-0.018135 -0.04452,-0.032973 -0.09897,-0.032973 -0.05438,0 -0.0989,-0.014837 -0.0989,-0.032973 0,-0.018333 -0.08791,-0.032973 -0.197805,-0.032973 -0.109898,0 -0.197869,-0.01464 -0.197869,-0.032973 0,-0.021696 -0.857261,-0.032973 -2.505936,-0.032973 -1.648608,0 -2.505936,0.011277 -2.505936,0.032973 z M 35.606409,10.6952 c 0,0.01813 0.02293,0.03297 0.05098,0.03297 0.06592,0 0.212799,0.14686 0.212799,0.212839 0,0.02802 0.01486,0.05094 0.03298,0.05094 0.0186,0 0.03299,0.09371 0.03299,0.215178 0,0.210893 -0.0029,0.218151 -0.147553,0.362698 -0.09684,0.09684 -0.176078,0.147526 -0.230793,0.147526 -0.04579,0 -0.08331,0.01484 -0.08331,0.03297 0,0.02167 -0.802344,0.03297 -2.341054,0.03297 -1.53871,0 -2.341055,-0.0113 -2.341055,-0.03297 0,-0.01813 -0.04452,-0.03297 -0.0989,-0.03297 -0.05445,0 -0.09897,-0.01484 -0.09897,-0.03298 0,-0.01813 -0.02326,-0.03297 -0.05178,-0.03297 -0.06665,0 -0.14602,-0.0794 -0.14602,-0.14604 0,-0.02848 -0.01486,-0.0518 -0.03299,-0.0518 -0.01906,0 -0.03299,-0.104787 -0.03299,-0.248388 0,-0.239477 0.0041,-0.252499 0.114364,-0.362698 0.06284,-0.06288 0.137022,-0.114317 0.164813,-0.114317 0.02779,0 0.05059,-0.01483 0.05059,-0.03297 0,-0.0217 0.846331,-0.03298 2.472946,-0.03298 1.626615,0 2.472946,0.01128 2.472946,0.03298 z m -3.297285,7.517793 c 0,1.494724 0.01133,2.275076 0.03299,2.275076 0.01813,0 0.03299,0.02973 0.03299,0.06598 0,0.03625 0.01479,0.06592 0.03298,0.06592 0.01813,0 0.03292,0.02266 0.03292,0.05031 0,0.06545 0.27991,0.345357 0.345355,0.345357 0.02766,0 0.05031,0.01486 0.05031,0.03299 0,0.01926 0.109899,0.03299 0.263783,0.03299 0.153884,0 0.263783,-0.01373 0.263783,-0.03299 0,-0.01813 0.03752,-0.03299 0.08331,-0.03299 0.09317,0 0.378346,-0.260317 0.378346,-0.345357 0,-0.02766 0.01479,-0.05031 0.03292,-0.05031 0.01819,0 0.03299,-0.04452 0.03299,-0.0989 0,-0.05438 0.01486,-0.0989 0.03299,-0.0989 0.02166,0 0.03299,-0.769355 0.03299,-2.242153 v -2.242153 h 0.230794 c 0.131891,0 0.230793,0.01412 0.230793,0.03299 0,0.01919 0.109898,0.03299 0.263783,0.03299 0.153884,0 0.263782,0.01373 0.263782,0.03292 0,0.01833 0.08797,0.03299 0.19787,0.03299 0.109898,0 0.197804,0.01467 0.197804,0.03299 0,0.01833 0.08797,0.03299 0.197871,0.03299 0.109897,0 0.197803,0.01459 0.197803,0.03292 0,0.01813 0.05938,0.03299 0.131891,0.03299 0.07258,0 0.131892,0.01486 0.131892,0.03299 0,0.01813 0.05938,0.03299 0.131891,0.03299 0.07258,0 0.131891,0.01479 0.131891,0.03292 0,0.01813 0.04452,0.03299 0.0989,0.03299 0.05445,0 0.09897,0.01486 0.09897,0.03299 0,0.01813 0.05932,0.03299 0.131891,0.03299 0.07252,0 0.131892,0.01479 0.131892,0.03292 0,0.01813 0.04445,0.03299 0.0989,0.03299 0.05438,0 0.0989,0.01486 0.0989,0.03299 0,0.01813 0.04452,0.03299 0.0989,0.03299 0.05445,0 0.09897,0.01479 0.09897,0.03292 0,0.01813 0.04445,0.03299 0.0989,0.03299 0.05438,0 0.0989,0.01486 0.0989,0.03299 0,0.01813 0.04452,0.03299 0.0989,0.03299 0.05445,0 0.0989,0.01479 0.0989,0.03292 0,0.01813 0.02973,0.03299 0.06598,0.03299 0.03625,0 0.06592,0.01486 0.06592,0.03299 0,0.01813 0.04452,0.03299 0.09897,0.03299 0.05438,0 0.0989,0.01479 0.0989,0.03292 0,0.01813 0.02965,0.03299 0.06592,0.03299 0.03632,0 0.06598,0.01486 0.06598,0.03299 0,0.01813 0.04125,0.03299 0.09163,0.03299 0.05378,0 0.111231,0.02719 0.139155,0.06592 0.02619,0.03625 0.08244,0.06598 0.125027,0.06598 0.04265,0 0.09877,0.02119 0.124628,0.04712 0.05405,0.05398 0.06312,0.150686 0.01412,0.150686 -0.01813,0 -0.03299,0.02965 -0.03299,0.06598 0,0.03625 -0.01479,0.06592 -0.03292,0.06592 -0.01813,0 -0.03299,0.0264 -0.03299,0.05865 0,0.03233 -0.02965,0.08004 -0.06598,0.106233 -0.03625,0.02613 -0.06592,0.07391 -0.06592,0.106166 0,0.03225 -0.01486,0.05871 -0.03298,0.05871 -0.01813,0 -0.03299,0.0264 -0.03299,0.05865 0,0.03225 -0.02965,0.08004 -0.06592,0.106166 -0.03625,0.02619 -0.06598,0.07397 -0.06598,0.106233 0,0.03225 -0.01479,0.05865 -0.03292,0.05865 -0.01813,0 -0.03299,0.02965 -0.03299,0.06598 0,0.03625 -0.01486,0.06592 -0.03299,0.06592 -0.01813,0 -0.03299,0.0264 -0.03299,0.05865 0,0.03233 -0.02965,0.08004 -0.06592,0.106232 -0.03625,0.02613 -0.06592,0.07391 -0.06592,0.106167 0,0.03226 -0.01486,0.05865 -0.03299,0.05865 -0.01813,0 -0.03299,0.02973 -0.03299,0.06598 0,0.03625 -0.01486,0.06592 -0.03299,0.06592 -0.01813,0 -0.03299,0.02646 -0.03299,0.05871 0,0.03226 -0.02965,0.08004 -0.06592,0.106166 -0.03872,0.02793 -0.06598,0.08537 -0.06598,0.139222 0,0.05039 -0.01479,0.09157 -0.03292,0.09157 -0.01833,0 -0.03298,0.08797 -0.03298,0.19787 0,0.109899 0.01466,0.197803 0.03298,0.197803 0.01813,0 0.03292,0.02973 0.03292,0.06598 0,0.03625 0.01486,0.06592 0.03299,0.06592 0.01813,0 0.03299,0.02266 0.03299,0.05031 0,0.06545 0.279911,0.345357 0.345357,0.345357 0.02766,0 0.05031,0.01486 0.05031,0.03299 0,0.0196 0.120895,0.03299 0.296772,0.03299 0.17581,0 0.296705,-0.01339 0.296705,-0.03299 0,-0.01813 0.02266,-0.03299 0.05031,-0.03299 0.06138,0 0.345357,-0.277978 0.345357,-0.338026 0,-0.02366 0.02973,-0.06445 0.06598,-0.09057 0.03625,-0.02619 0.06592,-0.07398 0.06592,-0.106233 0,-0.03225 0.01486,-0.05865 0.03299,-0.05865 0.01813,0 0.03299,-0.0264 0.03299,-0.05865 0,-0.03233 0.02965,-0.08004 0.06592,-0.106233 0.03632,-0.02612 0.06598,-0.07391 0.06598,-0.106166 0,-0.03225 0.01486,-0.05871 0.03299,-0.05871 0.01813,0 0.03292,-0.02965 0.03292,-0.06592 0,-0.03625 0.01486,-0.06598 0.03299,-0.06598 0.01813,0 0.03299,-0.0264 0.03299,-0.05865 0,-0.03225 0.02965,-0.08004 0.06592,-0.106167 0.03632,-0.02619 0.06598,-0.07397 0.06598,-0.106232 0,-0.03226 0.01486,-0.05865 0.03299,-0.05865 0.01813,0 0.03292,-0.02965 0.03292,-0.06598 0,-0.03625 0.01486,-0.06592 0.03299,-0.06592 0.01813,0 0.03299,-0.0264 0.03299,-0.05865 0,-0.03233 0.02965,-0.08004 0.06592,-0.106233 0.03632,-0.02613 0.06598,-0.07391 0.06598,-0.106166 0,-0.03226 0.01486,-0.05865 0.03299,-0.05865 0.01813,0 0.03292,-0.02973 0.03292,-0.06598 0,-0.04392 0.02199,-0.06592 0.06598,-0.06592 0.03625,0 0.06592,0.0148 0.06592,0.03292 0,0.01813 0.02646,0.03299 0.05871,0.03299 0.03225,0 0.08004,0.02965 0.106166,0.06598 0.02612,0.03625 0.07064,0.06592 0.0989,0.06592 0.02826,0 0.07277,0.02965 0.09897,0.06598 0.02612,0.03625 0.06764,0.06592 0.09224,0.06592 0.02466,0 0.101834,0.05938 0.171546,0.131892 0.06964,0.0725 0.143687,0.131891 0.164414,0.131891 0.02072,0 0.109899,0.07418 0.19827,0.164881 0.0883,0.09064 0.176477,0.164814 0.195938,0.164814 0.04612,0 1.254867,1.208749 1.254867,1.254934 0,0.01939 0.07418,0.107566 0.164814,0.195871 0.09071,0.08837 0.164881,0.17761 0.164881,0.19827 0,0.02072 0.05938,0.09477 0.131892,0.164482 0.07258,0.06971 0.131891,0.14682 0.131891,0.171478 0,0.02459 0.02965,0.06611 0.06598,0.0923 0.03625,0.02613 0.06592,0.07064 0.06592,0.0989 0,0.02826 0.02965,0.07278 0.06598,0.0989 0.03625,0.02613 0.06592,0.06758 0.06592,0.09204 0,0.05744 -0.08131,0.138756 -0.138756,0.138756 -0.02446,0 -0.06592,0.02973 -0.09204,0.06598 -0.02613,0.03625 -0.07391,0.06592 -0.106232,0.06592 -0.03219,0 -0.05865,0.01486 -0.05865,0.03299 0,0.01813 -0.02965,0.03299 -0.06592,0.03299 -0.03632,0 -0.06598,0.0148 -0.06598,0.03299 0,0.01813 -0.02639,0.03292 -0.05865,0.03292 -0.03226,0 -0.08004,0.02973 -0.106233,0.06598 -0.02613,0.03625 -0.07391,0.06592 -0.106166,0.06592 -0.03226,0 -0.05865,0.01486 -0.05865,0.03299 0,0.01813 -0.02973,0.03299 -0.06598,0.03299 -0.03625,0 -0.06592,0.01479 -0.06592,0.03299 0,0.01813 -0.02646,0.03292 -0.05865,0.03292 -0.03233,0 -0.08011,0.02973 -0.106234,0.06598 -0.02613,0.03625 -0.07391,0.06592 -0.106232,0.06592 -0.03219,0 -0.05865,0.01486 -0.05865,0.03299 0,0.01813 -0.02965,0.03299 -0.06592,0.03299 -0.03625,0 -0.06598,0.0148 -0.06598,0.03299 0,0.01813 -0.02639,0.03292 -0.05865,0.03292 -0.03226,0 -0.08004,0.02973 -0.106166,0.06598 -0.02619,0.03625 -0.06725,0.06592 -0.09124,0.06592 -0.06018,0 -0.205534,0.150552 -0.205534,0.212866 0,0.02799 -0.01486,0.05092 -0.03299,0.05092 -0.01813,0 -0.03299,0.02973 -0.03299,0.06598 0,0.03625 -0.01479,0.06592 -0.03292,0.06592 -0.01926,0 -0.03299,0.109898 -0.03299,0.263782 0,0.153884 0.01373,0.263783 0.03299,0.263783 0.01813,0 0.03292,0.02973 0.03292,0.06598 0,0.03625 0.01486,0.06592 0.03299,0.06592 0.01813,0 0.03299,0.02293 0.03299,0.05098 0,0.06598 0.14682,0.2128 0.212798,0.2128 0.02806,0 0.05098,0.01486 0.05098,0.03299 0,0.01813 0.02965,0.03299 0.06592,0.03299 0.03625,0 0.06598,0.01479 0.06598,0.03292 0,0.01927 0.109898,0.03299 0.263783,0.03299 0.153884,0 0.263783,-0.01373 0.263783,-0.03299 0,-0.01813 0.02965,-0.03292 0.06592,-0.03292 0.03625,0 0.06598,-0.01486 0.06598,-0.03299 0,-0.01813 0.02965,-0.03299 0.06592,-0.03299 0.03625,0 0.06598,-0.0148 0.06598,-0.03299 0,-0.01813 0.02965,-0.03292 0.06592,-0.03292 0.03625,0 0.06598,-0.01486 0.06598,-0.03299 0,-0.01813 0.02639,-0.03299 0.05865,-0.03299 0.03225,0 0.08004,-0.02965 0.106166,-0.06592 0.02619,-0.03632 0.07397,-0.06598 0.106232,-0.06598 0.03226,0 0.05865,-0.01479 0.05865,-0.03299 0,-0.01813 0.02965,-0.03292 0.06598,-0.03292 0.03625,0 0.06592,-0.01486 0.06592,-0.03299 0,-0.01813 0.02646,-0.03299 0.05865,-0.03299 0.03233,0 0.0801,-0.02965 0.106233,-0.06592 0.02613,-0.03625 0.07391,-0.06598 0.106233,-0.06598 0.03219,0 0.05865,-0.01479 0.05865,-0.03299 0,-0.01813 0.02965,-0.03292 0.06592,-0.03292 0.03625,0 0.06598,-0.01486 0.06598,-0.03299 0,-0.01813 0.02639,-0.03299 0.05865,-0.03299 0.03226,0 0.08004,-0.02965 0.106166,-0.06591 0.02619,-0.03625 0.07397,-0.06598 0.106233,-0.06598 0.03226,0 0.05865,-0.01479 0.05865,-0.03299 0,-0.01813 0.02846,-0.03292 0.06324,-0.03292 0.03472,0 0.06931,-0.01839 0.07677,-0.04092 0.01819,-0.05452 0.123761,0.04878 0.123761,0.120961 0,0.02853 0.01486,0.05185 0.03299,0.05185 0.01813,0 0.03298,0.02965 0.03298,0.06591 0,0.03625 0.01479,0.06598 0.03292,0.06598 0.01813,0 0.03299,0.04452 0.03299,0.0989 0,0.05438 0.01486,0.0989 0.03299,0.0989 0.01813,0 0.03299,0.02973 0.03299,0.06598 0,0.03625 0.01479,0.06592 0.03292,0.06592 0.01813,0 0.03299,0.02965 0.03299,0.06598 0,0.03625 0.01486,0.06592 0.03299,0.06592 0.01813,0 0.03299,0.04452 0.03299,0.0989 0,0.05445 0.01479,0.09897 0.03292,0.09897 0.01813,0 0.03299,0.04452 0.03299,0.0989 0,0.05438 0.01486,0.0989 0.03299,0.0989 0.01813,0 0.03299,0.02965 0.03299,0.06598 0,0.03625 0.01479,0.06592 0.03292,0.06592 0.01819,0 0.03298,0.04452 0.03298,0.0989 0,0.05445 0.01486,0.09897 0.03299,0.09897 0.01813,0 0.03299,0.04452 0.03299,0.0989 0,0.05438 0.01479,0.0989 0.03292,0.0989 0.01813,0 0.03298,0.05938 0.03298,0.131891 0,0.07258 0.01486,0.131891 0.03299,0.131891 0.01813,0 0.03299,0.04452 0.03299,0.0989 0,0.05445 0.01479,0.09897 0.03292,0.09897 0.01813,0 0.03299,0.05932 0.03299,0.131891 0,0.07251 0.01486,0.131892 0.03299,0.131892 0.01813,0 0.03298,0.05932 0.03298,0.131891 0,0.07251 0.01479,0.131891 0.03292,0.131891 0.01813,0 0.03299,0.07418 0.03299,0.164814 0,0.09071 0.01486,0.164882 0.03299,0.164882 0.01813,0 0.03298,0.07418 0.03298,0.16488 0,0.09064 0.01479,0.164881 0.03292,0.164881 0.01886,0 0.03299,0.0989 0.03299,0.230793 0,0.131891 0.01412,0.230793 0.03299,0.230793 0.01953,0 0.03299,0.120895 0.03299,0.296772 0,0.175812 0.01339,0.296773 0.03292,0.296773 0.05211,0 0.03846,0.09817 -0.02206,0.158682 -0.04005,0.03999 -0.05879,0.04385 -0.06871,0.01406 -0.01746,-0.05252 -2.514067,-0.06038 -2.514067,-0.0079 0,0.01813 -0.02965,0.03299 -0.06591,0.03299 -0.03633,0 -0.06598,-0.01486 -0.06598,-0.03299 0,-0.02072 -0.219797,-0.03299 -0.593478,-0.03299 -0.373681,0 -0.593544,0.01226 -0.593544,0.03299 0,0.01813 -0.02965,0.03299 -0.06592,0.03299 -0.03625,0 -0.06598,-0.01486 -0.06598,-0.03299 0,-0.01813 -0.07418,-0.03299 -0.164815,-0.03299 -0.09071,0 -0.16488,0.01486 -0.16488,0.03299 0,0.01813 -0.07418,0.03299 -0.164881,0.03299 -0.09064,0 -0.164881,0.01486 -0.164881,0.03299 0,0.01813 -0.02272,0.03299 -0.05051,0.03299 -0.06565,0 -0.279178,0.213465 -0.279178,0.279177 0,0.02779 -0.01486,0.05052 -0.03299,0.05052 -0.01813,0 -0.03299,0.02965 -0.03299,0.06592 0,0.03632 -0.01479,0.06598 -0.03292,0.06598 -0.01926,0 -0.03299,0.109899 -0.03299,0.263783 0,0.153884 0.01373,0.263783 0.03299,0.263783 0.01813,0 0.03292,0.02965 0.03292,0.06592 0,0.03632 0.01486,0.06598 0.03299,0.06598 0.01813,0 0.03299,0.02333 0.03299,0.05178 0,0.06358 0.07838,0.14602 0.138756,0.14602 0.02446,0 0.06592,0.02973 0.09204,0.06598 0.02612,0.03625 0.07391,0.06592 0.106233,0.06592 0.03226,0 0.05865,0.01486 0.05865,0.03299 0,0.02166 0.802344,0.03299 2.341054,0.03299 2.319063,0 2.341055,6e-4 2.341055,0.06592 0,0.03632 -0.01486,0.06598 -0.03299,0.06598 -0.0198,0 -0.03292,0.131891 -0.03292,0.329694 0,0.197871 -0.0132,0.329762 -0.03299,0.329762 -0.01833,0 -0.03299,0.08791 -0.03299,0.197805 0,0.109898 -0.01467,0.197869 -0.03299,0.197869 -0.01833,0 -0.03292,0.08791 -0.03292,0.197804 0,0.109899 -0.01466,0.19787 -0.03299,0.19787 -0.01813,0 -0.03299,0.05932 -0.03299,0.131892 0,0.07251 -0.01486,0.131891 -0.03299,0.131891 -0.01813,0 -0.03292,0.07418 -0.03292,0.164881 0,0.09064 -0.01486,0.164814 -0.03299,0.164814 -0.01813,0 -0.03299,0.04452 -0.03299,0.09897 0,0.05438 -0.01486,0.0989 -0.03299,0.0989 -0.01813,0 -0.03292,0.05932 -0.03292,0.131891 0,0.07251 -0.01486,0.131892 -0.03298,0.131892 -0.01813,0 -0.03299,0.04452 -0.03299,0.0989 0,0.05438 -0.01486,0.0989 -0.03299,0.0989 -0.01813,0 -0.03292,0.04452 -0.03292,0.0989 0,0.05445 -0.01486,0.09897 -0.03299,0.09897 -0.01813,0 -0.03298,0.04452 -0.03298,0.0989 0,0.05438 -0.01479,0.0989 -0.03299,0.0989 -0.01813,0 -0.03292,0.04452 -0.03292,0.0989 0,0.05445 -0.01486,0.09897 -0.03299,0.09897 -0.01813,0 -0.03299,0.02965 -0.03299,0.06592 0,0.03625 -0.01486,0.06598 -0.03299,0.06598 -0.01813,0 -0.03292,0.04452 -0.03292,0.0989 0,0.05438 -0.01486,0.0989 -0.03298,0.0989 -0.01813,0 -0.03299,0.04452 -0.03299,0.0989 0,0.05445 -0.01486,0.09897 -0.03299,0.09897 -0.01813,0 -0.03292,0.02965 -0.03292,0.06592 0,0.03625 -0.01486,0.06598 -0.03299,0.06598 -0.01813,0 -0.03298,0.02965 -0.03298,0.06592 0,0.03625 -0.01486,0.06598 -0.03299,0.06598 -0.01813,0 -0.03292,0.02965 -0.03292,0.06592 0,0.03625 -0.01486,0.06598 -0.03299,0.06598 -0.01813,0 -0.03298,0.02326 -0.03298,0.05178 0,0.02852 -0.02119,0.07305 -0.04712,0.0989 -0.05399,0.05405 -0.150685,0.06312 -0.150685,0.01412 0,-0.01813 -0.02973,-0.03292 -0.06598,-0.03292 -0.03625,0 -0.06592,-0.01486 -0.06592,-0.03299 0,-0.01813 -0.02646,-0.03299 -0.05871,-0.03299 -0.03226,0 -0.08004,-0.02965 -0.106166,-0.06592 -0.02613,-0.03632 -0.07391,-0.06598 -0.106233,-0.06598 -0.03219,0 -0.05865,-0.01479 -0.05865,-0.03299 0,-0.01813 -0.0264,-0.03292 -0.05865,-0.03292 -0.03225,0 -0.08004,-0.02973 -0.106232,-0.06598 -0.02613,-0.03625 -0.07391,-0.06592 -0.106166,-0.06592 -0.03226,0 -0.05865,-0.01486 -0.05865,-0.03299 0,-0.01813 -0.02973,-0.03299 -0.06598,-0.03299 -0.03625,0 -0.06592,-0.01479 -0.06592,-0.03298 0,-0.01813 -0.02973,-0.03292 -0.06598,-0.03292 -0.03625,0 -0.06592,-0.01486 -0.06592,-0.03299 0,-0.01813 -0.02646,-0.03299 -0.05865,-0.03299 -0.03232,0 -0.08011,-0.02965 -0.106232,-0.06592 -0.02613,-0.03633 -0.07391,-0.06598 -0.106233,-0.06598 -0.03219,0 -0.05865,-0.01479 -0.05865,-0.03299 0,-0.01813 -0.02639,-0.03292 -0.05865,-0.03292 -0.03225,0 -0.08004,-0.02973 -0.106233,-0.06598 -0.03306,-0.04592 -0.08531,-0.06592 -0.172145,-0.06592 -0.06851,0 -0.124561,-0.01486 -0.124561,-0.03299 0,-0.01813 -0.05938,-0.03299 -0.131891,-0.03299 -0.07258,0 -0.131891,0.01486 -0.131891,0.03299 0,0.01813 -0.04452,0.03299 -0.0989,0.03299 -0.05445,0 -0.09897,0.0148 -0.09897,0.03292 0,0.01819 -0.02272,0.03299 -0.05051,0.03299 -0.06564,0 -0.279177,0.213532 -0.279177,0.279177 0,0.02779 -0.01486,0.05059 -0.03299,0.05059 -0.01813,0 -0.03299,0.02965 -0.03299,0.06592 0,0.03625 -0.01479,0.06598 -0.03292,0.06598 -0.01886,0 -0.03299,0.0989 -0.03299,0.230793 0,0.131892 0.01412,0.230793 0.03299,0.230793 0.01813,0 0.03292,0.03746 0.03292,0.08317 0,0.09324 0.325164,0.444392 0.41147,0.444392 0.02759,0 0.05018,0.01486 0.05018,0.03298 0,0.01813 0.02965,0.03299 0.06592,0.03299 0.03625,0 0.06598,0.01479 0.06598,0.03292 0,0.01819 0.02639,0.03299 0.05865,0.03299 0.03225,0 0.08004,0.02965 0.106232,0.06598 0.02612,0.03625 0.07391,0.06591 0.106166,0.06591 0.03226,0 0.05865,0.01486 0.05865,0.03299 0,0.01813 0.02973,0.03299 0.06598,0.03299 0.03625,0 0.06592,0.01479 0.06592,0.03292 0,0.01813 0.02646,0.03299 0.05865,0.03299 0.03233,0 0.08011,0.02965 0.106233,0.06598 0.02613,0.03625 0.07391,0.06592 0.106233,0.06592 0.03219,0 0.05865,0.01486 0.05865,0.03299 0,0.01813 0.02965,0.03299 0.06591,0.03299 0.03625,0 0.06598,0.01479 0.06598,0.03292 0,0.01813 0.02639,0.03299 0.05865,0.03299 0.03225,0 0.08004,0.02965 0.106166,0.06598 0.02619,0.03625 0.07398,0.06592 0.106233,0.06592 0.03225,0 0.05865,0.01486 0.05865,0.03299 0,0.01813 0.02965,0.03299 0.06598,0.03299 0.1045,0 0.08537,0.153218 -0.03299,0.263784 -0.05438,0.05078 -0.0989,0.110165 -0.0989,0.131891 0,0.02172 -0.04452,0.08104 -0.09897,0.131891 -0.05438,0.05078 -0.0989,0.109832 -0.0989,0.131224 0,0.02133 -0.05932,0.09577 -0.131892,0.165481 -0.07251,0.06972 -0.131891,0.143421 -0.131891,0.163882 0,0.02046 -0.103833,0.139555 -0.230793,0.264781 -0.12696,0.125227 -0.230794,0.24339 -0.230794,0.262651 0,0.04551 -0.614936,0.66059 -0.660455,0.66059 -0.01919,0 -0.152219,0.118695 -0.295773,0.263782 -0.143555,0.145087 -0.277579,0.263783 -0.297972,0.263783 -0.02027,0 -0.09397,0.05932 -0.163615,0.131891 -0.06971,0.07251 -0.146886,0.131891 -0.171545,0.131891 -0.02459,0 -0.06611,0.02965 -0.09224,0.06592 -0.02619,0.03632 -0.06805,0.06598 -0.09304,0.06598 -0.02493,0 -0.08697,0.04452 -0.137823,0.0989 -0.05078,0.05438 -0.110698,0.0989 -0.132957,0.0989 -0.02233,0 -0.06778,0.03133 -0.100968,0.06958 -0.05425,0.06258 -0.06538,0.06451 -0.111032,0.01886 -0.02786,-0.02793 -0.05072,-0.07404 -0.05072,-0.102567 0,-0.02846 -0.0148,-0.05178 -0.03292,-0.05178 -0.01813,0 -0.03299,-0.02965 -0.03299,-0.06598 0,-0.03625 -0.01486,-0.06592 -0.03299,-0.06592 -0.01813,0 -0.03298,-0.0264 -0.03298,-0.05865 0,-0.03233 -0.02965,-0.08004 -0.06592,-0.106233 -0.03625,-0.02613 -0.06598,-0.07391 -0.06598,-0.106166 0,-0.03225 -0.01479,-0.05871 -0.03292,-0.05871 -0.01813,0 -0.03299,-0.0264 -0.03299,-0.05865 0,-0.03226 -0.02965,-0.08004 -0.06598,-0.106166 -0.03625,-0.02619 -0.06592,-0.07398 -0.06592,-0.106233 0,-0.03225 -0.01486,-0.05865 -0.03299,-0.05865 -0.01813,0 -0.03299,-0.02965 -0.03299,-0.06598 0,-0.03625 -0.01479,-0.06592 -0.03292,-0.06592 -0.01813,0 -0.03299,-0.0264 -0.03299,-0.05865 0,-0.03233 -0.02965,-0.08004 -0.06598,-0.106234 -0.03625,-0.02613 -0.06592,-0.07391 -0.06592,-0.106166 0,-0.03225 -0.01486,-0.05871 -0.03299,-0.05871 -0.01813,0 -0.03298,-0.02965 -0.03298,-0.06592 0,-0.03625 -0.01479,-0.06598 -0.03292,-0.06598 -0.01813,0 -0.03299,-0.0226 -0.03299,-0.05032 0,-0.06545 -0.279911,-0.345289 -0.345356,-0.345289 -0.02766,0 -0.05032,-0.01486 -0.05032,-0.03299 0,-0.01813 -0.04452,-0.03299 -0.0989,-0.03299 -0.05445,0 -0.09897,-0.01486 -0.09897,-0.03299 0,-0.01813 -0.07418,-0.03292 -0.164814,-0.03292 -0.09071,0 -0.164881,0.01479 -0.164881,0.03292 0,0.01813 -0.02965,0.03299 -0.06598,0.03299 -0.03625,0 -0.06592,0.01486 -0.06592,0.03299 0,0.01813 -0.02965,0.03299 -0.06598,0.03299 -0.03625,0 -0.06592,0.01479 -0.06592,0.03292 0,0.01813 -0.02965,0.03299 -0.06592,0.03299 -0.04125,0 -0.06598,0.02199 -0.06598,0.05865 0,0.03233 -0.02965,0.08004 -0.06598,0.106233 -0.03625,0.02613 -0.06592,0.07391 -0.06592,0.106166 0,0.03225 -0.01486,0.05865 -0.03298,0.05865 -0.01953,0 -0.03299,0.120961 -0.03299,0.296772 0,0.175877 0.01346,0.296772 0.03299,0.296772 0.01813,0 0.03298,0.02965 0.03298,0.06592 0,0.03633 0.01486,0.06598 0.03299,0.06598 0.01813,0 0.03292,0.02965 0.03292,0.06592 0,0.03632 0.01486,0.06598 0.03299,0.06598 0.01813,0 0.03299,0.02965 0.03299,0.06592 0,0.03632 0.01486,0.06598 0.03299,0.06598 0.01813,0 0.03299,0.02639 0.03299,0.05865 0,0.03225 0.02965,0.08004 0.06592,0.106233 0.03625,0.02612 0.06592,0.07391 0.06592,0.106166 0,0.03225 0.01486,0.05865 0.03299,0.05865 0.01813,0 0.03299,0.02646 0.03299,0.05871 0,0.03225 0.02965,0.08004 0.06592,0.106166 0.03632,0.02619 0.06598,0.07391 0.06598,0.106233 0,0.03225 0.01486,0.05865 0.03299,0.05865 0.01813,0 0.03292,0.02639 0.03292,0.05865 0,0.03226 0.02973,0.08004 0.06598,0.106233 0.03625,0.02612 0.06592,0.07391 0.06592,0.106166 0,0.03226 0.01486,0.05865 0.03299,0.05865 0.01813,0 0.03299,0.02973 0.03299,0.06598 0,0.03625 0.01486,0.06592 0.03299,0.06592 0.01813,0 0.03292,0.02426 0.03292,0.05385 0,0.02965 0.03132,0.08098 0.06958,0.114164 0.06258,0.05425 0.06451,0.06538 0.01886,0.111031 -0.02793,0.02793 -0.07404,0.05072 -0.102568,0.05072 -0.02846,0 -0.05178,0.01479 -0.05178,0.03299 0,0.01813 -0.02965,0.03292 -0.06598,0.03292 -0.03625,0 -0.06592,0.01486 -0.06592,0.03299 0,0.01813 -0.04452,0.03299 -0.0989,0.03299 -0.05445,0 -0.09897,0.0148 -0.09897,0.03299 0,0.01813 -0.02965,0.03292 -0.06592,0.03292 -0.03625,0 -0.06598,0.01486 -0.06598,0.03299 0,0.01813 -0.02965,0.03298 -0.06592,0.03298 -0.03625,0 -0.06592,0.01479 -0.06592,0.03299 0,0.01813 -0.04452,0.03292 -0.09897,0.03292 -0.05438,0 -0.0989,0.01486 -0.0989,0.03299 0,0.01813 -0.04452,0.03298 -0.0989,0.03298 -0.05445,0 -0.0989,0.01479 -0.0989,0.03299 0,0.01813 -0.04452,0.03292 -0.09897,0.03292 -0.05438,0 -0.0989,0.01486 -0.0989,0.03299 0,0.01813 -0.02966,0.03299 -0.06592,0.03299 -0.03632,0 -0.06598,0.01479 -0.06598,0.03298 0,0.01813 -0.04452,0.03292 -0.0989,0.03292 -0.05445,0 -0.0989,0.01486 -0.0989,0.03299 0,0.01813 -0.05938,0.03299 -0.131891,0.03299 -0.07258,0 -0.131892,0.01479 -0.131892,0.03299 0,0.01813 -0.04452,0.03292 -0.09897,0.03292 -0.05438,0 -0.0989,0.01486 -0.0989,0.03299 0,0.01813 -0.05932,0.03299 -0.131891,0.03299 -0.07252,0 -0.131891,0.01479 -0.131891,0.03299 0,0.01813 -0.05932,0.03292 -0.131891,0.03292 -0.07251,0 -0.131892,0.01486 -0.131892,0.03299 0,0.01813 -0.07418,0.03298 -0.164881,0.03298 -0.09064,0 -0.164814,0.0148 -0.164814,0.03299 0,0.01813 -0.07424,0.03292 -0.164881,0.03292 -0.09071,0 -0.164881,0.01486 -0.164881,0.03299 0,0.01886 -0.0989,0.03299 -0.230794,0.03299 -0.131891,0 -0.230792,0.01412 -0.230792,0.03298 0,0.01972 -0.131891,0.03292 -0.329762,0.03292 -0.197804,0 -0.329695,0.0132 -0.329695,0.03299 0,0.01813 -0.02973,0.03299 -0.06598,0.03299 -0.06531,0 -0.06592,-0.02199 -0.06592,-2.275142 0,-1.494725 -0.01133,-2.275076 -0.03299,-2.275076 -0.01813,0 -0.03299,-0.04452 -0.03299,-0.09897 0,-0.05438 -0.01479,-0.0989 -0.03298,-0.0989 -0.01813,0 -0.03292,-0.02293 -0.03292,-0.05092 0,-0.06232 -0.145421,-0.212866 -0.205602,-0.212866 -0.02399,0 -0.06504,-0.02965 -0.09117,-0.06592 -0.03312,-0.04598 -0.08537,-0.06598 -0.172144,-0.06598 -0.06851,0 -0.124628,-0.01486 -0.124628,-0.03299 0,-0.01813 -0.04452,-0.03292 -0.0989,-0.03292 -0.05438,0 -0.0989,0.01479 -0.0989,0.03292 0,0.01813 -0.05938,0.03299 -0.131891,0.03299 -0.07258,0 -0.131891,0.01486 -0.131891,0.03299 0,0.01813 -0.02279,0.03299 -0.05058,0.03299 -0.06565,0 -0.279178,0.213532 -0.279178,0.279177 0,0.02779 -0.01479,0.05052 -0.03292,0.05052 -0.01819,0 -0.03299,0.04452 -0.03299,0.0989 0,0.05445 -0.01486,0.09897 -0.03299,0.09897 -0.02166,0 -0.03299,0.780351 -0.03299,2.275076 v 2.275142 H 32.14428 c -0.09071,0 -0.164881,-0.01486 -0.164881,-0.03298 0,-0.01953 -0.120895,-0.03299 -0.296772,-0.03299 -0.17581,0 -0.296772,-0.01339 -0.296772,-0.03292 0,-0.01839 -0.08791,-0.03299 -0.197804,-0.03299 -0.109898,0 -0.19787,-0.01467 -0.19787,-0.03298 0,-0.01813 -0.07418,-0.03299 -0.164815,-0.03299 -0.09071,0 -0.16488,-0.01479 -0.16488,-0.03292 0,-0.01819 -0.07418,-0.03299 -0.164881,-0.03299 -0.09063,0 -0.164881,-0.01486 -0.164881,-0.03299 0,-0.01813 -0.05932,-0.03299 -0.131891,-0.03299 -0.07251,0 -0.131892,-0.01479 -0.131892,-0.03292 0,-0.01819 -0.05932,-0.03298 -0.131891,-0.03298 -0.07251,0 -0.131891,-0.01486 -0.131891,-0.03299 0,-0.01813 -0.04445,-0.03299 -0.0989,-0.03299 -0.05438,0 -0.0989,-0.01479 -0.0989,-0.03292 0,-0.01819 -0.04452,-0.03299 -0.0989,-0.03299 -0.05445,0 -0.09897,-0.01486 -0.09897,-0.03298 0,-0.01813 -0.05932,-0.03299 -0.131891,-0.03299 -0.07251,0 -0.131892,-0.01479 -0.131892,-0.03292 0,-0.01819 -0.02965,-0.03299 -0.06592,-0.03299 -0.03625,0 -0.06598,-0.01486 -0.06598,-0.03298 0,-0.01813 -0.04445,-0.03299 -0.0989,-0.03299 -0.05438,0 -0.0989,-0.01479 -0.0989,-0.03292 0,-0.01819 -0.04452,-0.03299 -0.0989,-0.03299 -0.05445,0 -0.09897,-0.01486 -0.09897,-0.03299 0,-0.01813 -0.02965,-0.03298 -0.06592,-0.03298 -0.03625,0 -0.06592,-0.01479 -0.06592,-0.03292 0,-0.01819 -0.04452,-0.03299 -0.09897,-0.03299 -0.05438,0 -0.0989,-0.01486 -0.0989,-0.03299 0,-0.01813 -0.02965,-0.03299 -0.06592,-0.03299 -0.03632,0 -0.06598,-0.01479 -0.06598,-0.03292 0,-0.01819 -0.02965,-0.03299 -0.06592,-0.03299 -0.03632,0 -0.06598,-0.01486 -0.06598,-0.03299 0,-0.01813 -0.02965,-0.03299 -0.06592,-0.03299 -0.03632,0 -0.06598,-0.01479 -0.06598,-0.03292 0,-0.01819 -0.02965,-0.03299 -0.06592,-0.03299 -0.04399,0 -0.06598,-0.02199 -0.06598,-0.06598 0,-0.03625 0.01486,-0.06592 0.03299,-0.06592 0.01813,0 0.03299,-0.02965 0.03299,-0.06598 0,-0.03625 0.01479,-0.06592 0.03292,-0.06592 0.01813,0 0.03299,-0.0264 0.03299,-0.05865 0,-0.03233 0.02965,-0.08011 0.06598,-0.106233 0.03625,-0.02612 0.06592,-0.07391 0.06592,-0.106167 0,-0.03225 0.01486,-0.05871 0.03299,-0.05871 0.01813,0 0.03299,-0.02965 0.03299,-0.06592 0,-0.03625 0.01479,-0.06598 0.03292,-0.06598 0.01813,0 0.03299,-0.0264 0.03299,-0.05865 0,-0.03225 0.02965,-0.08004 0.06598,-0.106166 0.03625,-0.02619 0.06592,-0.07397 0.06592,-0.106232 0,-0.03226 0.01486,-0.05865 0.03299,-0.05865 0.01813,0 0.03299,-0.02639 0.03299,-0.05865 0,-0.03232 0.02965,-0.08011 0.06592,-0.106233 0.03625,-0.02612 0.06598,-0.07391 0.06598,-0.106166 0,-0.03225 0.01479,-0.05871 0.03292,-0.05871 0.01813,0 0.03299,-0.02965 0.03299,-0.06592 0,-0.03625 0.01486,-0.06598 0.03299,-0.06598 0.01813,0 0.03292,-0.02965 0.03292,-0.06592 0,-0.03625 0.01486,-0.06598 0.03299,-0.06598 0.01813,0 0.03299,-0.02965 0.03299,-0.06592 0,-0.03625 0.01486,-0.06598 0.03299,-0.06598 0.01813,0 0.03292,-0.02965 0.03292,-0.06592 0,-0.03625 0.01486,-0.06598 0.03299,-0.06598 0.01886,0 0.03299,-0.0989 0.03299,-0.230793 0,-0.131892 -0.01413,-0.230793 -0.03299,-0.230793 -0.01813,0 -0.03299,-0.03752 -0.03299,-0.08331 0,-0.0931 -0.260316,-0.37828 -0.345356,-0.37828 -0.02765,0 -0.05025,-0.01486 -0.05025,-0.03299 0,-0.01813 -0.04452,-0.03299 -0.09897,-0.03299 -0.05438,0 -0.0989,-0.01486 -0.0989,-0.03299 0,-0.01813 -0.05938,-0.03292 -0.131891,-0.03292 -0.07252,0 -0.131891,0.01479 -0.131891,0.03292 0,0.01813 -0.05338,0.03299 -0.118696,0.03299 -0.0893,0 -0.141489,0.02446 -0.211,0.0989 -0.05085,0.05445 -0.116163,0.09897 -0.145153,0.09897 -0.02899,0 -0.05272,0.0264 -0.05272,0.05865 0,0.03226 -0.02965,0.08004 -0.06592,0.106166 -0.03632,0.02619 -0.06598,0.07391 -0.06598,0.106233 0,0.03226 -0.01486,0.05865 -0.03299,0.05865 -0.01813,0 -0.03292,0.02965 -0.03292,0.06592 0,0.03632 -0.01486,0.06598 -0.03299,0.06598 -0.01813,0 -0.03299,0.0264 -0.03299,0.05865 0,0.03233 -0.02965,0.08004 -0.06592,0.106233 -0.03632,0.02612 -0.06598,0.07391 -0.06598,0.106166 0,0.03225 -0.01486,0.05865 -0.03299,0.05865 -0.01813,0 -0.03292,0.02973 -0.03292,0.06598 0,0.03625 -0.01486,0.06592 -0.03299,0.06592 -0.01813,0 -0.03299,0.02646 -0.03299,0.05871 0,0.03226 -0.02965,0.08004 -0.06592,0.106167 -0.03632,0.02619 -0.06598,0.07391 -0.06598,0.106232 0,0.03226 -0.01486,0.05865 -0.03299,0.05865 -0.01813,0 -0.03292,0.02639 -0.03292,0.05865 0,0.03225 -0.02973,0.08004 -0.06598,0.106234 -0.03625,0.02612 -0.06592,0.07391 -0.06592,0.106166 0,0.03225 -0.01486,0.05865 -0.03299,0.05865 -0.01813,0 -0.03299,0.02973 -0.03299,0.06598 0,0.03625 -0.01486,0.06592 -0.03299,0.06592 -0.01813,0 -0.03292,0.02973 -0.03292,0.06598 0,0.04392 -0.02199,0.06592 -0.06598,0.06592 -0.03625,0 -0.06592,-0.01479 -0.06592,-0.03292 0,-0.01813 -0.02372,-0.03299 -0.05272,-0.03299 -0.02899,0 -0.0943,-0.04452 -0.145154,-0.0989 -0.05078,-0.05445 -0.112831,-0.09897 -0.137823,-0.09897 -0.02499,0 -0.06684,-0.02965 -0.09297,-0.06592 -0.02613,-0.03625 -0.06764,-0.06598 -0.0923,-0.06598 -0.02459,0 -0.101768,-0.05932 -0.171479,-0.131891 -0.06971,-0.07251 -0.143554,-0.131891 -0.164082,-0.131891 -0.0206,0 -0.124826,-0.08897 -0.231592,-0.197805 -0.106832,-0.108831 -0.21,-0.197869 -0.22926,-0.197869 -0.04598,0 -1.056664,-1.010945 -1.056664,-1.056998 0,-0.01946 -0.07418,-0.107631 -0.164881,-0.195937 -0.09071,-0.0883 -0.164881,-0.177543 -0.164881,-0.19827 0,-0.02072 -0.05932,-0.0947 -0.131891,-0.164414 -0.07251,-0.06972 -0.131892,-0.144221 -0.131892,-0.165548 0,-0.02133 -0.04452,-0.08044 -0.0989,-0.131225 -0.05438,-0.05078 -0.0989,-0.112831 -0.0989,-0.137822 0,-0.02499 -0.02965,-0.06684 -0.06598,-0.09297 -0.03625,-0.02619 -0.06592,-0.06758 -0.06592,-0.0921 0,-0.06032 0.08244,-0.138689 0.146021,-0.138689 0.02853,0 0.05178,-0.01486 0.05178,-0.03299 0,-0.01813 0.02646,-0.03299 0.05865,-0.03299 0.03233,0 0.08011,-0.02965 0.106233,-0.06592 0.02612,-0.03632 0.07391,-0.06598 0.106232,-0.06598 0.03219,0 0.05865,-0.01486 0.05865,-0.03299 0,-0.01813 0.02965,-0.03292 0.06592,-0.03292 0.03625,0 0.06598,-0.01486 0.06598,-0.03299 0,-0.01813 0.0264,-0.03298 0.05865,-0.03298 0.03226,0 0.08004,-0.02965 0.106167,-0.06592 0.02619,-0.03632 0.07397,-0.06598 0.106233,-0.06598 0.03225,0 0.05865,-0.01486 0.05865,-0.03298 0,-0.01813 0.02646,-0.03292 0.05865,-0.03292 0.03233,0 0.0801,-0.02973 0.106232,-0.06598 0.02612,-0.03625 0.07391,-0.06591 0.106234,-0.06591 0.03219,0 0.05865,-0.01486 0.05865,-0.03299 0,-0.01813 0.02965,-0.03299 0.06592,-0.03299 0.03625,0 0.06598,-0.01479 0.06598,-0.03298 0,-0.01813 0.0264,-0.03292 0.05865,-0.03292 0.03226,0 0.08004,-0.02973 0.106166,-0.06598 0.02619,-0.03625 0.06692,-0.06592 0.09064,-0.06592 0.07937,0 0.338026,-0.289508 0.338026,-0.378346 0,-0.04579 0.01486,-0.08331 0.03299,-0.08331 0.0188,0 0.03299,-0.0989 0.03299,-0.230794 0,-0.131891 -0.0142,-0.230792 -0.03299,-0.230792 -0.01813,0 -0.03299,-0.03752 -0.03299,-0.08331 0,-0.09317 -0.260317,-0.378346 -0.345357,-0.378346 -0.02766,0 -0.05031,-0.01479 -0.05031,-0.03299 0,-0.01813 -0.04452,-0.03292 -0.0989,-0.03292 -0.05438,0 -0.0989,-0.01486 -0.0989,-0.03299 0,-0.01813 -0.05938,-0.03299 -0.131891,-0.03299 -0.07258,0 -0.131891,0.01486 -0.131891,0.03299 0,0.01813 -0.05612,0.03299 -0.124628,0.03299 -0.08677,0 -0.139022,0.01999 -0.172145,0.06592 -0.02612,0.03625 -0.07391,0.06598 -0.106233,0.06598 -0.03219,0 -0.05865,0.01479 -0.05865,0.03292 0,0.01819 -0.02965,0.03299 -0.06592,0.03299 -0.03625,0 -0.06598,0.01486 -0.06598,0.03299 0,0.01813 -0.02639,0.03299 -0.05865,0.03299 -0.03225,0 -0.08004,0.02965 -0.106166,0.06592 -0.02619,0.03625 -0.07397,0.06598 -0.106233,0.06598 -0.03225,0 -0.05865,0.01479 -0.05865,0.03292 0,0.01819 -0.02965,0.03299 -0.06598,0.03299 -0.03625,0 -0.06592,0.01486 -0.06592,0.03299 0,0.01813 -0.02639,0.03299 -0.05865,0.03299 -0.03233,0 -0.08011,0.02965 -0.106232,0.06592 -0.02612,0.03625 -0.07391,0.06598 -0.106234,0.06598 -0.03219,0 -0.05865,0.01479 -0.05865,0.03292 0,0.01819 -0.02639,0.03299 -0.05865,0.03299 -0.03225,0 -0.08004,0.02965 -0.106166,0.06598 -0.02619,0.03625 -0.07398,0.06592 -0.106232,0.06592 -0.03226,0 -0.05865,0.01486 -0.05865,0.03299 0,0.01813 -0.02965,0.03299 -0.06598,0.03299 -0.03625,0 -0.06592,0.01479 -0.06592,0.03292 0,0.01819 -0.02846,0.03299 -0.06325,0.03299 -0.03472,0 -0.06931,0.01839 -0.07677,0.04092 -0.01819,0.05445 -0.123761,-0.04878 -0.123761,-0.121028 0,-0.02846 -0.01486,-0.05178 -0.03299,-0.05178 -0.01813,0 -0.03299,-0.02965 -0.03299,-0.06592 0,-0.03632 -0.0148,-0.06598 -0.03292,-0.06598 -0.01819,0 -0.03299,-0.04452 -0.03299,-0.0989 0,-0.05438 -0.01486,-0.0989 -0.03299,-0.0989 -0.01813,0 -0.03299,-0.02973 -0.03299,-0.06598 0,-0.03625 -0.01479,-0.06592 -0.03292,-0.06592 -0.01819,0 -0.03299,-0.02973 -0.03299,-0.06598 0,-0.03625 -0.01486,-0.06592 -0.03299,-0.06592 -0.01813,0 -0.03299,-0.04452 -0.03299,-0.09897 0,-0.05438 -0.01479,-0.0989 -0.03292,-0.0989 -0.01813,0 -0.03299,-0.02965 -0.03299,-0.06592 0,-0.03632 -0.01486,-0.06598 -0.03299,-0.06598 -0.01813,0 -0.03299,-0.04452 -0.03299,-0.0989 0,-0.05438 -0.01479,-0.0989 -0.03292,-0.0989 -0.01813,0 -0.03299,-0.04452 -0.03299,-0.0989 0,-0.05445 -0.01486,-0.09897 -0.03299,-0.09897 -0.01813,0 -0.03299,-0.04452 -0.03299,-0.0989 0,-0.05438 -0.01479,-0.0989 -0.03292,-0.0989 -0.01813,0 -0.03299,-0.04452 -0.03299,-0.0989 0,-0.05445 -0.01486,-0.09897 -0.03299,-0.09897 -0.01813,0 -0.03299,-0.05932 -0.03299,-0.131891 0,-0.07251 -0.01479,-0.131891 -0.03292,-0.131891 -0.01813,0 -0.03299,-0.05932 -0.03299,-0.131891 0,-0.07251 -0.01486,-0.131892 -0.03299,-0.131892 -0.01813,0 -0.03299,-0.05932 -0.03299,-0.131891 0,-0.07251 -0.01479,-0.131891 -0.03292,-0.131891 -0.01813,0 -0.03299,-0.07418 -0.03299,-0.164814 0,-0.09071 -0.01486,-0.164881 -0.03299,-0.164881 -0.01833,0 -0.03299,-0.08797 -0.03299,-0.197871 0,-0.109898 -0.01459,-0.197804 -0.03292,-0.197804 -0.01833,0 -0.03299,-0.08797 -0.03299,-0.197869 0,-0.109899 -0.01467,-0.197805 -0.03299,-0.197805 -0.0198,0 -0.03299,-0.131891 -0.03299,-0.329761 0,-0.197804 -0.01313,-0.329695 -0.03292,-0.329695 -0.01813,0 -0.03299,-0.02965 -0.03299,-0.06598 0,-0.06531 0.02199,-0.06592 2.341055,-0.06592 1.53871,0 2.341054,-0.01132 2.341054,-0.03299 0,-0.01813 0.02965,-0.03299 0.06598,-0.03299 0.03625,0 0.06592,-0.01479 0.06592,-0.03292 0,-0.01813 0.02266,-0.03299 0.05031,-0.03299 0.08504,0 0.345356,-0.285175 0.345356,-0.378346 0,-0.04579 0.01486,-0.08331 0.03299,-0.08331 0.0188,0 0.03299,-0.0989 0.03299,-0.230792 0,-0.131892 -0.0142,-0.230794 -0.03299,-0.230794 -0.01813,0 -0.03299,-0.02965 -0.03299,-0.06598 0,-0.03625 -0.01479,-0.06592 -0.03299,-0.06592 -0.01813,0 -0.03292,-0.02272 -0.03292,-0.05052 0,-0.06572 -0.213531,-0.279178 -0.279178,-0.279178 -0.02779,0 -0.05058,-0.01486 -0.05058,-0.03299 0,-0.01813 -0.05932,-0.03299 -0.131892,-0.03299 -0.07251,0 -0.131892,-0.01486 -0.131892,-0.03299 0,-0.01813 -0.05932,-0.03299 -0.131891,-0.03299 -0.07251,0 -0.131891,0.01486 -0.131891,0.03299 0,0.01813 -0.02965,0.03299 -0.06592,0.03299 -0.03632,0 -0.06598,-0.01486 -0.06598,-0.03299 0,-0.05039 -0.517569,-0.04252 -0.541295,0.0083 -0.01539,0.03299 -0.02305,0.03299 -0.03846,0 -0.01506,-0.03219 -0.407071,-0.04125 -1.797028,-0.04125 -1.163164,0 -1.777768,-0.0114 -1.777768,-0.03292 0,-0.01813 0.01486,-0.03299 0.03299,-0.03299 0.0198,0 0.03292,-0.131891 0.03292,-0.329696 0,-0.197869 0.0132,-0.329761 0.03299,-0.329761 0.01886,0 0.03299,-0.0989 0.03299,-0.230793 0,-0.131891 0.01412,-0.230793 0.03299,-0.230793 0.01813,0 0.03292,-0.07424 0.03292,-0.164881 0,-0.09071 0.01486,-0.164881 0.03299,-0.164881 0.01813,0 0.03299,-0.07418 0.03299,-0.164881 0,-0.09064 0.01486,-0.164814 0.03299,-0.164814 0.01813,0 0.03292,-0.05938 0.03292,-0.131891 0,-0.07258 0.01486,-0.131891 0.03299,-0.131891 0.01813,0 0.03299,-0.05938 0.03299,-0.131892 0,-0.07258 0.01486,-0.131892 0.03299,-0.131892 0.01813,0 0.03292,-0.04452 0.03292,-0.09897 0,-0.05438 0.01486,-0.0989 0.03299,-0.0989 0.01813,0 0.03299,-0.05932 0.03299,-0.131891 0,-0.07251 0.01486,-0.131891 0.03299,-0.131891 0.01813,0 0.03292,-0.04452 0.03292,-0.0989 0,-0.05438 0.01486,-0.0989 0.03299,-0.0989 0.01813,0 0.03299,-0.04452 0.03299,-0.09897 0,-0.05438 0.01486,-0.0989 0.03299,-0.0989 0.01813,0 0.03292,-0.02965 0.03292,-0.06592 0,-0.03632 0.01486,-0.06598 0.03299,-0.06598 0.01813,0 0.03299,-0.04452 0.03299,-0.0989 0,-0.05438 0.01486,-0.0989 0.03299,-0.0989 0.01813,0 0.03292,-0.04452 0.03292,-0.09897 0,-0.05438 0.01486,-0.0989 0.03299,-0.0989 0.01813,0 0.03299,-0.02965 0.03299,-0.06592 0,-0.03632 0.01479,-0.06598 0.03299,-0.06598 0.01813,0 0.03292,-0.02965 0.03292,-0.06592 0,-0.03625 0.01486,-0.06598 0.03299,-0.06598 0.01813,0 0.03299,-0.04452 0.03299,-0.0989 0,-0.05438 0.01479,-0.0989 0.03299,-0.0989 0.01813,0 0.03292,-0.02973 0.03292,-0.06598 0,-0.03625 0.01486,-0.06591 0.03299,-0.06591 0.01813,0 0.03299,-0.02333 0.03299,-0.05186 0,-0.02846 0.02119,-0.07297 0.04712,-0.0989 0.05399,-0.05405 0.150685,-0.06312 0.150685,-0.01412 0,0.01813 0.02973,0.03299 0.06598,0.03299 0.03625,0 0.06592,0.01479 0.06592,0.03292 0,0.01819 0.02646,0.03299 0.05865,0.03299 0.03233,0 0.08011,0.02973 0.106233,0.06598 0.02612,0.03625 0.07391,0.06591 0.106234,0.06591 0.03225,0 0.05865,0.01486 0.05865,0.03299 0,0.01813 0.02965,0.03299 0.06592,0.03299 0.03632,0 0.06598,0.01479 0.06598,0.03292 0,0.01819 0.0264,0.03299 0.05865,0.03299 0.03226,0 0.08004,0.02973 0.106233,0.06598 0.02613,0.03625 0.07391,0.06592 0.106166,0.06592 0.03226,0 0.05865,0.01486 0.05865,0.03299 0,0.01813 0.02973,0.03299 0.06598,0.03299 0.03625,0 0.06592,0.01479 0.06592,0.03292 0,0.01819 0.02646,0.03299 0.05865,0.03299 0.03233,0 0.0801,0.02965 0.106233,0.06598 0.02612,0.03625 0.07391,0.06592 0.106233,0.06592 0.03219,0 0.05865,0.01486 0.05865,0.03299 0,0.01813 0.0264,0.03299 0.05865,0.03299 0.03226,0 0.08004,0.02965 0.106166,0.06592 0.02799,0.03872 0.08537,0.06598 0.139222,0.06598 0.05039,0 0.09163,0.01479 0.09163,0.03292 0,0.01927 0.109899,0.03299 0.263783,0.03299 0.153884,0 0.263782,-0.01373 0.263782,-0.03299 0,-0.01813 0.0264,-0.03292 0.05865,-0.03292 0.03226,0 0.08004,-0.02973 0.106167,-0.06598 0.02619,-0.03625 0.07397,-0.06592 0.106233,-0.06592 0.03425,0 0.05865,-0.0244 0.05865,-0.05865 0,-0.03232 0.02965,-0.0801 0.06598,-0.106233 0.03872,-0.02792 0.06592,-0.08537 0.06592,-0.139155 0,-0.05039 0.01486,-0.09163 0.03299,-0.09163 0.0188,0 0.03299,-0.09897 0.03299,-0.23086 0,-0.131891 -0.0142,-0.230793 -0.03299,-0.230793 -0.01813,0 -0.03299,-0.02965 -0.03299,-0.06592 0,-0.03625 -0.0148,-0.06598 -0.03299,-0.06598 -0.01813,0 -0.03292,-0.02293 -0.03292,-0.05092 0,-0.02806 -0.03646,-0.08737 -0.08098,-0.131891 -0.04452,-0.04452 -0.103834,-0.08098 -0.131892,-0.08098 -0.02799,0 -0.05092,-0.01479 -0.05092,-0.03292 0,-0.01819 -0.02646,-0.03299 -0.05865,-0.03299 -0.03233,0 -0.08011,-0.02965 -0.106233,-0.06598 -0.02612,-0.03625 -0.07391,-0.06592 -0.106233,-0.06592 -0.03219,0 -0.05865,-0.01486 -0.05865,-0.03299 0,-0.01813 -0.0264,-0.03299 -0.05865,-0.03299 -0.03226,0 -0.08004,-0.02965 -0.106233,-0.06592 -0.02613,-0.03625 -0.07391,-0.06598 -0.106166,-0.06598 -0.03225,0 -0.05865,-0.01479 -0.05865,-0.03292 0,-0.01819 -0.02973,-0.03299 -0.06598,-0.03299 -0.03625,0 -0.06592,-0.01486 -0.06592,-0.03299 0,-0.01813 -0.02646,-0.03299 -0.05865,-0.03299 -0.03233,0 -0.08011,-0.02965 -0.106234,-0.06592 -0.02612,-0.03625 -0.07391,-0.06598 -0.106232,-0.06598 -0.03219,0 -0.05865,-0.01479 -0.05865,-0.03292 0,-0.01819 -0.02965,-0.03299 -0.06592,-0.03299 -0.03625,0 -0.06598,-0.01486 -0.06598,-0.03299 0,-0.01813 -0.0264,-0.03299 -0.05865,-0.03299 -0.03226,0 -0.08004,-0.02965 -0.106166,-0.06592 -0.02619,-0.03625 -0.07397,-0.06598 -0.106233,-0.06598 -0.03225,0 -0.05865,-0.01479 -0.05865,-0.03292 0,-0.01819 -0.02965,-0.03299 -0.06598,-0.03299 -0.04125,0 -0.06592,-0.02199 -0.06592,-0.05865 0,-0.03233 0.02965,-0.08011 0.06592,-0.106234 0.03632,-0.02612 0.06598,-0.07064 0.06598,-0.0989 0,-0.02826 0.02965,-0.07278 0.06592,-0.0989 0.03632,-0.02619 0.06598,-0.06805 0.06598,-0.09304 0,-0.02493 0.04452,-0.08697 0.0989,-0.137823 0.05438,-0.05078 0.0989,-0.109632 0.0989,-0.130758 0,-0.02106 0.07418,-0.110632 0.16488,-0.198937 0.09071,-0.08837 0.164882,-0.176477 0.164882,-0.19587 0,-0.04645 1.340772,-1.386826 1.387225,-1.386826 0.01966,0 0.09277,-0.05938 0.162481,-0.131891 0.06972,-0.07251 0.143887,-0.131891 0.164881,-0.131891 0.02093,0 0.0951,-0.05938 0.164814,-0.131892 0.06971,-0.07251 0.146886,-0.131891 0.171545,-0.131891 0.02459,0 0.06611,-0.02965 0.09224,-0.06592 0.02619,-0.03632 0.06805,-0.06598 0.09304,-0.06598 0.02493,0 0.08697,-0.04452 0.137822,-0.0989 0.105967,-0.113497 0.263784,-0.137556 0.263784,-0.04025 0,0.03225 0.02965,0.08004 0.06591,0.106166 0.03625,0.02619 0.06598,0.07391 0.06598,0.106232 0,0.03226 0.0148,0.05865 0.03292,0.05865 0.01813,0 0.03299,0.0264 0.03299,0.05865 0,0.03233 0.02965,0.08004 0.06598,0.106234 0.03625,0.02612 0.06592,0.07391 0.06592,0.106166 0,0.03225 0.01486,0.05865 0.03299,0.05865 0.01813,0 0.03299,0.02973 0.03299,0.06598 0,0.03625 0.01479,0.06592 0.03292,0.06592 0.01813,0 0.03299,0.02646 0.03299,0.05871 0,0.03226 0.02965,0.08004 0.06598,0.106166 0.03625,0.02619 0.06592,0.07391 0.06592,0.106233 0,0.03226 0.01486,0.05865 0.03299,0.05865 0.01813,0 0.03299,0.02965 0.03299,0.06592 0,0.03632 0.01479,0.06598 0.03292,0.06598 0.01813,0 0.03299,0.0264 0.03299,0.05865 0,0.03226 0.02965,0.08004 0.06598,0.106233 0.03625,0.02613 0.06592,0.07391 0.06592,0.106167 0,0.03225 0.01486,0.05865 0.03299,0.05865 0.01813,0 0.03299,0.02266 0.03299,0.05031 0,0.02773 0.06638,0.116764 0.147486,0.19787 0.0811,0.08111 0.170146,0.147487 0.19787,0.147487 0.02765,0 0.05031,0.01486 0.05031,0.03299 0,0.01959 0.120894,0.03299 0.296705,0.03299 0.175878,0 0.296773,-0.01339 0.296773,-0.03299 0,-0.01813 0.02639,-0.03299 0.05865,-0.03299 0.03232,0 0.08004,-0.02965 0.106233,-0.06592 0.02612,-0.03625 0.07391,-0.06598 0.106166,-0.06598 0.03425,0 0.05865,-0.0244 0.05865,-0.05865 0,-0.03225 0.02973,-0.08004 0.06598,-0.106167 0.03872,-0.02793 0.06592,-0.08537 0.06592,-0.139222 0,-0.05039 0.01486,-0.09163 0.03299,-0.09163 0.01833,0 0.03299,-0.08791 0.03299,-0.197803 0,-0.109898 -0.01467,-0.19787 -0.03299,-0.19787 -0.01813,0 -0.03299,-0.04445 -0.03299,-0.0989 0,-0.05438 -0.01479,-0.0989 -0.03292,-0.0989 -0.01813,0 -0.03299,-0.0264 -0.03299,-0.05865 0,-0.03233 -0.02965,-0.08004 -0.06598,-0.106233 -0.03625,-0.02613 -0.06592,-0.07391 -0.06592,-0.106166 0,-0.03226 -0.01486,-0.05871 -0.03299,-0.05871 -0.01813,0 -0.03292,-0.02965 -0.03292,-0.06592 0,-0.03625 -0.01486,-0.06598 -0.03299,-0.06598 -0.01813,0 -0.03299,-0.02639 -0.03299,-0.05865 0,-0.03225 -0.02965,-0.08004 -0.06592,-0.106167 -0.03632,-0.02619 -0.06598,-0.07391 -0.06598,-0.106233 0,-0.03225 -0.01486,-0.05865 -0.03299,-0.05865 -0.01813,0 -0.03292,-0.02965 -0.03292,-0.06592 0,-0.03632 -0.01486,-0.06598 -0.03299,-0.06598 -0.01813,0 -0.03299,-0.0264 -0.03299,-0.05865 0,-0.03225 -0.02965,-0.08004 -0.06592,-0.106232 -0.03632,-0.02613 -0.06598,-0.07391 -0.06598,-0.106166 0,-0.03226 -0.01486,-0.05865 -0.03299,-0.05865 -0.01813,0 -0.03292,-0.02973 -0.03292,-0.06598 0,-0.03625 -0.01486,-0.06592 -0.03299,-0.06592 -0.01813,0 -0.03299,-0.02646 -0.03299,-0.05871 0,-0.03225 -0.02965,-0.08004 -0.06592,-0.106166 -0.03632,-0.02619 -0.06598,-0.06758 -0.06598,-0.0921 0,-0.06032 0.08244,-0.138689 0.146021,-0.138689 0.02853,0 0.05185,-0.01486 0.05185,-0.03299 0,-0.01813 0.02965,-0.03299 0.06592,-0.03299 0.03625,0 0.06598,-0.01486 0.06598,-0.03299 0,-0.01813 0.04445,-0.03292 0.0989,-0.03292 0.05438,0 0.0989,-0.01486 0.0989,-0.03299 0,-0.01813 0.02965,-0.03299 0.06598,-0.03299 0.03625,0 0.06592,-0.01486 0.06592,-0.03299 0,-0.01813 0.04452,-0.03292 0.0989,-0.03292 0.05445,0 0.0989,-0.01486 0.0989,-0.03299 0,-0.01813 0.02973,-0.03299 0.06598,-0.03299 0.03625,0 0.06592,-0.01486 0.06592,-0.03299 0,-0.01813 0.04452,-0.03292 0.09897,-0.03292 0.05438,0 0.0989,-0.01486 0.0989,-0.03299 0,-0.01813 0.04452,-0.03299 0.0989,-0.03299 0.05445,0 0.0989,-0.01486 0.0989,-0.03299 0,-0.01813 0.04452,-0.03292 0.09897,-0.03292 0.05438,0 0.0989,-0.01486 0.0989,-0.03299 0,-0.01813 0.04452,-0.03299 0.0989,-0.03299 0.05445,0 0.0989,-0.01486 0.0989,-0.03299 0,-0.01813 0.04452,-0.03292 0.09897,-0.03292 0.05438,0 0.0989,-0.01486 0.0989,-0.03299 0,-0.01813 0.05932,-0.03299 0.131891,-0.03299 0.07251,0 0.131891,-0.01486 0.131891,-0.03299 0,-0.01813 0.05932,-0.03292 0.131892,-0.03292 0.07251,0 0.131891,-0.01486 0.131891,-0.03299 0,-0.01813 0.05932,-0.03299 0.131891,-0.03299 0.07252,0 0.131892,-0.01486 0.131892,-0.03299 0,-0.01833 0.08791,-0.03292 0.197803,-0.03292 0.109898,0 0.197871,-0.01467 0.197871,-0.03299 0,-0.01813 0.07418,-0.03299 0.16488,-0.03299 0.09064,0 0.164815,-0.01486 0.164815,-0.03299 0,-0.01919 0.109898,-0.03292 0.263783,-0.03292 0.153884,0 0.263782,-0.0138 0.263782,-0.03299 0,-0.01926 0.109899,-0.03299 0.263783,-0.03299 h 0.263782 z m -1.780499,4.022653 c 0,0.01813 -0.03759,0.03299 -0.08351,0.03299 -0.0929,0 -0.312168,0.19607 -0.312168,0.279178 0,0.02779 -0.01486,0.05052 -0.03299,0.05052 -0.01813,0 -0.03299,0.02973 -0.03299,0.06598 0,0.03625 -0.01479,0.06592 -0.03292,0.06592 -0.01927,0 -0.03299,0.109898 -0.03299,0.263782 0,0.153884 0.01373,0.263783 0.03299,0.263783 0.01813,0 0.03292,0.04452 0.03292,0.0989 0,0.05445 0.01486,0.09897 0.03299,0.09897 0.01813,0 0.03299,0.02965 0.03299,0.06592 0,0.03625 0.01486,0.06598 0.03299,0.06598 0.01813,0 0.03292,0.02965 0.03292,0.06592 0,0.03625 0.01486,0.06598 0.03299,0.06598 0.01813,0 0.03299,0.02965 0.03299,0.06592 0,0.03625 0.01486,0.06598 0.03299,0.06598 0.01813,0 0.03292,0.02965 0.03292,0.06592 0,0.03625 0.01486,0.06598 0.03299,0.06598 0.01813,0 0.03299,0.04452 0.03299,0.0989 0,0.05438 0.01486,0.0989 0.03299,0.0989 0.01813,0 0.03292,0.02965 0.03292,0.06598 0,0.03625 0.01486,0.06592 0.03299,0.06592 0.01813,0 0.03299,0.02965 0.03299,0.06598 0,0.03625 0.01486,0.06592 0.03299,0.06592 0.01813,0 0.03292,0.02965 0.03292,0.06598 0,0.03625 0.01486,0.06592 0.03299,0.06592 0.01813,0 0.03299,0.02965 0.03299,0.06598 0,0.03625 0.01486,0.06592 0.03299,0.06592 0.01813,0 0.03292,0.02965 0.03292,0.06598 0,0.03625 0.01486,0.06592 0.03299,0.06592 0.01813,0 0.03299,0.02965 0.03299,0.06598 0,0.03625 0.01486,0.06592 0.03299,0.06592 0.01813,0 0.03292,0.04452 0.03292,0.0989 0,0.05445 0.01486,0.09897 0.03299,0.09897 0.01813,0 0.03299,0.02965 0.03299,0.06592 0,0.03625 0.01479,0.06598 0.03299,0.06598 0.01813,0 0.03292,0.02965 0.03292,0.06592 0,0.03625 0.01486,0.06598 0.03299,0.06598 0.01813,0 0.03299,0.02965 0.03299,0.06592 0,0.03625 0.01479,0.06598 0.03299,0.06598 0.01813,0 0.03292,0.04452 0.03292,0.0989 0,0.05438 0.01486,0.0989 0.03299,0.0989 0.01813,0 0.03299,0.02965 0.03299,0.06598 0,0.03625 0.0148,0.06592 0.03299,0.06592 0.01813,0 0.03292,0.02965 0.03292,0.06598 0,0.03625 0.01486,0.06592 0.03299,0.06592 0.01813,0 0.03299,0.02965 0.03299,0.06598 0,0.03625 0.01479,0.06592 0.03299,0.06592 0.01813,0 0.03292,0.02965 0.03292,0.06598 0,0.03625 0.01486,0.06592 0.03299,0.06592 0.01813,0 0.03299,0.02965 0.03299,0.06598 0,0.03625 0.0148,0.06592 0.03299,0.06592 0.01813,0 0.03292,0.04452 0.03292,0.0989 0,0.05445 0.01486,0.09897 0.03299,0.09897 0.01813,0 0.03299,0.02965 0.03299,0.06592 0,0.03625 0.01479,0.06598 0.03299,0.06598 0.01813,0 0.03292,0.02965 0.03292,0.06592 0,0.03625 0.01486,0.06598 0.03299,0.06598 0.01813,0 0.03299,0.02965 0.03299,0.06592 0,0.03625 0.01479,0.06598 0.03299,0.06598 0.01813,0 0.03292,0.02965 0.03292,0.06592 0,0.03625 0.01486,0.06598 0.03299,0.06598 0.01813,0 0.03299,0.04445 0.03299,0.0989 0,0.05438 0.01479,0.0989 0.03299,0.0989 0.01813,0 0.03292,0.02965 0.03292,0.06598 0,0.03625 0.01486,0.06592 0.03299,0.06592 0.01813,0 0.03299,0.02965 0.03299,0.06592 0,0.03632 0.01479,0.06598 0.03299,0.06598 0.01813,0 0.03292,0.02965 0.03292,0.06592 0,0.03632 0.01486,0.06598 0.03299,0.06598 0.01813,0 0.03299,0.04452 0.03299,0.0989 0,0.05445 0.01479,0.0989 0.03299,0.0989 0.07331,0 0.02973,0.174412 -0.06598,0.263784 -0.05438,0.05085 -0.0989,0.110165 -0.0989,0.131891 0,0.02172 -0.04452,0.08111 -0.0989,0.131891 -0.05445,0.05085 -0.09897,0.112897 -0.09897,0.137822 0,0.02506 -0.02965,0.06684 -0.06592,0.09304 -0.03625,0.02613 -0.06598,0.06798 -0.06598,0.09297 0,0.02493 -0.04452,0.08703 -0.0989,0.137822 -0.05438,0.05078 -0.0989,0.112831 -0.0989,0.137823 0,0.02499 -0.02965,0.06684 -0.06598,0.09297 -0.03625,0.02612 -0.06592,0.06798 -0.06592,0.09297 0,0.02499 -0.04452,0.08704 -0.0989,0.137823 -0.05445,0.05086 -0.09897,0.112898 -0.09897,0.137823 0,0.02499 -0.02965,0.06684 -0.06592,0.09304 -0.03625,0.02613 -0.06598,0.06798 -0.06598,0.09297 0,0.02493 -0.04452,0.08697 -0.0989,0.137823 -0.05438,0.05078 -0.0989,0.11283 -0.0989,0.137822 0,0.02499 -0.02965,0.06684 -0.06598,0.09297 -0.03625,0.02613 -0.06592,0.06798 -0.06592,0.09297 0,0.02499 -0.04452,0.08703 -0.0989,0.137822 -0.05445,0.05086 -0.09897,0.112899 -0.09897,0.137823 0,0.02499 -0.02965,0.06684 -0.06592,0.09304 -0.03625,0.02612 -0.06598,0.06798 -0.06598,0.09297 0,0.02493 -0.04445,0.08697 -0.0989,0.137823 -0.05438,0.05078 -0.0989,0.110165 -0.0989,0.131891 0,0.02172 -0.04452,0.08104 -0.0989,0.131891 -0.05445,0.05078 -0.09897,0.112831 -0.09897,0.137823 0,0.02499 -0.02965,0.06684 -0.06592,0.09297 -0.03625,0.02613 -0.06598,0.07064 -0.06598,0.0989 0,0.02826 -0.02965,0.07278 -0.06592,0.09897 -0.03625,0.02612 -0.06598,0.07391 -0.06598,0.106166 0,0.03225 -0.01479,0.05865 -0.03292,0.05865 -0.0198,0 -0.03299,0.131892 -0.03299,0.329762 0,0.197804 0.0132,0.329695 0.03299,0.329695 0.01813,0 0.03292,0.02279 0.03292,0.05058 0,0.06565 0.213532,0.279178 0.279178,0.279178 0.02785,0 0.05058,0.01479 0.05058,0.03292 0,0.01819 0.02966,0.03299 0.06592,0.03299 0.03632,0 0.06598,0.01486 0.06598,0.03299 0,0.0188 0.0989,0.03299 0.230793,0.03299 0.131891,0 0.230793,-0.0142 0.230793,-0.03299 0,-0.01813 0.03739,-0.03299 0.08311,-0.03299 0.05818,0 0.146886,-0.06391 0.296706,-0.213666 0.117562,-0.117562 0.213732,-0.232992 0.213732,-0.256518 0,-0.02352 0.02965,-0.06418 0.06592,-0.0903 0.03632,-0.02619 0.06598,-0.06805 0.06598,-0.09304 0,-0.02493 0.04452,-0.08697 0.0989,-0.137822 0.05438,-0.05078 0.0989,-0.112831 0.0989,-0.137823 0,-0.02499 0.02973,-0.06684 0.06598,-0.09297 0.03625,-0.02613 0.06592,-0.06798 0.06592,-0.09297 0,-0.02499 0.04452,-0.08704 0.09897,-0.137823 0.05438,-0.05086 0.0989,-0.112897 0.0989,-0.137823 0,-0.02499 0.02965,-0.06684 0.06592,-0.09297 0.03632,-0.02619 0.06598,-0.06804 0.06598,-0.09304 0,-0.02493 0.04452,-0.08697 0.0989,-0.137823 0.05438,-0.05078 0.0989,-0.112831 0.0989,-0.137823 0,-0.02499 0.02973,-0.06684 0.06598,-0.09297 0.03625,-0.02613 0.06592,-0.06798 0.06592,-0.09297 0,-0.02499 0.04452,-0.08703 0.09897,-0.137822 0.05438,-0.05086 0.0989,-0.110165 0.0989,-0.131892 0,-0.02172 0.04452,-0.08111 0.0989,-0.131891 0.05438,-0.05086 0.0989,-0.112897 0.0989,-0.137822 0,-0.02499 0.02973,-0.06684 0.06598,-0.09297 0.03625,-0.02619 0.06592,-0.06805 0.06592,-0.09304 0,-0.02493 0.04452,-0.08697 0.09897,-0.137823 0.05438,-0.05078 0.0989,-0.112831 0.0989,-0.137823 0,-0.02499 0.02965,-0.06684 0.06592,-0.09297 0.03625,-0.02613 0.06598,-0.06798 0.06598,-0.09297 0,-0.02499 0.04452,-0.08704 0.0989,-0.137823 0.05438,-0.05085 0.0989,-0.110165 0.0989,-0.131892 0,-0.02172 0.04452,-0.08111 0.0989,-0.131891 0.05445,-0.05085 0.09897,-0.112897 0.09897,-0.137823 0,-0.02499 0.02965,-0.06684 0.06592,-0.09297 0.03625,-0.02619 0.06598,-0.07071 0.06598,-0.09897 0,-0.02826 0.02965,-0.07271 0.06592,-0.0989 0.03625,-0.02613 0.06598,-0.07391 0.06598,-0.106167 0,-0.03226 0.01479,-0.05871 0.03292,-0.05871 0.01819,0 0.03299,-0.04445 0.03299,-0.0989 0,-0.05438 0.01486,-0.0989 0.03298,-0.0989 0.01813,0 0.03299,-0.07418 0.03299,-0.16488 0,-0.09064 -0.01486,-0.164881 -0.03299,-0.164881 -0.01813,0 -0.03298,-0.04445 -0.03298,-0.0989 0,-0.05438 -0.01479,-0.0989 -0.03299,-0.0989 -0.01813,0 -0.03292,-0.02965 -0.03292,-0.06598 0,-0.03625 -0.01486,-0.06592 -0.03299,-0.06592 -0.01813,0 -0.03298,-0.02965 -0.03298,-0.06598 0,-0.03625 -0.01479,-0.06592 -0.03299,-0.06592 -0.01813,0 -0.03292,-0.02965 -0.03292,-0.06592 0,-0.03632 -0.01486,-0.06598 -0.03299,-0.06598 -0.01813,0 -0.03299,-0.04125 -0.03299,-0.09163 0,-0.05378 -0.02719,-0.111232 -0.06592,-0.139156 -0.03872,-0.02793 -0.06598,-0.08537 -0.06598,-0.139222 0,-0.05039 -0.0148,-0.09157 -0.03299,-0.09157 -0.01813,0 -0.03292,-0.02973 -0.03292,-0.06598 0,-0.03625 -0.01486,-0.06592 -0.03299,-0.06592 -0.01813,0 -0.03299,-0.04452 -0.03299,-0.09897 0,-0.05438 -0.0148,-0.0989 -0.03299,-0.0989 -0.01813,0 -0.03292,-0.02965 -0.03292,-0.06592 0,-0.03632 -0.01486,-0.06598 -0.03299,-0.06598 -0.01813,0 -0.03299,-0.02965 -0.03299,-0.06592 0,-0.03632 -0.01479,-0.06598 -0.03299,-0.06598 -0.01813,0 -0.03292,-0.02965 -0.03292,-0.06592 0,-0.03632 -0.01486,-0.06598 -0.03299,-0.06598 -0.01813,0 -0.03298,-0.02965 -0.03298,-0.06592 0,-0.03632 -0.01479,-0.06598 -0.03299,-0.06598 -0.01813,0 -0.03292,-0.04452 -0.03292,-0.0989 0,-0.05438 -0.01486,-0.0989 -0.03299,-0.0989 -0.01813,0 -0.03299,-0.02973 -0.03299,-0.06598 0,-0.03625 -0.01479,-0.06592 -0.03292,-0.06592 -0.01819,0 -0.03299,-0.02973 -0.03299,-0.06598 0,-0.03625 -0.01486,-0.06592 -0.03299,-0.06592 -0.01813,0 -0.03299,-0.02973 -0.03299,-0.06598 0,-0.03625 -0.01479,-0.06592 -0.03292,-0.06592 -0.01819,0 -0.03299,-0.02973 -0.03299,-0.06598 0,-0.03625 -0.01486,-0.06592 -0.03299,-0.06592 -0.01813,0 -0.03299,-0.02973 -0.03299,-0.06598 0,-0.03625 -0.01479,-0.06592 -0.03292,-0.06592 -0.01819,0 -0.03298,-0.04452 -0.03298,-0.09897 0,-0.05438 -0.01486,-0.0989 -0.03299,-0.0989 -0.01813,0 -0.03299,-0.02965 -0.03299,-0.06592 0,-0.03632 -0.01479,-0.06598 -0.03292,-0.06598 -0.01819,0 -0.03298,-0.02965 -0.03298,-0.06592 0,-0.03632 -0.01486,-0.06598 -0.03299,-0.06598 -0.01813,0 -0.03299,-0.02965 -0.03299,-0.06592 0,-0.03632 -0.01479,-0.06598 -0.03292,-0.06598 -0.01819,0 -0.03299,-0.04452 -0.03299,-0.0989 0,-0.05438 -0.01486,-0.0989 -0.03298,-0.0989 -0.01813,0 -0.03299,-0.02973 -0.03299,-0.06598 0,-0.03625 -0.01479,-0.06592 -0.03292,-0.06592 -0.01819,0 -0.03299,-0.02973 -0.03299,-0.06598 0,-0.03625 -0.01486,-0.06592 -0.03299,-0.06592 -0.01813,0 -0.03298,-0.02973 -0.03298,-0.06598 0,-0.03625 -0.01479,-0.06592 -0.03292,-0.06592 -0.01819,0 -0.03299,-0.02973 -0.03299,-0.06598 0,-0.03625 -0.01486,-0.06592 -0.03299,-0.06592 -0.01813,0 -0.03298,-0.02973 -0.03298,-0.06598 0,-0.03625 -0.01479,-0.06592 -0.03292,-0.06592 -0.01819,0 -0.03299,-0.02973 -0.03299,-0.06598 0,-0.03625 -0.01486,-0.06592 -0.03299,-0.06592 -0.01813,0 -0.03299,-0.04452 -0.03299,-0.09897 0,-0.05438 -0.01479,-0.0989 -0.03292,-0.0989 -0.01819,0 -0.03299,-0.02965 -0.03299,-0.06592 0,-0.03625 -0.01486,-0.06598 -0.03299,-0.06598 -0.01813,0 -0.03299,-0.02965 -0.03299,-0.06592 0,-0.03625 -0.01479,-0.06598 -0.03292,-0.06598 -0.01819,0 -0.03299,-0.02965 -0.03299,-0.06592 0,-0.03625 -0.01486,-0.06598 -0.03299,-0.06598 -0.01813,0 -0.03299,-0.02965 -0.03299,-0.06591 0,-0.03625 -0.0148,-0.06598 -0.03292,-0.06598 -0.01819,0 -0.03299,-0.04452 -0.03299,-0.0989 0,-0.05438 -0.01486,-0.0989 -0.03299,-0.0989 -0.01813,0 -0.03299,-0.02279 -0.03299,-0.05059 0,-0.06565 -0.213533,-0.279178 -0.279179,-0.279178 -0.02779,0 -0.05051,-0.01479 -0.05051,-0.03292 0,-0.01819 -0.02965,-0.03299 -0.06598,-0.03299 -0.03625,0 -0.06592,-0.01486 -0.06592,-0.03299 0,-0.01919 -0.109898,-0.03299 -0.263783,-0.03299 -0.153884,0 -0.263782,0.01379 -0.263782,0.03299 z M 1.5785723,27.709103 c 0,0.01813 -0.044513,0.03299 -0.098918,0.03299 -0.054407,0 -0.098918,0.01486 -0.098918,0.03299 0,0.01813 -0.02275,0.03292 -0.050547,0.03292 -0.065649,0 -0.2791803,0.213532 -0.2791803,0.279244 0,0.02779 -0.014837,0.05052 -0.032973,0.05052 -0.0181347,0 -0.0329728,0.04452 -0.0329728,0.0989 0,0.05445 -0.014838,0.0989 -0.0329728,0.0989 -0.0181347,0 -0.0329728,0.07424 -0.0329728,0.164882 0,0.09071 0.014838,0.16488 0.0329728,0.16488 0.0181347,0 0.0329728,0.04125 0.0329728,0.09164 0,0.05378 0.0272356,0.111232 0.0659456,0.139156 0.03627,0.02619 0.065945,0.06718 0.065945,0.09124 0,0.06018 0.1505208,0.205534 0.2128389,0.205534 0.028027,0 0.050942,0.01486 0.050942,0.03299 0,0.01813 0.059351,0.03292 0.1318914,0.03292 0.072543,0 0.1318938,0.01486 0.1318938,0.03299 0,0.02186 2.2201469,0.03299 6.5945335,0.03299 4.3744076,0 6.5945666,-0.01113 6.5945666,-0.03299 0,-0.01813 0.05932,-0.03299 0.131892,-0.03299 0.07251,0 0.131891,-0.01479 0.131891,-0.03292 0,-0.01813 0.02293,-0.03299 0.05092,-0.03299 0.06232,0 0.212865,-0.145353 0.212865,-0.205534 0,-0.02406 0.02965,-0.06505 0.06592,-0.09124 0.03872,-0.02793 0.06598,-0.08537 0.06598,-0.139156 0,-0.05039 0.01479,-0.09164 0.03292,-0.09164 0.01819,0 0.03299,-0.07418 0.03299,-0.16488 0,-0.09064 -0.0148,-0.164882 -0.03299,-0.164882 -0.01813,0 -0.03292,-0.04445 -0.03292,-0.0989 0,-0.05438 -0.01486,-0.0989 -0.03299,-0.0989 -0.01813,0 -0.03299,-0.02273 -0.03299,-0.05052 0,-0.06571 -0.213532,-0.279244 -0.279178,-0.279244 -0.02779,0 -0.05052,-0.0148 -0.05052,-0.03292 0,-0.01813 -0.04452,-0.03299 -0.09897,-0.03299 -0.05438,0 -0.0989,-0.01486 -0.0989,-0.03299 0,-0.02186 -2.242153,-0.03299 -6.6604793,-0.03299 -4.41834,0 -6.6604818,0.01113 -6.6604818,0.03299 z m 4.7480713,4.022719 c 0,0.01813 -0.029682,0.03292 -0.065944,0.03292 -0.036271,0 -0.065944,0.01486 -0.065944,0.03299 0,0.01813 -0.022752,0.03299 -0.050543,0.03299 -0.06565,0 -0.2791837,0.213532 -0.2791837,0.279178 0,0.02779 -0.014832,0.05052 -0.032967,0.05052 -0.018136,0 -0.032977,0.05938 -0.032977,0.131891 0,0.07258 -0.014832,0.131891 -0.032967,0.131891 -0.018136,0 -0.032977,0.04452 -0.032977,0.0989 0,0.05445 0.014841,0.09897 0.032977,0.09897 0.018136,0 0.032967,0.04452 0.032967,0.0989 0,0.05438 0.014841,0.0989 0.032977,0.0989 0.018136,0 0.032967,0.02266 0.032967,0.05031 0,0.06545 0.2799042,0.345357 0.345356,0.345357 0.027662,0 0.050314,0.01486 0.050314,0.03298 0,0.0218 1.7035777,0.03299 5.0448471,0.03299 3.341204,0 5.044794,-0.0112 5.044794,-0.03299 0,-0.01813 0.02965,-0.03298 0.06598,-0.03298 0.03625,0 0.06592,-0.01479 0.06592,-0.03299 0,-0.01813 0.02965,-0.03292 0.06598,-0.03292 0.03846,0 0.06592,-0.02199 0.06592,-0.05272 0,-0.02899 0.04452,-0.0943 0.0989,-0.145154 0.07451,-0.06958 0.09897,-0.121694 0.09897,-0.211066 0,-0.06525 0.01479,-0.118628 0.03292,-0.118628 0.01813,0 0.03299,-0.05938 0.03299,-0.131892 0,-0.07258 -0.01486,-0.131892 -0.03299,-0.131892 -0.01813,0 -0.03292,-0.04452 -0.03292,-0.09897 0,-0.05438 -0.01486,-0.0989 -0.03299,-0.0989 -0.01813,0 -0.03299,-0.02273 -0.03299,-0.05052 0,-0.06565 -0.213532,-0.279178 -0.279179,-0.279178 -0.02779,0 -0.05052,-0.01486 -0.05052,-0.03299 0,-0.01813 -0.02973,-0.03299 -0.06598,-0.03299 -0.03625,0 -0.06592,-0.01479 -0.06592,-0.03292 0,-0.02186 -1.681597,-0.03299 -4.978881,-0.03299 -3.2972835,0 -4.9789011,0.01113 -4.9789011,0.03299 z m 3.4291945,4.022653 c 0,0.01813 -0.02266,0.03299 -0.050314,0.03299 -0.065512,0 -0.3453568,0.279845 -0.3453568,0.345357 0,0.02766 -0.014859,0.05031 -0.032986,0.05031 -0.018126,0 -0.032986,0.02965 -0.032986,0.06592 0,0.03625 -0.014859,0.06598 -0.032995,0.06598 -0.018328,0 -0.032921,0.08791 -0.032921,0.197804 0,0.109899 0.014593,0.197804 0.032921,0.197804 0.018126,0 0.032995,0.04125 0.032995,0.09164 0,0.05385 0.027259,0.111298 0.06598,0.139222 0.036253,0.02612 0.065916,0.07391 0.065916,0.106167 0,0.03425 0.024395,0.05865 0.058647,0.05865 0.032325,0 0.080041,0.02973 0.1062323,0.06598 0.02612,0.03625 0.07391,0.06592 0.106167,0.06592 0.032251,0 0.058712,0.01486 0.058712,0.03298 0,0.02186 1.5277144,0.03299 4.5172294,0.03299 2.989515,0 4.517295,-0.01113 4.517295,-0.03299 0,-0.01813 0.02965,-0.03298 0.06592,-0.03298 0.03625,0 0.06598,-0.01479 0.06598,-0.03292 0,-0.01813 0.02286,-0.03299 0.05092,-0.03299 0.06598,0 0.212798,-0.146887 0.212798,-0.212866 0,-0.02799 0.01486,-0.05092 0.03299,-0.05092 0.01813,0 0.033,-0.02965 0.033,-0.06598 0,-0.03625 0.01486,-0.06592 0.03299,-0.06592 0.01919,0 0.03299,-0.109899 0.03299,-0.263783 0,-0.153884 -0.01379,-0.263782 -0.03299,-0.263782 -0.01813,0 -0.03299,-0.02965 -0.03299,-0.06592 0,-0.03632 -0.01486,-0.06598 -0.033,-0.06598 -0.01813,0 -0.03299,-0.02293 -0.03299,-0.05092 0,-0.06598 -0.14682,-0.212866 -0.212798,-0.212866 -0.02806,0 -0.05092,-0.01486 -0.05092,-0.03299 0,-0.01813 -0.02973,-0.03292 -0.06598,-0.03292 -0.03625,0 -0.06592,-0.01486 -0.06592,-0.03298 0,-0.02186 -1.52778,-0.03299 -4.517295,-0.03299 -2.989515,0 -4.5172294,0.01113 -4.5172294,0.03299 z"
     fill="#eaae13"
     id="path2"
     style="stroke-width:0.666454" />
</svg>
